<svg xmlns="http://www.w3.org/2000/svg" viewBox="0 0 767.67 245.97"><defs><style>.cls-1,.cls-2{fill:#fff;stroke:#fff;stroke-miterlimit:10;}.cls-1{stroke-width:5.53px;}</style></defs><title>logo_1</title><g id="Layer_2" data-name="Layer 2"><g id="Layer_3" data-name="Layer 3"><path class="cls-1" d="M63.07,39.44,34,191.09H5.92l29-151.65Z" transform="translate(-2.57 -34.87)"/><path class="cls-1" d="M82.87,41.46a195.39,195.39,0,0,1,30.38-2.7c10.13,0,25.43,2,34.65,12.15,6.53,7,9.45,18,9.45,26.1a61.54,61.54,0,0,1-19.58,45.45c-10.58,9-25.65,13.28-38.25,13.28-2.48,0-5,0-7.2-.23L81.74,191.09H54.29Zm14,70.88a43.43,43.43,0,0,0,5.4.22C122.69,112.56,129,92.31,129,79c0-10.12-4.73-17.33-15.75-17.33a27.14,27.14,0,0,0-6.75.67Z" transform="translate(-2.57 -34.87)"/><path class="cls-1" d="M177.14,41.46a195.39,195.39,0,0,1,30.38-2.7c10.13,0,25.43,2,34.65,12.15,6.53,7,9.45,18,9.45,26.1A61.54,61.54,0,0,1,232,122.47c-10.58,9-25.65,13.28-38.25,13.28-2.48,0-5,0-7.2-.23L176,191.09H148.56Zm14,70.88a43.43,43.43,0,0,0,5.4.22c20.48,0,26.78-20.25,26.78-33.53,0-10.12-4.73-17.33-15.75-17.33a27.14,27.14,0,0,0-6.75.67Z" transform="translate(-2.57 -34.87)"/><path class="cls-1" d="M348.81,85.79c0,32.18-10.58,72.68-30.6,92.7-9.45,9.45-20.25,14.4-33.53,14.4-32.85,0-37.58-32.85-37.58-49.5,0-30.83,10.58-71.33,31.5-91.8,9-8.77,20-14,33.3-14C344.76,37.64,348.81,67.79,348.81,85.79ZM298,67.11c-14,14.18-21.83,56.48-21.83,79,0,8.55,1.13,22.05,12.83,22.05a12.91,12.91,0,0,0,9.23-4.5c15.08-14.85,21.6-63.68,21.6-80.1,0-9.68-1.35-21.15-11.7-21.15Q302.69,62.39,298,67.11Z" transform="translate(-2.57 -34.87)"/><path class="cls-1" d="M344.31,191.09l29-151.65H399l11.7,60.3c3.83,20,6.3,34.43,7.42,47h.45c2-16.65,4.73-42.75,9.45-68l7.42-39.38h24.3l-29,151.65H406.63l-12.15-56.48a312,312,0,0,1-7.65-50.4h-.45c-2,15.3-5.4,40.28-10.35,66.6l-7.65,40.28Z" transform="translate(-2.57 -34.87)"/><path class="cls-1" d="M534.43,186.82a83.43,83.43,0,0,1-29.93,5.63c-18,0-29-5.85-36.9-15.75-7.42-9.23-11.25-24.08-11.25-37.8,0-31.28,10.35-60.53,28.58-79.88a67.69,67.69,0,0,1,49.28-20.93c12.6,0,19.58,2.25,24.08,4l-9,24.75a45.25,45.25,0,0,0-16.43-3.15c-10.35,0-18.23,3.38-25.2,10.13-12.38,12.38-21.6,36.45-21.6,64.58,0,18.9,6.08,29.7,18.23,29.7a29.76,29.76,0,0,0,8.1-.9l7-37.58H505.63l4.73-22.73h39.15Z" transform="translate(-2.57 -34.87)"/><path class="cls-1" d="M564.35,191.09l11-58.05-14.85-93.6h30.15l3.15,36.23C595,92.09,595,102,595,108.06h.45c3.38-9.45,7-19.35,12.15-30.6l17.55-38h29.48l-51.3,93.83-10.8,57.83Z" transform="translate(-2.57 -34.87)"/><path class="cls-1" d="M722.76,191.09l8.1-59.4c1.58-12.38,4.5-28.8,8.1-48.6h-.9c-6.53,19.8-13.5,37.35-18,47.7l-24.75,57.83h-20l-2.7-58.5c-.45-10.13-1.12-27.23-.67-47h-.45c-3.83,19.8-7.2,36.23-10.35,48.6l-14,59.4h-24.3L661.33,39.44h29.93l2.7,72c.45,11.25.9,27,.45,38h.45c2.92-11,8.78-26.55,13.28-38l29-72h29.93l-19.8,151.65Z" transform="translate(-2.57 -34.87)"/><path class="cls-2" d="M9.06,205.83h5.5L9.81,230.69H17l-.92,4.8H3.38Z" transform="translate(-2.57 -34.87)"/><path class="cls-2" d="M45.14,228.58l-2.6,6.91H37.17l12-29.66h6.42l.26,29.66H50.55l.09-6.91Zm5.68-4,.13-6.56c0-1.8.22-4.93.26-7.17h-.09c-.7,2.24-1.67,5.5-2.29,7.13l-2.38,6.6Z" transform="translate(-2.57 -34.87)"/><path class="cls-2" d="M79.24,229.85a8.5,8.5,0,0,0,4.09,1c2.51.09,4.27-1.45,4.27-3.78,0-2-1.1-3.12-2.95-5-2.33-2.2-3.52-4.58-3.52-7.17,0-5.5,3.87-9.37,9.68-9.37a8.74,8.74,0,0,1,4.44.92l-1.5,4.75a6.31,6.31,0,0,0-3.21-.79,3.7,3.7,0,0,0-4,3.79c0,1.41.57,2.51,2.95,4.62A9.72,9.72,0,0,1,93.1,226c0,6.16-4.09,9.77-9.73,9.77a11.5,11.5,0,0,1-5.54-1.1Z" transform="translate(-2.57 -34.87)"/><path class="cls-2" d="M146.6,205.83H159l-1,4.84h-6.82l-1.54,7.88h6.47l-.88,4.62h-6.42l-2.38,12.32h-5.54Z" transform="translate(-2.57 -34.87)"/><path class="cls-2" d="M188.58,205.83l-3.7,19.27a17,17,0,0,0-.4,3.26c0,1.72.84,2.6,2.2,2.6,1.76,0,2.95-1.23,3.78-5.63l3.74-19.49h5.5l-3.56,18.7c-1.36,7.17-4.14,11.31-10.08,11.31-4.84,0-7-2.64-7-7a29.57,29.57,0,0,1,.53-4.66L183,205.83Z" transform="translate(-2.57 -34.87)"/><path class="cls-2" d="M233.42,222.37H226.9l-1.63,8.23h7.48l-1,4.88H218.85l5.68-29.66h12.41l-1,4.84h-6.82l-1.45,7h6.65Z" transform="translate(-2.57 -34.87)"/><path class="cls-2" d="M255.68,235.49l5.68-29.66h5l2.29,11.79c.75,3.92,1.23,6.73,1.45,9.2h.09c.4-3.26.92-8.36,1.85-13.29l1.45-7.7h4.75l-5.68,29.66h-4.71l-2.38-11a61,61,0,0,1-1.5-9.86h-.09c-.4,3-1.06,7.88-2,13l-1.5,7.88Z" transform="translate(-2.57 -34.87)"/><path class="cls-2" d="M304.91,211h-5.15l1-5.19h15.8l-1,5.19h-5.15l-4.66,24.47h-5.5Z" transform="translate(-2.57 -34.87)"/><path class="cls-2" d="M348.25,222.37h-6.51l-1.63,8.23h7.48l-1,4.88H333.69l5.68-29.66h12.41l-1,4.84H344l-1.45,7h6.65Z" transform="translate(-2.57 -34.87)"/><path class="cls-2" d="M371.13,229.85a8.5,8.5,0,0,0,4.09,1c2.51.09,4.27-1.45,4.27-3.78,0-2-1.1-3.12-2.95-5-2.33-2.2-3.52-4.58-3.52-7.17,0-5.5,3.87-9.37,9.68-9.37a8.74,8.74,0,0,1,4.44.92l-1.5,4.75a6.31,6.31,0,0,0-3.21-.79,3.7,3.7,0,0,0-4,3.79c0,1.41.57,2.51,2.95,4.62A9.72,9.72,0,0,1,385,226c0,6.16-4.09,9.77-9.73,9.77a11.5,11.5,0,0,1-5.54-1.1Z" transform="translate(-2.57 -34.87)"/><path class="cls-2" d="M457.37,231.92l13-21.08v-.09H462.3l1-4.93h14.17l-.84,4.49-12.45,20.16v.09h8.58l-1,4.93h-15Z" transform="translate(-2.57 -34.87)"/><path class="cls-2" d="M501.24,228.58l-2.6,6.91h-5.37l12-29.66h6.42l.26,29.66h-5.32l.09-6.91Zm5.68-4L507,218c0-1.8.22-4.93.26-7.17h-.09c-.7,2.24-1.67,5.5-2.29,7.13l-2.38,6.6Z" transform="translate(-2.57 -34.87)"/><path class="cls-2" d="M540.44,206.22a36.73,36.73,0,0,1,5.9-.53c2.55,0,5,.48,6.56,2a6.81,6.81,0,0,1,1.94,4.88,9.31,9.31,0,0,1-6,9v.09c1.63.75,2.33,2.46,2.42,5.76a59.44,59.44,0,0,0,.48,8.05h-5.54c-.13-.84-.22-3.83-.22-7.08,0-3.61-.75-4.8-2.6-4.8h-.92l-2.2,11.88h-5.37Zm2.86,13.11h1.28c2.77,0,4.62-2.95,4.62-6.07,0-1.58-.66-3.26-2.73-3.26a6.54,6.54,0,0,0-1.45.13Z" transform="translate(-2.57 -34.87)"/><path class="cls-2" d="M580.75,228.58l-2.6,6.91h-5.37l12-29.66h6.42l.26,29.66h-5.32l.09-6.91Zm5.68-4,.13-6.56c0-1.8.22-4.93.26-7.17h-.09c-.7,2.24-1.67,5.5-2.29,7.13l-2.38,6.6Z" transform="translate(-2.57 -34.87)"/><path class="cls-2" d="M630.12,234.65a16.33,16.33,0,0,1-5.85,1.1c-3.52,0-5.68-1.14-7.22-3.08a12.36,12.36,0,0,1-2.2-7.39c0-6.12,2-11.84,5.59-15.62a13.24,13.24,0,0,1,9.64-4.09,11.89,11.89,0,0,1,4.71.79L633,211.2a8.86,8.86,0,0,0-3.21-.62,6.67,6.67,0,0,0-4.93,2c-2.42,2.42-4.22,7.13-4.22,12.63,0,3.7,1.19,5.81,3.56,5.81a5.82,5.82,0,0,0,1.58-.18l1.36-7.35h-2.68l.92-4.45h7.66Z" transform="translate(-2.57 -34.87)"/><path class="cls-2" d="M674.91,214.89c0,6.29-2.07,14.21-6,18.13a8.89,8.89,0,0,1-6.56,2.82c-6.42,0-7.35-6.42-7.35-9.68,0-6,2.07-14,6.16-18a9.08,9.08,0,0,1,6.51-2.73C674.12,205.48,674.91,211.37,674.91,214.89ZM665,211.24c-2.73,2.77-4.27,11-4.27,15.45,0,1.67.22,4.31,2.51,4.31a2.52,2.52,0,0,0,1.8-.88c2.95-2.9,4.22-12.45,4.22-15.67,0-1.89-.26-4.14-2.29-4.14A2.77,2.77,0,0,0,665,211.24Z" transform="translate(-2.57 -34.87)"/><path class="cls-2" d="M693.65,231.92l13-21.08v-.09h-8.05l1-4.93h14.17l-.84,4.49-12.45,20.16v.09H709l-1,4.93H693Z" transform="translate(-2.57 -34.87)"/><path class="cls-2" d="M737.52,228.58l-2.6,6.91h-5.37l12-29.66H748l.26,29.66h-5.33l.09-6.91Zm5.68-4,.13-6.56c0-1.8.22-4.93.26-7.17h-.09c-.7,2.24-1.67,5.5-2.29,7.13l-2.38,6.6Z" transform="translate(-2.57 -34.87)"/><path class="cls-2" d="M9.06,250.33h5.5L9.81,275.19H17L16.1,280H3.38Z" transform="translate(-2.57 -34.87)"/><path class="cls-2" d="M57.94,266.87H51.43L49.8,275.1h7.48l-1,4.88H43.38l5.68-29.66H61.46l-1,4.84H53.68l-1.45,7h6.65Z" transform="translate(-2.57 -34.87)"/><path class="cls-2" d="M105.69,259.39c0,6.29-2.07,14.21-6,18.13a8.89,8.89,0,0,1-6.56,2.82c-6.42,0-7.35-6.42-7.35-9.68,0-6,2.07-14,6.16-18A9.08,9.08,0,0,1,98.47,250C104.89,250,105.69,255.87,105.69,259.39Zm-9.95-3.65c-2.73,2.77-4.27,11-4.27,15.45,0,1.67.22,4.31,2.51,4.31a2.52,2.52,0,0,0,1.8-.88c2.95-2.9,4.22-12.45,4.22-15.67,0-1.89-.26-4.14-2.29-4.14A2.77,2.77,0,0,0,95.74,255.74Z" transform="translate(-2.57 -34.87)"/><path class="cls-2" d="M136.26,250.72a38.27,38.27,0,0,1,5.94-.53c2,0,5,.4,6.78,2.38a7.94,7.94,0,0,1,1.85,5.1,10.92,10.92,0,0,1-11.31,11.49c-.48,0-1,0-1.41,0L136,280h-5.37ZM139,264.59a8.49,8.49,0,0,0,1.06,0c4,0,5.24-4,5.24-6.56,0-2-.92-3.39-3.08-3.39a5.31,5.31,0,0,0-1.32.13Z" transform="translate(-2.57 -34.87)"/><path class="cls-2" d="M195.71,259.39c0,6.29-2.07,14.21-6,18.13a8.89,8.89,0,0,1-6.56,2.82c-6.42,0-7.35-6.42-7.35-9.68,0-6,2.07-14,6.16-18a9.08,9.08,0,0,1,6.51-2.73C194.92,250,195.71,255.87,195.71,259.39Zm-9.95-3.65c-2.73,2.77-4.27,11-4.27,15.45,0,1.67.22,4.31,2.51,4.31a2.52,2.52,0,0,0,1.8-.88c2.95-2.9,4.22-12.45,4.22-15.67,0-1.89-.26-4.14-2.29-4.14A2.77,2.77,0,0,0,185.76,255.74Z" transform="translate(-2.57 -34.87)"/><path class="cls-2" d="M226.37,250.33h5.5l-4.75,24.86h7.22l-.92,4.8H220.7Z" transform="translate(-2.57 -34.87)"/><path class="cls-2" d="M266.24,250.72a29.36,29.36,0,0,1,5.68-.53c3.56,0,5.9,1.23,7.3,3,1.67,2.07,2.2,4.75,2.2,7.7,0,7.52-3.34,13.91-6.38,16.37-2.42,2-5.06,2.82-9,2.82a21.81,21.81,0,0,1-5.28-.57Zm.62,24.6a11,11,0,0,0,1.45.13c1.8,0,3.83-1.45,5.1-4.09a24.55,24.55,0,0,0,2.38-11c0-2.82-.88-5.72-3.7-5.72a4.68,4.68,0,0,0-1.23.09Z" transform="translate(-2.57 -34.87)"/><path class="cls-2" d="M327.13,259.39c0,6.29-2.07,14.21-6,18.13a8.89,8.89,0,0,1-6.56,2.82c-6.42,0-7.35-6.42-7.35-9.68,0-6,2.07-14,6.16-18a9.08,9.08,0,0,1,6.51-2.73C326.34,250,327.13,255.87,327.13,259.39Zm-9.95-3.65c-2.73,2.77-4.27,11-4.27,15.45,0,1.67.22,4.31,2.51,4.31a2.52,2.52,0,0,0,1.8-.88c2.95-2.9,4.22-12.45,4.22-15.67,0-1.89-.26-4.14-2.29-4.14A2.77,2.77,0,0,0,317.19,255.74Z" transform="translate(-2.57 -34.87)"/><path class="cls-2" d="M388.51,250.72a36.78,36.78,0,0,1,5.9-.53c2.55,0,5,.48,6.56,2a6.81,6.81,0,0,1,1.94,4.88,9.31,9.31,0,0,1-6,9v.09c1.63.75,2.33,2.46,2.42,5.76a59.28,59.28,0,0,0,.48,8.05h-5.54c-.13-.84-.22-3.83-.22-7.08,0-3.61-.75-4.8-2.6-4.8h-.92L388.29,280h-5.37Zm2.86,13.11h1.28c2.77,0,4.62-2.95,4.62-6.07,0-1.58-.66-3.26-2.73-3.26a6.54,6.54,0,0,0-1.45.13Z" transform="translate(-2.57 -34.87)"/><path class="cls-2" d="M448.4,259.39c0,6.29-2.07,14.21-6,18.13a8.89,8.89,0,0,1-6.56,2.82c-6.42,0-7.35-6.42-7.35-9.68,0-6,2.07-14,6.16-18a9.08,9.08,0,0,1,6.51-2.73C447.61,250,448.4,255.87,448.4,259.39Zm-9.95-3.65c-2.73,2.77-4.27,11-4.27,15.45,0,1.67.22,4.31,2.51,4.31a2.52,2.52,0,0,0,1.8-.88c2.95-2.9,4.22-12.45,4.22-15.67,0-1.89-.26-4.14-2.29-4.14A2.77,2.77,0,0,0,438.45,255.74Z" transform="translate(-2.57 -34.87)"/><path class="cls-2" d="M491.74,280l1.58-11.62c.31-2.42.88-5.63,1.58-9.5h-.18c-1.28,3.87-2.64,7.3-3.52,9.33l-4.84,11.31h-3.92l-.53-11.44c-.09-2-.22-5.33-.13-9.2h-.09c-.75,3.87-1.41,7.08-2,9.5L477,280H472.2l7.53-29.66h5.85l.53,14.08c.09,2.2.18,5.28.09,7.44h.09c.57-2.16,1.72-5.19,2.6-7.44l5.68-14.08h5.85L496.53,280Z" transform="translate(-2.57 -34.87)"/><path class="cls-2" d="M539.92,266.87H533.4l-1.63,8.23h7.48l-1,4.88H525.35L531,250.33h12.41l-1,4.84h-6.82l-1.45,7h6.64Z" transform="translate(-2.57 -34.87)"/><path class="cls-2" d="M587.66,259.39c0,6.29-2.07,14.21-6,18.13a8.89,8.89,0,0,1-6.56,2.82c-6.42,0-7.35-6.42-7.35-9.68,0-6,2.07-14,6.16-18a9.08,9.08,0,0,1,6.51-2.73C586.86,250,587.66,255.87,587.66,259.39Zm-9.95-3.65c-2.73,2.77-4.27,11-4.27,15.45,0,1.67.22,4.31,2.51,4.31a2.52,2.52,0,0,0,1.8-.88c2.95-2.9,4.22-12.45,4.22-15.67,0-1.89-.26-4.14-2.29-4.14A2.77,2.77,0,0,0,577.71,255.74Z" transform="translate(-2.57 -34.87)"/><path class="cls-2" d="M645.56,275.54a10.08,10.08,0,0,0,2.2-.22,8.28,8.28,0,0,0,3.48-1.72,13.51,13.51,0,0,0,4-5.59h-.09a5.74,5.74,0,0,1-4,1.58c-3.78,0-5.46-3.3-5.46-6.56,0-6,4.18-12,9.59-12s6.73,4.53,6.69,8c-.09,8.23-3.83,14.48-7.13,17.47a14.9,14.9,0,0,1-7.66,3.7,12.13,12.13,0,0,1-2.38.13Zm5.54-13.07c0,2.11.75,3.3,2,3.3a3.34,3.34,0,0,0,2.6-1.8,7.68,7.68,0,0,0,.66-2.42,15.78,15.78,0,0,0,.35-3.3c0-1.85-.44-3.21-1.89-3.21C652.38,255,651.1,259.7,651.1,262.47Z" transform="translate(-2.57 -34.87)"/></g></g></svg>