<svg xmlns="http://www.w3.org/2000/svg" viewBox="0 0 407.03 30.31"><defs><style>.cls-1{fill:#fff;stroke:#fff;stroke-miterlimit:10;}</style></defs><title>phone</title><g id="Layer_2" data-name="Layer 2"><g id="Layer_3" data-name="Layer 3"><path class="cls-1" d="M19.55,14.8c0,2.95-1.67,5.54-5,7.35v.13a8.22,8.22,0,0,1,3.17,6.43,9,9,0,0,1-9.15,9c-4.84,0-7.52-2.95-7.52-7,0-4.36,3-7,5.63-8.62l0-.09a7.1,7.1,0,0,1-2.42-5.46,8.15,8.15,0,0,1,8.41-8.1C17.31,8.37,19.55,11.23,19.55,14.8ZM12.38,28.92a5.09,5.09,0,0,0-2.55-4.67A7.58,7.58,0,0,0,6.4,30.33C6.4,32.4,7,34,8.82,34,10.89,34,12.38,31.78,12.38,28.92Zm-3-12.54a4.3,4.3,0,0,0,2,3.83,6.19,6.19,0,0,0,3.08-5.46c0-1.76-.62-2.77-2.07-2.77C10.8,12,9.39,14,9.39,16.38Z" transform="translate(-0.57 -7.87)"/><path class="cls-1" d="M59.11,8.72l-.7,3.78c-4.31,8.27-8.63,16.55-13.07,24.82h-5.5q6.4-11.82,12.72-23.63l0-.09H43.31l.92-4.88Z" transform="translate(-0.57 -7.87)"/><path class="cls-1" d="M95.32,13.08a6.16,6.16,0,0,0-1.54.22c-3.52.79-6.25,3.34-7.88,7.39h.18a5.72,5.72,0,0,1,4.27-2c3.92,0,5.15,3.78,5.15,6.51,0,6.42-3.83,12.5-9.55,12.5-5.19,0-6.78-4.58-6.78-8.8A22.8,22.8,0,0,1,86,12.55a15.71,15.71,0,0,1,8.54-4,7.8,7.8,0,0,1,1.58-.13ZM90,25.58c0-1.58-.57-2.86-2-2.86-1.14,0-2.46,1.14-3.12,2.73-.09.31-.18.62-.26.88a21.69,21.69,0,0,0-.31,3.7c0,1.85.48,3.65,2,3.65C89.07,33.68,90,28.57,90,25.58Z" transform="translate(-0.57 -7.87)"/><path class="cls-1" d="M152.7,14h-.09l-4.84,2.33-.09-4.4,6.64-3.21h4.8l-5.46,28.6h-5.41Z" transform="translate(-0.57 -7.87)"/><path class="cls-1" d="M198.72,13.08a6.16,6.16,0,0,0-1.54.22c-3.52.79-6.25,3.34-7.88,7.39h.18a5.72,5.72,0,0,1,4.27-2c3.92,0,5.15,3.78,5.15,6.51,0,6.42-3.83,12.5-9.55,12.5-5.19,0-6.78-4.58-6.78-8.8a22.8,22.8,0,0,1,6.82-16.33,15.71,15.71,0,0,1,8.54-4,7.81,7.81,0,0,1,1.58-.13Zm-5.28,12.5c0-1.58-.57-2.86-2-2.86-1.14,0-2.46,1.14-3.12,2.73-.09.31-.18.62-.26.88a21.64,21.64,0,0,0-.31,3.7c0,1.85.48,3.65,2,3.65C192.47,33.68,193.44,28.57,193.44,25.58Z" transform="translate(-0.57 -7.87)"/><path class="cls-1" d="M248.7,32.88a10.07,10.07,0,0,0,2.2-.22,8.3,8.3,0,0,0,3.48-1.72,13.5,13.5,0,0,0,4-5.59h-.09a5.73,5.73,0,0,1-4,1.58c-3.78,0-5.46-3.3-5.46-6.56,0-6,4.18-12,9.59-12s6.73,4.53,6.69,8c-.09,8.23-3.83,14.48-7.13,17.47a14.91,14.91,0,0,1-7.66,3.7,12.23,12.23,0,0,1-2.38.13Zm5.54-13.07c0,2.11.75,3.3,2,3.3a3.34,3.34,0,0,0,2.6-1.8,7.68,7.68,0,0,0,.66-2.42,15.84,15.84,0,0,0,.35-3.3c0-1.85-.44-3.21-1.89-3.21C255.52,12.38,254.25,17,254.25,19.81Z" transform="translate(-0.57 -7.87)"/><path class="cls-1" d="M302.51,13.61h-6.78l-1.45,5.32a.48.48,0,0,1,.22,0A6.07,6.07,0,0,1,299,21.13a7.66,7.66,0,0,1,1.72,5.37,11,11,0,0,1-11.35,11.18,8.94,8.94,0,0,1-4.36-.79l1.36-4.62a7.2,7.2,0,0,0,3.17.66,5.51,5.51,0,0,0,5.76-5.5c0-3.21-2.24-4.36-5-4.36a13.33,13.33,0,0,0-1.85.09l3.7-14.43h11.35Z" transform="translate(-0.57 -7.87)"/><path class="cls-1" d="M349,37.33l.66-3.87,3.21-3.56c4.4-4.84,8.93-9.64,8.93-13.6,0-1.89-.88-3.3-3.26-3.3a7,7,0,0,0-3.78,1.1l-.53-4.18a12.82,12.82,0,0,1,6-1.54c5.81,0,7,4,7,6.78,0,6.25-5.15,11.27-9.15,15.49l-1.58,1.72v.09H365l-.88,4.88Z" transform="translate(-0.57 -7.87)"/><path class="cls-1" d="M407.1,14.8c0,2.95-1.67,5.54-5,7.35v.13a8.22,8.22,0,0,1,3.17,6.43,9,9,0,0,1-9.15,9c-4.84,0-7.52-2.95-7.52-7,0-4.36,3-7,5.63-8.62l0-.09a7.1,7.1,0,0,1-2.42-5.46,8.15,8.15,0,0,1,8.41-8.1C404.86,8.37,407.1,11.23,407.1,14.8Zm-7.17,14.13a5.09,5.09,0,0,0-2.55-4.67,7.58,7.58,0,0,0-3.43,6.07c0,2.07.62,3.7,2.42,3.7C398.43,34,399.93,31.78,399.93,28.92Zm-3-12.54a4.3,4.3,0,0,0,2,3.83A6.19,6.19,0,0,0,402,14.75C402,13,401.42,12,400,12,398.34,12,396.94,14,396.94,16.38Z" transform="translate(-0.57 -7.87)"/></g></g></svg>