<svg xmlns="http://www.w3.org/2000/svg" viewBox="0 0 400.93 45.64"><defs><style>.cls-1,.cls-2{fill:#fff;}.cls-2{stroke:#fff;stroke-miterlimit:10;}</style></defs><title>rrss</title><g id="Layer_2" data-name="Layer 2"><g id="Layer_3" data-name="Layer 3"><path class="cls-1" d="M10.9,46.52l-.29-.06A11.32,11.32,0,0,1,.73,37.52c-.06-.31-.11-.63-.17-.95l-.08-.46,0-11.75,0-11.77a2,2,0,0,0,.06-.29A11.33,11.33,0,0,1,9.55,2.49l.94-.17L11,2.25l23.51.06.26.06a11.19,11.19,0,0,1,9.8,8.73c.08.38.14.76.2,1.14l.09.55-.06,23.39a2.07,2.07,0,0,0-.06.29A11.26,11.26,0,0,1,36,46.28c-.38.09-.77.15-1.15.21l-.52.08Zm1-41.39a8.35,8.35,0,0,0-8.43,8.41q0,10.85-.05,21.69a8.35,8.35,0,0,0,8.41,8.45q10.85,0,21.69,0a8.67,8.67,0,0,0,1.94-.22,8.37,8.37,0,0,0,6.51-8.16q0-3.79,0-7.57l0-6.67q0-3.74,0-7.49a8.36,8.36,0,0,0-8.41-8.44l-21.69,0ZM22.64,35.2a10.76,10.76,0,1,1,10.8-10.71A10.69,10.69,0,0,1,22.64,35.2Zm0-19.09a8.33,8.33,0,0,0,0,16.66h0a8.33,8.33,0,0,0,.08-16.66ZM35.19,14A2.1,2.1,0,1,1,37.3,12,2.07,2.07,0,0,1,35.19,14Z" transform="translate(0 -1.75)"/><path class="cls-1" d="M11,2.75l11.75,0,11.7,0,.27.05a10.69,10.69,0,0,1,9.37,8.34c.08.35.14.72.2,1.1l.08.47-.05,23.33a2.14,2.14,0,0,0-.06.3,10.75,10.75,0,0,1-8.31,9.38c-.36.08-.73.14-1.12.2l-.48.08L11,46l-.3-.06a10.81,10.81,0,0,1-9.44-8.54c-.06-.31-.11-.62-.16-.93L1,36.12l.05-23.46a2.11,2.11,0,0,0,.06-.3A10.82,10.82,0,0,1,9.65,3l.93-.16L11,2.75M33.48,44.23h0a9.16,9.16,0,0,0,2-.23,8.87,8.87,0,0,0,6.9-8.64q0-3.77,0-7.55V21.16q0-3.76,0-7.53a8.85,8.85,0,0,0-8.91-8.94L11.86,4.63a8.84,8.84,0,0,0-8.93,8.91q0,10.85-.05,21.69a8.84,8.84,0,0,0,8.91,9q10.85,0,21.69,0M35.21,9.34v1a1.59,1.59,0,0,1,1.14.48,1.6,1.6,0,1,1-1.14-.48v-1M22.7,14.17h.05a10.28,10.28,0,1,1-.05,0m0,19.09h0a8.83,8.83,0,1,0-8.82-8.85,8.85,8.85,0,0,0,8.82,8.85h0M10.88,1.75c-.48.08-1,.15-1.43.24A11.76,11.76,0,0,0,.12,12.25a2.37,2.37,0,0,1-.06.28L0,36.2c.08.48.15,1,.24,1.43A11.76,11.76,0,0,0,10.56,47a2.39,2.39,0,0,1,.28.06l23.54.05c.58-.1,1.17-.17,1.74-.31a11.74,11.74,0,0,0,9.09-10.25,2.42,2.42,0,0,1,.06-.28l.05-23.54c-.1-.57-.17-1.15-.3-1.71A11.73,11.73,0,0,0,34.79,1.87a1.85,1.85,0,0,1-.24-.06L10.88,1.75Zm22.6,41.47h0q-10.85,0-21.69,0a7.88,7.88,0,0,1-7.91-8q0-10.85.05-21.69a7.87,7.87,0,0,1,7.93-7.91h0l21.69.05a7.88,7.88,0,0,1,7.91,7.94c0,3.62,0,7.24,0,10.86s0,7.24,0,10.86A7.87,7.87,0,0,1,35.31,43a8.21,8.21,0,0,1-1.82.2ZM35.21,9.34a2.59,2.59,0,0,0,0,5.19h0a2.59,2.59,0,0,0,0-5.19ZM22.7,13.17a11.26,11.26,0,0,0-.06,22.53h0a11.26,11.26,0,0,0,.07-22.53Zm0,19.09h0a7.83,7.83,0,0,1,0-15.66h0a7.83,7.83,0,0,1,0,15.66Z" transform="translate(0 -1.75)"/><path class="cls-1" d="M61.22,46.55a4.68,4.68,0,0,0-.74,0,5.37,5.37,0,0,1-.6,0,7.13,7.13,0,0,1-3.23-1.29,8.1,8.1,0,0,1-3.48-5.88,3.87,3.87,0,0,1,0-.48V32.71c0-5.07,0-10.14,0-15.21l0-2.43c0-1.4,0-2.8,0-4.21A8.7,8.7,0,0,1,54.31,6.1a8.09,8.09,0,0,1,5.23-3.73,5,5,0,0,1,1.1-.09H89.8a7,7,0,0,1,4.64,1.84,7.94,7.94,0,0,1,2.81,5.28,13.17,13.17,0,0,1,.1,1.52v1.27c0,1.22,0,2.44,0,3.66-.08,4.43-.07,8.93-.06,13.29,0,3.26,0,6.52,0,9.78a7.47,7.47,0,0,1-1.73,4.62,8,8,0,0,1-4.45,2.85,5.62,5.62,0,0,1-1.05.12h-.52a1.63,1.63,0,0,0-.37,0Zm20.68-1.26h3.61a.8.8,0,0,0,.89-.9q0-3.63,0-7.25v-4q0-3.63,0-7.26h4.56a.86.86,0,0,0,1-.88c0-.42.08-.83.13-1.24l.05-.45c.07-.58.13-1.17.19-1.76.09-.83.17-1.67.28-2.5a.82.82,0,0,0-.15-.67.77.77,0,0,0-.62-.22h-5.4c0-.51,0-1,0-1.5,0-.78,0-1.56,0-2.34a1.14,1.14,0,0,1,.41-1,1.75,1.75,0,0,1,1-.28h3.74a.76.76,0,0,0,.85-.84q0-2.92,0-5.83a.87.87,0,0,0-.22-.63.85.85,0,0,0-.61-.22H85.95a11.09,11.09,0,0,0-3.17.42A6.43,6.43,0,0,0,78.5,9.75a12.87,12.87,0,0,0-.85,4.67c0,1.22,0,2.46,0,3.66v.08H74.49a.75.75,0,0,0-.58.2.68.68,0,0,0-.18.51,6.88,6.88,0,0,1,0,.83,6,6,0,0,0,0,1.27,10.26,10.26,0,0,1,0,1.36c0,.22,0,.43,0,.65q0,1,0,2.08a.82.82,0,0,0,.2.61.81.81,0,0,0,.59.21h3.12V44.35c0,.71.22.94.92.94Z" transform="translate(0 -1.75)"/><path class="cls-1" d="M76.54,2.78H89.8a6.54,6.54,0,0,1,4.32,1.72,7.46,7.46,0,0,1,2.64,5,12.62,12.62,0,0,1,.09,1.46v1.26c0,1.2,0,2.44,0,3.66-.08,4.44-.07,8.94-.06,13.3,0,3.2,0,6.52,0,9.77a7,7,0,0,1-1.62,4.32A7.47,7.47,0,0,1,91,45.91a5.2,5.2,0,0,1-1,.1h-.5a2.13,2.13,0,0,0-.42,0H61.29a6.41,6.41,0,0,0-.8,0,4.92,4.92,0,0,1-.54,0,6.55,6.55,0,0,1-3-1.2,7.52,7.52,0,0,1-3.27-5.53,3.57,3.57,0,0,1,0-.42v-.1q0-3,0-6c0-5,0-10.17,0-15.26q0-1.23,0-2.46c0-1.39,0-2.78,0-4.18a8.22,8.22,0,0,1,1.14-4.49,7.51,7.51,0,0,1,4.92-3.5,4.59,4.59,0,0,1,1-.08h15.9M88.47,5H86a11.6,11.6,0,0,0-3.31.44A6.91,6.91,0,0,0,78,9.56a13.35,13.35,0,0,0-.89,4.85c0,1.09,0,2.18,0,3.25H74.43a1.17,1.17,0,0,0-.88.35,1.19,1.19,0,0,0-.32.88,6.56,6.56,0,0,1,0,.77,6.48,6.48,0,0,0,0,1.37,9.89,9.89,0,0,1,0,1.29c0,.22,0,.44,0,.66,0,.68,0,1.37,0,2.06a1.23,1.23,0,0,0,1.32,1.33h2.6v18c0,1,.45,1.44,1.42,1.44h7a1.38,1.38,0,0,0,1-.37,1.41,1.41,0,0,0,.37-1q0-3.62,0-7.25v-4q0-3.37,0-6.75H91A1.35,1.35,0,0,0,92.4,25c0-.41.08-.82.13-1.22l.05-.45c.07-.58.13-1.17.19-1.75.09-.83.17-1.67.28-2.5A1.31,1.31,0,0,0,92.78,18a1.28,1.28,0,0,0-1-.39H86.89q0-.5,0-1c0-.77,0-1.55,0-2.32,0-.48.14-.57.2-.61a1.26,1.26,0,0,1,.74-.19h3.76a1.31,1.31,0,0,0,1-.37,1.34,1.34,0,0,0,.36-1q0-2.91,0-5.83a1.35,1.35,0,0,0-.36-1,1.32,1.32,0,0,0-1-.37H88.47M76.54,1.78H60.64a5.42,5.42,0,0,0-1.21.11,8.54,8.54,0,0,0-5.54,3.95,9.22,9.22,0,0,0-1.29,5c0,2.21,0,4.43,0,6.64,0,7.08,0,14.15,0,21.23a5.25,5.25,0,0,0,0,.64,8.55,8.55,0,0,0,3.69,6.23A7.6,7.6,0,0,0,59.82,47c.47.06.94,0,1.4.07h28a1,1,0,0,1,.3,0h.39a6.93,6.93,0,0,0,1.3-.14,8.43,8.43,0,0,0,4.72-3,8,8,0,0,0,1.84-4.93c.07-7.69-.07-15.38.07-23.06,0-1.64,0-3.29,0-4.94a13.57,13.57,0,0,0-.1-1.57,8.41,8.41,0,0,0-3-5.6,7.57,7.57,0,0,0-5-2ZM88.47,6h3.12c.26,0,.33.09.33.35q0,2.92,0,5.84c0,.27-.08.34-.33.34H87.83a2.24,2.24,0,0,0-1.3.37,1.63,1.63,0,0,0-.63,1.41c0,1.35,0,2.71,0,4.06,0,.27.12.28.32.28h5.58c.23,0,.31,0,.28.33-.18,1.42-.31,2.84-.47,4.26-.07.57-.15,1.14-.19,1.72,0,.28-.11.41-.43.41H86.23c-.28,0-.35.08-.34.36,0,3.13,0,6.26,0,9.39s0,6.19,0,9.29c0,.31-.08.4-.38.4h-7c-.42,0-.42,0-.42-.44q0-9.28,0-18.55c0-.43,0-.43-.43-.43H74.52c-.23,0-.3-.07-.3-.31q0-1,0-2.1a19.35,19.35,0,0,0-.05-2.06c-.09-.68.08-1.37.06-2.06,0-.18.09-.2.2-.2H77.8c.26,0,.34-.08.34-.36,0-1.29,0-2.58,0-3.87A12.21,12.21,0,0,1,79,9.95a5.93,5.93,0,0,1,4-3.55A10.64,10.64,0,0,1,86,6h2.52Z" transform="translate(0 -1.75)"/><path class="cls-2" d="M130.34,39.88a13.36,13.36,0,0,1-7,1.76c-5.63,0-11-4.49-11-13.16S118,11.28,126.51,11.28c7.08,0,10.43,5.41,10.43,11.35,0,7.61-2.68,11.84-7,11.84-2.2,0-3.21-1.36-3.26-3.74h-.09c-1.06,2.38-2.9,3.74-4.84,3.74-2.33,0-3.78-2-3.78-5.28,0-5.5,3.39-10.69,9.11-10.69a9.16,9.16,0,0,1,4,.92l-1.45,8.1c-.57,3.17-.13,4.53,1.23,4.53,1.76,0,3.61-2.9,3.61-8.8,0-5.63-2.55-10-8.49-10s-11.4,6.07-11.4,15.23c0,7.48,4,11.13,9.29,11.13A11.43,11.43,0,0,0,129.68,38ZM127.25,21.4a2.32,2.32,0,0,0-1.14-.22c-2.07,0-4.4,3.34-4.4,7.79,0,1.54.48,2.46,1.54,2.46,1.36,0,2.6-2.2,3-4.31Z" transform="translate(0 -1.75)"/><path class="cls-2" d="M136.49,37.33l4.14-21.52h5.5L142,37.33Zm5.15-27a3.27,3.27,0,0,1,3.08-3.39,2.54,2.54,0,0,1,2.6,2.86,3.22,3.22,0,0,1-3.17,3.43C142.39,13.21,141.6,11.94,141.64,10.31Z" transform="translate(0 -1.75)"/><path class="cls-2" d="M143.18,45.78l4.36-22.88c.48-2.55.84-5,1.14-7.09h4.71L153,18.93h.09a6.66,6.66,0,0,1,5.37-3.48c3.87,0,4.62,3.34,4.62,6.64,0,7.22-3.87,15.58-10.17,15.58a5.88,5.88,0,0,1-2.64-.53h-.13l-1.58,8.63ZM151,33.06a2.5,2.5,0,0,0,1.54.53c3.34,0,5-7.31,5-10.52,0-1.45-.13-2.95-1.58-2.95S153,22.37,152.46,25Z" transform="translate(0 -1.75)"/><path class="cls-2" d="M161,45.78l4.36-22.88c.48-2.55.84-5,1.14-7.09h4.71l-.35,3.13h.09a6.66,6.66,0,0,1,5.37-3.48c3.87,0,4.62,3.34,4.62,6.64,0,7.22-3.87,15.58-10.17,15.58a5.88,5.88,0,0,1-2.64-.53H168l-1.58,8.63Zm7.79-12.72a2.5,2.5,0,0,0,1.54.53c3.34,0,5-7.31,5-10.52,0-1.45-.13-2.95-1.58-2.95s-2.9,2.24-3.43,4.84Z" transform="translate(0 -1.75)"/><path class="cls-2" d="M198,23c0,6.78-3.61,14.7-10.17,14.7-5.41,0-6.6-4.27-6.6-7.44,0-7.26,4-14.79,10.52-14.79C197.17,15.46,198,20,198,23Zm-11.31,7c0,1.58,0,3.52,1.76,3.52,2.64,0,4.14-7.31,4.14-11.18,0-1.45-.4-2.68-1.72-2.68C188.46,19.64,186.61,26.28,186.65,30Z" transform="translate(0 -1.75)"/><path class="cls-2" d="M197.34,37.33l2.77-14.52c.48-2.51.84-5,1.14-7H206l-.22,2.77h.09a7.06,7.06,0,0,1,5.81-3.12c3,0,4.18,2.11,4.18,4.71a20.47,20.47,0,0,1-.53,4.09l-2.46,13.07h-5.5L209.88,24a12.51,12.51,0,0,0,.26-2.29c0-1-.44-1.72-1.36-1.72-1.28,0-3,1.89-3.78,6l-2.16,11.4Z" transform="translate(0 -1.75)"/><path class="cls-2" d="M216.66,41a8.09,8.09,0,0,0,3.43.88c3.12,0,4.62-2.11,5.28-5.15l.48-2.6h-.09c-1.45,2.33-3.12,3.17-4.84,3.17-3,0-4.44-2.82-4.53-6.16-.13-6.82,3.87-15.67,11.79-15.67a14.19,14.19,0,0,1,6.12,1.28l-3.48,18.35c-.7,3.78-1.85,6.69-3.7,8.49s-4.22,2.55-7.26,2.55a10.79,10.79,0,0,1-4.62-1Zm11.71-21a2.2,2.2,0,0,0-1.14-.26c-3.21,0-5.32,6.21-5.37,9.81,0,1.63.13,3.43,1.67,3.43,1.72,0,2.95-2.95,3.3-4.71Z" transform="translate(0 -1.75)"/><path class="cls-2" d="M240.86,15.81,241,26.15c0,2,.09,3.52,0,5.1h.09c.44-1.76.88-3.21,1.63-5.5L246,15.81h5.54l-7,16.94c-2.11,4.93-4.53,9.06-7.17,11.49a14.38,14.38,0,0,1-3.7,2.51l-2.2-4.49a16.12,16.12,0,0,0,2.86-1.76,10.62,10.62,0,0,0,2.95-3.43,2.16,2.16,0,0,0,.13-1l-2.29-20.29Z" transform="translate(0 -1.75)"/><path class="cls-2" d="M248.47,37.33l2.77-14.52c.48-2.51.84-5,1.14-7h4.71l-.22,2.95H257a6.73,6.73,0,0,1,5.85-3.3,3.57,3.57,0,0,1,3.61,3.3,7.16,7.16,0,0,1,5.9-3.3c2.68,0,4,1.89,4,4.67a30.65,30.65,0,0,1-.53,4.36l-2.46,12.85h-5.41l2.42-12.76a17.84,17.84,0,0,0,.35-3.21c0-.88-.44-1.5-1.32-1.5-1.19,0-2.82,1.8-3.65,6l-2.2,11.44h-5.28l2.42-12.76a15.74,15.74,0,0,0,.35-3.08c0-1-.35-1.63-1.23-1.63-1.1,0-2.9,2-3.65,6l-2.16,11.44Z" transform="translate(0 -1.75)"/><path class="cls-2" d="M275,33.63l6.34-9.11a37.37,37.37,0,0,1,3.17-4.09l0-.09h-6.34l.88-4.53H291.2l-.66,4-6.12,8.71a51.77,51.77,0,0,1-3.26,4.18v.09h7.08l-.88,4.53H274.47Z" transform="translate(0 -1.75)"/><path class="cls-2" d="M299.42,37.33c0-1.14.13-2.33.18-3.61h-.13c-1.72,2.86-3.78,4-5.5,4-3.12,0-4.66-2.68-4.66-6.47,0-6.51,3.26-15.75,12.5-15.75a16.6,16.6,0,0,1,5.63.88l-2.38,12a49.67,49.67,0,0,0-.88,9Zm2-17.65a6.08,6.08,0,0,0-1.14-.13c-3.61,0-5.54,7.17-5.59,10.34,0,1.89.26,3.26,1.63,3.26s2.9-2.46,3.7-6.38Z" transform="translate(0 -1.75)"/><path class="cls-2" d="M306,37.33l2.77-14.61c.48-2.46.79-4.93,1.1-6.91h4.71c-.09,1.1-.18,2.25-.31,3.56h.13c1.58-2.73,3.52-3.92,5.32-3.92a2.71,2.71,0,0,1,.88.09l-1,5.5c-.22,0-.62,0-.92,0-2.38,0-4.62,2.73-5.28,6.38l-1.89,9.95Z" transform="translate(0 -1.75)"/><path class="cls-2" d="M328.16,37.33c0-1.14.13-2.33.18-3.61h-.13c-1.72,2.86-3.78,4-5.5,4-3.12,0-4.66-2.68-4.66-6.47,0-6.51,3.26-15.75,12.5-15.75a16.61,16.61,0,0,1,5.63.88l-2.38,12a49.67,49.67,0,0,0-.88,9Zm2-17.65a6.08,6.08,0,0,0-1.14-.13c-3.61,0-5.54,7.17-5.59,10.34,0,1.89.26,3.26,1.63,3.26s2.9-2.46,3.7-6.38Z" transform="translate(0 -1.75)"/><path class="cls-2" d="M335.72,41a8.09,8.09,0,0,0,3.43.88c3.12,0,4.62-2.11,5.28-5.15l.48-2.6h-.09c-1.45,2.33-3.12,3.17-4.84,3.17-3,0-4.44-2.82-4.53-6.16-.13-6.82,3.87-15.67,11.79-15.67a14.2,14.2,0,0,1,6.12,1.28l-3.48,18.35c-.7,3.78-1.85,6.69-3.7,8.49s-4.22,2.55-7.26,2.55a10.79,10.79,0,0,1-4.62-1Zm11.71-21a2.2,2.2,0,0,0-1.14-.26c-3.21,0-5.32,6.21-5.37,9.81,0,1.63.13,3.43,1.67,3.43,1.72,0,2.95-2.95,3.3-4.71Z" transform="translate(0 -1.75)"/><path class="cls-2" d="M369.74,23c0,6.78-3.61,14.7-10.17,14.7-5.41,0-6.6-4.27-6.6-7.44,0-7.26,4-14.79,10.52-14.79C368.94,15.46,369.74,20,369.74,23Zm-11.31,7c0,1.58,0,3.52,1.76,3.52,2.64,0,4.14-7.31,4.14-11.18,0-1.45-.4-2.68-1.72-2.68C360.23,19.64,358.38,26.28,358.43,30Z" transform="translate(0 -1.75)"/><path class="cls-2" d="M368,33.63l6.34-9.11a37.26,37.26,0,0,1,3.17-4.09l0-.09h-6.34l.88-4.53h12.06l-.66,4-6.12,8.71a51.85,51.85,0,0,1-3.26,4.18v.09h7.08l-.88,4.53H367.4Z" transform="translate(0 -1.75)"/><path class="cls-2" d="M392.35,37.33c0-1.14.13-2.33.18-3.61h-.13c-1.72,2.86-3.78,4-5.5,4-3.12,0-4.67-2.68-4.67-6.47,0-6.51,3.26-15.75,12.5-15.75a16.61,16.61,0,0,1,5.63.88l-2.38,12a49.75,49.75,0,0,0-.88,9Zm2-17.65a6.08,6.08,0,0,0-1.14-.13c-3.61,0-5.54,7.17-5.59,10.34,0,1.89.26,3.26,1.63,3.26s2.9-2.46,3.7-6.38Z" transform="translate(0 -1.75)"/></g></g></svg>