<svg xmlns="http://www.w3.org/2000/svg" viewBox="0 0 138.07 228.19"><defs><style>.cls-1,.cls-3{fill:#008351;}.cls-2{fill:none;stroke-linecap:round;stroke-width:35px;}.cls-2,.cls-3{stroke:#008351;stroke-miterlimit:10;}.cls-3{stroke-width:0.38px;}</style></defs><title>combat</title><g id="Layer_2" data-name="Layer 2"><g id="combat"><polygon class="cls-1" points="48.09 164.09 0.07 227.19 26.05 152.28 48.09 164.09"/><path class="cls-1" d="M42.07,127.19a23.5,23.5,0,0,1,4.44.59l.27.06.07,0,.08,0,.16.06.33.12c.42.16.92.34,1.19.47.63.28,1.3.56,1.87.83L54,131l6.74,3.24,13.35,6.51,7.58,3.69L82.69,148l23.38,80.14L57.45,160.33l8.63,7.32-14.6-1.7-7.25-.8-3.53-.35c-.6-.06-1.11-.09-1.64-.13a2.33,2.33,0,0,0-.57,0h-.2s0,0,0,0l.21.05a15,15,0,0,0,3.55.42Z"/><polygon class="cls-1" points="55.56 68.26 62.12 98.6 50.63 97.5 75.07 73.19 61.52 104.88 57.37 114.58 50.02 103.78 32.58 78.11 55.56 68.26"/><polygon class="cls-1" points="52.54 44.51 84.82 61.99 79.83 61.81 138.07 52.19 84.31 76.56 82.84 77.23 79.32 76.39 43.61 67.86 52.54 44.51"/><path class="cls-2" d="M48,54.19c-5,2.1-20.89,9.61-27.56,26.41C11.95,102.12,22,130.4,46.89,147.19"/><circle class="cls-3" cx="59.57" cy="17.69" r="17.5"/></g></g></svg>