<svg xmlns="http://www.w3.org/2000/svg" viewBox="0 0 157.25 169.97"><defs><style>.cls-1{fill:#fff;}.cls-2,.cls-3,.cls-4,.cls-5,.cls-6{fill:#008351;stroke:#008351;}.cls-2,.cls-4{stroke-width:0.38px;}.cls-2{opacity:0.4;}.cls-3,.cls-5,.cls-6{stroke-width:0.38px;}.cls-4{opacity:0.9;}.cls-5{opacity:0.6;}.cls-6{opacity:0.8;}</style></defs><title>favicon_5</title><g id="Layer_2" data-name="Layer 2"><g id="Layer_2-2" data-name="Layer 2"><path class="cls-1" d="M52.22,82.3,35.82,168H2.42L18.82,82.3h33.4m2.42-2H17.16l-.31,1.62L.45,167.59,0,170H37.48l.31-1.62,16.4-85.67.45-2.38Z"/><path class="cls-1" d="M105.59,55.81l-16.4,85.67H55.79l16.4-85.67h33.4m2.42-2H70.53l-.31,1.62-16.4,85.67-.45,2.38H90.84l.31-1.62,16.4-85.67.45-2.38Z"/><path class="cls-1" d="M154.83,51.29,148,86.95H114.6l6.82-35.66h33.4m2.42-2H119.77l-.31,1.62-6.82,35.66-.45,2.38h37.48l.31-1.62,6.82-35.66.45-2.38Z"/><path class="cls-1" d="M139.5,131.59l-6.82,35.66H99.28l6.82-35.66h33.4m2.42-2H104.45l-.31,1.62-6.82,35.66-.45,2.38h37.48l.31-1.62L141.47,132l.45-2.38Z"/><path class="cls-1" d="M67.58,2,58,52H24.61L34.18,2h33.4M70,0H32.53l-.31,1.62-9.57,50L22.19,54H59.66L60,52.39l9.57-50L70,0Z"/><polygon class="cls-2" points="18.82 81.8 2.42 167.47 35.82 167.47 52.22 81.8 18.82 81.8"/><polygon class="cls-3" points="72.19 55.31 55.79 140.99 89.19 140.99 105.59 55.31 72.19 55.31"/><polygon class="cls-4" points="154.83 50.79 121.43 50.79 114.6 86.44 148.01 86.44 154.83 50.79"/><polygon class="cls-5" points="139.5 131.09 106.1 131.09 99.28 166.74 132.68 166.74 139.5 131.09"/><polygon class="cls-6" points="34.18 2.5 24.61 52.52 58.01 52.52 67.58 2.5 34.18 2.5"/></g></g></svg>