<svg xmlns="http://www.w3.org/2000/svg" viewBox="0 0 542.29 249.24"><defs><style>.cls-1,.cls-12,.cls-2{fill:#fff;}.cls-1,.cls-11,.cls-13,.cls-2,.cls-3,.cls-4,.cls-5,.cls-6,.cls-7,.cls-9{stroke:#231f20;}.cls-1,.cls-10,.cls-11,.cls-13,.cls-2,.cls-3,.cls-4,.cls-5,.cls-6,.cls-8,.cls-9{stroke-miterlimit:10;}.cls-1,.cls-3,.cls-5,.cls-7,.cls-9{stroke-width:0.1px;}.cls-11,.cls-2{stroke-width:0.1px;}.cls-3{fill:#c478b2;}.cls-11,.cls-4{fill:#c0e0d4;}.cls-4,.cls-6{stroke-width:0.1px;}.cls-5{fill:#80c1a8;}.cls-6{fill:#00623d;}.cls-7{fill:#008451;stroke-linejoin:round;}.cls-10,.cls-8{fill:#010101;stroke:#010101;}.cls-8{stroke-width:0.15px;}.cls-13,.cls-9{fill:#3fa27d;}.cls-10{stroke-width:0.1px;}.cls-13{stroke-width:0.1px;}</style></defs><title>horario_karate</title><g id="Layer_2" data-name="Layer 2"><g id="_2020-Horario-SalaTatami" data-name="2020-Horario-SalaTatami"><rect class="cls-1" x="90.41" y="0.05" width="90.36" height="22.37"/><rect class="cls-2" x="180.78" y="0.05" width="90.36" height="22.37"/><rect class="cls-1" x="271.14" y="0.05" width="90.36" height="22.37"/><rect class="cls-1" x="361.51" y="0.05" width="90.36" height="22.37"/><rect class="cls-1" x="451.87" y="0.05" width="90.36" height="22.37"/><rect class="cls-1" x="0.05" y="22.42" width="90.36" height="56.69"/><rect class="cls-3" x="271.14" y="192.5" width="90.36" height="56.69"/><rect class="cls-3" x="90.41" y="192.5" width="90.36" height="56.69"/><rect class="cls-1" x="0.05" y="79.11" width="90.36" height="56.69"/><rect class="cls-4" x="90.41" y="22.42" width="90.36" height="56.69"/><rect class="cls-5" x="271.14" y="79.11" width="90.36" height="56.69"/><rect class="cls-1" x="0.05" y="135.81" width="90.36" height="56.69"/><rect class="cls-1" x="90.41" y="135.81" width="90.36" height="56.69"/><rect class="cls-6" x="180.78" y="135.81" width="90.36" height="56.69"/><rect class="cls-1" x="271.14" y="135.81" width="90.36" height="56.69"/><rect class="cls-1" x="451.87" y="135.81" width="90.36" height="56.69"/><rect class="cls-1" x="0.05" y="192.5" width="90.36" height="56.69"/><rect class="cls-7" x="180.78" y="192.5" width="90.36" height="56.69"/><rect class="cls-1" x="451.87" y="192.5" width="90.36" height="56.69"/><path class="cls-8" d="M121.72,6.31h1.62l-1.4,7.31h2.12L123.8,15h-3.74Z"/><path class="cls-8" d="M131.3,8.7,130.5,13c-.16.75-.25,1.46-.32,2.07h-1.4l.05-.84,0,0a2,2,0,0,1-1.64,1c-.84,0-1.2-.63-1.2-1.46a7.12,7.12,0,0,1,.16-1.31l.69-3.66h1.62l-.69,3.6a6.38,6.38,0,0,0-.12,1c0,.31.12.5.39.5s.83-.54,1-1.45l.67-3.66Z"/><path class="cls-8" d="M132.61,15l.81-4.27c.14-.74.25-1.46.34-2.06h1.38l-.06.82h0a2.08,2.08,0,0,1,1.71-.92c.89,0,1.23.62,1.23,1.38a6,6,0,0,1-.16,1.2L137.17,15h-1.62l.75-3.93a3.67,3.67,0,0,0,.08-.67c0-.3-.13-.5-.4-.5s-.88.56-1.11,1.76L134.23,15Z"/><path class="cls-8" d="M143.89,14.76a4.45,4.45,0,0,1-1.82.35c-1.55,0-2.15-1-2.15-2.38,0-1.84,1-4.13,3-4.13a1.62,1.62,0,0,1,1.68,1.72c0,1.73-1.4,2.38-3.16,2.33a1.34,1.34,0,0,0,.14.74,1,1,0,0,0,.88.45,2.76,2.76,0,0,0,1.28-.31Zm-1.14-4.87c-.49,0-.93.63-1.11,1.54.85,0,1.57-.3,1.57-1C143.2,10.11,143.06,9.89,142.75,9.89Z"/><path class="cls-8" d="M146.14,13.64a1.89,1.89,0,0,0,1,.26.68.68,0,0,0,.72-.71c0-.35-.17-.6-.61-.94a2,2,0,0,1-.8-1.54,2.15,2.15,0,0,1,2.34-2.11,2.54,2.54,0,0,1,1.19.23L149.66,10a1.64,1.64,0,0,0-.75-.19c-.52,0-.84.27-.84.7s.18.52.48.76a2.1,2.1,0,0,1-1.48,3.83,2.56,2.56,0,0,1-1.32-.32Z"/><path class="cls-8" d="M212.53,15l.47-3.42c.09-.71.26-1.66.47-2.79h-.05c-.38,1.14-.78,2.15-1,2.74L211,14.89H209.8l-.16-3.36c0-.58-.06-1.57,0-2.7h0c-.22,1.14-.41,2.08-.6,2.79l-.8,3.42h-1.4L209,6.31h1.72l.16,4.14c0,.65.05,1.55,0,2.19h0c.17-.63.5-1.53.76-2.19l1.67-4.14h1.72L213.94,15Z"/><path class="cls-8" d="M219.55,15c0-.34,0-.69.05-1.06h0a2,2,0,0,1-1.62,1.16c-.92,0-1.37-.79-1.37-1.9,0-1.92,1-4.63,3.67-4.63a4.89,4.89,0,0,1,1.66.26l-.7,3.52a14.59,14.59,0,0,0-.26,2.65Zm.58-5.19a1.83,1.83,0,0,0-.34,0c-1.06,0-1.63,2.11-1.64,3,0,.56.08,1,.48,1s.85-.72,1.09-1.88Z"/><path class="cls-8" d="M223.16,15l.81-4.3c.14-.72.23-1.45.32-2h1.38c0,.32-.05.66-.09,1h0A1.93,1.93,0,0,1,227.2,8.6a.79.79,0,0,1,.26,0l-.3,1.62h-.27c-.7,0-1.36.8-1.55,1.88L224.78,15Z"/><path class="cls-8" d="M231.89,7l-.32,1.71h1.19l-.21,1.14h-1.2l-.56,2.94a3.27,3.27,0,0,0-.05.53c0,.39.19.53.49.53a2.74,2.74,0,0,0,.44,0L231.47,15a4.05,4.05,0,0,1-1,.1,1.29,1.29,0,0,1-1.45-1.4,5,5,0,0,1,.12-.94l.56-3H229l.22-1.14h.74l.26-1.31Z"/><path class="cls-8" d="M237.7,14.76a4.45,4.45,0,0,1-1.82.35c-1.55,0-2.15-1-2.15-2.38,0-1.84,1-4.13,3-4.13a1.62,1.62,0,0,1,1.68,1.72c0,1.73-1.4,2.38-3.16,2.33a1.34,1.34,0,0,0,.14.74,1,1,0,0,0,.88.45,2.75,2.75,0,0,0,1.28-.31Zm-1.14-4.87c-.49,0-.93.63-1.11,1.54.85,0,1.57-.3,1.57-1C237,10.11,236.87,9.89,236.56,9.89Z"/><path class="cls-8" d="M240,13.64a1.89,1.89,0,0,0,1,.26.68.68,0,0,0,.72-.71c0-.35-.17-.6-.61-.94a2,2,0,0,1-.8-1.54,2.15,2.15,0,0,1,2.34-2.11,2.54,2.54,0,0,1,1.19.23L243.47,10a1.64,1.64,0,0,0-.75-.19c-.52,0-.84.27-.84.7s.18.52.48.76a2.1,2.1,0,0,1-1.48,3.83,2.56,2.56,0,0,1-1.32-.32Z"/><path class="cls-8" d="M295.76,15l.47-3.42c.09-.71.26-1.66.47-2.79h-.05c-.37,1.14-.78,2.15-1,2.74l-1.42,3.33H293l-.16-3.36c0-.58-.06-1.57,0-2.7h0c-.22,1.14-.41,2.08-.6,2.79l-.8,3.42H290l2.21-8.72H294l.16,4.14c0,.65.05,1.55,0,2.19h0a22.94,22.94,0,0,1,.76-2.19l1.67-4.14h1.72L297.17,15Z"/><path class="cls-8" d="M299.53,15l1.22-6.33h1.62L301.15,15ZM301,7.08a1,1,0,0,1,.91-1,.75.75,0,0,1,.76.84,1,1,0,0,1-.93,1C301.27,7.94,301,7.56,301,7.08Z"/><path class="cls-8" d="M307.89,14.76a4.45,4.45,0,0,1-1.82.35c-1.55,0-2.15-1-2.15-2.38,0-1.84,1-4.13,3-4.13a1.62,1.62,0,0,1,1.68,1.72c0,1.73-1.4,2.38-3.16,2.33a1.34,1.34,0,0,0,.14.74,1,1,0,0,0,.88.45,2.75,2.75,0,0,0,1.28-.31Zm-1.14-4.87c-.49,0-.93.63-1.11,1.54.85,0,1.57-.3,1.57-1C307.21,10.11,307.07,9.89,306.76,9.89Zm2.41-3.75L307.58,8h-1.11l1.15-1.81Z"/><path class="cls-8" d="M309.92,15l.81-4.3c.14-.72.23-1.45.32-2h1.38c0,.32-.05.66-.09,1h0A1.93,1.93,0,0,1,314,8.6a.79.79,0,0,1,.26,0l-.3,1.62h-.27c-.7,0-1.36.8-1.55,1.88L311.53,15Z"/><path class="cls-8" d="M318.3,14.94a3.25,3.25,0,0,1-1.13.17,2,2,0,0,1-2-2.28c0-2.26,1.41-4.22,3.4-4.22a2.09,2.09,0,0,1,.79.12L319,10a1.92,1.92,0,0,0-.45-.06c-.94,0-1.72,1.27-1.72,2.61,0,.72.3,1.19.83,1.19a3.08,3.08,0,0,0,.78-.14Z"/><path class="cls-8" d="M325.34,10.81c0,2-1.06,4.32-3,4.32-1.59,0-1.94-1.26-1.94-2.19,0-2.13,1.18-4.35,3.09-4.35C325.11,8.6,325.34,9.93,325.34,10.81ZM322,12.87c0,.47,0,1,.52,1,.78,0,1.22-2.15,1.22-3.29,0-.43-.12-.79-.5-.79C322.55,9.83,322,11.78,322,12.87Z"/><path class="cls-8" d="M326.85,15l1.71-9h1.62l-1.71,9Z"/><path class="cls-8" d="M335.2,14.76a4.45,4.45,0,0,1-1.82.35c-1.55,0-2.15-1-2.15-2.38,0-1.84,1-4.13,3-4.13a1.62,1.62,0,0,1,1.68,1.72c0,1.73-1.4,2.38-3.16,2.33a1.34,1.34,0,0,0,.14.74,1,1,0,0,0,.88.45,2.75,2.75,0,0,0,1.28-.31Zm-1.14-4.87c-.49,0-.93.63-1.11,1.54.85,0,1.57-.3,1.57-1C334.51,10.11,334.37,9.89,334.06,9.89Z"/><path class="cls-8" d="M337.45,13.64a1.89,1.89,0,0,0,1,.26.68.68,0,0,0,.72-.71c0-.35-.17-.6-.61-.94a2,2,0,0,1-.8-1.54,2.15,2.15,0,0,1,2.34-2.11,2.54,2.54,0,0,1,1.19.23L341,10a1.64,1.64,0,0,0-.75-.19c-.52,0-.84.27-.84.7s.18.52.48.76a2.1,2.1,0,0,1-1.48,3.83,2.56,2.56,0,0,1-1.32-.32Z"/><path class="cls-8" d="M388.68,13.6a2.83,2.83,0,0,0,.6.05c.49,0,.85-.34,1-1.18l1.19-6.17h1.62l-1.18,6.12c-.4,2.1-1.25,2.7-2.7,2.7a3.19,3.19,0,0,1-.79-.09Z"/><path class="cls-8" d="M399.62,8.7l-.8,4.26c-.16.75-.25,1.46-.32,2.07h-1.4l.05-.84,0,0a2,2,0,0,1-1.64,1c-.84,0-1.2-.63-1.2-1.46a7.12,7.12,0,0,1,.16-1.31l.69-3.66h1.62L396,12.3a6.38,6.38,0,0,0-.12,1c0,.31.12.5.39.5s.83-.54,1-1.45L398,8.7Z"/><path class="cls-8" d="M405.17,14.76a4.45,4.45,0,0,1-1.83.35c-1.55,0-2.15-1-2.15-2.38,0-1.84,1-4.13,3-4.13a1.62,1.62,0,0,1,1.68,1.72c0,1.73-1.4,2.38-3.16,2.33a1.34,1.34,0,0,0,.14.74,1,1,0,0,0,.88.45,2.76,2.76,0,0,0,1.28-.31ZM404,9.89c-.49,0-.93.63-1.11,1.54.85,0,1.57-.3,1.57-1C404.49,10.11,404.34,9.89,404,9.89Z"/><path class="cls-8" d="M409.52,8.7l-.09,2.9c-.05.87-.05,1.2-.09,1.8h0c.17-.58.3-.93.56-1.7l1.1-3h1.62L409.79,15h-1.62l-.36-6.33Z"/><path class="cls-8" d="M417.52,14.76a4.45,4.45,0,0,1-1.83.35c-1.55,0-2.15-1-2.15-2.38,0-1.84,1-4.13,3-4.13a1.62,1.62,0,0,1,1.68,1.72c0,1.73-1.4,2.38-3.16,2.33a1.34,1.34,0,0,0,.14.74,1,1,0,0,0,.88.45,2.76,2.76,0,0,0,1.28-.31Zm-1.14-4.87c-.49,0-.93.63-1.11,1.54.85,0,1.57-.3,1.57-1C416.83,10.11,416.69,9.89,416.38,9.89Z"/><path class="cls-8" d="M419.78,13.64a1.89,1.89,0,0,0,1,.26.68.68,0,0,0,.72-.71c0-.35-.17-.6-.61-.94a2,2,0,0,1-.8-1.54,2.15,2.15,0,0,1,2.34-2.11,2.54,2.54,0,0,1,1.19.23L423.29,10a1.64,1.64,0,0,0-.75-.19c-.52,0-.84.27-.84.7s.18.52.48.76a2.1,2.1,0,0,1-1.48,3.83,2.56,2.56,0,0,1-1.32-.32Z"/><path class="cls-8" d="M477.81,15l-.27-8.72h1.8l-.12,4.41c0,.79-.08,1.8-.13,2.47h0c.18-.67.48-1.7.75-2.47l1.57-4.41h1.79L479.57,15Z"/><path class="cls-8" d="M483.36,15l1.22-6.33h1.62L485,15Zm1.51-7.94a1,1,0,0,1,.91-1,.75.75,0,0,1,.76.84,1,1,0,0,1-.93,1C485.1,7.94,484.87,7.56,484.88,7.08Z"/><path class="cls-8" d="M491.73,14.76a4.45,4.45,0,0,1-1.83.35c-1.55,0-2.15-1-2.15-2.38,0-1.84,1-4.13,3-4.13a1.62,1.62,0,0,1,1.68,1.72c0,1.73-1.4,2.38-3.16,2.33a1.34,1.34,0,0,0,.14.74,1,1,0,0,0,.88.45,2.76,2.76,0,0,0,1.28-.31Zm-1.14-4.87c-.49,0-.93.63-1.11,1.54.85,0,1.57-.3,1.57-1C491,10.11,490.9,9.89,490.59,9.89Z"/><path class="cls-8" d="M493.75,15l.82-4.3c.14-.72.23-1.45.32-2h1.38c0,.32-.05.66-.09,1h0a1.92,1.92,0,0,1,1.57-1.15.79.79,0,0,1,.26,0l-.3,1.62h-.27c-.7,0-1.36.8-1.55,1.88L495.36,15Z"/><path class="cls-8" d="M498.85,15l.81-4.27c.14-.74.25-1.46.34-2.06h1.38l-.07.82h0a2.08,2.08,0,0,1,1.71-.92c.89,0,1.23.62,1.23,1.38a6.07,6.07,0,0,1-.16,1.2L503.4,15h-1.62l.75-3.93a3.67,3.67,0,0,0,.08-.67c0-.3-.13-.5-.4-.5s-.88.56-1.11,1.76L500.46,15Z"/><path class="cls-8" d="M510.12,14.76a4.45,4.45,0,0,1-1.82.35c-1.55,0-2.15-1-2.15-2.38,0-1.84,1-4.13,3-4.13a1.62,1.62,0,0,1,1.68,1.72c0,1.73-1.4,2.38-3.16,2.33a1.34,1.34,0,0,0,.14.74,1,1,0,0,0,.88.45,2.75,2.75,0,0,0,1.28-.31ZM509,9.89c-.49,0-.93.63-1.11,1.54.85,0,1.57-.3,1.57-1C509.44,10.11,509.29,9.89,509,9.89Z"/><path class="cls-8" d="M512.37,13.65a1.89,1.89,0,0,0,1,.26.68.68,0,0,0,.72-.71c0-.35-.17-.6-.61-.94a2,2,0,0,1-.8-1.54,2.15,2.15,0,0,1,2.34-2.11,2.54,2.54,0,0,1,1.19.23L515.89,10a1.64,1.64,0,0,0-.75-.19c-.52,0-.84.27-.84.7s.18.52.48.76a2.11,2.11,0,0,1,.94,1.66,2.13,2.13,0,0,1-2.42,2.17,2.56,2.56,0,0,1-1.32-.32Z"/><path class="cls-8" d="M17.45,48.5h0L16.38,49l0-1,1.44-.7h1l-1.19,6.22H16.48Z"/><path class="cls-8" d="M24.11,48.3a1.34,1.34,0,0,0-.33,0A2.45,2.45,0,0,0,22.06,50h0a1.24,1.24,0,0,1,.93-.44c.85,0,1.12.82,1.12,1.42,0,1.4-.83,2.72-2.08,2.72s-1.47-1-1.47-1.91a5,5,0,0,1,1.48-3.55,3.41,3.41,0,0,1,1.86-.88,1.69,1.69,0,0,1,.34,0ZM23,51c0-.34-.12-.62-.44-.62a.88.88,0,0,0-.68.59l-.06.19a4.73,4.73,0,0,0-.07.8c0,.4.11.79.43.79C22.75,52.77,23,51.66,23,51Z"/><path class="cls-8" d="M25.53,52.91a.86.86,0,0,1,.75-.85.67.67,0,0,1,.69.73.81.81,0,0,1-.77.86A.67.67,0,0,1,25.53,52.91Zm.6-3.14a.85.85,0,0,1,.75-.85.67.67,0,0,1,.69.73.81.81,0,0,1-.77.86A.67.67,0,0,1,26.13,49.77Z"/><path class="cls-8" d="M30.68,48.5h0L29.61,49l0-1,1.44-.7h1l-1.19,6.22H29.71Z"/><path class="cls-8" d="M37.42,48.41H36l-.32,1.16h0a1.32,1.32,0,0,1,1,.49A1.67,1.67,0,0,1,37,51.22a2.4,2.4,0,0,1-2.47,2.43,1.94,1.94,0,0,1-.95-.17l.3-1a1.57,1.57,0,0,0,.69.14,1.2,1.2,0,0,0,1.25-1.2c0-.7-.49-.95-1.08-.95a2.91,2.91,0,0,0-.4,0l.8-3.14h2.47Z"/><path class="cls-8" d="M43.26,50.48l-.17.9h-1.9l.17-.9Z"/><path class="cls-8" d="M48.87,48.5h0L47.8,49l0-1,1.44-.7h1l-1.19,6.22H47.9Z"/><path class="cls-8" d="M56.06,47.35l-.15.82C55,50,54,51.77,53.07,53.57h-1.2q1.39-2.57,2.77-5.14v0h-2l.2-1.06Z"/><path class="cls-8" d="M57,52.91a.86.86,0,0,1,.75-.85.67.67,0,0,1,.69.73.81.81,0,0,1-.77.86A.67.67,0,0,1,57,52.91Zm.6-3.14a.85.85,0,0,1,.75-.85.67.67,0,0,1,.69.73.81.81,0,0,1-.77.86A.67.67,0,0,1,57.55,49.77Z"/><path class="cls-8" d="M64,49.16c0,1.81-.69,4.49-2.44,4.49-1.14,0-1.38-1.07-1.38-1.93,0-2.1.87-4.44,2.43-4.44C63.88,47.27,64,48.44,64,49.16Zm-2.67,2.66c0,.52.11.81.39.81.75,0,1.12-3,1.12-3.65,0-.4-.1-.69-.34-.69C61.77,48.29,61.37,51,61.37,51.82Z"/><path class="cls-8" d="M68.84,48.41H67.37l-.32,1.16h0a1.32,1.32,0,0,1,1,.49,1.67,1.67,0,0,1,.37,1.17A2.4,2.4,0,0,1,66,53.65a1.94,1.94,0,0,1-.95-.17l.3-1a1.57,1.57,0,0,0,.69.14,1.2,1.2,0,0,0,1.25-1.2c0-.7-.49-.95-1.08-.95a2.91,2.91,0,0,0-.4,0l.8-3.14h2.47Z"/><path class="cls-8" d="M70,53.57l1.26-6.62h1.2L72,49.46h0a1.49,1.49,0,0,1,1.18-.65c.59,0,.85.42.85,1a5.11,5.11,0,0,1-.11.92l-.54,2.81h-1.2l.55-2.81a4.57,4.57,0,0,0,.06-.59c0-.23-.09-.37-.29-.37s-.64.4-.77,1.11l-.52,2.67Z"/><path class="cls-8" d="M17.45,105.2h0l-1.05.51,0-1,1.44-.7h1l-1.19,6.22H16.48Z"/><path class="cls-8" d="M24.64,104l-.15.82c-.94,1.8-1.87,3.6-2.84,5.4h-1.2q1.39-2.57,2.76-5.14v0h-2l.2-1.06Z"/><path class="cls-8" d="M25.53,109.61a.86.86,0,0,1,.75-.85.67.67,0,0,1,.69.73.81.81,0,0,1-.77.86A.67.67,0,0,1,25.53,109.61Zm.6-3.14a.85.85,0,0,1,.75-.85.67.67,0,0,1,.69.73.81.81,0,0,1-.77.86A.67.67,0,0,1,26.14,106.47Z"/><path class="cls-8" d="M30.68,105.2h0l-1.05.51,0-1L31,104h1l-1.19,6.22H29.71Z"/><path class="cls-8" d="M37.43,105.11H36l-.32,1.16h0a1.32,1.32,0,0,1,1,.49,1.67,1.67,0,0,1,.37,1.17,2.39,2.39,0,0,1-2.47,2.43,1.94,1.94,0,0,1-.95-.17l.3-1a1.57,1.57,0,0,0,.69.14,1.2,1.2,0,0,0,1.25-1.2c0-.7-.49-.95-1.08-.95a3,3,0,0,0-.4,0l.8-3.14h2.47Z"/><path class="cls-8" d="M43.26,107.18l-.17.9h-1.9l.17-.9Z"/><path class="cls-8" d="M48.87,105.2h0l-1.05.51,0-1,1.44-.7h1l-1.19,6.22H47.9Z"/><path class="cls-8" d="M55.87,105.37a1.82,1.82,0,0,1-1.08,1.6v0a1.79,1.79,0,0,1,.69,1.4,2,2,0,0,1-2,2,1.48,1.48,0,0,1-1.64-1.53,2.23,2.23,0,0,1,1.22-1.88v0a1.54,1.54,0,0,1-.53-1.19A1.77,1.77,0,0,1,54.39,104,1.34,1.34,0,0,1,55.87,105.37Zm-1.56,3.07a1.11,1.11,0,0,0-.55-1,1.65,1.65,0,0,0-.75,1.32c0,.45.13.8.53.8S54.31,109.06,54.31,108.44Zm-.65-2.73a.94.94,0,0,0,.44.83,1.35,1.35,0,0,0,.67-1.19c0-.38-.13-.6-.45-.6S53.66,105.19,53.66,105.71Z"/><path class="cls-8" d="M57,109.61a.86.86,0,0,1,.75-.85.67.67,0,0,1,.69.73.81.81,0,0,1-.77.86A.67.67,0,0,1,57,109.61Zm.6-3.14a.85.85,0,0,1,.75-.85.67.67,0,0,1,.69.73.81.81,0,0,1-.77.86A.67.67,0,0,1,57.56,106.47Z"/><path class="cls-8" d="M64,105.86c0,1.81-.69,4.49-2.44,4.49-1.14,0-1.38-1.07-1.38-1.93,0-2.09.87-4.44,2.43-4.44C63.88,104,64,105.14,64,105.86Zm-2.67,2.66c0,.52.11.81.39.81.75,0,1.12-3,1.12-3.66,0-.4-.1-.69-.34-.69C61.78,105,61.37,107.72,61.37,108.52Z"/><path class="cls-8" d="M68.85,105.11H67.37l-.32,1.16h0a1.32,1.32,0,0,1,1,.49,1.67,1.67,0,0,1,.37,1.17A2.39,2.39,0,0,1,66,110.34a1.94,1.94,0,0,1-.95-.17l.3-1a1.57,1.57,0,0,0,.69.14,1.2,1.2,0,0,0,1.25-1.2c0-.7-.49-.95-1.08-.95a3,3,0,0,0-.4,0l.8-3.14h2.47Z"/><path class="cls-8" d="M70,110.27l1.26-6.62h1.2L72,106.16h0a1.49,1.49,0,0,1,1.18-.65c.59,0,.85.42.85,1a5.1,5.1,0,0,1-.11.92l-.54,2.81h-1.2l.55-2.81a4.56,4.56,0,0,0,.06-.59c0-.23-.09-.37-.29-.37s-.64.4-.77,1.11l-.52,2.67Z"/><path class="cls-8" d="M17.45,161.89h0l-1.05.51,0-1,1.44-.7h1L17.66,167H16.48Z"/><path class="cls-8" d="M24.45,162.06a1.82,1.82,0,0,1-1.08,1.6v0a1.79,1.79,0,0,1,.69,1.4,2,2,0,0,1-2,2,1.48,1.48,0,0,1-1.64-1.53,2.23,2.23,0,0,1,1.22-1.87v0a1.54,1.54,0,0,1-.53-1.19A1.77,1.77,0,0,1,23,160.67,1.34,1.34,0,0,1,24.45,162.06Zm-1.56,3.07a1.11,1.11,0,0,0-.55-1,1.65,1.65,0,0,0-.75,1.32c0,.45.13.8.53.8S22.89,165.76,22.89,165.13Zm-.65-2.73a.94.94,0,0,0,.44.83,1.35,1.35,0,0,0,.67-1.19c0-.38-.13-.6-.45-.6S22.24,161.88,22.24,162.41Z"/><path class="cls-8" d="M25.53,166.3a.86.86,0,0,1,.75-.85.67.67,0,0,1,.69.73.8.8,0,0,1-.77.86A.67.67,0,0,1,25.53,166.3Zm.6-3.14a.85.85,0,0,1,.75-.85.67.67,0,0,1,.69.73.81.81,0,0,1-.77.86A.67.67,0,0,1,26.14,163.16Z"/><path class="cls-8" d="M28.4,167l.14-.84.7-.78c1-1.05,1.94-2.09,1.94-3a.64.64,0,0,0-.71-.72,1.53,1.53,0,0,0-.82.24l-.11-.91a2.78,2.78,0,0,1,1.31-.33,1.36,1.36,0,0,1,1.52,1.47c0,1.36-1.12,2.45-2,3.37l-.34.37v0h1.84L31.69,167Z"/><path class="cls-8" d="M37.68,162.55c0,1.81-.69,4.49-2.44,4.49-1.14,0-1.38-1.07-1.38-1.93,0-2.09.87-4.44,2.43-4.44C37.52,160.67,37.68,161.83,37.68,162.55ZM35,165.21c0,.52.11.81.39.81.75,0,1.12-3,1.12-3.65,0-.4-.1-.69-.34-.69C35.42,161.68,35,164.42,35,165.21Z"/><path class="cls-8" d="M43.26,163.87l-.17.9h-1.9l.17-.9Z"/><path class="cls-8" d="M48.87,161.89h0l-1.05.51,0-1,1.44-.7h1L49.08,167H47.9Z"/><path class="cls-8" d="M52.32,166a2.2,2.2,0,0,0,.48,0,1.8,1.8,0,0,0,.76-.37,2.93,2.93,0,0,0,.86-1.21h0a1.24,1.24,0,0,1-.87.34c-.82,0-1.19-.72-1.19-1.43,0-1.31.91-2.61,2.09-2.61s1.46,1,1.45,1.74a5.31,5.31,0,0,1-1.55,3.8,3.24,3.24,0,0,1-1.66.8,2.67,2.67,0,0,1-.52,0Zm1.21-2.84c0,.46.16.72.44.72a.73.73,0,0,0,.56-.39,1.66,1.66,0,0,0,.14-.53,3.44,3.44,0,0,0,.08-.72c0-.4-.1-.7-.41-.7C53.81,161.54,53.53,162.55,53.53,163.15Z"/><path class="cls-8" d="M57,166.3a.86.86,0,0,1,.75-.85.67.67,0,0,1,.69.73.8.8,0,0,1-.77.86A.67.67,0,0,1,57,166.3Zm.6-3.14a.85.85,0,0,1,.75-.85A.67.67,0,0,1,59,163a.81.81,0,0,1-.77.86A.67.67,0,0,1,57.56,163.16Z"/><path class="cls-8" d="M62.1,161.89h0L61,162.4l0-1,1.44-.7h1L62.31,167H61.13Z"/><path class="cls-8" d="M69.1,162.55c0,1.81-.69,4.49-2.44,4.49-1.14,0-1.38-1.07-1.38-1.93,0-2.09.87-4.44,2.43-4.44C68.94,160.67,69.1,161.83,69.1,162.55Zm-2.67,2.66c0,.52.11.81.39.81.75,0,1.12-3,1.12-3.65,0-.4-.1-.69-.34-.69C66.84,161.68,66.43,164.42,66.43,165.21Z"/><path class="cls-8" d="M70,167l1.26-6.62h1.2L72,162.86h0a1.49,1.49,0,0,1,1.18-.65c.59,0,.85.42.85,1a5.11,5.11,0,0,1-.11.92L73.38,167h-1.2l.55-2.81a4.57,4.57,0,0,0,.06-.59c0-.23-.09-.37-.29-.37s-.64.4-.77,1.11L71.21,167Z"/><path class="cls-8" d="M17.45,218.59h0l-1.05.51,0-1,1.44-.7h1l-1.19,6.22H16.48Z"/><path class="cls-8" d="M20.9,222.7a2.2,2.2,0,0,0,.48,0,1.8,1.8,0,0,0,.76-.37,2.93,2.93,0,0,0,.86-1.21h0a1.24,1.24,0,0,1-.87.34c-.82,0-1.19-.72-1.19-1.43,0-1.31.91-2.61,2.09-2.61s1.46,1,1.45,1.74a5.31,5.31,0,0,1-1.55,3.8,3.24,3.24,0,0,1-1.67.8,2.67,2.67,0,0,1-.52,0Zm1.21-2.84c0,.46.16.72.44.72a.73.73,0,0,0,.56-.39,1.66,1.66,0,0,0,.14-.53,3.44,3.44,0,0,0,.08-.72c0-.4-.1-.7-.41-.7C22.39,218.24,22.11,219.25,22.11,219.85Z"/><path class="cls-8" d="M25.53,223a.86.86,0,0,1,.75-.85.67.67,0,0,1,.69.73.8.8,0,0,1-.77.86A.67.67,0,0,1,25.53,223Zm.6-3.14a.85.85,0,0,1,.75-.85.67.67,0,0,1,.69.73.81.81,0,0,1-.77.86A.67.67,0,0,1,26.14,219.86Z"/><path class="cls-8" d="M28.84,222.54a2,2,0,0,0,.76.15,1,1,0,0,0,1.11-1,.84.84,0,0,0-.94-.86H29.6l.17-.94h.12c.44,0,1.12-.24,1.12-.88,0-.35-.24-.58-.67-.58a1.54,1.54,0,0,0-.67.16v-1a2.75,2.75,0,0,1,1.08-.22,1.31,1.31,0,0,1,1.5,1.34,1.72,1.72,0,0,1-1.13,1.6v0a1.38,1.38,0,0,1,.78,1.31,2.12,2.12,0,0,1-2.3,2.1,2.72,2.72,0,0,1-1.08-.19Z"/><path class="cls-8" d="M37.68,219.25c0,1.81-.69,4.49-2.44,4.49-1.14,0-1.38-1.07-1.38-1.93,0-2.09.87-4.44,2.43-4.44C37.52,217.37,37.68,218.53,37.68,219.25ZM35,221.91c0,.52.11.81.39.81.75,0,1.12-3,1.12-3.65,0-.4-.1-.69-.34-.69C35.42,218.38,35,221.12,35,221.91Z"/><path class="cls-8" d="M43.26,220.57l-.17.9h-1.9l.17-.9Z"/><path class="cls-8" d="M46.59,223.66l.14-.84.7-.78c1-1.05,1.94-2.09,1.94-3a.64.64,0,0,0-.71-.72,1.53,1.53,0,0,0-.82.24l-.11-.91a2.78,2.78,0,0,1,1.31-.33,1.36,1.36,0,0,1,1.52,1.47c0,1.36-1.12,2.45-2,3.37l-.34.37v0h1.84l-.19,1.06Z"/><path class="cls-8" d="M55.87,219.25c0,1.81-.69,4.49-2.44,4.49-1.14,0-1.38-1.07-1.38-1.93,0-2.09.87-4.44,2.43-4.44C55.71,217.37,55.87,218.53,55.87,219.25Zm-2.67,2.66c0,.52.11.81.39.81.75,0,1.12-3,1.12-3.65,0-.4-.1-.69-.34-.69C53.6,218.38,53.2,221.12,53.2,221.91Z"/><path class="cls-8" d="M57,223a.86.86,0,0,1,.75-.85.67.67,0,0,1,.69.73.8.8,0,0,1-.77.86A.67.67,0,0,1,57,223Zm.6-3.14a.85.85,0,0,1,.75-.85.67.67,0,0,1,.69.73.81.81,0,0,1-.77.86A.67.67,0,0,1,57.56,219.86Z"/><path class="cls-8" d="M60.26,222.54a2,2,0,0,0,.76.15,1,1,0,0,0,1.11-1,.84.84,0,0,0-.94-.86H61l.17-.94h.12c.44,0,1.12-.24,1.12-.88,0-.35-.24-.58-.67-.58a1.54,1.54,0,0,0-.67.16v-1a2.75,2.75,0,0,1,1.08-.22,1.31,1.31,0,0,1,1.5,1.34,1.72,1.72,0,0,1-1.13,1.6v0a1.38,1.38,0,0,1,.78,1.31,2.12,2.12,0,0,1-2.3,2.1,2.72,2.72,0,0,1-1.08-.19Z"/><path class="cls-8" d="M69.1,219.25c0,1.81-.69,4.49-2.44,4.49-1.14,0-1.38-1.07-1.38-1.93,0-2.09.87-4.44,2.43-4.44C68.94,217.37,69.1,218.53,69.1,219.25Zm-2.67,2.66c0,.52.11.81.39.81.75,0,1.12-3,1.12-3.65,0-.4-.1-.69-.34-.69C66.84,218.38,66.43,221.12,66.43,221.91Z"/><path class="cls-8" d="M70,223.66,71.28,217h1.2L72,219.56h0a1.49,1.49,0,0,1,1.18-.65c.59,0,.85.42.85,1a5.11,5.11,0,0,1-.11.92l-.54,2.81h-1.2l.55-2.81a4.57,4.57,0,0,0,.06-.59c0-.23-.09-.37-.29-.37s-.64.4-.77,1.11l-.52,2.67Z"/><rect class="cls-9" x="90.41" y="135.81" width="90.36" height="56.69"/><path class="cls-10" d="M122.07,154.77h1.17l-.58,3h0c.2-.4.36-.67.54-1l1.21-2.06h1.3l-2,2.85.74,3.6h-1.25l-.41-2.74-.42.58-.42,2.15h-1.17Z"/><path class="cls-10" d="M127.28,159.72l-.56,1.5h-1.17l2.61-6.45h1.4l.06,6.45h-1.16l0-1.5Zm1.23-.87,0-1.42c0-.39,0-1.07.06-1.56h0c-.15.49-.36,1.2-.5,1.55l-.52,1.43Z"/><path class="cls-10" d="M132.46,154.86a8.05,8.05,0,0,1,1.28-.11,2,2,0,0,1,1.43.44,1.48,1.48,0,0,1,.42,1.06,2,2,0,0,1-1.31,2v0c.35.16.51.54.53,1.25a12.86,12.86,0,0,0,.11,1.75H133.7c0-.18,0-.83,0-1.54s-.16-1-.56-1h-.2l-.48,2.58h-1.17Zm.62,2.85h.28c.6,0,1-.64,1-1.32,0-.34-.14-.71-.59-.71a1.4,1.4,0,0,0-.32,0Z"/><path class="cls-10" d="M137.87,159.72l-.56,1.5h-1.17l2.61-6.45h1.4l.06,6.45H139l0-1.5Zm1.23-.87,0-1.42c0-.39,0-1.07.06-1.56h0c-.15.49-.36,1.2-.5,1.55l-.52,1.43Z"/><path class="cls-10" d="M143.06,155.9h-1.12l.22-1.13h3.43l-.22,1.13h-1.12l-1,5.32H142Z"/><path class="cls-10" d="M149.13,158.37h-1.42l-.35,1.79H149l-.21,1.06H146l1.23-6.45h2.7l-.21,1.05h-1.48l-.32,1.53h1.44Z"/><path class="cls-10" d="M115.22,167.63h0l-1.05.51,0-1,1.44-.7h1l-1.19,6.22h-1.18Z"/><path class="cls-10" d="M122.22,168.29c0,1.81-.69,4.49-2.44,4.49-1.14,0-1.38-1.07-1.38-1.93,0-2.09.87-4.44,2.43-4.44C122.06,166.41,122.22,167.57,122.22,168.29ZM119.55,171c0,.52.11.81.39.81.75,0,1.12-3,1.12-3.65,0-.4-.1-.69-.34-.69C120,167.42,119.55,170.16,119.55,171Z"/><path class="cls-10" d="M125.48,169.61l-.17.9h-1.9l.17-.9Z"/><path class="cls-10" d="M128.77,167.63h0l-1.05.51,0-1,1.44-.7h1L129,172.7h-1.18Z"/><path class="cls-10" d="M131.56,172.7l.14-.84.7-.78c1-1.05,1.94-2.09,1.94-3a.64.64,0,0,0-.71-.72,1.53,1.53,0,0,0-.82.24l-.11-.91a2.78,2.78,0,0,1,1.31-.33,1.36,1.36,0,0,1,1.52,1.47c0,1.36-1.12,2.45-2,3.37l-.34.37v0H135l-.19,1.06Z"/><path class="cls-10" d="M141.37,172.7c0-.25,0-.51,0-.78h0a1.49,1.49,0,0,1-1.2.86c-.68,0-1-.58-1-1.41,0-1.42.71-3.42,2.72-3.42a3.6,3.6,0,0,1,1.22.19l-.52,2.6a10.83,10.83,0,0,0-.19,2Zm.43-3.84-.25,0c-.78,0-1.21,1.56-1.21,2.25,0,.41.06.71.35.71s.63-.54.8-1.39Z"/><path class="cls-10" d="M144,172.7l.6-3.16c.1-.54.18-1.08.25-1.52h1l0,.6h0a1.53,1.53,0,0,1,1.26-.68c.66,0,.91.46.91,1a4.46,4.46,0,0,1-.11.89l-.54,2.84h-1.2l.56-2.91a2.77,2.77,0,0,0,.06-.5c0-.22-.1-.37-.3-.37s-.65.41-.82,1.3l-.47,2.48Zm1.55-5.38c.07-.58.29-1.08.77-1.08a.87.87,0,0,1,.51.17c.11.09.22.18.3.18s.15-.07.23-.38H148c-.1.7-.35,1-.78,1a.88.88,0,0,1-.47-.15c-.15-.12-.24-.19-.33-.19s-.17.15-.21.41Z"/><path class="cls-10" d="M153.07,169.58c0,1.47-.78,3.2-2.21,3.2-1.18,0-1.44-.93-1.44-1.62,0-1.58.87-3.21,2.29-3.21C152.89,167.95,153.07,168.93,153.07,169.58Zm-2.46,1.52c0,.34,0,.77.38.77.57,0,.9-1.59.9-2.43,0-.32-.09-.58-.37-.58C151,168.86,150.6,170.3,150.61,171.1Z"/><path class="cls-10" d="M154.35,171.68a1.4,1.4,0,0,0,.76.19.5.5,0,0,0,.54-.53c0-.26-.12-.44-.45-.7a1.47,1.47,0,0,1-.59-1.14,1.59,1.59,0,0,1,1.73-1.56,1.88,1.88,0,0,1,.88.17L157,169a1.21,1.21,0,0,0-.56-.14c-.38,0-.62.2-.62.52s.13.38.35.56a1.55,1.55,0,0,1-1.09,2.83,1.9,1.9,0,0,1-1-.24Z"/><rect class="cls-7" x="451.87" y="192.5" width="90.36" height="56.69"/><rect class="cls-9" x="451.87" y="135.81" width="90.36" height="56.69"/><path class="cls-8" d="M483.53,154.77h1.17l-.58,3h0c.2-.4.36-.67.54-1l1.21-2.06h1.3l-2,2.85.74,3.6h-1.25l-.41-2.74-.42.58-.42,2.15h-1.17Z"/><path class="cls-8" d="M488.74,159.72l-.56,1.5H487l2.61-6.45H491l.06,6.45h-1.16l0-1.5Zm1.23-.87,0-1.42c0-.39,0-1.07.06-1.56h0c-.15.49-.36,1.2-.5,1.55l-.52,1.43Z"/><path class="cls-8" d="M493.92,154.86a8.06,8.06,0,0,1,1.28-.11,2,2,0,0,1,1.43.44,1.48,1.48,0,0,1,.42,1.06,2,2,0,0,1-1.31,2v0c.35.16.51.54.53,1.25a12.91,12.91,0,0,0,.1,1.75h-1.21c0-.18,0-.83,0-1.54s-.16-1-.56-1h-.2l-.48,2.58H492.7Zm.62,2.85h.28c.6,0,1-.64,1-1.32,0-.34-.14-.71-.59-.71a1.41,1.41,0,0,0-.32,0Z"/><path class="cls-8" d="M499.33,159.72l-.56,1.5H497.6l2.61-6.45h1.4l.06,6.45h-1.16l0-1.5Zm1.23-.87,0-1.42c0-.39,0-1.07.06-1.56h0c-.15.49-.36,1.2-.5,1.55l-.52,1.43Z"/><path class="cls-8" d="M504.52,155.9H503.4l.22-1.13h3.43l-.22,1.13h-1.12l-1,5.32h-1.2Z"/><path class="cls-8" d="M510.59,158.37h-1.42l-.35,1.79h1.63l-.21,1.06h-2.81l1.23-6.45h2.7l-.21,1.05h-1.48l-.32,1.53h1.45Z"/><path class="cls-8" d="M476.67,167.63h0l-1.05.51,0-1,1.45-.7h1l-1.19,6.22h-1.18Z"/><path class="cls-8" d="M483.68,168.29c0,1.81-.69,4.49-2.44,4.49-1.14,0-1.38-1.07-1.38-1.93,0-2.09.87-4.44,2.43-4.44C483.52,166.41,483.68,167.58,483.68,168.29ZM481,171c0,.52.1.81.39.81.75,0,1.12-3,1.12-3.65,0-.4-.11-.69-.34-.69C481.41,167.42,481,170.16,481,171Z"/><path class="cls-8" d="M486.94,169.61l-.17.9h-1.9l.17-.9Z"/><path class="cls-8" d="M490.23,167.63h0l-1.05.51,0-1,1.45-.7h1l-1.19,6.22h-1.18Z"/><path class="cls-8" d="M493,172.7l.14-.84.7-.78c1-1.05,1.94-2.09,1.94-3a.64.64,0,0,0-.71-.72,1.53,1.53,0,0,0-.82.24l-.12-.91a2.78,2.78,0,0,1,1.31-.33,1.36,1.36,0,0,1,1.52,1.47c0,1.36-1.12,2.45-2,3.37l-.34.37v0h1.84l-.19,1.06Z"/><path class="cls-8" d="M502.82,172.7c0-.25,0-.51,0-.78h0a1.49,1.49,0,0,1-1.2.86c-.68,0-1-.58-1-1.41,0-1.42.71-3.42,2.72-3.42a3.6,3.6,0,0,1,1.22.19l-.52,2.6a10.74,10.74,0,0,0-.19,2Zm.43-3.84-.25,0c-.78,0-1.21,1.56-1.21,2.25,0,.41.06.71.35.71s.63-.54.8-1.39Z"/><path class="cls-8" d="M505.49,172.7l.6-3.16c.11-.54.18-1.08.25-1.52h1l0,.6h0a1.53,1.53,0,0,1,1.26-.68c.66,0,.91.46.91,1a4.42,4.42,0,0,1-.12.89l-.54,2.84h-1.2l.55-2.91a2.69,2.69,0,0,0,.06-.5c0-.22-.1-.37-.3-.37s-.65.41-.82,1.3l-.47,2.48Zm1.55-5.38c.07-.58.29-1.08.78-1.08a.87.87,0,0,1,.51.17c.12.09.22.18.3.18s.15-.07.23-.38h.56c-.1.7-.35,1-.78,1a.88.88,0,0,1-.47-.15c-.15-.12-.24-.19-.33-.19s-.17.15-.21.41Z"/><path class="cls-8" d="M514.53,169.58c0,1.47-.79,3.2-2.21,3.2-1.18,0-1.44-.93-1.44-1.62,0-1.58.87-3.21,2.29-3.21C514.35,167.95,514.53,168.93,514.53,169.58Zm-2.46,1.52c0,.34,0,.77.38.77.57,0,.9-1.59.9-2.43,0-.32-.09-.58-.37-.58C512.46,168.86,512.06,170.3,512.07,171.11Z"/><path class="cls-8" d="M515.81,171.68a1.4,1.4,0,0,0,.75.19.5.5,0,0,0,.54-.53c0-.26-.12-.44-.45-.7a1.47,1.47,0,0,1-.59-1.14,1.59,1.59,0,0,1,1.73-1.56,1.89,1.89,0,0,1,.88.17l-.26.87a1.21,1.21,0,0,0-.55-.14c-.38,0-.62.2-.62.52s.13.38.35.56a1.56,1.56,0,0,1,.7,1.22,1.58,1.58,0,0,1-1.79,1.61,1.9,1.9,0,0,1-1-.24Z"/><rect class="cls-5" x="90.41" y="79.11" width="90.36" height="56.69"/><path class="cls-10" d="M122.07,92.34h1.17l-.58,3h0c.2-.4.36-.67.54-1l1.21-2.06h1.3l-2,2.85.74,3.6h-1.25l-.41-2.74-.42.58L122,98.79h-1.17Z"/><path class="cls-10" d="M127.28,97.29l-.56,1.5h-1.17l2.61-6.45h1.4l.06,6.45h-1.16l0-1.5Zm1.23-.87,0-1.43c0-.39,0-1.07.06-1.56h0c-.15.49-.36,1.2-.5,1.55l-.52,1.43Z"/><path class="cls-10" d="M132.46,92.42a7.94,7.94,0,0,1,1.28-.12,2,2,0,0,1,1.43.44,1.48,1.48,0,0,1,.42,1.06,2,2,0,0,1-1.31,2v0c.35.16.51.54.53,1.25a12.86,12.86,0,0,0,.11,1.75H133.7c0-.18,0-.83,0-1.54s-.16-1-.56-1h-.2l-.48,2.58h-1.17Zm.62,2.85h.28c.6,0,1-.64,1-1.32,0-.34-.14-.71-.59-.71a1.39,1.39,0,0,0-.32,0Z"/><path class="cls-10" d="M137.87,97.29l-.56,1.5h-1.17l2.61-6.45h1.4l.06,6.45H139l0-1.5Zm1.23-.87,0-1.43c0-.39,0-1.07.06-1.56h0c-.15.49-.36,1.2-.5,1.55l-.52,1.43Z"/><path class="cls-10" d="M143.06,93.47h-1.12l.22-1.13h3.43l-.22,1.13h-1.12l-1,5.32H142Z"/><path class="cls-10" d="M149.13,95.94h-1.42l-.35,1.79H149l-.21,1.06H146l1.23-6.45h2.7l-.21,1.05h-1.48l-.32,1.53h1.44Z"/><path class="cls-10" d="M122.41,104l-.15.82c-.94,1.8-1.87,3.6-2.84,5.4h-1.2q1.39-2.57,2.77-5.14v0h-2l.2-1.06Z"/><path class="cls-10" d="M125.48,107.18l-.17.9h-1.9l.17-.9Z"/><path class="cls-10" d="M127.17,109.3a2.2,2.2,0,0,0,.48,0,1.8,1.8,0,0,0,.76-.37,2.93,2.93,0,0,0,.86-1.21h0a1.25,1.25,0,0,1-.87.34c-.82,0-1.19-.72-1.19-1.43,0-1.31.91-2.61,2.09-2.61s1.46,1,1.45,1.74a5.31,5.31,0,0,1-1.55,3.8,3.24,3.24,0,0,1-1.66.8,2.67,2.67,0,0,1-.52,0Zm1.21-2.84c0,.46.16.72.44.72a.73.73,0,0,0,.56-.39,1.67,1.67,0,0,0,.14-.53,3.44,3.44,0,0,0,.08-.72c0-.4-.1-.7-.41-.7C128.65,104.84,128.37,105.86,128.37,106.46Z"/><path class="cls-10" d="M136.3,110.27c0-.25,0-.51,0-.79h0a1.49,1.49,0,0,1-1.2.86c-.68,0-1-.58-1-1.41,0-1.42.71-3.42,2.72-3.42a3.6,3.6,0,0,1,1.22.19l-.52,2.6a10.84,10.84,0,0,0-.19,2Zm.43-3.84-.25,0c-.78,0-1.21,1.56-1.21,2.25,0,.41.06.71.35.71s.63-.54.8-1.39Z"/><path class="cls-10" d="M139,110.27l.6-3.16c.1-.55.18-1.08.25-1.52h1l0,.6h0a1.54,1.54,0,0,1,1.26-.68c.66,0,.91.46.91,1a4.46,4.46,0,0,1-.11.89l-.54,2.84h-1.2l.56-2.91a2.75,2.75,0,0,0,.06-.5c0-.22-.1-.37-.3-.37s-.65.41-.82,1.3l-.47,2.48Zm1.55-5.38c.07-.58.29-1.08.77-1.08a.87.87,0,0,1,.51.17c.11.09.22.18.3.18s.15-.07.23-.38h.56c-.1.7-.35,1-.78,1a.88.88,0,0,1-.47-.15c-.15-.12-.24-.19-.33-.19s-.17.15-.21.41Z"/><path class="cls-10" d="M148,107.15c0,1.47-.78,3.2-2.21,3.2-1.18,0-1.44-.93-1.44-1.62,0-1.58.87-3.21,2.29-3.21C147.83,105.51,148,106.5,148,107.15Zm-2.46,1.52c0,.34,0,.76.38.76.57,0,.9-1.59.9-2.43,0-.32-.09-.58-.37-.58C145.94,106.42,145.54,107.87,145.55,108.67Z"/><path class="cls-10" d="M149.29,109.24a1.39,1.39,0,0,0,.76.19.5.5,0,0,0,.54-.53c0-.26-.12-.44-.45-.7a1.47,1.47,0,0,1-.59-1.14,1.59,1.59,0,0,1,1.73-1.56,1.88,1.88,0,0,1,.88.17l-.26.87a1.21,1.21,0,0,0-.56-.14c-.38,0-.62.2-.62.52s.13.38.35.56a1.56,1.56,0,0,1,.7,1.22,1.58,1.58,0,0,1-1.79,1.61,1.9,1.9,0,0,1-1-.24Z"/><path class="cls-10" d="M123.31,121.57a3.55,3.55,0,0,1-1.27.24,1.83,1.83,0,0,1-1.57-.67,2.69,2.69,0,0,1-.48-1.61,5,5,0,0,1,1.22-3.4,2.88,2.88,0,0,1,2.1-.89,2.57,2.57,0,0,1,1,.17l-.38,1.05a1.93,1.93,0,0,0-.7-.13,1.45,1.45,0,0,0-1.07.43,4,4,0,0,0-.92,2.75c0,.8.26,1.26.77,1.26a1.28,1.28,0,0,0,.34,0l.3-1.6h-.58l.2-1H124Z"/><path class="cls-10" d="M125.05,121.75l.6-3.18c.1-.54.17-1.07.24-1.5h1c0,.24,0,.49-.07.78h0A1.42,1.42,0,0,1,128,117a.58.58,0,0,1,.19,0l-.22,1.2h-.2c-.52,0-1,.59-1.15,1.39l-.41,2.16Z"/><path class="cls-10" d="M133,117.07l-.59,3.15c-.11.56-.18,1.08-.24,1.53h-1l0-.62,0,0a1.47,1.47,0,0,1-1.22.72c-.62,0-.89-.47-.89-1.08a5.29,5.29,0,0,1,.11-1l.51-2.71h1.2l-.51,2.66a4.71,4.71,0,0,0-.09.75c0,.23.09.37.29.37s.61-.4.75-1.07l.5-2.71Z"/><path class="cls-10" d="M133.63,123.59l.95-5c.1-.56.18-1.08.25-1.54h1l-.08.68h0A1.45,1.45,0,0,1,137,117c.84,0,1,.73,1,1.44,0,1.57-.84,3.39-2.21,3.39a1.29,1.29,0,0,1-.57-.11h0l-.34,1.88Zm1.69-2.76a.55.55,0,0,0,.33.11c.73,0,1.08-1.59,1.08-2.29,0-.32,0-.64-.34-.64s-.63.49-.75,1.05Z"/><path class="cls-10" d="M142.92,118.63c0,1.47-.78,3.2-2.21,3.2-1.18,0-1.44-.93-1.44-1.62,0-1.58.87-3.21,2.29-3.21C142.75,117,142.92,118,142.92,118.63Zm-2.46,1.52c0,.34,0,.77.38.77.57,0,.9-1.59.9-2.43,0-.32-.09-.58-.37-.58C140.86,117.9,140.46,119.35,140.47,120.15Z"/><path class="cls-10" d="M147.75,120.25l-.56,1.5H146l2.61-6.45H150l.06,6.45h-1.16l0-1.5Zm1.23-.87,0-1.42c0-.39,0-1.07.06-1.56h0c-.15.49-.36,1.2-.5,1.55l-.52,1.43Z"/><path class="cls-8" d="M302.79,92.34H304l-.58,3h0c.2-.4.36-.67.54-1l1.21-2.06h1.3l-2,2.85.74,3.6H304l-.41-2.74-.42.58-.42,2.15h-1.17Z"/><path class="cls-8" d="M308,97.29l-.56,1.5h-1.17l2.61-6.45h1.4l.06,6.45h-1.16l0-1.5Zm1.23-.87,0-1.43c0-.39,0-1.07.06-1.56h0c-.15.49-.36,1.2-.5,1.55l-.52,1.44Z"/><path class="cls-8" d="M313.19,92.42a8.06,8.06,0,0,1,1.28-.11,2,2,0,0,1,1.43.44,1.48,1.48,0,0,1,.42,1.06,2,2,0,0,1-1.31,2v0c.35.16.51.54.53,1.25a12.91,12.91,0,0,0,.1,1.75h-1.21c0-.18,0-.83,0-1.54s-.16-1-.56-1h-.2l-.48,2.58H312Zm.62,2.85h.28c.6,0,1-.64,1-1.32,0-.34-.14-.71-.59-.71a1.47,1.47,0,0,0-.32,0Z"/><path class="cls-8" d="M318.6,97.29l-.56,1.5h-1.17l2.61-6.45h1.4l.06,6.45h-1.16l0-1.5Zm1.23-.87,0-1.43c0-.39,0-1.07.06-1.56h0c-.15.49-.36,1.2-.5,1.55l-.52,1.44Z"/><path class="cls-8" d="M323.79,93.47h-1.12l.22-1.13h3.43l-.22,1.13H325l-1,5.32h-1.2Z"/><path class="cls-8" d="M329.86,95.94h-1.42l-.35,1.79h1.63l-.21,1.06H326.7l1.23-6.45h2.7l-.21,1.05h-1.48l-.32,1.53h1.45Z"/><path class="cls-8" d="M303.14,104l-.15.82c-.94,1.8-1.87,3.6-2.84,5.4h-1.2q1.39-2.57,2.76-5.14v0h-2l.2-1.06Z"/><path class="cls-8" d="M306.21,107.18l-.17.9h-1.9l.17-.9Z"/><path class="cls-8" d="M307.89,109.3a2.2,2.2,0,0,0,.48,0,1.8,1.8,0,0,0,.76-.37,2.93,2.93,0,0,0,.86-1.22h0a1.24,1.24,0,0,1-.87.34c-.82,0-1.19-.72-1.19-1.43,0-1.31.91-2.61,2.09-2.61s1.46,1,1.45,1.74a5.31,5.31,0,0,1-1.55,3.8,3.24,3.24,0,0,1-1.67.8,2.58,2.58,0,0,1-.52,0Zm1.21-2.84c0,.46.16.72.44.72a.73.73,0,0,0,.56-.39,1.65,1.65,0,0,0,.14-.53,3.42,3.42,0,0,0,.08-.72c0-.4-.1-.7-.41-.7C309.38,104.84,309.1,105.86,309.1,106.46Z"/><path class="cls-8" d="M317,110.27c0-.25,0-.51,0-.78h0a1.49,1.49,0,0,1-1.2.86c-.68,0-1-.58-1-1.41,0-1.42.71-3.42,2.72-3.42a3.63,3.63,0,0,1,1.22.19l-.52,2.6a10.74,10.74,0,0,0-.19,2Zm.43-3.84-.25,0c-.78,0-1.21,1.56-1.21,2.25,0,.41.06.71.35.71s.63-.54.8-1.39Z"/><path class="cls-8" d="M319.7,110.27l.6-3.16c.11-.54.18-1.08.25-1.52h1l0,.6h0a1.53,1.53,0,0,1,1.26-.68c.66,0,.91.46.91,1a4.43,4.43,0,0,1-.12.89l-.54,2.84h-1.2l.55-2.91a2.68,2.68,0,0,0,.06-.5c0-.22-.1-.37-.3-.37s-.65.41-.82,1.3l-.47,2.48Zm1.55-5.38c.07-.58.29-1.08.78-1.08a.87.87,0,0,1,.51.17c.12.09.22.18.3.18s.15-.07.23-.38h.56c-.1.7-.35,1-.78,1a.88.88,0,0,1-.47-.15c-.15-.12-.24-.19-.33-.19s-.17.15-.21.41Z"/><path class="cls-8" d="M328.73,107.15c0,1.47-.79,3.2-2.21,3.2-1.18,0-1.44-.93-1.44-1.62,0-1.58.87-3.21,2.29-3.21C328.56,105.51,328.73,106.5,328.73,107.15Zm-2.46,1.52c0,.34,0,.77.38.77.57,0,.9-1.59.9-2.43,0-.32-.09-.58-.37-.58C326.67,106.42,326.26,107.87,326.27,108.67Z"/><path class="cls-8" d="M330,109.25a1.39,1.39,0,0,0,.76.19.5.5,0,0,0,.54-.53c0-.26-.12-.44-.45-.7a1.47,1.47,0,0,1-.59-1.14,1.59,1.59,0,0,1,1.73-1.56,1.88,1.88,0,0,1,.88.17l-.26.87a1.22,1.22,0,0,0-.55-.14c-.38,0-.62.2-.62.52s.13.38.35.56a1.55,1.55,0,0,1-1.09,2.83,1.89,1.89,0,0,1-1-.24Z"/><path class="cls-8" d="M304,121.57a3.55,3.55,0,0,1-1.27.24,1.83,1.83,0,0,1-1.57-.67,2.69,2.69,0,0,1-.48-1.61,5,5,0,0,1,1.21-3.4,2.88,2.88,0,0,1,2.1-.89,2.57,2.57,0,0,1,1,.17l-.38,1.05a1.94,1.94,0,0,0-.7-.13,1.45,1.45,0,0,0-1.07.43,4,4,0,0,0-.92,2.75c0,.8.26,1.26.78,1.26a1.28,1.28,0,0,0,.34,0l.3-1.6h-.58l.2-1h1.67Z"/><path class="cls-8" d="M305.78,121.75l.6-3.18c.11-.54.17-1.07.24-1.5h1c0,.24,0,.49-.07.78h0a1.42,1.42,0,0,1,1.16-.85.58.58,0,0,1,.19,0l-.22,1.2h-.2c-.52,0-1,.59-1.15,1.39l-.41,2.16Z"/><path class="cls-8" d="M313.74,117.07l-.59,3.15c-.12.56-.18,1.08-.24,1.53h-1l0-.62,0,0a1.47,1.47,0,0,1-1.21.72c-.62,0-.89-.47-.89-1.08a5.25,5.25,0,0,1,.12-1l.51-2.71h1.2l-.51,2.66a4.7,4.7,0,0,0-.09.75c0,.23.09.37.29.37s.61-.4.75-1.07l.5-2.71Z"/><path class="cls-8" d="M314.36,123.59l.95-5c.11-.56.18-1.08.25-1.54h1l-.08.68h0a1.45,1.45,0,0,1,1.17-.76c.84,0,1,.73,1,1.44,0,1.57-.84,3.39-2.21,3.39a1.28,1.28,0,0,1-.57-.11h0l-.34,1.88Zm1.69-2.76a.55.55,0,0,0,.33.11c.73,0,1.08-1.59,1.08-2.29,0-.32,0-.64-.34-.64s-.63.49-.75,1.05Z"/><path class="cls-8" d="M323.65,118.63c0,1.47-.79,3.2-2.21,3.2-1.18,0-1.44-.93-1.44-1.62,0-1.58.87-3.21,2.29-3.21C323.48,117,323.65,118,323.65,118.63Zm-2.46,1.52c0,.34,0,.77.38.77.57,0,.9-1.59.9-2.43,0-.32-.09-.58-.37-.58C321.59,117.9,321.18,119.35,321.19,120.15Z"/><path class="cls-8" d="M328.48,120.25l-.56,1.5h-1.17l2.61-6.45h1.4l.06,6.45h-1.16l0-1.5Zm1.23-.87,0-1.42c0-.39,0-1.07.06-1.56h0c-.15.49-.36,1.2-.5,1.55l-.52,1.43Z"/><rect class="cls-5" x="180.78" y="79.11" width="90.36" height="56.69"/><path class="cls-8" d="M212.43,92.34h1.17l-.58,3h0c.2-.4.36-.67.54-1l1.21-2.06h1.3l-2,2.85.74,3.6h-1.25l-.41-2.74-.42.58-.42,2.15H211.2Z"/><path class="cls-8" d="M217.65,97.29l-.56,1.5h-1.17l2.61-6.45h1.4l.06,6.45h-1.16l0-1.5Zm1.23-.87,0-1.43c0-.39,0-1.07.06-1.56h0c-.15.49-.36,1.2-.5,1.55l-.52,1.44Z"/><path class="cls-8" d="M222.82,92.42a8.06,8.06,0,0,1,1.28-.11,2,2,0,0,1,1.43.44,1.48,1.48,0,0,1,.42,1.06,2,2,0,0,1-1.31,2v0c.35.16.51.54.53,1.25a12.91,12.91,0,0,0,.1,1.75h-1.21c0-.18,0-.83,0-1.54s-.16-1-.56-1h-.2l-.48,2.58h-1.17Zm.62,2.85h.28c.6,0,1-.64,1-1.32,0-.34-.14-.71-.59-.71a1.47,1.47,0,0,0-.32,0Z"/><path class="cls-8" d="M228.24,97.29l-.56,1.5h-1.17l2.61-6.45h1.4l.06,6.45h-1.16l0-1.5Zm1.23-.87,0-1.43c0-.39,0-1.07.06-1.56h0c-.15.49-.36,1.2-.5,1.55l-.52,1.44Z"/><path class="cls-8" d="M233.42,93.47H232.3l.22-1.13H236l-.22,1.13h-1.12l-1,5.32h-1.2Z"/><path class="cls-8" d="M239.5,95.94h-1.42l-.35,1.79h1.63l-.21,1.06h-2.81l1.23-6.45h2.7l-.21,1.05h-1.48l-.32,1.53h1.45Z"/><path class="cls-8" d="M212.78,104l-.15.82c-.94,1.8-1.87,3.6-2.84,5.4h-1.2q1.39-2.57,2.76-5.14v0h-2l.2-1.06Z"/><path class="cls-8" d="M215.85,107.18l-.17.9h-1.9l.17-.9Z"/><path class="cls-8" d="M217.53,109.3a2.2,2.2,0,0,0,.48,0,1.8,1.8,0,0,0,.76-.37,2.93,2.93,0,0,0,.86-1.22h0a1.24,1.24,0,0,1-.87.34c-.82,0-1.19-.72-1.19-1.43,0-1.31.91-2.61,2.09-2.61s1.46,1,1.45,1.74a5.31,5.31,0,0,1-1.55,3.8,3.24,3.24,0,0,1-1.67.8,2.58,2.58,0,0,1-.52,0Zm1.21-2.84c0,.46.16.72.44.72a.73.73,0,0,0,.56-.39,1.65,1.65,0,0,0,.14-.53,3.42,3.42,0,0,0,.08-.72c0-.4-.1-.7-.41-.7C219,104.84,218.74,105.86,218.74,106.46Z"/><path class="cls-8" d="M226.67,110.27c0-.25,0-.51,0-.78h0a1.49,1.49,0,0,1-1.2.86c-.68,0-1-.58-1-1.41,0-1.42.71-3.42,2.72-3.42a3.63,3.63,0,0,1,1.22.19l-.52,2.6a10.74,10.74,0,0,0-.19,2Zm.43-3.84-.25,0c-.78,0-1.21,1.56-1.21,2.25,0,.41.06.71.35.71s.63-.54.8-1.39Z"/><path class="cls-8" d="M229.34,110.27l.6-3.16c.11-.54.18-1.08.25-1.52h1l0,.6h0a1.53,1.53,0,0,1,1.26-.68c.66,0,.91.46.91,1a4.43,4.43,0,0,1-.12.89l-.54,2.84h-1.2l.55-2.91a2.68,2.68,0,0,0,.06-.5c0-.22-.1-.37-.3-.37s-.65.41-.82,1.3l-.47,2.48Zm1.55-5.38c.07-.58.29-1.08.78-1.08a.87.87,0,0,1,.51.17c.12.09.22.18.3.18s.15-.07.23-.38h.56c-.1.7-.35,1-.78,1a.88.88,0,0,1-.47-.15c-.15-.12-.24-.19-.33-.19s-.17.15-.21.41Z"/><path class="cls-8" d="M238.37,107.15c0,1.47-.79,3.2-2.21,3.2-1.18,0-1.44-.93-1.44-1.62,0-1.58.87-3.21,2.29-3.21C238.2,105.51,238.37,106.5,238.37,107.15Zm-2.46,1.52c0,.34,0,.77.38.77.57,0,.9-1.59.9-2.43,0-.32-.09-.58-.37-.58C236.3,106.42,235.9,107.87,235.91,108.67Z"/><path class="cls-8" d="M239.65,109.25a1.39,1.39,0,0,0,.76.19.5.5,0,0,0,.54-.53c0-.26-.12-.44-.45-.7a1.47,1.47,0,0,1-.59-1.14,1.59,1.59,0,0,1,1.73-1.56,1.88,1.88,0,0,1,.88.17l-.26.87a1.22,1.22,0,0,0-.55-.14c-.38,0-.62.2-.62.52s.13.38.35.56a1.55,1.55,0,0,1-1.09,2.83,1.89,1.89,0,0,1-1-.24Z"/><path class="cls-8" d="M213.57,121.57a3.55,3.55,0,0,1-1.27.24,1.83,1.83,0,0,1-1.57-.67,2.69,2.69,0,0,1-.48-1.61,5,5,0,0,1,1.21-3.4,2.88,2.88,0,0,1,2.1-.89,2.57,2.57,0,0,1,1,.17l-.38,1.05a1.94,1.94,0,0,0-.7-.13,1.45,1.45,0,0,0-1.07.43,4,4,0,0,0-.92,2.75c0,.8.26,1.26.78,1.26a1.28,1.28,0,0,0,.34,0l.3-1.6h-.58l.2-1h1.67Z"/><path class="cls-8" d="M215.31,121.75l.6-3.18c.11-.54.17-1.07.24-1.5h1c0,.24,0,.49-.07.78h0a1.42,1.42,0,0,1,1.16-.85.58.58,0,0,1,.19,0l-.22,1.2h-.2c-.52,0-1,.59-1.15,1.39l-.41,2.16Z"/><path class="cls-8" d="M223.27,117.07l-.59,3.15c-.12.56-.18,1.08-.24,1.53h-1l0-.62,0,0a1.47,1.47,0,0,1-1.21.72c-.62,0-.89-.47-.89-1.08a5.25,5.25,0,0,1,.12-1l.51-2.71h1.2l-.51,2.66a4.7,4.7,0,0,0-.09.75c0,.23.09.37.29.37s.61-.4.75-1.07l.5-2.71Z"/><path class="cls-8" d="M223.89,123.59l.95-5c.11-.56.18-1.08.25-1.54h1l-.08.68h0a1.45,1.45,0,0,1,1.17-.76c.84,0,1,.73,1,1.44,0,1.57-.84,3.39-2.21,3.39a1.28,1.28,0,0,1-.57-.11h0l-.34,1.88Zm1.69-2.76a.55.55,0,0,0,.33.11c.73,0,1.08-1.59,1.08-2.29,0-.32,0-.64-.34-.64s-.63.49-.75,1.05Z"/><path class="cls-8" d="M233.18,118.63c0,1.47-.79,3.2-2.21,3.2-1.18,0-1.44-.93-1.44-1.62,0-1.58.87-3.21,2.29-3.21C233,117,233.18,118,233.18,118.63Zm-2.46,1.52c0,.34,0,.77.38.77.57,0,.9-1.59.9-2.43,0-.32-.09-.58-.37-.58C231.12,117.9,230.71,119.35,230.72,120.15Z"/><path class="cls-8" d="M238,115.39a6.6,6.6,0,0,1,1.24-.11,2,2,0,0,1,1.45.45,1.35,1.35,0,0,1,.39,1,1.74,1.74,0,0,1-1.23,1.64v0a1.35,1.35,0,0,1,.85,1.38,1.88,1.88,0,0,1-.69,1.42,3.1,3.1,0,0,1-2,.56,5.65,5.65,0,0,1-1.2-.09Zm.1,5.43a1.48,1.48,0,0,0,.3,0,1.09,1.09,0,0,0,1.14-1.16.79.79,0,0,0-.82-.9h-.21Zm.57-2.92h.17a1,1,0,0,0,1.09-1.05.62.62,0,0,0-.62-.7,1.16,1.16,0,0,0-.33,0Z"/><rect class="cls-5" x="361.51" y="79.11" width="90.36" height="56.69"/><path class="cls-8" d="M393.16,92.34h1.17l-.58,3h0c.2-.4.36-.67.54-1l1.21-2.06h1.3l-2,2.85.74,3.6h-1.25l-.41-2.74-.42.58-.42,2.15h-1.17Z"/><path class="cls-8" d="M398.37,97.29l-.56,1.5h-1.17l2.61-6.45h1.4l.06,6.45h-1.16l0-1.5Zm1.23-.87,0-1.43c0-.39,0-1.07.06-1.56h0c-.15.49-.36,1.2-.5,1.55l-.52,1.44Z"/><path class="cls-8" d="M403.55,92.42a8.06,8.06,0,0,1,1.28-.11,2,2,0,0,1,1.43.44,1.48,1.48,0,0,1,.42,1.06,2,2,0,0,1-1.31,2v0c.35.16.51.54.53,1.25a12.91,12.91,0,0,0,.1,1.75h-1.21c0-.18,0-.83,0-1.54s-.16-1-.56-1H404l-.48,2.58h-1.17Zm.62,2.85h.28c.6,0,1-.64,1-1.32,0-.34-.14-.71-.59-.71a1.47,1.47,0,0,0-.32,0Z"/><path class="cls-8" d="M409,97.29l-.56,1.5h-1.17l2.61-6.45h1.4l.06,6.45h-1.16l0-1.5Zm1.23-.87,0-1.43c0-.39,0-1.07.06-1.56h0c-.15.49-.36,1.2-.5,1.55l-.52,1.44Z"/><path class="cls-8" d="M414.15,93.47H413l.22-1.13h3.43l-.22,1.13h-1.12l-1,5.32h-1.2Z"/><path class="cls-8" d="M420.23,95.94h-1.42l-.35,1.79h1.63l-.21,1.06h-2.81l1.23-6.45H421l-.21,1.05H419.3L419,94.92h1.45Z"/><path class="cls-8" d="M393.5,104l-.15.82c-.94,1.8-1.87,3.6-2.84,5.4h-1.2q1.39-2.57,2.76-5.14v0h-2l.2-1.06Z"/><path class="cls-8" d="M396.57,107.18l-.17.9h-1.9l.17-.9Z"/><path class="cls-8" d="M398.26,109.3a2.2,2.2,0,0,0,.48,0,1.8,1.8,0,0,0,.76-.37,2.93,2.93,0,0,0,.86-1.22h0a1.24,1.24,0,0,1-.87.34c-.82,0-1.19-.72-1.19-1.43,0-1.31.91-2.61,2.09-2.61s1.46,1,1.45,1.74a5.31,5.31,0,0,1-1.55,3.8,3.24,3.24,0,0,1-1.67.8,2.58,2.58,0,0,1-.52,0Zm1.21-2.84c0,.46.16.72.44.72a.73.73,0,0,0,.56-.39,1.65,1.65,0,0,0,.14-.53,3.42,3.42,0,0,0,.08-.72c0-.4-.1-.7-.41-.7C399.74,104.84,399.46,105.86,399.46,106.46Z"/><path class="cls-8" d="M407.4,110.27c0-.25,0-.51,0-.78h0a1.49,1.49,0,0,1-1.2.86c-.68,0-1-.58-1-1.41,0-1.42.71-3.42,2.72-3.42a3.63,3.63,0,0,1,1.22.19l-.52,2.6a10.74,10.74,0,0,0-.19,2Zm.43-3.84-.25,0c-.78,0-1.21,1.56-1.21,2.25,0,.41.06.71.35.71s.63-.54.8-1.39Z"/><path class="cls-8" d="M410.07,110.27l.6-3.16c.11-.54.18-1.08.25-1.52h1l0,.6h0a1.53,1.53,0,0,1,1.26-.68c.66,0,.91.46.91,1a4.43,4.43,0,0,1-.12.89l-.54,2.84h-1.2l.55-2.91a2.68,2.68,0,0,0,.06-.5c0-.22-.1-.37-.3-.37s-.65.41-.82,1.3l-.47,2.48Zm1.55-5.38c.07-.58.29-1.08.78-1.08a.87.87,0,0,1,.51.17c.12.09.22.18.3.18s.15-.07.23-.38H414c-.1.7-.35,1-.78,1a.88.88,0,0,1-.47-.15c-.15-.12-.24-.19-.33-.19s-.17.15-.21.41Z"/><path class="cls-8" d="M419.1,107.15c0,1.47-.79,3.2-2.21,3.2-1.18,0-1.44-.93-1.44-1.62,0-1.58.87-3.21,2.29-3.21C418.92,105.51,419.1,106.5,419.1,107.15Zm-2.46,1.52c0,.34,0,.77.38.77.57,0,.9-1.59.9-2.43,0-.32-.09-.58-.37-.58C417,106.42,416.63,107.87,416.64,108.67Z"/><path class="cls-8" d="M420.38,109.25a1.39,1.39,0,0,0,.76.19.5.5,0,0,0,.54-.53c0-.26-.12-.44-.45-.7a1.47,1.47,0,0,1-.59-1.14,1.59,1.59,0,0,1,1.73-1.56,1.88,1.88,0,0,1,.88.17l-.26.87a1.22,1.22,0,0,0-.55-.14c-.38,0-.62.2-.62.52s.13.38.35.56a1.55,1.55,0,0,1-1.09,2.83,1.89,1.89,0,0,1-1-.24Z"/><path class="cls-8" d="M394.3,121.57a3.55,3.55,0,0,1-1.27.24,1.83,1.83,0,0,1-1.57-.67,2.69,2.69,0,0,1-.48-1.61,5,5,0,0,1,1.21-3.4,2.88,2.88,0,0,1,2.1-.89,2.57,2.57,0,0,1,1,.17l-.38,1.05a1.94,1.94,0,0,0-.7-.13,1.45,1.45,0,0,0-1.07.43,4,4,0,0,0-.92,2.75c0,.8.26,1.26.78,1.26a1.28,1.28,0,0,0,.34,0l.3-1.6h-.58l.2-1h1.67Z"/><path class="cls-8" d="M396,121.75l.6-3.18c.11-.54.17-1.07.24-1.5h1c0,.24,0,.49-.07.78h0A1.42,1.42,0,0,1,399,117a.58.58,0,0,1,.19,0l-.22,1.2h-.2c-.52,0-1,.59-1.15,1.39l-.41,2.16Z"/><path class="cls-8" d="M404,117.07l-.59,3.15c-.12.56-.18,1.08-.24,1.53h-1l0-.62,0,0a1.47,1.47,0,0,1-1.21.72c-.62,0-.89-.47-.89-1.08a5.25,5.25,0,0,1,.12-1l.51-2.71h1.2l-.51,2.66a4.7,4.7,0,0,0-.09.75c0,.23.09.37.29.37s.61-.4.75-1.07l.5-2.71Z"/><path class="cls-8" d="M404.62,123.59l.95-5c.11-.56.18-1.08.25-1.54h1l-.08.68h0A1.45,1.45,0,0,1,408,117c.84,0,1,.73,1,1.44,0,1.57-.84,3.39-2.21,3.39a1.28,1.28,0,0,1-.57-.11h0l-.34,1.88Zm1.69-2.76a.55.55,0,0,0,.33.11c.73,0,1.08-1.59,1.08-2.29,0-.32,0-.64-.34-.64s-.63.49-.75,1.05Z"/><path class="cls-8" d="M413.91,118.63c0,1.47-.79,3.2-2.21,3.2-1.18,0-1.44-.93-1.44-1.62,0-1.58.87-3.21,2.29-3.21C413.74,117,413.91,118,413.91,118.63Zm-2.46,1.52c0,.34,0,.77.38.77.57,0,.9-1.59.9-2.43,0-.32-.09-.58-.37-.58C411.84,117.9,411.44,119.35,411.45,120.15Z"/><path class="cls-8" d="M418.69,115.39a6.6,6.6,0,0,1,1.24-.11,2,2,0,0,1,1.45.45,1.35,1.35,0,0,1,.39,1,1.74,1.74,0,0,1-1.23,1.64v0a1.35,1.35,0,0,1,.85,1.38,1.88,1.88,0,0,1-.69,1.42,3.1,3.1,0,0,1-2,.56,5.65,5.65,0,0,1-1.2-.09Zm.1,5.43a1.48,1.48,0,0,0,.3,0,1.09,1.09,0,0,0,1.14-1.16.79.79,0,0,0-.82-.9h-.21Zm.57-2.92h.17a1,1,0,0,0,1.09-1.05.62.62,0,0,0-.62-.7,1.16,1.16,0,0,0-.33,0Z"/><rect class="cls-5" x="451.87" y="79.12" width="90.36" height="56.69"/><path class="cls-8" d="M483.52,92.34h1.17l-.58,3h0c.2-.4.36-.67.54-1l1.21-2.06h1.3l-2,2.85.74,3.6h-1.25l-.41-2.74-.42.58-.42,2.15h-1.17Z"/><path class="cls-8" d="M488.74,97.29l-.56,1.5H487l2.61-6.45H491l.06,6.45h-1.16l0-1.5Zm1.23-.87L490,95c0-.39,0-1.07.06-1.56h0c-.15.49-.36,1.2-.5,1.55L489,96.42Z"/><path class="cls-8" d="M493.91,92.43a7.94,7.94,0,0,1,1.28-.12,2,2,0,0,1,1.43.44,1.48,1.48,0,0,1,.42,1.06,2,2,0,0,1-1.31,2v0c.35.16.51.54.53,1.25a12.91,12.91,0,0,0,.1,1.75h-1.21c0-.18,0-.83,0-1.54s-.16-1-.56-1h-.2l-.48,2.58H492.7Zm.62,2.85h.28c.6,0,1-.64,1-1.32,0-.34-.14-.71-.59-.71a1.4,1.4,0,0,0-.32,0Z"/><path class="cls-8" d="M499.33,97.29l-.56,1.5H497.6l2.61-6.45h1.4l.06,6.45h-1.16l0-1.5Zm1.23-.87,0-1.43c0-.39,0-1.07.06-1.56h0c-.15.49-.36,1.2-.5,1.55l-.52,1.43Z"/><path class="cls-8" d="M504.52,93.47H503.4l.22-1.13h3.43l-.22,1.13h-1.12l-1,5.32h-1.2Z"/><path class="cls-8" d="M510.59,95.94h-1.42l-.35,1.79h1.63l-.21,1.06h-2.81l1.23-6.45h2.7l-.21,1.05h-1.48l-.32,1.53h1.45Z"/><path class="cls-8" d="M483.87,104.05l-.15.82c-.94,1.8-1.87,3.6-2.84,5.4h-1.2q1.39-2.57,2.76-5.14v0h-2l.2-1.06Z"/><path class="cls-8" d="M486.94,107.18l-.17.9h-1.9l.17-.9Z"/><path class="cls-8" d="M488.62,109.3a2.2,2.2,0,0,0,.48,0,1.8,1.8,0,0,0,.76-.37,2.93,2.93,0,0,0,.86-1.21h0a1.25,1.25,0,0,1-.87.34c-.82,0-1.19-.72-1.19-1.43,0-1.31.91-2.61,2.09-2.61s1.46,1,1.45,1.74a5.31,5.31,0,0,1-1.55,3.8,3.24,3.24,0,0,1-1.67.8,2.67,2.67,0,0,1-.52,0Zm1.21-2.84c0,.46.16.72.44.72a.73.73,0,0,0,.56-.39,1.66,1.66,0,0,0,.14-.53,3.44,3.44,0,0,0,.08-.72c0-.4-.1-.7-.41-.7C490.11,104.85,489.83,105.86,489.83,106.46Z"/><path class="cls-8" d="M497.76,110.27c0-.25,0-.51,0-.79h0a1.49,1.49,0,0,1-1.2.86c-.68,0-1-.58-1-1.41,0-1.42.71-3.42,2.72-3.42a3.6,3.6,0,0,1,1.22.19l-.52,2.6a10.76,10.76,0,0,0-.19,2Zm.43-3.84-.25,0c-.78,0-1.21,1.56-1.21,2.25,0,.41.06.71.35.71s.63-.54.8-1.39Z"/><path class="cls-8" d="M500.43,110.27l.6-3.16c.11-.55.18-1.08.25-1.52h1l0,.6h0a1.54,1.54,0,0,1,1.26-.68c.66,0,.91.46.91,1a4.42,4.42,0,0,1-.12.89l-.54,2.84h-1.2l.55-2.91a2.69,2.69,0,0,0,.06-.5c0-.22-.1-.37-.3-.37s-.65.41-.82,1.3l-.47,2.48Zm1.55-5.38c.07-.58.29-1.08.78-1.08a.87.87,0,0,1,.51.17c.12.09.22.18.3.18s.15-.07.23-.38h.56c-.1.7-.35,1-.78,1a.88.88,0,0,1-.47-.15c-.15-.12-.24-.19-.33-.19s-.17.15-.21.41Z"/><path class="cls-8" d="M509.46,107.15c0,1.47-.79,3.2-2.21,3.2-1.18,0-1.44-.93-1.44-1.62,0-1.58.87-3.21,2.29-3.21C509.29,105.52,509.46,106.5,509.46,107.15ZM507,108.67c0,.34,0,.76.38.76.57,0,.9-1.59.9-2.43,0-.32-.09-.58-.37-.58C507.4,106.42,507,107.87,507,108.67Z"/><path class="cls-8" d="M510.74,109.25a1.39,1.39,0,0,0,.76.19.5.5,0,0,0,.54-.53c0-.26-.12-.44-.45-.7a1.47,1.47,0,0,1-.59-1.14,1.59,1.59,0,0,1,1.73-1.56,1.88,1.88,0,0,1,.88.17l-.26.87a1.21,1.21,0,0,0-.55-.14c-.38,0-.62.2-.62.52s.13.38.35.56a1.56,1.56,0,0,1,.7,1.22,1.58,1.58,0,0,1-1.79,1.61,1.9,1.9,0,0,1-1-.24Z"/><path class="cls-8" d="M484.66,121.57a3.55,3.55,0,0,1-1.27.24,1.83,1.83,0,0,1-1.57-.67,2.69,2.69,0,0,1-.48-1.61,5,5,0,0,1,1.21-3.4,2.88,2.88,0,0,1,2.1-.89,2.59,2.59,0,0,1,1,.17l-.38,1.05a1.94,1.94,0,0,0-.7-.13,1.45,1.45,0,0,0-1.07.43,4,4,0,0,0-.92,2.75c0,.8.26,1.26.78,1.26a1.28,1.28,0,0,0,.34,0l.3-1.6h-.58l.2-1h1.67Z"/><path class="cls-8" d="M486.4,121.75l.6-3.18c.11-.54.17-1.07.24-1.5h1c0,.24,0,.49-.07.78h0a1.42,1.42,0,0,1,1.16-.85.58.58,0,0,1,.19,0l-.22,1.2h-.2c-.52,0-1,.59-1.15,1.39l-.41,2.16Z"/><path class="cls-8" d="M494.36,117.07l-.59,3.15c-.12.56-.18,1.08-.24,1.53h-1l0-.62,0,0a1.47,1.47,0,0,1-1.21.72c-.62,0-.89-.47-.89-1.08a5.25,5.25,0,0,1,.12-1l.51-2.71h1.2l-.51,2.66a4.7,4.7,0,0,0-.09.75c0,.23.09.37.29.37s.61-.4.75-1.07l.5-2.71Z"/><path class="cls-8" d="M495,123.59l.95-5c.11-.56.18-1.08.25-1.54h1l-.08.68h0a1.45,1.45,0,0,1,1.17-.76c.84,0,1,.73,1,1.44,0,1.57-.84,3.39-2.21,3.39a1.28,1.28,0,0,1-.57-.11h0l-.34,1.88Zm1.69-2.76a.55.55,0,0,0,.33.11c.73,0,1.08-1.59,1.08-2.29,0-.32,0-.64-.34-.64s-.63.49-.75,1.05Z"/><path class="cls-8" d="M504.28,118.63c0,1.47-.79,3.2-2.21,3.2-1.18,0-1.44-.93-1.44-1.62,0-1.58.87-3.21,2.29-3.21C504.1,117,504.28,118,504.28,118.63Zm-2.46,1.52c0,.34,0,.77.38.77.57,0,.9-1.59.9-2.43,0-.32-.09-.58-.37-.58C502.21,117.91,501.81,119.35,501.82,120.15Z"/><path class="cls-8" d="M509.05,115.39a6.51,6.51,0,0,1,1.24-.12,2,2,0,0,1,1.45.45,1.35,1.35,0,0,1,.39,1,1.74,1.74,0,0,1-1.23,1.64v0a1.35,1.35,0,0,1,.85,1.38,1.88,1.88,0,0,1-.69,1.42,3.1,3.1,0,0,1-2,.56,5.65,5.65,0,0,1-1.2-.09Zm.1,5.43a1.48,1.48,0,0,0,.3,0,1.09,1.09,0,0,0,1.14-1.16.79.79,0,0,0-.82-.9h-.21Zm.57-2.92h.17a1,1,0,0,0,1.09-1.05.62.62,0,0,0-.62-.7,1.16,1.16,0,0,0-.33,0Z"/><rect class="cls-5" x="451.88" y="22.42" width="90.36" height="56.69"/><path class="cls-8" d="M483.53,35.64h1.17l-.58,3h0c.2-.4.36-.67.54-1l1.21-2.06h1.3l-2,2.85.74,3.6h-1.25l-.41-2.74-.42.58-.42,2.15h-1.17Z"/><path class="cls-8" d="M488.74,40.59l-.56,1.5H487l2.61-6.45H491l.06,6.45h-1.16l0-1.5Zm1.23-.87,0-1.43c0-.39,0-1.07.06-1.56h0c-.15.49-.36,1.2-.5,1.55L489,39.72Z"/><path class="cls-8" d="M493.92,35.73a8,8,0,0,1,1.28-.11,2,2,0,0,1,1.43.44,1.48,1.48,0,0,1,.42,1.06,2,2,0,0,1-1.31,2v0c.35.16.51.54.53,1.25a12.91,12.91,0,0,0,.1,1.75h-1.21c0-.18,0-.83,0-1.54s-.16-1-.56-1h-.2l-.48,2.58H492.7Zm.62,2.85h.28c.6,0,1-.64,1-1.32,0-.34-.14-.71-.59-.71a1.43,1.43,0,0,0-.32,0Z"/><path class="cls-8" d="M499.33,40.59l-.56,1.5H497.6l2.61-6.45h1.4l.06,6.45h-1.16l0-1.5Zm1.23-.87,0-1.43c0-.39,0-1.07.06-1.56h0c-.15.49-.36,1.2-.5,1.55l-.52,1.44Z"/><path class="cls-8" d="M504.52,36.77H503.4l.22-1.13h3.43l-.22,1.13h-1.12l-1,5.32h-1.2Z"/><path class="cls-8" d="M510.59,39.24h-1.42L508.82,41h1.63l-.21,1.06h-2.81l1.23-6.45h2.7l-.21,1.05h-1.48l-.32,1.53h1.45Z"/><path class="cls-8" d="M483.87,47.35l-.15.82c-.94,1.8-1.87,3.6-2.84,5.4h-1.2q1.39-2.57,2.76-5.14v0h-2l.2-1.06Z"/><path class="cls-8" d="M486.94,50.48l-.17.9h-1.9l.17-.9Z"/><path class="cls-8" d="M488.62,52.6a2.2,2.2,0,0,0,.48,0,1.8,1.8,0,0,0,.76-.37,2.93,2.93,0,0,0,.86-1.22h0a1.24,1.24,0,0,1-.87.34c-.82,0-1.19-.72-1.19-1.43,0-1.31.91-2.61,2.09-2.61s1.46,1,1.45,1.74a5.31,5.31,0,0,1-1.55,3.8,3.24,3.24,0,0,1-1.67.8,2.62,2.62,0,0,1-.52,0Zm1.21-2.84c0,.46.16.72.44.72a.73.73,0,0,0,.56-.39,1.65,1.65,0,0,0,.14-.53,3.43,3.43,0,0,0,.08-.72c0-.4-.1-.7-.41-.7C490.11,48.15,489.83,49.16,489.83,49.76Z"/><path class="cls-8" d="M497.76,53.57c0-.25,0-.51,0-.78h0a1.49,1.49,0,0,1-1.2.86c-.68,0-1-.58-1-1.41,0-1.42.71-3.42,2.72-3.42a3.61,3.61,0,0,1,1.22.19l-.52,2.6a10.75,10.75,0,0,0-.19,2Zm.43-3.84-.25,0c-.78,0-1.21,1.56-1.21,2.25,0,.41.06.71.35.71s.63-.54.8-1.39Z"/><path class="cls-8" d="M500.43,53.57l.6-3.16c.11-.55.18-1.08.25-1.52h1l0,.6h0a1.54,1.54,0,0,1,1.26-.68c.66,0,.91.46.91,1a4.43,4.43,0,0,1-.12.89l-.54,2.84h-1.2l.55-2.91a2.68,2.68,0,0,0,.06-.5c0-.22-.1-.37-.3-.37s-.65.41-.82,1.3l-.47,2.48ZM502,48.19c.07-.58.29-1.08.78-1.08a.87.87,0,0,1,.51.17c.12.09.22.18.3.18s.15-.07.23-.38h.56c-.1.7-.35,1-.78,1a.88.88,0,0,1-.47-.15c-.15-.12-.24-.19-.33-.19s-.17.15-.21.41Z"/><path class="cls-8" d="M509.46,50.45c0,1.47-.79,3.2-2.21,3.2-1.18,0-1.44-.93-1.44-1.62,0-1.58.87-3.21,2.29-3.21C509.29,48.82,509.46,49.8,509.46,50.45ZM507,52c0,.34,0,.77.38.77.57,0,.9-1.59.9-2.43,0-.32-.09-.58-.37-.58C507.4,49.72,507,51.17,507,52Z"/><path class="cls-8" d="M510.75,52.55a1.39,1.39,0,0,0,.76.19.5.5,0,0,0,.54-.53c0-.26-.12-.44-.45-.7a1.47,1.47,0,0,1-.59-1.14,1.59,1.59,0,0,1,1.73-1.56,1.88,1.88,0,0,1,.88.17l-.26.87a1.21,1.21,0,0,0-.55-.14c-.38,0-.62.2-.62.52s.13.38.35.56a1.56,1.56,0,0,1,.7,1.22,1.58,1.58,0,0,1-1.79,1.61,1.89,1.89,0,0,1-1-.24Z"/><path class="cls-8" d="M484.77,64.87a3.55,3.55,0,0,1-1.27.24,1.83,1.83,0,0,1-1.57-.67,2.69,2.69,0,0,1-.48-1.61,5,5,0,0,1,1.21-3.4,2.88,2.88,0,0,1,2.1-.89,2.58,2.58,0,0,1,1,.17l-.38,1.05a1.94,1.94,0,0,0-.7-.13,1.45,1.45,0,0,0-1.07.43,4,4,0,0,0-.92,2.75c0,.8.26,1.26.78,1.26a1.28,1.28,0,0,0,.34,0l.3-1.6h-.58l.2-1h1.67Z"/><path class="cls-8" d="M486.51,65.05l.6-3.18c.11-.54.17-1.07.24-1.5h1c0,.24,0,.49-.07.78h0a1.42,1.42,0,0,1,1.16-.85.58.58,0,0,1,.19,0l-.22,1.2h-.2c-.52,0-1,.59-1.15,1.39l-.41,2.16Z"/><path class="cls-8" d="M494.47,60.37l-.59,3.15c-.12.56-.18,1.08-.24,1.53h-1l0-.62,0,0a1.47,1.47,0,0,1-1.21.72c-.62,0-.89-.47-.89-1.08a5.25,5.25,0,0,1,.12-1l.51-2.71h1.2L491.83,63a4.7,4.7,0,0,0-.09.75c0,.23.09.37.29.37s.61-.4.75-1.07l.5-2.71Z"/><path class="cls-8" d="M495.09,66.89l.95-5c.11-.56.18-1.08.25-1.54h1l-.08.68h0a1.45,1.45,0,0,1,1.17-.76c.84,0,1,.73,1,1.44,0,1.57-.84,3.39-2.21,3.39a1.28,1.28,0,0,1-.57-.11h0l-.34,1.88Zm1.69-2.76a.55.55,0,0,0,.33.11c.73,0,1.08-1.59,1.08-2.29,0-.32,0-.64-.34-.64s-.63.49-.75,1.05Z"/><path class="cls-8" d="M504.38,61.93c0,1.47-.79,3.2-2.21,3.2-1.18,0-1.44-.93-1.44-1.62,0-1.58.87-3.21,2.29-3.21C504.21,60.3,504.38,61.28,504.38,61.93Zm-2.46,1.52c0,.34,0,.77.38.77.57,0,.9-1.59.9-2.43,0-.32-.09-.58-.37-.58C502.32,61.21,501.91,62.65,501.92,63.45Z"/><path class="cls-8" d="M509.21,63.55l-.56,1.5h-1.17l2.61-6.45h1.4l.06,6.45h-1.16l0-1.5Zm1.23-.87,0-1.42c0-.39,0-1.07.06-1.56h0c-.15.49-.36,1.2-.5,1.55l-.52,1.43Z"/><path class="cls-8" d="M122.07,35.64h1.17l-.58,3h0c.2-.4.36-.67.54-1l1.21-2.06h1.3l-2,2.85.74,3.6h-1.25l-.41-2.74-.42.58L122,42.09h-1.17Z"/><path class="cls-8" d="M127.28,40.59l-.56,1.5h-1.17l2.61-6.45h1.4l.06,6.45h-1.16l0-1.5Zm1.23-.87,0-1.43c0-.39,0-1.07.06-1.56h0c-.15.49-.36,1.2-.5,1.55l-.52,1.44Z"/><path class="cls-8" d="M132.46,35.73a8,8,0,0,1,1.28-.11,2,2,0,0,1,1.43.44,1.48,1.48,0,0,1,.42,1.06,2,2,0,0,1-1.31,2v0c.35.16.51.54.53,1.25a12.86,12.86,0,0,0,.11,1.75H133.7c0-.18,0-.83,0-1.54s-.16-1-.56-1h-.2l-.48,2.58h-1.17Zm.62,2.85h.28c.6,0,1-.64,1-1.32,0-.34-.14-.71-.59-.71a1.43,1.43,0,0,0-.32,0Z"/><path class="cls-8" d="M137.87,40.59l-.56,1.5h-1.17l2.61-6.45h1.4l.06,6.45H139l0-1.5Zm1.23-.87,0-1.43c0-.39,0-1.07.06-1.56h0c-.15.49-.36,1.2-.5,1.55l-.52,1.44Z"/><path class="cls-8" d="M143.06,36.77h-1.12l.22-1.13h3.43l-.22,1.13h-1.12l-1,5.32H142Z"/><path class="cls-8" d="M149.13,39.24h-1.42L147.36,41H149l-.21,1.06H146l1.23-6.45h2.7l-.21,1.05h-1.48l-.32,1.53h1.44Z"/><path class="cls-8" d="M119.89,53.57,120.2,52h-2l.14-.82L121,47.35h1.15l-.72,3.76H122l-.17.93h-.63l-.3,1.53Zm.48-2.46.23-1.19c.09-.39.2-.81.3-1.21h0c-.25.41-.44.76-.65,1.07l-.87,1.3v0Z"/><path class="cls-8" d="M125.48,50.48l-.17.9h-1.9l.17-.9Z"/><path class="cls-8" d="M130.37,48.3a1.34,1.34,0,0,0-.33,0A2.45,2.45,0,0,0,128.32,50h0a1.24,1.24,0,0,1,.93-.44c.85,0,1.12.82,1.12,1.42,0,1.4-.83,2.72-2.08,2.72s-1.47-1-1.47-1.91a5,5,0,0,1,1.48-3.55,3.41,3.41,0,0,1,1.86-.88,1.69,1.69,0,0,1,.34,0ZM129.22,51c0-.34-.12-.62-.44-.62a.88.88,0,0,0-.68.59l-.06.19a4.73,4.73,0,0,0-.07.8c0,.4.11.79.43.79C129,52.78,129.22,51.67,129.22,51Z"/><path class="cls-8" d="M136.3,53.57c0-.25,0-.51,0-.78h0a1.49,1.49,0,0,1-1.2.86c-.68,0-1-.58-1-1.41,0-1.42.71-3.42,2.72-3.42A3.61,3.61,0,0,1,138,49l-.52,2.6a10.83,10.83,0,0,0-.19,2Zm.43-3.84-.25,0c-.78,0-1.21,1.56-1.21,2.25,0,.41.06.71.35.71s.63-.54.8-1.39Z"/><path class="cls-8" d="M139,53.57l.6-3.16c.1-.55.18-1.08.25-1.52h1l0,.6h0a1.54,1.54,0,0,1,1.26-.68c.66,0,.91.46.91,1a4.46,4.46,0,0,1-.11.89l-.54,2.84h-1.2l.56-2.91a2.77,2.77,0,0,0,.06-.5c0-.22-.1-.37-.3-.37s-.65.41-.82,1.3l-.47,2.48Zm1.55-5.38c.07-.58.29-1.08.77-1.08a.87.87,0,0,1,.51.17c.11.09.22.18.3.18s.15-.07.23-.38h.56c-.1.7-.35,1-.78,1a.88.88,0,0,1-.47-.15c-.15-.12-.24-.19-.33-.19s-.17.15-.21.41Z"/><path class="cls-8" d="M148,50.45c0,1.47-.78,3.2-2.21,3.2-1.18,0-1.44-.93-1.44-1.62,0-1.58.87-3.21,2.29-3.21C147.83,48.81,148,49.8,148,50.45ZM145.55,52c0,.34,0,.77.38.77.57,0,.9-1.59.9-2.43,0-.32-.09-.58-.37-.58C145.94,49.72,145.54,51.17,145.55,52Z"/><path class="cls-8" d="M149.29,52.55a1.39,1.39,0,0,0,.76.19.5.5,0,0,0,.54-.53c0-.26-.12-.44-.45-.7a1.47,1.47,0,0,1-.59-1.14,1.59,1.59,0,0,1,1.73-1.56,1.88,1.88,0,0,1,.88.17l-.26.87a1.22,1.22,0,0,0-.56-.14c-.38,0-.62.2-.62.52s.13.38.35.56A1.55,1.55,0,0,1,150,53.63a1.9,1.9,0,0,1-1-.24Z"/><path class="cls-8" d="M123.31,64.87a3.55,3.55,0,0,1-1.27.24,1.83,1.83,0,0,1-1.57-.67,2.69,2.69,0,0,1-.48-1.61,5,5,0,0,1,1.22-3.4,2.88,2.88,0,0,1,2.1-.89,2.58,2.58,0,0,1,1,.17l-.38,1.05a1.93,1.93,0,0,0-.7-.13,1.45,1.45,0,0,0-1.07.43,4,4,0,0,0-.92,2.75c0,.8.26,1.26.77,1.26a1.28,1.28,0,0,0,.34,0l.3-1.6h-.58l.2-1H124Z"/><path class="cls-8" d="M125.05,65.05l.6-3.18c.1-.54.17-1.07.24-1.5h1c0,.24,0,.49-.07.78h0A1.42,1.42,0,0,1,128,60.3a.58.58,0,0,1,.19,0l-.22,1.2h-.2c-.52,0-1,.59-1.15,1.39l-.41,2.16Z"/><path class="cls-8" d="M133,60.37l-.59,3.15c-.11.56-.18,1.08-.24,1.53h-1l0-.62,0,0a1.47,1.47,0,0,1-1.22.72c-.62,0-.89-.47-.89-1.08a5.29,5.29,0,0,1,.11-1l.51-2.71h1.2L130.37,63a4.71,4.71,0,0,0-.09.75c0,.23.09.37.29.37s.61-.4.75-1.07l.5-2.71Z"/><path class="cls-8" d="M133.63,66.89l.95-5c.1-.56.18-1.08.25-1.54h1l-.08.68h0A1.45,1.45,0,0,1,137,60.3c.84,0,1,.73,1,1.44,0,1.57-.84,3.39-2.21,3.39a1.29,1.29,0,0,1-.57-.11h0l-.34,1.88Zm1.69-2.76a.55.55,0,0,0,.33.11c.73,0,1.08-1.59,1.08-2.29,0-.32,0-.64-.34-.64s-.63.49-.75,1.05Z"/><path class="cls-8" d="M142.92,61.93c0,1.47-.78,3.2-2.21,3.2-1.18,0-1.44-.93-1.44-1.62,0-1.58.87-3.21,2.29-3.21C142.75,60.3,142.92,61.28,142.92,61.93Zm-2.46,1.52c0,.34,0,.77.38.77.57,0,.9-1.59.9-2.43,0-.32-.09-.58-.37-.58C140.86,61.21,140.46,62.65,140.47,63.45Z"/><path class="cls-8" d="M147.75,63.55l-.56,1.5H146l2.61-6.45H150l.06,6.45h-1.16l0-1.5Zm1.23-.87,0-1.42c0-.39,0-1.07.06-1.56h0c-.15.49-.36,1.2-.5,1.55L148,62.68Z"/><rect class="cls-4" x="180.78" y="22.42" width="90.36" height="56.69"/><path class="cls-8" d="M212.43,35.64h1.17l-.58,3h0c.2-.4.36-.67.54-1l1.21-2.06h1.3l-2,2.85.74,3.6h-1.25l-.41-2.74-.42.58-.42,2.15H211.2Z"/><path class="cls-8" d="M217.65,40.59l-.56,1.5h-1.17l2.61-6.45h1.4l.06,6.45h-1.16l0-1.5Zm1.23-.87,0-1.43c0-.39,0-1.07.06-1.56h0c-.15.49-.36,1.2-.5,1.55l-.52,1.44Z"/><path class="cls-8" d="M222.82,35.73a8,8,0,0,1,1.28-.11,2,2,0,0,1,1.43.44,1.48,1.48,0,0,1,.42,1.06,2,2,0,0,1-1.31,2v0c.35.16.51.54.53,1.25a12.86,12.86,0,0,0,.11,1.75h-1.21c0-.18,0-.83,0-1.54s-.16-1-.56-1h-.2l-.48,2.58h-1.17Zm.62,2.85h.28c.6,0,1-.64,1-1.32,0-.34-.14-.71-.59-.71a1.43,1.43,0,0,0-.32,0Z"/><path class="cls-8" d="M228.24,40.59l-.56,1.5h-1.17l2.61-6.45h1.4l.06,6.45h-1.16l0-1.5Zm1.23-.87,0-1.43c0-.39,0-1.07.06-1.56h0c-.15.49-.36,1.2-.5,1.55l-.52,1.44Z"/><path class="cls-8" d="M233.42,36.77H232.3l.22-1.13H236l-.22,1.13h-1.12l-1,5.32h-1.2Z"/><path class="cls-8" d="M239.5,39.24h-1.42L237.73,41h1.63l-.21,1.06h-2.81l1.23-6.45h2.7l-.21,1.05h-1.48l-.32,1.53h1.44Z"/><path class="cls-8" d="M210.26,53.57l.31-1.53h-2l.14-.82,2.67-3.87h1.15l-.72,3.76h.63l-.17.93h-.63l-.3,1.53Zm.48-2.46.23-1.19c.09-.39.2-.81.3-1.21h0c-.25.41-.44.76-.65,1.07l-.87,1.3v0Z"/><path class="cls-8" d="M215.85,50.48l-.17.9h-1.9l.17-.9Z"/><path class="cls-8" d="M220.74,48.3a1.34,1.34,0,0,0-.33,0A2.45,2.45,0,0,0,218.69,50h0a1.24,1.24,0,0,1,.93-.44c.85,0,1.12.82,1.12,1.42,0,1.4-.83,2.72-2.08,2.72s-1.47-1-1.47-1.91a5,5,0,0,1,1.48-3.55,3.41,3.41,0,0,1,1.86-.88,1.69,1.69,0,0,1,.34,0ZM219.59,51c0-.34-.12-.62-.44-.62a.88.88,0,0,0-.68.59l-.06.19a4.73,4.73,0,0,0-.07.8c0,.4.11.79.43.79C219.38,52.78,219.59,51.67,219.59,51Z"/><path class="cls-8" d="M226.67,53.57c0-.25,0-.51,0-.78h0a1.49,1.49,0,0,1-1.2.86c-.68,0-1-.58-1-1.41,0-1.42.71-3.42,2.72-3.42a3.61,3.61,0,0,1,1.22.19l-.52,2.6a10.83,10.83,0,0,0-.19,2Zm.43-3.84-.25,0c-.78,0-1.21,1.56-1.21,2.25,0,.41.06.71.35.71s.63-.54.8-1.39Z"/><path class="cls-8" d="M229.34,53.57l.6-3.16c.1-.55.18-1.08.25-1.52h1l0,.6h0a1.54,1.54,0,0,1,1.26-.68c.66,0,.91.46.91,1a4.46,4.46,0,0,1-.11.89l-.54,2.84h-1.2l.56-2.91a2.77,2.77,0,0,0,.06-.5c0-.22-.1-.37-.3-.37s-.65.41-.82,1.3l-.47,2.48Zm1.55-5.38c.07-.58.29-1.08.77-1.08a.87.87,0,0,1,.51.17c.11.09.22.18.3.18s.15-.07.23-.38h.56c-.1.7-.35,1-.78,1A.88.88,0,0,1,232,48c-.15-.12-.24-.19-.33-.19s-.17.15-.21.41Z"/><path class="cls-8" d="M238.37,50.45c0,1.47-.78,3.2-2.21,3.2-1.18,0-1.44-.93-1.44-1.62,0-1.58.87-3.21,2.29-3.21C238.2,48.81,238.37,49.8,238.37,50.45ZM235.91,52c0,.34,0,.77.38.77.57,0,.9-1.59.9-2.43,0-.32-.09-.58-.37-.58C236.3,49.72,235.9,51.17,235.91,52Z"/><path class="cls-8" d="M239.65,52.55a1.39,1.39,0,0,0,.76.19.5.5,0,0,0,.54-.53c0-.26-.12-.44-.45-.7a1.47,1.47,0,0,1-.59-1.14,1.59,1.59,0,0,1,1.73-1.56,1.88,1.88,0,0,1,.88.17l-.26.87a1.22,1.22,0,0,0-.56-.14c-.38,0-.62.2-.62.52s.13.38.35.56a1.55,1.55,0,0,1-1.09,2.83,1.9,1.9,0,0,1-1-.24Z"/><path class="cls-8" d="M213.57,64.87a3.55,3.55,0,0,1-1.27.24,1.83,1.83,0,0,1-1.57-.67,2.69,2.69,0,0,1-.48-1.61,5,5,0,0,1,1.22-3.4,2.88,2.88,0,0,1,2.1-.89,2.58,2.58,0,0,1,1,.17l-.38,1.05a1.93,1.93,0,0,0-.7-.13,1.45,1.45,0,0,0-1.07.43,4,4,0,0,0-.92,2.75c0,.8.26,1.26.77,1.26a1.28,1.28,0,0,0,.34,0l.3-1.6h-.58l.2-1h1.66Z"/><path class="cls-8" d="M215.31,65.05l.6-3.18c.1-.54.17-1.07.24-1.5h1c0,.24,0,.49-.07.78h0a1.42,1.42,0,0,1,1.16-.85.58.58,0,0,1,.19,0l-.22,1.2h-.2c-.52,0-1,.59-1.15,1.39l-.41,2.16Z"/><path class="cls-8" d="M223.27,60.37l-.59,3.15c-.11.56-.18,1.08-.24,1.53h-1l0-.62,0,0a1.47,1.47,0,0,1-1.22.72c-.62,0-.89-.47-.89-1.08a5.29,5.29,0,0,1,.11-1l.51-2.71h1.2L220.63,63a4.71,4.71,0,0,0-.09.75c0,.23.09.37.29.37s.61-.4.75-1.07l.5-2.71Z"/><path class="cls-8" d="M223.89,66.89l.95-5c.1-.56.18-1.08.25-1.54h1l-.08.68h0a1.45,1.45,0,0,1,1.17-.76c.84,0,1,.73,1,1.44,0,1.57-.84,3.39-2.21,3.39a1.29,1.29,0,0,1-.57-.11h0l-.34,1.88Zm1.69-2.76a.55.55,0,0,0,.33.11c.73,0,1.08-1.59,1.08-2.29,0-.32,0-.64-.34-.64s-.63.49-.75,1.05Z"/><path class="cls-8" d="M233.18,61.93c0,1.47-.78,3.2-2.21,3.2-1.18,0-1.44-.93-1.44-1.62,0-1.58.87-3.21,2.29-3.21C233,60.3,233.18,61.28,233.18,61.93Zm-2.46,1.52c0,.34,0,.77.38.77.57,0,.9-1.59.9-2.43,0-.32-.09-.58-.37-.58C231.12,61.21,230.72,62.65,230.72,63.45Z"/><path class="cls-8" d="M238,58.69a6.57,6.57,0,0,1,1.24-.11,2,2,0,0,1,1.45.45,1.35,1.35,0,0,1,.39,1,1.74,1.74,0,0,1-1.23,1.64v0a1.35,1.35,0,0,1,.85,1.38,1.87,1.87,0,0,1-.69,1.42,3.1,3.1,0,0,1-2,.56,5.65,5.65,0,0,1-1.2-.09Zm.1,5.43a1.49,1.49,0,0,0,.3,0A1.09,1.09,0,0,0,239.49,63a.79.79,0,0,0-.82-.9h-.21Zm.57-2.92h.17a1,1,0,0,0,1.09-1.05.62.62,0,0,0-.62-.7,1.16,1.16,0,0,0-.33,0Z"/><rect class="cls-11" x="271.14" y="22.42" width="90.36" height="56.69"/><path class="cls-8" d="M302.79,35.64H304l-.58,3h0c.2-.4.36-.67.54-1l1.21-2.06h1.3l-2,2.85.74,3.6H304l-.41-2.74-.42.58-.42,2.15h-1.17Z"/><path class="cls-8" d="M308,40.59l-.56,1.5h-1.17l2.61-6.45h1.4l.06,6.45h-1.16l0-1.5Zm1.23-.87,0-1.43c0-.39,0-1.07.06-1.56h0c-.15.49-.36,1.2-.5,1.55l-.52,1.44Z"/><path class="cls-8" d="M313.18,35.73a8,8,0,0,1,1.28-.11,2,2,0,0,1,1.43.44,1.48,1.48,0,0,1,.42,1.06,2,2,0,0,1-1.31,2v0c.35.16.51.54.53,1.25a12.7,12.7,0,0,0,.11,1.75h-1.21c0-.18,0-.83,0-1.54s-.16-1-.56-1h-.2l-.48,2.58H312Zm.62,2.85h.28c.6,0,1-.64,1-1.32,0-.34-.14-.71-.59-.71a1.43,1.43,0,0,0-.32,0Z"/><path class="cls-8" d="M318.6,40.59l-.56,1.5h-1.17l2.61-6.45h1.4l.06,6.45h-1.16l0-1.5Zm1.23-.87,0-1.43c0-.39,0-1.07.06-1.56h0c-.15.49-.36,1.2-.5,1.55l-.52,1.44Z"/><path class="cls-8" d="M323.78,36.77h-1.12l.22-1.13h3.43l-.22,1.13H325l-1,5.32h-1.2Z"/><path class="cls-8" d="M329.86,39.24h-1.42L328.09,41h1.63l-.21,1.06h-2.81l1.23-6.45h2.7l-.21,1.05h-1.48l-.32,1.53h1.44Z"/><path class="cls-8" d="M300.62,53.57l.31-1.53h-2l.14-.82,2.67-3.87h1.15l-.72,3.76h.63l-.17.93H302l-.3,1.53Zm.48-2.46.23-1.19c.09-.39.2-.81.3-1.21h0c-.25.41-.44.76-.65,1.07l-.87,1.3v0Z"/><path class="cls-8" d="M306.21,50.48l-.17.9h-1.9l.17-.9Z"/><path class="cls-8" d="M311.1,48.3a1.34,1.34,0,0,0-.33,0A2.45,2.45,0,0,0,309.05,50h0a1.24,1.24,0,0,1,.93-.44c.85,0,1.12.82,1.12,1.42,0,1.4-.83,2.72-2.08,2.72s-1.47-1-1.47-1.91a5,5,0,0,1,1.48-3.55,3.41,3.41,0,0,1,1.86-.88,1.69,1.69,0,0,1,.34,0ZM309.95,51c0-.34-.12-.62-.44-.62a.88.88,0,0,0-.68.59l-.06.19a4.69,4.69,0,0,0-.07.8c0,.4.11.79.43.79C309.74,52.78,309.95,51.67,309.95,51Z"/><path class="cls-8" d="M317,53.57c0-.25,0-.51,0-.78h0a1.49,1.49,0,0,1-1.2.86c-.68,0-1-.58-1-1.41,0-1.42.71-3.42,2.72-3.42a3.61,3.61,0,0,1,1.22.19l-.52,2.6a10.75,10.75,0,0,0-.19,2Zm.43-3.84-.25,0c-.78,0-1.21,1.56-1.21,2.25,0,.41.06.71.35.71s.63-.54.8-1.39Z"/><path class="cls-8" d="M319.7,53.57l.6-3.16c.1-.55.18-1.08.25-1.52h1l0,.6h0a1.54,1.54,0,0,1,1.26-.68c.66,0,.91.46.91,1a4.49,4.49,0,0,1-.11.89l-.54,2.84h-1.2l.56-2.91a2.77,2.77,0,0,0,.06-.5c0-.22-.1-.37-.3-.37s-.65.41-.82,1.3l-.47,2.48Zm1.55-5.38c.07-.58.29-1.08.77-1.08a.87.87,0,0,1,.51.17c.12.09.22.18.3.18s.15-.07.23-.38h.56c-.1.7-.35,1-.78,1a.88.88,0,0,1-.47-.15c-.15-.12-.24-.19-.33-.19s-.17.15-.21.41Z"/><path class="cls-8" d="M328.73,50.45c0,1.47-.78,3.2-2.21,3.2-1.18,0-1.44-.93-1.44-1.62,0-1.58.87-3.21,2.29-3.21C328.56,48.81,328.73,49.8,328.73,50.45ZM326.27,52c0,.34,0,.77.38.77.57,0,.9-1.59.9-2.43,0-.32-.09-.58-.37-.58C326.66,49.72,326.26,51.17,326.27,52Z"/><path class="cls-8" d="M330,52.55a1.39,1.39,0,0,0,.76.19.5.5,0,0,0,.54-.53c0-.26-.12-.44-.45-.7a1.47,1.47,0,0,1-.59-1.14A1.59,1.59,0,0,1,332,48.81a1.89,1.89,0,0,1,.88.17l-.26.87a1.21,1.21,0,0,0-.55-.14c-.38,0-.62.2-.62.52s.13.38.35.56a1.55,1.55,0,0,1-1.09,2.83,1.9,1.9,0,0,1-1-.24Z"/><path class="cls-8" d="M304,64.87a3.55,3.55,0,0,1-1.27.24,1.83,1.83,0,0,1-1.57-.67,2.68,2.68,0,0,1-.48-1.61,5,5,0,0,1,1.21-3.4,2.88,2.88,0,0,1,2.1-.89,2.58,2.58,0,0,1,1,.17l-.38,1.05a1.94,1.94,0,0,0-.7-.13,1.45,1.45,0,0,0-1.07.43,4,4,0,0,0-.92,2.75c0,.8.26,1.26.78,1.26a1.28,1.28,0,0,0,.34,0l.3-1.6h-.58l.2-1h1.67Z"/><path class="cls-8" d="M305.78,65.05l.6-3.18c.1-.54.17-1.07.24-1.5h1c0,.24,0,.49-.07.78h0a1.42,1.42,0,0,1,1.16-.85.58.58,0,0,1,.19,0l-.22,1.2h-.2c-.52,0-1,.59-1.15,1.39L307,65.05Z"/><path class="cls-8" d="M313.74,60.37l-.59,3.15c-.12.56-.18,1.08-.24,1.53h-1l0-.62,0,0a1.47,1.47,0,0,1-1.21.72c-.62,0-.89-.47-.89-1.08a5.33,5.33,0,0,1,.11-1l.51-2.71h1.2L311.1,63a4.7,4.7,0,0,0-.09.75c0,.23.09.37.29.37s.61-.4.75-1.07l.5-2.71Z"/><path class="cls-8" d="M314.36,66.89l.95-5c.1-.56.18-1.08.25-1.54h1l-.08.68h0a1.45,1.45,0,0,1,1.17-.76c.84,0,1,.73,1,1.44,0,1.57-.84,3.39-2.21,3.39a1.28,1.28,0,0,1-.57-.11h0l-.34,1.88Zm1.69-2.76a.55.55,0,0,0,.33.11c.73,0,1.08-1.59,1.08-2.29,0-.32,0-.64-.34-.64s-.63.49-.75,1.05Z"/><path class="cls-8" d="M323.65,61.93c0,1.47-.78,3.2-2.21,3.2-1.18,0-1.44-.93-1.44-1.62,0-1.58.87-3.21,2.29-3.21C323.48,60.3,323.65,61.28,323.65,61.93Zm-2.46,1.52c0,.34,0,.77.38.77.57,0,.9-1.59.9-2.43,0-.32-.09-.58-.37-.58C321.58,61.21,321.18,62.65,321.19,63.45Z"/><path class="cls-8" d="M328.47,63.55l-.56,1.5h-1.17l2.61-6.45h1.4l.06,6.45h-1.16l0-1.5Zm1.23-.87,0-1.42c0-.39,0-1.07.06-1.56h0c-.15.49-.36,1.2-.5,1.55l-.52,1.43Z"/><rect class="cls-4" x="361.51" y="22.42" width="90.36" height="56.69"/><path class="cls-8" d="M393.16,35.64h1.17l-.58,3h0c.2-.4.36-.67.54-1l1.21-2.06h1.3l-2,2.85.74,3.6h-1.25l-.41-2.74-.42.58-.42,2.15h-1.17Z"/><path class="cls-8" d="M398.37,40.59l-.56,1.5h-1.17l2.61-6.45h1.4l.06,6.45h-1.16l0-1.5Zm1.23-.87,0-1.43c0-.39,0-1.07.06-1.56h0c-.15.49-.36,1.2-.5,1.55l-.52,1.44Z"/><path class="cls-8" d="M403.55,35.73a8,8,0,0,1,1.28-.11,2,2,0,0,1,1.43.44,1.48,1.48,0,0,1,.42,1.06,2,2,0,0,1-1.31,2v0c.35.16.51.54.53,1.25a12.7,12.7,0,0,0,.11,1.75h-1.21c0-.18,0-.83,0-1.54s-.16-1-.56-1H404l-.48,2.58h-1.17Zm.62,2.85h.28c.6,0,1-.64,1-1.32,0-.34-.14-.71-.59-.71a1.43,1.43,0,0,0-.32,0Z"/><path class="cls-8" d="M409,40.59l-.56,1.5h-1.17l2.61-6.45h1.4l.06,6.45h-1.16l0-1.5Zm1.23-.87,0-1.43c0-.39,0-1.07.06-1.56h0c-.15.49-.36,1.2-.5,1.55l-.52,1.44Z"/><path class="cls-8" d="M414.15,36.77H413l.22-1.13h3.43l-.22,1.13h-1.12l-1,5.32h-1.2Z"/><path class="cls-8" d="M420.23,39.24h-1.42L418.46,41h1.63l-.21,1.06h-2.81l1.23-6.45H421l-.21,1.05H419.3L419,38.22h1.44Z"/><path class="cls-8" d="M391,53.57l.31-1.53h-2l.14-.82,2.67-3.87h1.15l-.72,3.76h.63L393,52h-.63l-.3,1.53Zm.48-2.46.23-1.19c.09-.39.2-.81.3-1.21h0c-.25.41-.44.76-.65,1.07l-.87,1.3v0Z"/><path class="cls-8" d="M396.57,50.48l-.17.9h-1.9l.17-.9Z"/><path class="cls-8" d="M401.46,48.3a1.34,1.34,0,0,0-.33,0A2.45,2.45,0,0,0,399.42,50h0a1.24,1.24,0,0,1,.93-.44c.85,0,1.12.82,1.12,1.42,0,1.4-.83,2.72-2.08,2.72s-1.47-1-1.47-1.91a5,5,0,0,1,1.48-3.55,3.41,3.41,0,0,1,1.86-.88,1.69,1.69,0,0,1,.34,0ZM400.32,51c0-.34-.12-.62-.44-.62a.88.88,0,0,0-.68.59l-.06.19a4.69,4.69,0,0,0-.07.8c0,.4.11.79.43.79C400.11,52.78,400.32,51.67,400.32,51Z"/><path class="cls-8" d="M407.4,53.57c0-.25,0-.51,0-.78h0a1.49,1.49,0,0,1-1.2.86c-.68,0-1-.58-1-1.41,0-1.42.71-3.42,2.72-3.42a3.61,3.61,0,0,1,1.22.19l-.52,2.6a10.75,10.75,0,0,0-.19,2Zm.43-3.84-.25,0c-.78,0-1.21,1.56-1.21,2.25,0,.41.06.71.35.71s.63-.54.8-1.39Z"/><path class="cls-8" d="M410.07,53.57l.6-3.16c.1-.55.18-1.08.25-1.52h1l0,.6h0a1.54,1.54,0,0,1,1.26-.68c.66,0,.91.46.91,1a4.49,4.49,0,0,1-.11.89l-.54,2.84h-1.2l.56-2.91a2.77,2.77,0,0,0,.06-.5c0-.22-.1-.37-.3-.37s-.65.41-.82,1.3l-.47,2.48Zm1.55-5.38c.07-.58.29-1.08.77-1.08a.87.87,0,0,1,.51.17c.12.09.22.18.3.18s.15-.07.23-.38H414c-.1.7-.35,1-.78,1a.88.88,0,0,1-.47-.15c-.15-.12-.24-.19-.33-.19s-.17.15-.21.41Z"/><path class="cls-8" d="M419.1,50.45c0,1.47-.78,3.2-2.21,3.2-1.18,0-1.44-.93-1.44-1.62,0-1.58.87-3.21,2.29-3.21C418.93,48.81,419.1,49.8,419.1,50.45ZM416.64,52c0,.34,0,.77.38.77.57,0,.9-1.59.9-2.43,0-.32-.09-.58-.37-.58C417,49.72,416.63,51.17,416.64,52Z"/><path class="cls-8" d="M420.38,52.55a1.39,1.39,0,0,0,.76.19.5.5,0,0,0,.54-.53c0-.26-.12-.44-.45-.7a1.47,1.47,0,0,1-.59-1.14,1.59,1.59,0,0,1,1.73-1.56,1.89,1.89,0,0,1,.88.17l-.26.87a1.21,1.21,0,0,0-.55-.14c-.38,0-.62.2-.62.52s.13.38.35.56a1.55,1.55,0,0,1-1.09,2.83,1.9,1.9,0,0,1-1-.24Z"/><path class="cls-8" d="M394.3,64.87a3.55,3.55,0,0,1-1.27.24,1.83,1.83,0,0,1-1.57-.67,2.68,2.68,0,0,1-.48-1.61,5,5,0,0,1,1.21-3.4,2.88,2.88,0,0,1,2.1-.89,2.58,2.58,0,0,1,1,.17l-.38,1.05a1.94,1.94,0,0,0-.7-.13,1.45,1.45,0,0,0-1.07.43,4,4,0,0,0-.92,2.75c0,.8.26,1.26.78,1.26a1.28,1.28,0,0,0,.34,0l.3-1.6h-.58l.2-1h1.67Z"/><path class="cls-8" d="M396,65.05l.6-3.18c.1-.54.17-1.07.24-1.5h1c0,.24,0,.49-.07.78h0A1.42,1.42,0,0,1,399,60.3a.58.58,0,0,1,.19,0l-.22,1.2h-.2c-.52,0-1,.59-1.15,1.39l-.41,2.16Z"/><path class="cls-8" d="M404,60.37l-.59,3.15c-.12.56-.18,1.08-.24,1.53h-1l0-.62,0,0a1.47,1.47,0,0,1-1.21.72c-.62,0-.89-.47-.89-1.08a5.33,5.33,0,0,1,.11-1l.51-2.71h1.2L401.36,63a4.7,4.7,0,0,0-.09.75c0,.23.09.37.29.37s.61-.4.75-1.07l.5-2.71Z"/><path class="cls-8" d="M404.62,66.89l.95-5c.1-.56.18-1.08.25-1.54h1l-.08.68h0A1.45,1.45,0,0,1,408,60.3c.84,0,1,.73,1,1.44,0,1.57-.84,3.39-2.21,3.39a1.28,1.28,0,0,1-.57-.11h0l-.34,1.88Zm1.69-2.76a.55.55,0,0,0,.33.11c.73,0,1.08-1.59,1.08-2.29,0-.32,0-.64-.34-.64s-.63.49-.75,1.05Z"/><path class="cls-8" d="M413.91,61.93c0,1.47-.78,3.2-2.21,3.2-1.18,0-1.44-.93-1.44-1.62,0-1.58.87-3.21,2.29-3.21C413.74,60.3,413.91,61.28,413.91,61.93Zm-2.46,1.52c0,.34,0,.77.38.77.57,0,.9-1.59.9-2.43,0-.32-.09-.58-.37-.58C411.85,61.21,411.44,62.65,411.45,63.45Z"/><path class="cls-8" d="M418.69,58.69a6.56,6.56,0,0,1,1.24-.11,2,2,0,0,1,1.46.45,1.35,1.35,0,0,1,.39,1,1.74,1.74,0,0,1-1.23,1.64v0a1.35,1.35,0,0,1,.85,1.38,1.87,1.87,0,0,1-.69,1.42,3.1,3.1,0,0,1-2,.56,5.65,5.65,0,0,1-1.2-.09Zm.1,5.43a1.49,1.49,0,0,0,.3,0A1.09,1.09,0,0,0,420.22,63a.79.79,0,0,0-.82-.9h-.21Zm.57-2.92h.17a1,1,0,0,0,1.09-1.05.62.62,0,0,0-.62-.7,1.16,1.16,0,0,0-.33,0Z"/><path class="cls-12" d="M211.27,211.47h1.17l-.58,3h0c.2-.4.36-.67.54-1l1.21-2.06h1.3l-2,2.85.74,3.6h-1.25l-.41-2.74-.42.58-.42,2.15H210Z"/><path class="cls-12" d="M216.49,216.41l-.56,1.5h-1.17l2.61-6.45h1.4l.06,6.45h-1.16l0-1.5Zm1.23-.87,0-1.42c0-.39,0-1.07.06-1.56h0c-.15.49-.36,1.2-.5,1.55l-.52,1.43Z"/><path class="cls-12" d="M221.66,211.55a8.05,8.05,0,0,1,1.28-.11,2,2,0,0,1,1.43.44,1.48,1.48,0,0,1,.42,1.06,2,2,0,0,1-1.31,2v0c.35.16.51.54.53,1.25a12.86,12.86,0,0,0,.11,1.75h-1.21c0-.18,0-.83,0-1.54s-.16-1-.56-1h-.2l-.48,2.58h-1.17Zm.62,2.85h.28c.6,0,1-.64,1-1.32,0-.34-.14-.71-.59-.71a1.4,1.4,0,0,0-.32,0Z"/><path class="cls-12" d="M227.08,216.41l-.56,1.5h-1.17l2.61-6.45h1.4l.06,6.45h-1.16l0-1.5Zm1.23-.87,0-1.42c0-.39,0-1.07.06-1.56h0c-.15.49-.36,1.2-.5,1.55l-.52,1.43Z"/><path class="cls-12" d="M232.27,212.59h-1.12l.22-1.13h3.43l-.22,1.13h-1.12l-1,5.32h-1.2Z"/><path class="cls-12" d="M238.34,215.06h-1.42l-.35,1.79h1.63l-.21,1.06h-2.81l1.23-6.45h2.7l-.21,1.05h-1.48L237.1,214h1.44Z"/><path class="cls-12" d="M209,224.31v2.14H211v.78H209v2.16h-.81v-2.16H206.1v-.78h2.06v-2.14Z"/><path class="cls-12" d="M216.85,224.33h0l-1.05.51,0-1,1.44-.7h1l-1.19,6.22h-1.18Z"/><path class="cls-12" d="M220.07,228.28a2,2,0,0,0,.76.15,1,1,0,0,0,1.11-1,.84.84,0,0,0-.94-.86h-.17l.17-.94h.12c.44,0,1.12-.24,1.12-.88,0-.35-.24-.58-.67-.58a1.54,1.54,0,0,0-.67.16v-1a2.75,2.75,0,0,1,1.08-.22,1.31,1.31,0,0,1,1.5,1.34,1.72,1.72,0,0,1-1.13,1.6v0a1.38,1.38,0,0,1,.78,1.31,2.12,2.12,0,0,1-2.3,2.1,2.72,2.72,0,0,1-1.08-.19Z"/><path class="cls-12" d="M229.44,229.4c0-.25,0-.51,0-.78h0a1.49,1.49,0,0,1-1.2.86c-.68,0-1-.58-1-1.41,0-1.42.71-3.42,2.72-3.42a3.6,3.6,0,0,1,1.22.19l-.52,2.6a10.83,10.83,0,0,0-.19,2Zm.43-3.84-.25,0c-.78,0-1.21,1.56-1.21,2.25,0,.41.06.71.35.71s.63-.54.8-1.39Z"/><path class="cls-12" d="M232.11,229.4l.6-3.16c.1-.54.18-1.08.25-1.52h1l0,.6h0a1.53,1.53,0,0,1,1.26-.68c.66,0,.91.46.91,1a4.46,4.46,0,0,1-.11.89l-.54,2.84h-1.2l.56-2.91a2.77,2.77,0,0,0,.06-.5c0-.22-.1-.37-.3-.37s-.65.41-.82,1.3l-.47,2.48Zm1.55-5.38c.07-.58.29-1.08.77-1.08a.87.87,0,0,1,.51.17c.11.09.22.18.3.18s.15-.07.23-.38H236c-.1.7-.35,1-.78,1a.88.88,0,0,1-.47-.15c-.15-.12-.24-.19-.33-.19s-.17.15-.21.41Z"/><path class="cls-12" d="M241.14,226.28c0,1.47-.78,3.2-2.21,3.2-1.18,0-1.44-.93-1.44-1.62,0-1.58.87-3.21,2.29-3.21C241,224.64,241.14,225.63,241.14,226.28Zm-2.46,1.52c0,.34,0,.77.38.77.57,0,.9-1.59.9-2.43,0-.32-.09-.58-.37-.58C239.07,225.55,238.67,227,238.68,227.8Z"/><path class="cls-12" d="M242.42,228.37a1.4,1.4,0,0,0,.76.19.5.5,0,0,0,.54-.53c0-.26-.12-.44-.45-.7a1.47,1.47,0,0,1-.59-1.14,1.59,1.59,0,0,1,1.73-1.56,1.88,1.88,0,0,1,.88.17l-.26.87a1.21,1.21,0,0,0-.56-.14c-.38,0-.62.2-.62.52s.13.38.35.56a1.55,1.55,0,0,1-1.09,2.83,1.9,1.9,0,0,1-1-.24Z"/><rect class="cls-7" x="361.51" y="192.5" width="90.36" height="56.69"/><path class="cls-12" d="M392,211.47h1.17l-.58,3h0c.2-.4.36-.67.54-1l1.21-2.06h1.3l-2,2.85.74,3.6h-1.25l-.41-2.74-.42.58-.42,2.15h-1.17Z"/><path class="cls-12" d="M397.22,216.42l-.56,1.5h-1.17l2.61-6.45h1.4l.06,6.45h-1.16l0-1.5Zm1.23-.87,0-1.42c0-.39,0-1.07.06-1.56h0c-.15.49-.36,1.2-.5,1.55l-.52,1.43Z"/><path class="cls-12" d="M402.39,211.56a8,8,0,0,1,1.28-.11,2,2,0,0,1,1.43.44,1.48,1.48,0,0,1,.42,1.06,2,2,0,0,1-1.31,2v0c.35.16.51.54.53,1.25a12.7,12.7,0,0,0,.11,1.75h-1.21c0-.18,0-.83,0-1.54s-.16-1-.56-1h-.2l-.48,2.58h-1.17Zm.62,2.85h.28c.6,0,1-.64,1-1.32,0-.34-.14-.71-.59-.71a1.41,1.41,0,0,0-.32,0Z"/><path class="cls-12" d="M407.81,216.42l-.56,1.5h-1.17l2.61-6.45h1.4l.06,6.45H409l0-1.5Zm1.23-.87,0-1.42c0-.39,0-1.07.06-1.56h0c-.15.49-.36,1.2-.5,1.55l-.52,1.43Z"/><path class="cls-12" d="M413,212.6h-1.12l.22-1.13h3.43l-.22,1.13h-1.12l-1,5.32H412Z"/><path class="cls-12" d="M419.07,215.07h-1.42l-.35,1.79h1.63l-.21,1.06H415.9l1.23-6.45h2.7l-.21,1.05h-1.48l-.32,1.53h1.44Z"/><path class="cls-12" d="M389.7,224.31v2.14h2.07v.78H389.7v2.16h-.81v-2.16h-2.06v-.78h2.06v-2.14Z"/><path class="cls-12" d="M397.57,224.33h0l-1.05.51,0-1,1.44-.7h1l-1.19,6.22h-1.18Z"/><path class="cls-12" d="M400.8,228.28a2,2,0,0,0,.76.15,1,1,0,0,0,1.11-1,.84.84,0,0,0-.94-.86h-.17l.17-.94h.13c.44,0,1.12-.24,1.12-.88,0-.35-.24-.58-.67-.58a1.54,1.54,0,0,0-.67.16v-1a2.75,2.75,0,0,1,1.08-.22,1.31,1.31,0,0,1,1.5,1.34,1.72,1.72,0,0,1-1.13,1.6v0a1.38,1.38,0,0,1,.79,1.31,2.12,2.12,0,0,1-2.3,2.1,2.72,2.72,0,0,1-1.08-.19Z"/><path class="cls-12" d="M410.17,229.4c0-.25,0-.51,0-.78h0a1.49,1.49,0,0,1-1.2.86c-.68,0-1-.58-1-1.41,0-1.42.71-3.42,2.72-3.42a3.6,3.6,0,0,1,1.22.19l-.52,2.6a10.74,10.74,0,0,0-.19,2Zm.43-3.84-.25,0c-.78,0-1.21,1.56-1.21,2.25,0,.41.06.71.35.71s.63-.54.8-1.39Z"/><path class="cls-12" d="M412.83,229.4l.6-3.16c.1-.54.18-1.08.25-1.52h1l0,.6h0a1.53,1.53,0,0,1,1.26-.68c.66,0,.91.46.91,1a4.49,4.49,0,0,1-.11.89l-.54,2.84H415l.56-2.91a2.77,2.77,0,0,0,.06-.5c0-.22-.1-.37-.3-.37s-.65.41-.82,1.3L414,229.4Zm1.55-5.38c.07-.58.29-1.08.77-1.08a.87.87,0,0,1,.51.17c.12.09.22.18.3.18s.15-.07.23-.38h.56c-.1.7-.35,1-.78,1a.88.88,0,0,1-.47-.15c-.15-.12-.24-.19-.33-.19s-.17.15-.21.41Z"/><path class="cls-12" d="M421.87,226.28c0,1.47-.78,3.2-2.21,3.2-1.18,0-1.44-.93-1.44-1.62,0-1.58.87-3.21,2.29-3.21C421.7,224.65,421.87,225.63,421.87,226.28Zm-2.46,1.52c0,.34,0,.77.38.77.57,0,.9-1.59.9-2.43,0-.32-.09-.58-.37-.58C419.8,225.56,419.4,227,419.41,227.8Z"/><path class="cls-12" d="M423.15,228.38a1.4,1.4,0,0,0,.76.19.5.5,0,0,0,.54-.53c0-.26-.12-.44-.45-.7a1.47,1.47,0,0,1-.59-1.14,1.59,1.59,0,0,1,1.73-1.56,1.88,1.88,0,0,1,.88.17l-.26.87a1.22,1.22,0,0,0-.56-.14c-.38,0-.62.2-.62.52s.13.38.35.56a1.56,1.56,0,0,1,.7,1.22,1.58,1.58,0,0,1-1.79,1.61,1.9,1.9,0,0,1-1-.24Z"/><path class="cls-12" d="M482.37,211.47h1.17l-.58,3h0c.2-.4.36-.67.54-1l1.21-2.06H486l-2,2.85.74,3.6h-1.25l-.41-2.74-.42.58-.42,2.15h-1.17Z"/><path class="cls-12" d="M487.58,216.42l-.56,1.5h-1.17l2.61-6.45h1.4l.06,6.45h-1.16l0-1.5Zm1.23-.87,0-1.42c0-.39,0-1.07.06-1.56h0c-.15.49-.36,1.2-.5,1.55l-.52,1.43Z"/><path class="cls-12" d="M492.76,211.56a8,8,0,0,1,1.28-.11,2,2,0,0,1,1.43.44,1.48,1.48,0,0,1,.42,1.06,2,2,0,0,1-1.31,2v0c.35.16.51.54.53,1.25a12.7,12.7,0,0,0,.11,1.75H494c0-.18,0-.83,0-1.54s-.16-1-.56-1h-.2l-.48,2.58h-1.17Zm.62,2.85h.28c.6,0,1-.64,1-1.32,0-.34-.14-.71-.59-.71a1.41,1.41,0,0,0-.32,0Z"/><path class="cls-12" d="M498.17,216.42l-.56,1.5h-1.17l2.61-6.45h1.4l.06,6.45h-1.16l0-1.5Zm1.23-.87,0-1.42c0-.39,0-1.07.06-1.56h0c-.15.49-.36,1.2-.5,1.55l-.52,1.43Z"/><path class="cls-12" d="M503.36,212.6h-1.12l.22-1.13h3.43l-.22,1.13h-1.12l-1,5.32h-1.2Z"/><path class="cls-12" d="M509.44,215.07H508l-.35,1.79h1.63l-.21,1.06h-2.81l1.23-6.45h2.7l-.21,1.05h-1.48l-.32,1.53h1.44Z"/><path class="cls-12" d="M461.21,224.31v2.14h2.07v.78h-2.07v2.16h-.81v-2.16h-2.06v-.78h2.06v-2.14Z"/><path class="cls-12" d="M469.08,224.33h0l-1.05.51,0-1,1.45-.7h1l-1.19,6.22h-1.18Z"/><path class="cls-12" d="M472.31,228.28a2,2,0,0,0,.75.15,1,1,0,0,0,1.11-1,.84.84,0,0,0-.94-.86h-.17l.17-.94h.12c.44,0,1.12-.24,1.12-.88,0-.35-.24-.58-.67-.58a1.54,1.54,0,0,0-.67.16v-1a2.74,2.74,0,0,1,1.08-.22,1.31,1.31,0,0,1,1.5,1.34,1.72,1.72,0,0,1-1.13,1.6v0a1.38,1.38,0,0,1,.78,1.31,2.12,2.12,0,0,1-2.3,2.1,2.72,2.72,0,0,1-1.08-.19Z"/><path class="cls-12" d="M481.67,229.4c0-.25,0-.51,0-.78h0a1.49,1.49,0,0,1-1.2.86c-.68,0-1-.58-1-1.41,0-1.42.71-3.42,2.72-3.42a3.6,3.6,0,0,1,1.22.19l-.52,2.6a10.91,10.91,0,0,0-.19,2Zm.43-3.84-.25,0c-.78,0-1.21,1.56-1.21,2.25,0,.41.06.71.35.71s.63-.54.8-1.39Z"/><path class="cls-12" d="M484.34,229.4l.6-3.16c.11-.54.18-1.08.25-1.52h1l0,.6h0a1.53,1.53,0,0,1,1.26-.68c.66,0,.91.46.91,1a4.42,4.42,0,0,1-.12.89l-.54,2.84h-1.2l.55-2.91a2.77,2.77,0,0,0,.06-.5c0-.22-.1-.37-.3-.37s-.65.41-.82,1.3l-.47,2.48Zm1.55-5.38c.07-.58.29-1.08.78-1.08a.87.87,0,0,1,.51.17c.11.09.22.18.3.18s.15-.07.23-.38h.56c-.1.7-.35,1-.79,1a.89.89,0,0,1-.47-.15c-.15-.12-.24-.19-.33-.19s-.17.15-.21.41Z"/><path class="cls-12" d="M493.37,226.28c0,1.47-.78,3.2-2.21,3.2-1.18,0-1.43-.93-1.43-1.62,0-1.58.87-3.21,2.29-3.21C493.2,224.65,493.37,225.63,493.37,226.28Zm-2.46,1.52c0,.34,0,.77.38.77.57,0,.9-1.59.9-2.43,0-.32-.09-.58-.37-.58C491.31,225.56,490.91,227,490.92,227.81Z"/><path class="cls-12" d="M494.66,228.38a1.4,1.4,0,0,0,.76.19.5.5,0,0,0,.54-.53c0-.26-.12-.44-.45-.7a1.47,1.47,0,0,1-.59-1.14,1.59,1.59,0,0,1,1.73-1.56,1.89,1.89,0,0,1,.88.17l-.26.87a1.21,1.21,0,0,0-.55-.14c-.38,0-.62.2-.62.52s.13.38.35.56a1.55,1.55,0,0,1-1.09,2.83,1.91,1.91,0,0,1-1-.24Z"/><path class="cls-12" d="M504.12,222.78a7.61,7.61,0,0,0-1.94,5.11,6.57,6.57,0,0,0,.43,2.66h-.84a6,6,0,0,1-.54-2.66,7.58,7.58,0,0,1,2-5.11Z"/><path class="cls-12" d="M504.15,229.4l.14-.84.7-.78c1-1.05,1.94-2.09,1.94-3a.64.64,0,0,0-.71-.72,1.53,1.53,0,0,0-.82.24l-.12-.91a2.78,2.78,0,0,1,1.31-.33,1.36,1.36,0,0,1,1.52,1.47c0,1.36-1.12,2.45-2,3.37l-.34.37v0h1.84l-.19,1.06Z"/><path class="cls-12" d="M511.49,224.33h0l-1.05.51,0-1,1.44-.7h1l-1.19,6.22h-1.18Z"/><path class="cls-12" d="M514.51,228.74a.86.86,0,0,1,.75-.85.67.67,0,0,1,.69.73.8.8,0,0,1-.76.86A.67.67,0,0,1,514.51,228.74Zm.6-3.14a.85.85,0,0,1,.75-.85.67.67,0,0,1,.69.73.81.81,0,0,1-.77.86A.67.67,0,0,1,515.11,225.61Z"/><path class="cls-12" d="M519.66,224.33h0l-1.05.51,0-1,1.44-.7h1l-1.19,6.22h-1.18Z"/><path class="cls-12" d="M526.4,224.25h-1.47l-.32,1.16h0a1.32,1.32,0,0,1,1,.49A1.66,1.66,0,0,1,526,227a2.39,2.39,0,0,1-2.47,2.43,1.94,1.94,0,0,1-.95-.17l.3-1a1.56,1.56,0,0,0,.69.14,1.2,1.2,0,0,0,1.25-1.2c0-.7-.49-.95-1.08-.95a3,3,0,0,0-.4,0l.8-3.14h2.47Z"/><path class="cls-12" d="M527.57,229.4l1.26-6.62H530l-.49,2.52h0a1.49,1.49,0,0,1,1.18-.65c.59,0,.85.42.85,1a5.07,5.07,0,0,1-.12.92l-.54,2.81h-1.2l.54-2.81a4.49,4.49,0,0,0,.06-.59c0-.23-.09-.37-.29-.37s-.64.4-.77,1.11l-.52,2.67Z"/><path class="cls-12" d="M532,230.55A7.88,7.88,0,0,0,534,225.4a6.15,6.15,0,0,0-.42-2.62h.88a6.17,6.17,0,0,1,.5,2.62,7.9,7.9,0,0,1-1.91,5.15Z"/><rect class="cls-1" x="271.14" y="135.81" width="90.36" height="56.69"/><rect class="cls-13" x="271.14" y="135.81" width="90.36" height="56.69"/><path class="cls-8" d="M302.79,154.77H304l-.58,3h0c.2-.4.36-.67.54-1l1.21-2.06h1.3l-2,2.85.74,3.6H304l-.41-2.74-.42.58-.42,2.15h-1.17Z"/><path class="cls-8" d="M308,159.72l-.56,1.5h-1.17l2.61-6.45h1.4l.06,6.45h-1.16l0-1.5Zm1.23-.87,0-1.42c0-.39,0-1.07.06-1.56h0c-.15.49-.36,1.2-.5,1.55l-.52,1.43Z"/><path class="cls-8" d="M313.19,154.86a8.06,8.06,0,0,1,1.28-.11,2,2,0,0,1,1.43.44,1.48,1.48,0,0,1,.42,1.06,2,2,0,0,1-1.31,2v0c.35.16.51.54.53,1.25a12.91,12.91,0,0,0,.1,1.75h-1.21c0-.18,0-.83,0-1.54s-.16-1-.56-1h-.2l-.48,2.58H312Zm.62,2.85h.28c.6,0,1-.64,1-1.32,0-.34-.14-.71-.59-.71a1.41,1.41,0,0,0-.32,0Z"/><path class="cls-8" d="M318.6,159.72l-.56,1.5h-1.17l2.61-6.45h1.4l.06,6.45h-1.16l0-1.5Zm1.23-.87,0-1.42c0-.39,0-1.07.06-1.56h0c-.15.49-.36,1.2-.5,1.55l-.52,1.43Z"/><path class="cls-8" d="M323.79,155.9h-1.12l.22-1.13h3.43l-.22,1.13H325l-1,5.32h-1.2Z"/><path class="cls-8" d="M329.86,158.37h-1.42l-.35,1.79h1.63l-.21,1.06H326.7l1.23-6.45h2.7l-.21,1.05h-1.48l-.32,1.53h1.45Z"/><path class="cls-8" d="M295.94,167.63h0l-1.05.51,0-1,1.45-.7h1l-1.19,6.22H295Z"/><path class="cls-8" d="M302.95,168.29c0,1.81-.69,4.49-2.44,4.49-1.14,0-1.38-1.07-1.38-1.93,0-2.09.87-4.44,2.43-4.44C302.78,166.41,302.95,167.57,302.95,168.29ZM300.28,171c0,.52.1.81.39.81.75,0,1.12-3,1.12-3.65,0-.4-.11-.69-.34-.69C300.68,167.42,300.28,170.16,300.28,171Z"/><path class="cls-8" d="M306.21,169.61l-.17.9h-1.9l.17-.9Z"/><path class="cls-8" d="M309.5,167.63h0l-1.05.51,0-1,1.45-.7h1l-1.19,6.22h-1.18Z"/><path class="cls-8" d="M312.29,172.7l.14-.84.7-.78c1-1.05,1.94-2.09,1.94-3a.64.64,0,0,0-.71-.72,1.53,1.53,0,0,0-.82.24l-.12-.91a2.78,2.78,0,0,1,1.31-.33,1.36,1.36,0,0,1,1.52,1.47c0,1.36-1.12,2.45-2,3.37l-.34.37v0h1.84l-.19,1.06Z"/><path class="cls-8" d="M322.09,172.7c0-.25,0-.51,0-.78h0a1.49,1.49,0,0,1-1.2.86c-.68,0-1-.58-1-1.41,0-1.42.71-3.42,2.72-3.42a3.6,3.6,0,0,1,1.22.19l-.52,2.6a10.74,10.74,0,0,0-.19,2Zm.43-3.84-.25,0c-.78,0-1.21,1.56-1.21,2.25,0,.41.06.71.35.71s.63-.54.8-1.39Z"/><path class="cls-8" d="M324.76,172.7l.6-3.16c.11-.54.18-1.08.25-1.52h1l0,.6h0a1.53,1.53,0,0,1,1.26-.68c.66,0,.91.46.91,1a4.42,4.42,0,0,1-.12.89l-.54,2.84h-1.2l.55-2.91a2.69,2.69,0,0,0,.06-.5c0-.22-.1-.37-.3-.37s-.65.41-.82,1.3L326,172.7Zm1.55-5.38c.07-.58.29-1.08.78-1.08a.87.87,0,0,1,.51.17c.12.09.22.18.3.18s.15-.07.23-.38h.56c-.1.7-.35,1-.78,1a.88.88,0,0,1-.47-.15c-.15-.12-.24-.19-.33-.19s-.17.15-.21.41Z"/><path class="cls-8" d="M333.79,169.58c0,1.47-.79,3.2-2.21,3.2-1.18,0-1.44-.93-1.44-1.62,0-1.58.87-3.21,2.29-3.21C333.62,167.95,333.79,168.93,333.79,169.58Zm-2.46,1.52c0,.34,0,.77.38.77.57,0,.9-1.59.9-2.43,0-.32-.09-.58-.37-.58C331.73,168.86,331.33,170.3,331.34,171.1Z"/><path class="cls-8" d="M335.08,171.68a1.4,1.4,0,0,0,.75.19.5.5,0,0,0,.54-.53c0-.26-.12-.44-.45-.7a1.47,1.47,0,0,1-.59-1.14,1.59,1.59,0,0,1,1.73-1.56,1.89,1.89,0,0,1,.88.17l-.26.87a1.21,1.21,0,0,0-.55-.14c-.38,0-.62.2-.62.52s.13.38.35.56a1.56,1.56,0,0,1,.7,1.22,1.58,1.58,0,0,1-1.79,1.61,1.9,1.9,0,0,1-1-.24Z"/><path class="cls-12" d="M206.43,154.77h1.17l-.58,3h0c.2-.4.36-.67.54-1l1.21-2.06h1.3l-2,2.85.74,3.6h-1.25l-.41-2.74-.42.58-.42,2.15H205.2Z"/><path class="cls-12" d="M211.65,159.72l-.56,1.5h-1.17l2.61-6.45h1.4l.06,6.45h-1.16l0-1.5Zm1.23-.87,0-1.42c0-.39,0-1.07.06-1.56h0c-.15.49-.36,1.2-.5,1.55l-.52,1.43Z"/><path class="cls-12" d="M216.82,154.86a8.06,8.06,0,0,1,1.28-.11,2,2,0,0,1,1.43.44,1.48,1.48,0,0,1,.42,1.06,2,2,0,0,1-1.31,2v0c.35.16.51.54.53,1.25a12.91,12.91,0,0,0,.1,1.75h-1.21c0-.18,0-.83,0-1.54s-.16-1-.56-1h-.2l-.48,2.58h-1.17Zm.62,2.85h.28c.6,0,1-.64,1-1.32,0-.34-.14-.71-.59-.71a1.41,1.41,0,0,0-.32,0Z"/><path class="cls-12" d="M222.24,159.72l-.56,1.5h-1.17l2.61-6.45h1.4l.06,6.45h-1.16l0-1.5Zm1.23-.87,0-1.42c0-.39,0-1.07.06-1.56h0c-.15.49-.36,1.2-.5,1.55l-.52,1.43Z"/><path class="cls-12" d="M227.42,155.9H226.3l.22-1.13H230l-.22,1.13h-1.12l-1,5.32h-1.2Z"/><path class="cls-12" d="M233.5,158.37h-1.42l-.35,1.79h1.63l-.21,1.06h-2.81l1.23-6.45h2.7l-.21,1.05h-1.48l-.32,1.53h1.45Z"/><path class="cls-12" d="M241.64,154.6l-1,5.08c-.1.5-.18,1.06-.24,1.54h-1l.06-.69h0a1.39,1.39,0,0,1-1.12.76c-.68,0-1.06-.58-1.06-1.46,0-1.64.88-3.37,2.32-3.37a.87.87,0,0,1,.42.11l.38-2Zm-1.72,2.88a.42.42,0,0,0-.3-.11c-.68,0-1.11,1.48-1.11,2.26,0,.42.1.69.39.69s.52-.36.66-.86Z"/><path class="cls-12" d="M245.35,161a3.29,3.29,0,0,1-1.35.26c-1.15,0-1.59-.76-1.59-1.76,0-1.36.76-3.05,2.25-3.05a1.2,1.2,0,0,1,1.24,1.27c0,1.28-1,1.76-2.33,1.72a1,1,0,0,0,.11.55.71.71,0,0,0,.65.33,2,2,0,0,0,.95-.23Zm-.84-3.6c-.36,0-.69.47-.82,1.14.63,0,1.16-.22,1.16-.71C244.85,157.58,244.74,157.42,244.51,157.42Z"/><path class="cls-12" d="M202.12,172.63a2.34,2.34,0,0,1-.88.13c-1.64,0-1.87-1.45-1.87-2.2A5,5,0,0,1,200.6,167a2.63,2.63,0,0,1,1.91-.81,1.77,1.77,0,0,1,.74.13l-.33,1a1.33,1.33,0,0,0-.55-.09,1.29,1.29,0,0,0-1,.54,4,4,0,0,0-.76,2.47c0,.83.23,1.39.87,1.39a1.94,1.94,0,0,0,.66-.11Z"/><path class="cls-12" d="M208.11,168.22a6.09,6.09,0,0,1-1.3,3.94,1.93,1.93,0,0,1-1.43.61c-1.4,0-1.6-1.4-1.6-2.1a6,6,0,0,1,1.34-3.9,2,2,0,0,1,1.42-.59C207.94,166.18,208.11,167.46,208.11,168.22Zm-2.16-.79a6.19,6.19,0,0,0-.93,3.36c0,.36,0,.94.55.94a.55.55,0,0,0,.39-.19c.64-.63.92-2.71.92-3.41,0-.41-.06-.9-.5-.9A.61.61,0,0,0,205.95,167.43Z"/><path class="cls-12" d="M213.15,172.7l.34-2.53c.07-.53.19-1.22.34-2.07h0c-.28.84-.57,1.59-.77,2L212,172.6h-.85l-.11-2.49c0-.43,0-1.16,0-2h0c-.16.84-.31,1.54-.44,2.07l-.59,2.53h-1l1.64-6.45h1.27l.11,3.06c0,.48,0,1.15,0,1.62h0a17.11,17.11,0,0,1,.56-1.62l1.23-3.06H215l-.84,6.45Z"/><path class="cls-12" d="M217.3,166.34a8.26,8.26,0,0,1,1.29-.11,2,2,0,0,1,1.47.52,1.72,1.72,0,0,1,.4,1.11,2.37,2.37,0,0,1-2.46,2.5h-.31l-.45,2.36h-1.17Zm.59,3h.23c.87,0,1.14-.86,1.14-1.43s-.2-.74-.67-.74a1.19,1.19,0,0,0-.29,0Z"/><path class="cls-12" d="M224.5,169.85h-1.42l-.35,1.79h1.63l-.21,1.06h-2.81l1.23-6.45h2.7l-.21,1.05h-1.48l-.32,1.53h1.45Z"/><path class="cls-12" d="M227.58,167.38h-1.12l.22-1.13h3.43l-.22,1.13h-1.12l-1,5.32h-1.2Z"/><path class="cls-12" d="M232.92,166.25l-1.23,6.45h-1.2l1.23-6.45Z"/><path class="cls-12" d="M236.78,172.63a2.34,2.34,0,0,1-.88.13c-1.64,0-1.87-1.45-1.87-2.2a5,5,0,0,1,1.23-3.55,2.63,2.63,0,0,1,1.91-.81,1.77,1.77,0,0,1,.74.13l-.33,1a1.33,1.33,0,0,0-.55-.09,1.29,1.29,0,0,0-1,.54,4,4,0,0,0-.76,2.47c0,.83.23,1.39.87,1.39a1.94,1.94,0,0,0,.66-.11Z"/><path class="cls-12" d="M240.85,166.25l-1.23,6.45h-1.2l1.23-6.45Z"/><path class="cls-12" d="M246.23,168.22a6.09,6.09,0,0,1-1.3,3.94,1.93,1.93,0,0,1-1.43.61c-1.4,0-1.6-1.4-1.6-2.1a6,6,0,0,1,1.34-3.9,2,2,0,0,1,1.42-.59C246.06,166.18,246.23,167.46,246.23,168.22Zm-2.16-.79a6.19,6.19,0,0,0-.93,3.36c0,.36,0,.94.55.94a.55.55,0,0,0,.39-.19c.64-.63.92-2.71.92-3.41,0-.41-.06-.9-.5-.9A.61.61,0,0,0,244.07,167.43Zm2.42-2.72-1.47,1.2h-.87l1.09-1.2Z"/><path class="cls-12" d="M247.28,172.7l1.23-6.45h1.09l.5,2.56c.16.85.27,1.46.32,2h0c.09-.71.2-1.82.4-2.89l.32-1.67h1L251,172.7h-1l-.52-2.4a13.18,13.18,0,0,1-.33-2.14h0c-.09.65-.23,1.71-.44,2.83l-.33,1.71Z"/><rect class="cls-6" x="361.51" y="135.81" width="90.36" height="56.69"/><path class="cls-12" d="M387.16,154.77h1.17l-.58,3h0c.2-.4.36-.67.54-1l1.21-2.06h1.3l-2,2.85.74,3.6h-1.25l-.41-2.74-.42.58-.42,2.15h-1.17Z"/><path class="cls-12" d="M392.37,159.72l-.56,1.5h-1.17l2.61-6.45h1.4l.06,6.45h-1.16l0-1.5Zm1.23-.87,0-1.42c0-.39,0-1.07.06-1.56h0c-.15.49-.36,1.2-.5,1.55l-.52,1.43Z"/><path class="cls-12" d="M397.55,154.86a8.06,8.06,0,0,1,1.28-.11,2,2,0,0,1,1.43.44,1.48,1.48,0,0,1,.42,1.06,2,2,0,0,1-1.31,2v0c.35.16.51.54.53,1.25a12.91,12.91,0,0,0,.1,1.75h-1.21c0-.18,0-.83,0-1.54s-.16-1-.56-1H398l-.48,2.58h-1.17Zm.62,2.85h.28c.6,0,1-.64,1-1.32,0-.34-.14-.71-.59-.71a1.41,1.41,0,0,0-.32,0Z"/><path class="cls-12" d="M403,159.72l-.56,1.5h-1.17l2.61-6.45h1.4l.06,6.45h-1.16l0-1.5Zm1.23-.87,0-1.42c0-.39,0-1.07.06-1.56h0c-.15.49-.36,1.2-.5,1.55l-.52,1.43Z"/><path class="cls-12" d="M408.15,155.9H407l.22-1.13h3.43l-.22,1.13h-1.12l-1,5.32h-1.2Z"/><path class="cls-12" d="M414.23,158.37h-1.42l-.35,1.79h1.63l-.21,1.06h-2.81l1.23-6.45H415l-.21,1.05H413.3l-.32,1.53h1.45Z"/><path class="cls-12" d="M422.37,154.6l-1,5.08c-.1.5-.18,1.06-.24,1.54h-1l.06-.69h0a1.39,1.39,0,0,1-1.12.76c-.68,0-1.06-.58-1.06-1.46,0-1.64.88-3.37,2.32-3.37a.87.87,0,0,1,.42.11l.38-2Zm-1.72,2.88a.42.42,0,0,0-.3-.11c-.68,0-1.11,1.48-1.11,2.26,0,.42.1.69.39.69s.52-.36.66-.86Z"/><path class="cls-12" d="M426.08,161a3.29,3.29,0,0,1-1.35.26c-1.15,0-1.59-.76-1.59-1.76,0-1.36.76-3.05,2.25-3.05a1.2,1.2,0,0,1,1.24,1.27c0,1.28-1,1.76-2.33,1.72a1,1,0,0,0,.11.55.71.71,0,0,0,.65.33,2,2,0,0,0,.95-.23Zm-.84-3.6c-.36,0-.69.47-.82,1.14.63,0,1.16-.22,1.16-.71C425.57,157.59,425.47,157.42,425.24,157.42Z"/><path class="cls-12" d="M382.85,172.64a2.34,2.34,0,0,1-.88.13c-1.64,0-1.87-1.45-1.87-2.2a5,5,0,0,1,1.23-3.55,2.63,2.63,0,0,1,1.91-.81,1.77,1.77,0,0,1,.74.13l-.33,1a1.33,1.33,0,0,0-.55-.09,1.29,1.29,0,0,0-1,.54,4,4,0,0,0-.76,2.47c0,.83.23,1.39.87,1.39a1.94,1.94,0,0,0,.66-.11Z"/><path class="cls-12" d="M388.84,168.23a6.09,6.09,0,0,1-1.3,3.94,1.93,1.93,0,0,1-1.43.61c-1.4,0-1.6-1.4-1.6-2.1a6,6,0,0,1,1.34-3.9,2,2,0,0,1,1.42-.59C388.67,166.18,388.84,167.46,388.84,168.23Zm-2.16-.79a6.19,6.19,0,0,0-.93,3.36c0,.36,0,.94.55.94a.55.55,0,0,0,.39-.19c.64-.63.92-2.71.92-3.41,0-.41-.06-.9-.5-.9A.61.61,0,0,0,386.68,167.43Z"/><path class="cls-12" d="M393.88,172.7l.34-2.53c.07-.53.19-1.22.34-2.07h0c-.28.84-.57,1.59-.77,2l-1.05,2.46h-.85l-.11-2.49c0-.43,0-1.16,0-2h0c-.16.84-.31,1.54-.44,2.07l-.59,2.53h-1l1.64-6.45h1.27l.11,3.06c0,.48,0,1.15,0,1.62h0a17.11,17.11,0,0,1,.56-1.62l1.23-3.06h1.27l-.84,6.45Z"/><path class="cls-12" d="M398,166.34a8.26,8.26,0,0,1,1.29-.11,2,2,0,0,1,1.47.52,1.72,1.72,0,0,1,.4,1.11,2.37,2.37,0,0,1-2.46,2.5h-.31L398,172.7h-1.17Zm.59,3h.23c.87,0,1.14-.86,1.14-1.43s-.2-.74-.67-.74a1.19,1.19,0,0,0-.29,0Z"/><path class="cls-12" d="M405.23,169.85h-1.42l-.35,1.79h1.63l-.21,1.06h-2.81l1.23-6.45H406l-.21,1.05H404.3l-.32,1.53h1.45Z"/><path class="cls-12" d="M408.31,167.38h-1.12l.22-1.13h3.43l-.22,1.13h-1.12l-1,5.32h-1.2Z"/><path class="cls-12" d="M413.65,166.25l-1.23,6.45h-1.2l1.23-6.45Z"/><path class="cls-12" d="M417.5,172.64a2.34,2.34,0,0,1-.88.13c-1.64,0-1.87-1.45-1.87-2.2A5,5,0,0,1,416,167a2.63,2.63,0,0,1,1.91-.81,1.77,1.77,0,0,1,.74.13l-.33,1a1.33,1.33,0,0,0-.55-.09,1.29,1.29,0,0,0-1,.54,4,4,0,0,0-.76,2.47c0,.83.23,1.39.87,1.39a1.94,1.94,0,0,0,.66-.11Z"/><path class="cls-12" d="M421.58,166.25l-1.23,6.45h-1.2l1.23-6.45Z"/><path class="cls-12" d="M427,168.23a6.09,6.09,0,0,1-1.3,3.94,1.93,1.93,0,0,1-1.43.61c-1.4,0-1.6-1.4-1.6-2.1a6,6,0,0,1,1.34-3.9,2,2,0,0,1,1.42-.59C426.78,166.18,427,167.46,427,168.23Zm-2.16-.79a6.19,6.19,0,0,0-.93,3.36c0,.36,0,.94.55.94a.55.55,0,0,0,.39-.19c.64-.63.92-2.71.92-3.41,0-.41-.06-.9-.5-.9A.61.61,0,0,0,424.79,167.43Zm2.42-2.72-1.47,1.2h-.87l1.09-1.2Z"/><path class="cls-12" d="M428,172.7l1.23-6.45h1.09l.5,2.56c.16.85.27,1.46.32,2h0c.09-.71.2-1.82.4-2.89l.32-1.67h1l-1.23,6.45h-1l-.52-2.4a13.18,13.18,0,0,1-.33-2.14h0c-.09.65-.23,1.71-.44,2.83L429,172.7Z"/><path class="cls-8" d="M303.33,217.2a8.25,8.25,0,0,1,1.29-.11,2,2,0,0,1,1.47.52,1.72,1.72,0,0,1,.4,1.11,2.37,2.37,0,0,1-2.46,2.5h-.31l-.45,2.36h-1.17Zm.59,3h.23c.87,0,1.14-.86,1.14-1.43s-.2-.74-.67-.74a1.19,1.19,0,0,0-.29,0Z"/><path class="cls-8" d="M307.22,223.56l.9-4.68h1.2l-.9,4.68Zm1.12-5.87a.71.71,0,0,1,.67-.74.55.55,0,0,1,.56.62.7.7,0,0,1-.69.75C308.51,218.32,308.33,218,308.34,217.68Z"/><path class="cls-8" d="M310.27,223.56l1.26-6.62h1.2l-1.26,6.62Z"/><path class="cls-8" d="M315.66,223.56c0-.25,0-.51,0-.78h0a1.49,1.49,0,0,1-1.2.86c-.68,0-1-.58-1-1.41,0-1.42.71-3.42,2.72-3.42a3.6,3.6,0,0,1,1.22.19l-.52,2.6a10.91,10.91,0,0,0-.19,2Zm.43-3.84-.25,0c-.78,0-1.21,1.56-1.21,2.25,0,.41.06.71.35.71s.63-.54.8-1.39Z"/><path class="cls-8" d="M320.88,217.62l-.24,1.26h.88l-.15.84h-.89l-.41,2.17a2.34,2.34,0,0,0,0,.39c0,.29.14.39.36.39a2,2,0,0,0,.33,0l-.14.9a3,3,0,0,1-.72.08,1,1,0,0,1-1.07-1,3.66,3.66,0,0,1,.09-.7l.41-2.18h-.54l.16-.84h.54l.19-1Z"/><path class="cls-8" d="M325.17,223.36a3.28,3.28,0,0,1-1.35.26c-1.15,0-1.59-.76-1.59-1.76,0-1.36.76-3.05,2.25-3.05a1.2,1.2,0,0,1,1.24,1.27c0,1.28-1,1.76-2.33,1.72a1,1,0,0,0,.1.55.71.71,0,0,0,.65.33,2,2,0,0,0,.95-.23Zm-.84-3.6c-.36,0-.69.47-.82,1.14.63,0,1.16-.22,1.16-.71C324.67,219.92,324.56,219.76,324.33,219.76Z"/><path class="cls-8" d="M326.84,222.54a1.4,1.4,0,0,0,.76.19.5.5,0,0,0,.54-.53c0-.26-.12-.44-.45-.7a1.47,1.47,0,0,1-.59-1.14,1.59,1.59,0,0,1,1.73-1.56,1.88,1.88,0,0,1,.88.17l-.26.87a1.22,1.22,0,0,0-.56-.14c-.38,0-.62.2-.62.52s.13.38.35.56a1.56,1.56,0,0,1,.7,1.22,1.58,1.58,0,0,1-1.79,1.61,1.9,1.9,0,0,1-1-.24Z"/><path class="cls-8" d="M122.6,217.29a8.26,8.26,0,0,1,1.29-.11,2,2,0,0,1,1.47.52,1.72,1.72,0,0,1,.4,1.11,2.37,2.37,0,0,1-2.46,2.5H123l-.45,2.36h-1.17Zm.59,3h.23c.87,0,1.14-.86,1.14-1.43s-.2-.74-.67-.74a1.19,1.19,0,0,0-.29,0Z"/><path class="cls-8" d="M126.5,223.66l.9-4.68h1.2l-.9,4.68Zm1.12-5.87a.71.71,0,0,1,.67-.74.55.55,0,0,1,.56.62.7.7,0,0,1-.69.75C127.78,218.41,127.61,218.13,127.62,217.78Z"/><path class="cls-8" d="M129.54,223.66,130.8,217H132l-1.26,6.62Z"/><path class="cls-8" d="M134.94,223.66c0-.25,0-.51,0-.78h0a1.49,1.49,0,0,1-1.2.86c-.68,0-1-.58-1-1.41,0-1.42.71-3.42,2.72-3.42a3.6,3.6,0,0,1,1.22.19l-.52,2.6a10.83,10.83,0,0,0-.19,2Zm.43-3.84-.25,0c-.78,0-1.21,1.56-1.21,2.25,0,.41.06.71.35.71s.63-.54.8-1.39Z"/><path class="cls-8" d="M140.15,217.71l-.24,1.26h.88l-.15.84h-.89l-.41,2.17a2.39,2.39,0,0,0,0,.39c0,.29.14.39.36.39a2,2,0,0,0,.33,0l-.14.9a3,3,0,0,1-.72.08,1,1,0,0,1-1.07-1,3.66,3.66,0,0,1,.09-.7l.41-2.18H138l.16-.84h.55l.19-1Z"/><path class="cls-8" d="M144.45,223.45a3.28,3.28,0,0,1-1.35.26c-1.15,0-1.59-.76-1.59-1.76,0-1.36.76-3.05,2.25-3.05a1.2,1.2,0,0,1,1.24,1.27c0,1.28-1,1.76-2.33,1.72a1,1,0,0,0,.1.55.71.71,0,0,0,.65.33,2,2,0,0,0,.95-.23Zm-.84-3.6c-.36,0-.69.47-.82,1.14.63,0,1.16-.22,1.16-.71C143.94,220,143.83,219.86,143.6,219.86Z"/><path class="cls-8" d="M146.11,222.63a1.4,1.4,0,0,0,.76.19.5.5,0,0,0,.54-.53c0-.26-.12-.44-.45-.7a1.47,1.47,0,0,1-.59-1.14,1.59,1.59,0,0,1,1.73-1.56,1.88,1.88,0,0,1,.88.17l-.26.87a1.21,1.21,0,0,0-.56-.14c-.38,0-.62.2-.62.52s.13.38.35.56a1.55,1.55,0,0,1-1.09,2.83,1.9,1.9,0,0,1-1-.24Z"/></g></g></svg>