<svg xmlns="http://www.w3.org/2000/svg" viewBox="0 0 835.7 487.81"><defs><style>.cls-1{fill:#008351;stroke:#008351;stroke-width:0.38px;}.cls-2{fill:#fff;stroke:#fff;stroke-miterlimit:10;stroke-width:5.53px;}</style></defs><title>ig-logo</title><g id="Layer_2" data-name="Layer 2"><g id="Layer_1-2" data-name="Layer 1"><polygon class="cls-1" points="115.89 80.49 99.49 166.16 132.9 166.16 149.29 80.49 115.89 80.49"/><path class="cls-2" d="M128.54,176l-29,151.65H71.38l29-151.65Z"/><path class="cls-2" d="M148.33,178a195.39,195.39,0,0,1,30.38-2.7c10.13,0,25.43,2,34.65,12.15,6.53,7,9.45,18,9.45,26.1A61.54,61.54,0,0,1,203.24,259c-10.58,9-25.65,13.28-38.25,13.28-2.48,0-5,0-7.2-.23l-10.58,55.58H119.76Zm14,70.88a43.43,43.43,0,0,0,5.4.22c20.48,0,26.78-20.25,26.78-33.53,0-10.12-4.73-17.33-15.75-17.33a27.14,27.14,0,0,0-6.75.67Z"/><path class="cls-2" d="M242.61,178a195.39,195.39,0,0,1,30.38-2.7c10.13,0,25.43,2,34.65,12.15,6.53,7,9.45,18,9.45,26.1A61.54,61.54,0,0,1,297.51,259c-10.58,9-25.65,13.28-38.25,13.28-2.48,0-5,0-7.2-.23l-10.58,55.58H214Zm14,70.88a43.43,43.43,0,0,0,5.4.22c20.48,0,26.78-20.25,26.78-33.53,0-10.12-4.73-17.33-15.75-17.33a27.14,27.14,0,0,0-6.75.67Z"/><path class="cls-2" d="M414.28,222.34c0,32.18-10.58,72.68-30.6,92.7-9.45,9.45-20.25,14.4-33.53,14.4-32.85,0-37.58-32.85-37.58-49.5,0-30.83,10.58-71.33,31.5-91.8,9-8.77,20-14,33.3-14C410.23,174.19,414.28,204.34,414.28,222.34Zm-50.85-18.68c-14,14.18-21.83,56.48-21.83,79,0,8.55,1.13,22,12.83,22a12.91,12.91,0,0,0,9.23-4.5c15.08-14.85,21.6-63.68,21.6-80.1,0-9.68-1.35-21.15-11.7-21.15Q368.15,198.94,363.43,203.66Z"/><path class="cls-2" d="M409.78,327.64,438.8,176h25.65l11.7,60.3c3.83,20,6.3,34.43,7.42,47H484c2-16.65,4.73-42.75,9.45-68L500.9,176h24.3l-29,151.65H472.1L460,271.17a312,312,0,0,1-7.65-50.4h-.45c-2,15.3-5.4,40.28-10.35,66.6l-7.65,40.28Z"/><path class="cls-2" d="M599.9,323.37A83.42,83.42,0,0,1,570,329c-18,0-29-5.85-36.9-15.75-7.42-9.23-11.25-24.08-11.25-37.8,0-31.28,10.35-60.53,28.58-79.88a67.69,67.69,0,0,1,49.28-20.93c12.6,0,19.58,2.25,24.08,4l-9,24.75a45.25,45.25,0,0,0-16.43-3.15c-10.35,0-18.23,3.38-25.2,10.13-12.38,12.38-21.6,36.45-21.6,64.58,0,18.9,6.08,29.7,18.23,29.7a29.76,29.76,0,0,0,8.1-.9l7-37.58H571.1l4.73-22.73H615Z"/><path class="cls-2" d="M629.82,327.64l11-58.05L626,176h30.15l3.15,36.23c1.13,16.43,1.13,26.33,1.13,32.4h.45c3.38-9.45,7-19.35,12.15-30.6l17.55-38H720l-51.3,93.83-10.8,57.83Z"/><path class="cls-2" d="M788.23,327.64l8.1-59.4c1.58-12.38,4.5-28.8,8.1-48.6h-.9c-6.53,19.8-13.5,37.35-18,47.7l-24.75,57.83h-20l-2.7-58.5c-.45-10.13-1.12-27.23-.67-47h-.45c-3.83,19.8-7.2,36.23-10.35,48.6l-14,59.4h-24.3L726.8,176h29.93l2.7,72c.45,11.25.9,27,.45,38h.45c2.92-11,8.78-26.55,13.28-38l29-72h29.93l-19.8,151.65Z"/><polygon class="cls-1" points="169.26 54 152.86 139.68 186.26 139.68 202.66 54 169.26 54"/><polygon class="cls-1" points="16.63 355.35 0.23 441.02 33.63 441.02 50.03 355.35 16.63 355.35"/><polygon class="cls-1" points="54.45 401.95 38.05 487.62 71.45 487.62 87.85 401.95 54.45 401.95"/><polygon class="cls-1" points="146.28 348.93 112.88 348.93 106.06 384.59 139.46 384.59 146.28 348.93"/><polygon class="cls-1" points="251.91 49.48 218.5 49.48 211.68 85.14 245.08 85.14 251.91 49.48"/><polygon class="cls-1" points="236.58 129.78 203.18 129.78 196.35 165.43 229.75 165.43 236.58 129.78"/><polygon class="cls-1" points="100.29 337.12 66.89 337.12 60.06 372.77 93.46 372.77 100.29 337.12"/><polygon class="cls-1" points="131.25 0.19 121.68 50.21 155.08 50.21 164.66 0.19 131.25 0.19"/><polygon class="cls-1" points="100.32 414.65 90.75 464.67 124.15 464.67 133.72 414.65 100.32 414.65"/></g></g></svg>