<svg xmlns="http://www.w3.org/2000/svg" xmlns:xlink="http://www.w3.org/1999/xlink" viewBox="0 0 767.67 160.79"><defs><style>.cls-1{fill:url(#linear-gradient);}.cls-2{fill:none;stroke-miterlimit:10;stroke-width:5.53px;stroke:url(#linear-gradient);}</style><linearGradient id="linear-gradient" x1="125.16" y1="333.5" x2="646.51" y2="-103.96" gradientUnits="userSpaceOnUse"><stop offset="0.14" stop-color="#008351"/><stop offset="0.28" stop-color="#005333"/><stop offset="0.49" stop-color="#00170e"/><stop offset="0.58"/><stop offset="0.68" stop-color="#000302"/><stop offset="0.75" stop-color="#000c08"/><stop offset="0.81" stop-color="#001c12"/><stop offset="0.87" stop-color="#003320"/><stop offset="0.93" stop-color="#005032"/><stop offset="0.98" stop-color="#007448"/><stop offset="1" stop-color="#008351"/></linearGradient></defs><title>logo-base-gradient</title><g id="Layer_2" data-name="Layer 2"><g id="Master"><path d="M60.5,36.67l-29,151.65H3.35l29-151.65Z" transform="translate(0 -32.11)"/><path d="M80.3,38.7A195.39,195.39,0,0,1,110.67,36c10.13,0,25.43,2,34.65,12.15,6.53,7,9.45,18,9.45,26.1A61.54,61.54,0,0,1,135.2,119.7c-10.58,9-25.65,13.28-38.25,13.28-2.48,0-5,0-7.2-.23L79.17,188.33H51.72Zm14,70.88a43.43,43.43,0,0,0,5.4.22c20.48,0,26.78-20.25,26.78-33.53,0-10.12-4.73-17.33-15.75-17.33a27.14,27.14,0,0,0-6.75.67Z" transform="translate(0 -32.11)"/><path d="M174.57,38.7A195.39,195.39,0,0,1,204.94,36c10.13,0,25.43,2,34.65,12.15,6.53,7,9.45,18,9.45,26.1a61.54,61.54,0,0,1-19.58,45.45c-10.58,9-25.65,13.28-38.25,13.28-2.48,0-5,0-7.2-.23l-10.58,55.58H146Zm14,70.88a43.43,43.43,0,0,0,5.4.22c20.48,0,26.78-20.25,26.78-33.53,0-10.12-4.73-17.33-15.75-17.33a27.14,27.14,0,0,0-6.75.67Z" transform="translate(0 -32.11)"/><path d="M346.24,83c0,32.18-10.58,72.68-30.6,92.7-9.45,9.45-20.25,14.4-33.53,14.4-32.85,0-37.58-32.85-37.58-49.5,0-30.83,10.58-71.33,31.5-91.8,9-8.77,20-14,33.3-14C342.19,34.87,346.24,65,346.24,83ZM295.39,64.35c-14,14.18-21.83,56.48-21.83,79,0,8.55,1.13,22,12.83,22a12.91,12.91,0,0,0,9.23-4.5c15.08-14.85,21.6-63.68,21.6-80.1,0-9.68-1.35-21.15-11.7-21.15Q300.12,59.62,295.39,64.35Z" transform="translate(0 -32.11)"/><path d="M341.74,188.33l29-151.65h25.65L408.11,97c3.83,20,6.3,34.43,7.42,47H416c2-16.65,4.73-42.75,9.45-68l7.42-39.38h24.3l-29,151.65H404.06l-12.15-56.48a312,312,0,0,1-7.65-50.4h-.45c-2,15.3-5.4,40.28-10.35,66.6l-7.65,40.28Z" transform="translate(0 -32.11)"/><path d="M531.86,184.05a83.42,83.42,0,0,1-29.93,5.63c-18,0-29-5.85-36.9-15.75-7.42-9.23-11.25-24.08-11.25-37.8,0-31.28,10.35-60.53,28.58-79.88a67.69,67.69,0,0,1,49.28-20.93c12.6,0,19.58,2.25,24.08,4l-9,24.75A45.25,45.25,0,0,0,530.29,61c-10.35,0-18.23,3.38-25.2,10.13-12.38,12.38-21.6,36.45-21.6,64.58,0,18.9,6.08,29.7,18.23,29.7a29.76,29.76,0,0,0,8.1-.9l7-37.58H503.06l4.73-22.73h39.15Z" transform="translate(0 -32.11)"/><path d="M561.78,188.33l11-58.05L558,36.67h30.15l3.15,36.23c1.13,16.43,1.13,26.33,1.13,32.4h.45c3.38-9.45,7-19.35,12.15-30.6l17.55-38H652l-51.3,93.83-10.8,57.83Z" transform="translate(0 -32.11)"/><path d="M720.19,188.33l8.1-59.4c1.58-12.38,4.5-28.8,8.1-48.6h-.9c-6.53,19.8-13.5,37.35-18,47.7l-24.75,57.83h-20l-2.7-58.5c-.45-10.13-1.12-27.23-.67-47h-.45c-3.83,19.8-7.2,36.23-10.35,48.6l-14,59.4h-24.3L658.76,36.67h29.93l2.7,72c.45,11.25.9,27,.45,38h.45c2.92-11,8.78-26.55,13.28-38l29-72h29.93l-19.8,151.65Z" transform="translate(0 -32.11)"/><path class="cls-1" d="M60.5,36.67l-29,151.65H3.35l29-151.65Z" transform="translate(0 -32.11)"/><path class="cls-1" d="M80.3,38.7A195.39,195.39,0,0,1,110.67,36c10.13,0,25.43,2,34.65,12.15,6.53,7,9.45,18,9.45,26.1A61.54,61.54,0,0,1,135.2,119.7c-10.58,9-25.65,13.28-38.25,13.28-2.48,0-5,0-7.2-.23L79.17,188.33H51.72Zm14,70.88a43.43,43.43,0,0,0,5.4.22c20.48,0,26.78-20.25,26.78-33.53,0-10.12-4.73-17.33-15.75-17.33a27.14,27.14,0,0,0-6.75.67Z" transform="translate(0 -32.11)"/><path class="cls-1" d="M174.57,38.7A195.39,195.39,0,0,1,204.94,36c10.13,0,25.43,2,34.65,12.15,6.53,7,9.45,18,9.45,26.1a61.54,61.54,0,0,1-19.58,45.45c-10.58,9-25.65,13.28-38.25,13.28-2.48,0-5,0-7.2-.23l-10.58,55.58H146Zm14,70.88a43.43,43.43,0,0,0,5.4.22c20.48,0,26.78-20.25,26.78-33.53,0-10.12-4.73-17.33-15.75-17.33a27.14,27.14,0,0,0-6.75.67Z" transform="translate(0 -32.11)"/><path class="cls-1" d="M346.24,83c0,32.18-10.58,72.68-30.6,92.7-9.45,9.45-20.25,14.4-33.53,14.4-32.85,0-37.58-32.85-37.58-49.5,0-30.83,10.58-71.33,31.5-91.8,9-8.77,20-14,33.3-14C342.19,34.87,346.24,65,346.24,83ZM295.39,64.35c-14,14.18-21.83,56.48-21.83,79,0,8.55,1.13,22,12.83,22a12.91,12.91,0,0,0,9.23-4.5c15.08-14.85,21.6-63.68,21.6-80.1,0-9.68-1.35-21.15-11.7-21.15Q300.12,59.62,295.39,64.35Z" transform="translate(0 -32.11)"/><path class="cls-1" d="M341.74,188.33l29-151.65h25.65L408.11,97c3.83,20,6.3,34.43,7.42,47H416c2-16.65,4.73-42.75,9.45-68l7.42-39.38h24.3l-29,151.65H404.06l-12.15-56.48a312,312,0,0,1-7.65-50.4h-.45c-2,15.3-5.4,40.28-10.35,66.6l-7.65,40.28Z" transform="translate(0 -32.11)"/><path class="cls-1" d="M531.86,184.05a83.42,83.42,0,0,1-29.93,5.63c-18,0-29-5.85-36.9-15.75-7.42-9.23-11.25-24.08-11.25-37.8,0-31.28,10.35-60.53,28.58-79.88a67.69,67.69,0,0,1,49.28-20.93c12.6,0,19.58,2.25,24.08,4l-9,24.75A45.25,45.25,0,0,0,530.29,61c-10.35,0-18.23,3.38-25.2,10.13-12.38,12.38-21.6,36.45-21.6,64.58,0,18.9,6.08,29.7,18.23,29.7a29.76,29.76,0,0,0,8.1-.9l7-37.58H503.06l4.73-22.73h39.15Z" transform="translate(0 -32.11)"/><path class="cls-1" d="M561.78,188.33l11-58.05L558,36.67h30.15l3.15,36.23c1.13,16.43,1.13,26.33,1.13,32.4h.45c3.38-9.45,7-19.35,12.15-30.6l17.55-38H652l-51.3,93.83-10.8,57.83Z" transform="translate(0 -32.11)"/><path class="cls-1" d="M720.19,188.33l8.1-59.4c1.58-12.38,4.5-28.8,8.1-48.6h-.9c-6.53,19.8-13.5,37.35-18,47.7l-24.75,57.83h-20l-2.7-58.5c-.45-10.13-1.12-27.23-.67-47h-.45c-3.83,19.8-7.2,36.23-10.35,48.6l-14,59.4h-24.3L658.76,36.67h29.93l2.7,72c.45,11.25.9,27,.45,38h.45c2.92-11,8.78-26.55,13.28-38l29-72h29.93l-19.8,151.65Z" transform="translate(0 -32.11)"/><path class="cls-2" d="M60.5,36.67l-29,151.65H3.35l29-151.65Z" transform="translate(0 -32.11)"/><path class="cls-2" d="M80.3,38.7A195.39,195.39,0,0,1,110.67,36c10.13,0,25.43,2,34.65,12.15,6.53,7,9.45,18,9.45,26.1A61.54,61.54,0,0,1,135.2,119.7c-10.58,9-25.65,13.28-38.25,13.28-2.48,0-5,0-7.2-.23L79.17,188.33H51.72Zm14,70.88a43.43,43.43,0,0,0,5.4.22c20.48,0,26.78-20.25,26.78-33.53,0-10.12-4.73-17.33-15.75-17.33a27.14,27.14,0,0,0-6.75.67Z" transform="translate(0 -32.11)"/><path class="cls-2" d="M174.57,38.7A195.39,195.39,0,0,1,204.94,36c10.13,0,25.43,2,34.65,12.15,6.53,7,9.45,18,9.45,26.1a61.54,61.54,0,0,1-19.58,45.45c-10.58,9-25.65,13.28-38.25,13.28-2.48,0-5,0-7.2-.23l-10.58,55.58H146Zm14,70.88a43.43,43.43,0,0,0,5.4.22c20.48,0,26.78-20.25,26.78-33.53,0-10.12-4.73-17.33-15.75-17.33a27.14,27.14,0,0,0-6.75.67Z" transform="translate(0 -32.11)"/><path class="cls-2" d="M346.24,83c0,32.18-10.58,72.68-30.6,92.7-9.45,9.45-20.25,14.4-33.53,14.4-32.85,0-37.58-32.85-37.58-49.5,0-30.83,10.58-71.33,31.5-91.8,9-8.77,20-14,33.3-14C342.19,34.87,346.24,65,346.24,83ZM295.39,64.35c-14,14.18-21.83,56.48-21.83,79,0,8.55,1.13,22,12.83,22a12.91,12.91,0,0,0,9.23-4.5c15.08-14.85,21.6-63.68,21.6-80.1,0-9.68-1.35-21.15-11.7-21.15Q300.12,59.62,295.39,64.35Z" transform="translate(0 -32.11)"/><path class="cls-2" d="M341.74,188.33l29-151.65h25.65L408.11,97c3.83,20,6.3,34.43,7.42,47H416c2-16.65,4.73-42.75,9.45-68l7.42-39.38h24.3l-29,151.65H404.06l-12.15-56.48a312,312,0,0,1-7.65-50.4h-.45c-2,15.3-5.4,40.28-10.35,66.6l-7.65,40.28Z" transform="translate(0 -32.11)"/><path class="cls-2" d="M531.86,184.05a83.42,83.42,0,0,1-29.93,5.63c-18,0-29-5.85-36.9-15.75-7.42-9.23-11.25-24.08-11.25-37.8,0-31.28,10.35-60.53,28.58-79.88a67.69,67.69,0,0,1,49.28-20.93c12.6,0,19.58,2.25,24.08,4l-9,24.75A45.25,45.25,0,0,0,530.29,61c-10.35,0-18.23,3.38-25.2,10.13-12.38,12.38-21.6,36.45-21.6,64.58,0,18.9,6.08,29.7,18.23,29.7a29.76,29.76,0,0,0,8.1-.9l7-37.58H503.06l4.73-22.73h39.15Z" transform="translate(0 -32.11)"/><path class="cls-2" d="M561.78,188.33l11-58.05L558,36.67h30.15l3.15,36.23c1.13,16.43,1.13,26.33,1.13,32.4h.45c3.38-9.45,7-19.35,12.15-30.6l17.55-38H652l-51.3,93.83-10.8,57.83Z" transform="translate(0 -32.11)"/><path class="cls-2" d="M720.19,188.33l8.1-59.4c1.58-12.38,4.5-28.8,8.1-48.6h-.9c-6.53,19.8-13.5,37.35-18,47.7l-24.75,57.83h-20l-2.7-58.5c-.45-10.13-1.12-27.23-.67-47h-.45c-3.83,19.8-7.2,36.23-10.35,48.6l-14,59.4h-24.3L658.76,36.67h29.93l2.7,72c.45,11.25.9,27,.45,38h.45c2.92-11,8.78-26.55,13.28-38l29-72h29.93l-19.8,151.65Z" transform="translate(0 -32.11)"/></g></g></svg>