<svg xmlns="http://www.w3.org/2000/svg" viewBox="0 0 297.79 250.45"><defs><style>.cls-1{fill:#008351;stroke-width:12.34px;}.cls-1,.cls-2,.cls-5,.cls-6,.cls-8{stroke:#000;}.cls-1,.cls-2,.cls-6,.cls-7{stroke-linecap:round;}.cls-1,.cls-2,.cls-4,.cls-5,.cls-6,.cls-7,.cls-8{stroke-miterlimit:10;}.cls-2,.cls-4,.cls-5,.cls-6,.cls-7,.cls-8{fill:none;}.cls-2{stroke-width:41.71px;}.cls-3{fill:#fff;}.cls-4,.cls-7{stroke:#fff;}.cls-4{stroke-width:17.18px;}.cls-5{stroke-width:5.21px;}.cls-6{stroke-width:19.61px;}.cls-7{stroke-width:8.08px;}.cls-8{stroke-width:2.45px;}</style></defs><title>karatecomp</title><g id="Layer_2" data-name="Layer 2"><g id="karate"><rect class="cls-1" x="85.21" y="42.85" width="164.76" height="164.76" transform="translate(181.01 332.28) rotate(-135)"/><path d="M41.71,161.34,57.83,76.19h15L63.37,126h.25c1.48-2.46,3-4.92,4.31-7.14L79,101.17H95.48L76.17,127.75l9.11,33.59H69.52l-5.41-26-3.57,5.17L56.6,161.34Z" transform="translate(-16.54)"/><path d="M115.67,161.34c.12-3.2.37-6.52.49-10.09h-.37c-4.8,8-10.58,11.07-15.38,11.07-8.74,0-13-7.51-13-18.09,0-18.21,9.11-44.05,34.95-44.05,6,0,12.06,1,15.75,2.46l-6.64,33.47A138.89,138.89,0,0,0,129,161.34ZM121.2,112a17,17,0,0,0-3.2-.37c-10.09,0-15.5,20.06-15.63,28.92,0,5.29.74,9.11,4.55,9.11,4.18,0,8.12-6.89,10.34-17.84Z" transform="translate(-16.54)"/><path d="M134,161.34l7.75-40.85c1.35-6.89,2.21-13.78,3.08-19.32H158c-.25,3.08-.49,6.28-.86,10h.37c4.43-7.63,9.84-11,14.89-11a7.59,7.59,0,0,1,2.46.25L172,115.81c-.62,0-1.72-.12-2.58-.12-6.64,0-12.92,7.63-14.77,17.84l-5.29,27.81Z" transform="translate(-16.54)"/><path d="M196,161.34c.12-3.2.37-6.52.49-10.09h-.37c-4.8,8-10.58,11.07-15.38,11.07-8.74,0-13-7.51-13-18.09,0-18.21,9.11-44.05,34.95-44.05,6,0,12.06,1,15.75,2.46l-6.64,33.47a138.89,138.89,0,0,0-2.46,25.22ZM201.56,112a17,17,0,0,0-3.2-.37c-10.09,0-15.5,20.06-15.63,28.92,0,5.29.74,9.11,4.55,9.11,4.18,0,8.12-6.89,10.34-17.84Z" transform="translate(-16.54)"/><path d="M247.08,84.93,244,101.17h11.32l-2,10.83H241.92l-5.29,27.93a30.85,30.85,0,0,0-.49,5c0,3.69,1.85,5,4.68,5a26.06,26.06,0,0,0,4.18-.25l-1.85,11.57a38.57,38.57,0,0,1-9.23,1c-9.23,0-13.78-5.17-13.78-13.29a47.11,47.11,0,0,1,1.11-9L226.53,112h-7l2.09-10.83h7l2.46-12.43Z" transform="translate(-16.54)"/><path d="M286.34,158.76A42.37,42.37,0,0,1,269,162.08c-14.77,0-20.43-9.72-20.43-22.64,0-17.47,9.72-39.25,28.92-39.25,11,0,15.87,8.12,16,16.37,0,16.49-13.29,22.64-30,22.15a12.71,12.71,0,0,0,1.35,7c1.48,2.46,4.18,4.31,8.37,4.31a26.18,26.18,0,0,0,12.18-3Zm-10.83-46.27c-4.68,0-8.86,6-10.58,14.64,8.12.37,14.89-2.83,14.89-9.11C279.81,114.58,278.46,112.49,275.51,112.49Z" transform="translate(-16.54)"/><path d="M41.71,161.34,57.83,76.19h15L63.37,126h.25c1.48-2.46,3-4.92,4.31-7.14L79,101.17H95.48L76.17,127.75l9.11,33.59H69.52l-5.41-26-3.57,5.17L56.6,161.34Z" transform="translate(-16.54)"/><path d="M115.67,161.34c.12-3.2.37-6.52.49-10.09h-.37c-4.8,8-10.58,11.07-15.38,11.07-8.74,0-13-7.51-13-18.09,0-18.21,9.11-44.05,34.95-44.05,6,0,12.06,1,15.75,2.46l-6.64,33.47A138.89,138.89,0,0,0,129,161.34ZM121.2,112a17,17,0,0,0-3.2-.37c-10.09,0-15.5,20.06-15.63,28.92,0,5.29.74,9.11,4.55,9.11,4.18,0,8.12-6.89,10.34-17.84Z" transform="translate(-16.54)"/><path d="M134,161.34l7.75-40.85c1.35-6.89,2.21-13.78,3.08-19.32H158c-.25,3.08-.49,6.28-.86,10h.37c4.43-7.63,9.84-11,14.89-11a7.59,7.59,0,0,1,2.46.25L172,115.81c-.62,0-1.72-.12-2.58-.12-6.64,0-12.92,7.63-14.77,17.84l-5.29,27.81Z" transform="translate(-16.54)"/><path d="M196,161.34c.12-3.2.37-6.52.49-10.09h-.37c-4.8,8-10.58,11.07-15.38,11.07-8.74,0-13-7.51-13-18.09,0-18.21,9.11-44.05,34.95-44.05,6,0,12.06,1,15.75,2.46l-6.64,33.47a138.89,138.89,0,0,0-2.46,25.22ZM201.56,112a17,17,0,0,0-3.2-.37c-10.09,0-15.5,20.06-15.63,28.92,0,5.29.74,9.11,4.55,9.11,4.18,0,8.12-6.89,10.34-17.84Z" transform="translate(-16.54)"/><path d="M247.08,84.93,244,101.17h11.32l-2,10.83H241.92l-5.29,27.93a30.85,30.85,0,0,0-.49,5c0,3.69,1.85,5,4.68,5a26.06,26.06,0,0,0,4.18-.25l-1.85,11.57a38.57,38.57,0,0,1-9.23,1c-9.23,0-13.78-5.17-13.78-13.29a47.11,47.11,0,0,1,1.11-9L226.53,112h-7l2.09-10.83h7l2.46-12.43Z" transform="translate(-16.54)"/><path d="M286.34,158.76A42.37,42.37,0,0,1,269,162.08c-14.77,0-20.43-9.72-20.43-22.64,0-17.47,9.72-39.25,28.92-39.25,11,0,15.87,8.12,16,16.37,0,16.49-13.29,22.64-30,22.15a12.71,12.71,0,0,0,1.35,7c1.48,2.46,4.18,4.31,8.37,4.31a26.18,26.18,0,0,0,12.18-3Zm-10.83-46.27c-4.68,0-8.86,6-10.58,14.64,8.12.37,14.89-2.83,14.89-9.11C279.81,114.58,278.46,112.49,275.51,112.49Z" transform="translate(-16.54)"/><path class="cls-2" d="M41.71,161.34,57.83,76.19h15L63.37,126h.25c1.48-2.46,3-4.92,4.31-7.14L79,101.17H95.48L76.17,127.75l9.11,33.59H69.52l-5.41-26-3.57,5.17L56.6,161.34Z" transform="translate(-16.54)"/><path class="cls-2" d="M115.67,161.34c.12-3.2.37-6.52.49-10.09h-.37c-4.8,8-10.58,11.07-15.38,11.07-8.74,0-13-7.51-13-18.09,0-18.21,9.11-44.05,34.95-44.05,6,0,12.06,1,15.75,2.46l-6.64,33.47A138.89,138.89,0,0,0,129,161.34ZM121.2,112a17,17,0,0,0-3.2-.37c-10.09,0-15.5,20.06-15.63,28.92,0,5.29.74,9.11,4.55,9.11,4.18,0,8.12-6.89,10.34-17.84Z" transform="translate(-16.54)"/><path class="cls-2" d="M134,161.34l7.75-40.85c1.35-6.89,2.21-13.78,3.08-19.32H158c-.25,3.08-.49,6.28-.86,10h.37c4.43-7.63,9.84-11,14.89-11a7.59,7.59,0,0,1,2.46.25L172,115.81c-.62,0-1.72-.12-2.58-.12-6.64,0-12.92,7.63-14.77,17.84l-5.29,27.81Z" transform="translate(-16.54)"/><path class="cls-2" d="M196,161.34c.12-3.2.37-6.52.49-10.09h-.37c-4.8,8-10.58,11.07-15.38,11.07-8.74,0-13-7.51-13-18.09,0-18.21,9.11-44.05,34.95-44.05,6,0,12.06,1,15.75,2.46l-6.64,33.47a138.89,138.89,0,0,0-2.46,25.22ZM201.56,112a17,17,0,0,0-3.2-.37c-10.09,0-15.5,20.06-15.63,28.92,0,5.29.74,9.11,4.55,9.11,4.18,0,8.12-6.89,10.34-17.84Z" transform="translate(-16.54)"/><path class="cls-2" d="M247.08,84.93,244,101.17h11.32l-2,10.83H241.92l-5.29,27.93a30.85,30.85,0,0,0-.49,5c0,3.69,1.85,5,4.68,5a26.06,26.06,0,0,0,4.18-.25l-1.85,11.57a38.57,38.57,0,0,1-9.23,1c-9.23,0-13.78-5.17-13.78-13.29a47.11,47.11,0,0,1,1.11-9L226.53,112h-7l2.09-10.83h7l2.46-12.43Z" transform="translate(-16.54)"/><path class="cls-2" d="M286.34,158.76A42.37,42.37,0,0,1,269,162.08c-14.77,0-20.43-9.72-20.43-22.64,0-17.47,9.72-39.25,28.92-39.25,11,0,15.87,8.12,16,16.37,0,16.49-13.29,22.64-30,22.15a12.71,12.71,0,0,0,1.35,7c1.48,2.46,4.18,4.31,8.37,4.31a26.18,26.18,0,0,0,12.18-3Zm-10.83-46.27c-4.68,0-8.86,6-10.58,14.64,8.12.37,14.89-2.83,14.89-9.11C279.81,114.58,278.46,112.49,275.51,112.49Z" transform="translate(-16.54)"/><path d="M41.71,161.34,57.83,76.19h15L63.37,126h.25c1.48-2.46,3-4.92,4.31-7.14L79,101.17H95.48L76.17,127.75l9.11,33.59H69.52l-5.41-26-3.57,5.17L56.6,161.34Z" transform="translate(-16.54)"/><path d="M115.67,161.34c.12-3.2.37-6.52.49-10.09h-.37c-4.8,8-10.58,11.07-15.38,11.07-8.74,0-13-7.51-13-18.09,0-18.21,9.11-44.05,34.95-44.05,6,0,12.06,1,15.75,2.46l-6.64,33.47A138.89,138.89,0,0,0,129,161.34ZM121.2,112a17,17,0,0,0-3.2-.37c-10.09,0-15.5,20.06-15.63,28.92,0,5.29.74,9.11,4.55,9.11,4.18,0,8.12-6.89,10.34-17.84Z" transform="translate(-16.54)"/><path d="M134,161.34l7.75-40.85c1.35-6.89,2.21-13.78,3.08-19.32H158c-.25,3.08-.49,6.28-.86,10h.37c4.43-7.63,9.84-11,14.89-11a7.59,7.59,0,0,1,2.46.25L172,115.81c-.62,0-1.72-.12-2.58-.12-6.64,0-12.92,7.63-14.77,17.84l-5.29,27.81Z" transform="translate(-16.54)"/><path d="M196,161.34c.12-3.2.37-6.52.49-10.09h-.37c-4.8,8-10.58,11.07-15.38,11.07-8.74,0-13-7.51-13-18.09,0-18.21,9.11-44.05,34.95-44.05,6,0,12.06,1,15.75,2.46l-6.64,33.47a138.89,138.89,0,0,0-2.46,25.22ZM201.56,112a17,17,0,0,0-3.2-.37c-10.09,0-15.5,20.06-15.63,28.92,0,5.29.74,9.11,4.55,9.11,4.18,0,8.12-6.89,10.34-17.84Z" transform="translate(-16.54)"/><path d="M247.08,84.93,244,101.17h11.32l-2,10.83H241.92l-5.29,27.93a30.85,30.85,0,0,0-.49,5c0,3.69,1.85,5,4.68,5a26.06,26.06,0,0,0,4.18-.25l-1.85,11.57a38.57,38.57,0,0,1-9.23,1c-9.23,0-13.78-5.17-13.78-13.29a47.11,47.11,0,0,1,1.11-9L226.53,112h-7l2.09-10.83h7l2.46-12.43Z" transform="translate(-16.54)"/><path d="M286.34,158.76A42.37,42.37,0,0,1,269,162.08c-14.77,0-20.43-9.72-20.43-22.64,0-17.47,9.72-39.25,28.92-39.25,11,0,15.87,8.12,16,16.37,0,16.49-13.29,22.64-30,22.15a12.71,12.71,0,0,0,1.35,7c1.48,2.46,4.18,4.31,8.37,4.31a26.18,26.18,0,0,0,12.18-3Zm-10.83-46.27c-4.68,0-8.86,6-10.58,14.64,8.12.37,14.89-2.83,14.89-9.11C279.81,114.58,278.46,112.49,275.51,112.49Z" transform="translate(-16.54)"/><path class="cls-3" d="M41.71,161.34,57.83,76.19h15L63.37,126h.25c1.48-2.46,3-4.92,4.31-7.14L79,101.17H95.48L76.17,127.75l9.11,33.59H69.52l-5.41-26-3.57,5.17L56.6,161.34Z" transform="translate(-16.54)"/><path class="cls-3" d="M115.67,161.34c.12-3.2.37-6.52.49-10.09h-.37c-4.8,8-10.58,11.07-15.38,11.07-8.74,0-13-7.51-13-18.09,0-18.21,9.11-44.05,34.95-44.05,6,0,12.06,1,15.75,2.46l-6.64,33.47A138.89,138.89,0,0,0,129,161.34ZM121.2,112a17,17,0,0,0-3.2-.37c-10.09,0-15.5,20.06-15.63,28.92,0,5.29.74,9.11,4.55,9.11,4.18,0,8.12-6.89,10.34-17.84Z" transform="translate(-16.54)"/><path class="cls-3" d="M134,161.34l7.75-40.85c1.35-6.89,2.21-13.78,3.08-19.32H158c-.25,3.08-.49,6.28-.86,10h.37c4.43-7.63,9.84-11,14.89-11a7.59,7.59,0,0,1,2.46.25L172,115.81c-.62,0-1.72-.12-2.58-.12-6.64,0-12.92,7.63-14.77,17.84l-5.29,27.81Z" transform="translate(-16.54)"/><path class="cls-3" d="M196,161.34c.12-3.2.37-6.52.49-10.09h-.37c-4.8,8-10.58,11.07-15.38,11.07-8.74,0-13-7.51-13-18.09,0-18.21,9.11-44.05,34.95-44.05,6,0,12.06,1,15.75,2.46l-6.64,33.47a138.89,138.89,0,0,0-2.46,25.22ZM201.56,112a17,17,0,0,0-3.2-.37c-10.09,0-15.5,20.06-15.63,28.92,0,5.29.74,9.11,4.55,9.11,4.18,0,8.12-6.89,10.34-17.84Z" transform="translate(-16.54)"/><path class="cls-3" d="M247.08,84.93,244,101.17h11.32l-2,10.83H241.92l-5.29,27.93a30.85,30.85,0,0,0-.49,5c0,3.69,1.85,5,4.68,5a26.06,26.06,0,0,0,4.18-.25l-1.85,11.57a38.57,38.57,0,0,1-9.23,1c-9.23,0-13.78-5.17-13.78-13.29a47.11,47.11,0,0,1,1.11-9L226.53,112h-7l2.09-10.83h7l2.46-12.43Z" transform="translate(-16.54)"/><path class="cls-3" d="M286.34,158.76A42.37,42.37,0,0,1,269,162.08c-14.77,0-20.43-9.72-20.43-22.64,0-17.47,9.72-39.25,28.92-39.25,11,0,15.87,8.12,16,16.37,0,16.49-13.29,22.64-30,22.15a12.71,12.71,0,0,0,1.35,7c1.48,2.46,4.18,4.31,8.37,4.31a26.18,26.18,0,0,0,12.18-3Zm-10.83-46.27c-4.68,0-8.86,6-10.58,14.64,8.12.37,14.89-2.83,14.89-9.11C279.81,114.58,278.46,112.49,275.51,112.49Z" transform="translate(-16.54)"/><path class="cls-4" d="M41.71,161.34,57.83,76.19h15L63.37,126h.25c1.48-2.46,3-4.92,4.31-7.14L79,101.17H95.48L76.17,127.75l9.11,33.59H69.52l-5.41-26-3.57,5.17L56.6,161.34Z" transform="translate(-16.54)"/><path class="cls-4" d="M115.67,161.34c.12-3.2.37-6.52.49-10.09h-.37c-4.8,8-10.58,11.07-15.38,11.07-8.74,0-13-7.51-13-18.09,0-18.21,9.11-44.05,34.95-44.05,6,0,12.06,1,15.75,2.46l-6.64,33.47A138.89,138.89,0,0,0,129,161.34ZM121.2,112a17,17,0,0,0-3.2-.37c-10.09,0-15.5,20.06-15.63,28.92,0,5.29.74,9.11,4.55,9.11,4.18,0,8.12-6.89,10.34-17.84Z" transform="translate(-16.54)"/><path class="cls-4" d="M134,161.34l7.75-40.85c1.35-6.89,2.21-13.78,3.08-19.32H158c-.25,3.08-.49,6.28-.86,10h.37c4.43-7.63,9.84-11,14.89-11a7.59,7.59,0,0,1,2.46.25L172,115.81c-.62,0-1.72-.12-2.58-.12-6.64,0-12.92,7.63-14.77,17.84l-5.29,27.81Z" transform="translate(-16.54)"/><path class="cls-4" d="M196,161.34c.12-3.2.37-6.52.49-10.09h-.37c-4.8,8-10.58,11.07-15.38,11.07-8.74,0-13-7.51-13-18.09,0-18.21,9.11-44.05,34.95-44.05,6,0,12.06,1,15.75,2.46l-6.64,33.47a138.89,138.89,0,0,0-2.46,25.22ZM201.56,112a17,17,0,0,0-3.2-.37c-10.09,0-15.5,20.06-15.63,28.92,0,5.29.74,9.11,4.55,9.11,4.18,0,8.12-6.89,10.34-17.84Z" transform="translate(-16.54)"/><path class="cls-4" d="M247.08,84.93,244,101.17h11.32l-2,10.83H241.92l-5.29,27.93a30.85,30.85,0,0,0-.49,5c0,3.69,1.85,5,4.68,5a26.06,26.06,0,0,0,4.18-.25l-1.85,11.57a38.57,38.57,0,0,1-9.23,1c-9.23,0-13.78-5.17-13.78-13.29a47.11,47.11,0,0,1,1.11-9L226.53,112h-7l2.09-10.83h7l2.46-12.43Z" transform="translate(-16.54)"/><path class="cls-4" d="M286.34,158.76A42.37,42.37,0,0,1,269,162.08c-14.77,0-20.43-9.72-20.43-22.64,0-17.47,9.72-39.25,28.92-39.25,11,0,15.87,8.12,16,16.37,0,16.49-13.29,22.64-30,22.15a12.71,12.71,0,0,0,1.35,7c1.48,2.46,4.18,4.31,8.37,4.31a26.18,26.18,0,0,0,12.18-3Zm-10.83-46.27c-4.68,0-8.86,6-10.58,14.64,8.12.37,14.89-2.83,14.89-9.11C279.81,114.58,278.46,112.49,275.51,112.49Z" transform="translate(-16.54)"/><g id="KARATE-2" data-name="KARATE"><path d="M41.71,161.34,57.83,76.19h15L63.37,126h.25c1.48-2.46,3-4.92,4.31-7.14L79,101.17H95.48L76.17,127.75l9.11,33.59H69.52l-5.41-26-3.57,5.17L56.6,161.34Z" transform="translate(-16.54)"/><path d="M115.67,161.34c.12-3.2.37-6.52.49-10.09h-.37c-4.8,8-10.58,11.07-15.38,11.07-8.74,0-13-7.51-13-18.09,0-18.21,9.11-44.05,34.95-44.05,6,0,12.06,1,15.75,2.46l-6.64,33.47A138.89,138.89,0,0,0,129,161.34ZM121.2,112a17,17,0,0,0-3.2-.37c-10.09,0-15.5,20.06-15.63,28.92,0,5.29.74,9.11,4.55,9.11,4.18,0,8.12-6.89,10.34-17.84Z" transform="translate(-16.54)"/><path d="M134,161.34l7.75-40.85c1.35-6.89,2.21-13.78,3.08-19.32H158c-.25,3.08-.49,6.28-.86,10h.37c4.43-7.63,9.84-11,14.89-11a7.59,7.59,0,0,1,2.46.25L172,115.82c-.62,0-1.72-.12-2.58-.12-6.64,0-12.92,7.63-14.77,17.84l-5.29,27.81Z" transform="translate(-16.54)"/><path d="M196,161.34c.12-3.2.37-6.52.49-10.09h-.37c-4.8,8-10.58,11.07-15.38,11.07-8.74,0-13-7.51-13-18.09,0-18.21,9.11-44.05,34.95-44.05,6,0,12.06,1,15.75,2.46l-6.64,33.47a138.89,138.89,0,0,0-2.46,25.22ZM201.56,112a17,17,0,0,0-3.2-.37c-10.09,0-15.5,20.06-15.63,28.92,0,5.29.74,9.11,4.55,9.11,4.18,0,8.12-6.89,10.34-17.84Z" transform="translate(-16.54)"/><path d="M247.08,84.93,244,101.17h11.32l-2,10.83H241.92l-5.29,27.93a30.85,30.85,0,0,0-.49,5c0,3.69,1.85,5,4.68,5a26.06,26.06,0,0,0,4.18-.25l-1.85,11.57a38.57,38.57,0,0,1-9.23,1c-9.23,0-13.78-5.17-13.78-13.29a47.11,47.11,0,0,1,1.11-9L226.53,112h-7l2.09-10.83h7l2.46-12.43Z" transform="translate(-16.54)"/><path d="M286.34,158.76A42.37,42.37,0,0,1,269,162.08c-14.77,0-20.43-9.72-20.43-22.64,0-17.47,9.72-39.25,28.92-39.25,11,0,15.87,8.12,16,16.37,0,16.49-13.29,22.64-30,22.15a12.71,12.71,0,0,0,1.35,7c1.48,2.46,4.18,4.31,8.37,4.31a26.18,26.18,0,0,0,12.18-3Zm-10.83-46.27c-4.68,0-8.86,6-10.58,14.64,8.12.37,14.89-2.83,14.89-9.11C279.81,114.59,278.46,112.49,275.51,112.49Z" transform="translate(-16.54)"/><path d="M41.71,161.34,57.83,76.19h15L63.37,126h.25c1.48-2.46,3-4.92,4.31-7.14L79,101.17H95.48L76.17,127.75l9.11,33.59H69.52l-5.41-26-3.57,5.17L56.6,161.34Z" transform="translate(-16.54)"/><path d="M115.67,161.34c.12-3.2.37-6.52.49-10.09h-.37c-4.8,8-10.58,11.07-15.38,11.07-8.74,0-13-7.51-13-18.09,0-18.21,9.11-44.05,34.95-44.05,6,0,12.06,1,15.75,2.46l-6.64,33.47A138.89,138.89,0,0,0,129,161.34ZM121.2,112a17,17,0,0,0-3.2-.37c-10.09,0-15.5,20.06-15.63,28.92,0,5.29.74,9.11,4.55,9.11,4.18,0,8.12-6.89,10.34-17.84Z" transform="translate(-16.54)"/><path d="M134,161.34l7.75-40.85c1.35-6.89,2.21-13.78,3.08-19.32H158c-.25,3.08-.49,6.28-.86,10h.37c4.43-7.63,9.84-11,14.89-11a7.59,7.59,0,0,1,2.46.25L172,115.82c-.62,0-1.72-.12-2.58-.12-6.64,0-12.92,7.63-14.77,17.84l-5.29,27.81Z" transform="translate(-16.54)"/><path d="M196,161.34c.12-3.2.37-6.52.49-10.09h-.37c-4.8,8-10.58,11.07-15.38,11.07-8.74,0-13-7.51-13-18.09,0-18.21,9.11-44.05,34.95-44.05,6,0,12.06,1,15.75,2.46l-6.64,33.47a138.89,138.89,0,0,0-2.46,25.22ZM201.56,112a17,17,0,0,0-3.2-.37c-10.09,0-15.5,20.06-15.63,28.92,0,5.29.74,9.11,4.55,9.11,4.18,0,8.12-6.89,10.34-17.84Z" transform="translate(-16.54)"/><path d="M247.08,84.93,244,101.17h11.32l-2,10.83H241.92l-5.29,27.93a30.85,30.85,0,0,0-.49,5c0,3.69,1.85,5,4.68,5a26.06,26.06,0,0,0,4.18-.25l-1.85,11.57a38.57,38.57,0,0,1-9.23,1c-9.23,0-13.78-5.17-13.78-13.29a47.11,47.11,0,0,1,1.11-9L226.53,112h-7l2.09-10.83h7l2.46-12.43Z" transform="translate(-16.54)"/><path d="M286.34,158.76A42.37,42.37,0,0,1,269,162.08c-14.77,0-20.43-9.72-20.43-22.64,0-17.47,9.72-39.25,28.92-39.25,11,0,15.87,8.12,16,16.37,0,16.49-13.29,22.64-30,22.15a12.71,12.71,0,0,0,1.35,7c1.48,2.46,4.18,4.31,8.37,4.31a26.18,26.18,0,0,0,12.18-3Zm-10.83-46.27c-4.68,0-8.86,6-10.58,14.64,8.12.37,14.89-2.83,14.89-9.11C279.81,114.59,278.46,112.49,275.51,112.49Z" transform="translate(-16.54)"/><path class="cls-5" d="M41.71,161.34,57.83,76.19h15L63.37,126h.25c1.48-2.46,3-4.92,4.31-7.14L79,101.17H95.48L76.17,127.75l9.11,33.59H69.52l-5.41-26-3.57,5.17L56.6,161.34Z" transform="translate(-16.54)"/><path class="cls-5" d="M115.67,161.34c.12-3.2.37-6.52.49-10.09h-.37c-4.8,8-10.58,11.07-15.38,11.07-8.74,0-13-7.51-13-18.09,0-18.21,9.11-44.05,34.95-44.05,6,0,12.06,1,15.75,2.46l-6.64,33.47A138.89,138.89,0,0,0,129,161.34ZM121.2,112a17,17,0,0,0-3.2-.37c-10.09,0-15.5,20.06-15.63,28.92,0,5.29.74,9.11,4.55,9.11,4.18,0,8.12-6.89,10.34-17.84Z" transform="translate(-16.54)"/><path class="cls-5" d="M134,161.34l7.75-40.85c1.35-6.89,2.21-13.78,3.08-19.32H158c-.25,3.08-.49,6.28-.86,10h.37c4.43-7.63,9.84-11,14.89-11a7.59,7.59,0,0,1,2.46.25L172,115.82c-.62,0-1.72-.12-2.58-.12-6.64,0-12.92,7.63-14.77,17.84l-5.29,27.81Z" transform="translate(-16.54)"/><path class="cls-5" d="M196,161.34c.12-3.2.37-6.52.49-10.09h-.37c-4.8,8-10.58,11.07-15.38,11.07-8.74,0-13-7.51-13-18.09,0-18.21,9.11-44.05,34.95-44.05,6,0,12.06,1,15.75,2.46l-6.64,33.47a138.89,138.89,0,0,0-2.46,25.22ZM201.56,112a17,17,0,0,0-3.2-.37c-10.09,0-15.5,20.06-15.63,28.92,0,5.29.74,9.11,4.55,9.11,4.18,0,8.12-6.89,10.34-17.84Z" transform="translate(-16.54)"/><path class="cls-5" d="M247.08,84.93,244,101.17h11.32l-2,10.83H241.92l-5.29,27.93a30.85,30.85,0,0,0-.49,5c0,3.69,1.85,5,4.68,5a26.06,26.06,0,0,0,4.18-.25l-1.85,11.57a38.57,38.57,0,0,1-9.23,1c-9.23,0-13.78-5.17-13.78-13.29a47.11,47.11,0,0,1,1.11-9L226.53,112h-7l2.09-10.83h7l2.46-12.43Z" transform="translate(-16.54)"/><path class="cls-5" d="M286.34,158.76A42.37,42.37,0,0,1,269,162.08c-14.77,0-20.43-9.72-20.43-22.64,0-17.47,9.72-39.25,28.92-39.25,11,0,15.87,8.12,16,16.37,0,16.49-13.29,22.64-30,22.15a12.71,12.71,0,0,0,1.35,7c1.48,2.46,4.18,4.31,8.37,4.31a26.18,26.18,0,0,0,12.18-3Zm-10.83-46.27c-4.68,0-8.86,6-10.58,14.64,8.12.37,14.89-2.83,14.89-9.11C279.81,114.59,278.46,112.49,275.51,112.49Z" transform="translate(-16.54)"/></g><path d="M73.62,215a14.41,14.41,0,0,1-5,.75c-6.25,0-8.85-5-8.85-10.18,0-10.12,6.3-18.86,15.21-18.86a9.36,9.36,0,0,1,3.53.52l-1.79,5.9a8.52,8.52,0,0,0-2-.29c-4.22,0-7.69,5.67-7.69,11.68,0,3.24,1.33,5.32,3.7,5.32a13.79,13.79,0,0,0,3.47-.64Z" transform="translate(-16.54)"/><path d="M97.57,196.59c0,8.91-4.74,19.32-13.36,19.32-7.12,0-8.68-5.61-8.68-9.78,0-9.54,5.26-19.44,13.83-19.44C96.53,186.7,97.57,192.66,97.57,196.59Zm-14.87,9.2c0,2.08.06,4.63,2.31,4.63,3.47,0,5.44-9.6,5.44-14.69,0-1.91-.52-3.53-2.26-3.53C85.07,192.19,82.64,200.93,82.7,205.79Z" transform="translate(-16.54)"/><path d="M96.76,215.45l3.64-19.09c.64-3.3,1.1-6.54,1.5-9.2h6.19l-.29,3.88h.12a8.85,8.85,0,0,1,7.69-4.34c2.72,0,4.34,1.85,4.74,4.34a9.41,9.41,0,0,1,7.75-4.34c3.53,0,5.21,2.49,5.21,6.13a40.25,40.25,0,0,1-.69,5.73l-3.24,16.89h-7.12l3.18-16.78a23.48,23.48,0,0,0,.46-4.22c0-1.16-.58-2-1.74-2-1.56,0-3.7,2.37-4.8,7.92l-2.89,15h-6.94l3.18-16.78a20.64,20.64,0,0,0,.46-4c0-1.27-.46-2.14-1.62-2.14-1.45,0-3.82,2.6-4.8,7.92l-2.83,15Z" transform="translate(-16.54)"/><path d="M130.77,226.55l5.73-30.08c.64-3.35,1.1-6.54,1.5-9.31h6.19l-.46,4.11h.12c1.74-2.83,4.45-4.57,7.06-4.57,5.09,0,6.07,4.4,6.07,8.73,0,9.49-5.09,20.48-13.36,20.48a7.73,7.73,0,0,1-3.47-.69H140l-2.08,11.34ZM141,209.84a3.28,3.28,0,0,0,2,.69c4.4,0,6.54-9.6,6.54-13.83,0-1.91-.17-3.88-2.08-3.88s-3.82,3-4.51,6.36Z" transform="translate(-16.54)"/><path d="M175.2,214.23a19.92,19.92,0,0,1-8.16,1.56c-6.94,0-9.6-4.57-9.6-10.64,0-8.21,4.57-18.45,13.59-18.45,5.15,0,7.46,3.82,7.52,7.69,0,7.75-6.25,10.64-14.11,10.41a6,6,0,0,0,.64,3.3,4.31,4.31,0,0,0,3.93,2,12.31,12.31,0,0,0,5.73-1.39Zm-5.09-21.75c-2.2,0-4.17,2.83-5,6.88,3.82.17,7-1.33,7-4.28C172.13,193.46,171.5,192.48,170.11,192.48Z" transform="translate(-16.54)"/><path d="M191.34,179.52l-1.45,7.64h5.32l-.93,5.09h-5.38l-2.49,13.13a14.48,14.48,0,0,0-.23,2.37c0,1.74.87,2.37,2.2,2.37a12.3,12.3,0,0,0,2-.12l-.87,5.44a18.16,18.16,0,0,1-4.34.46c-4.34,0-6.48-2.43-6.48-6.25a22.16,22.16,0,0,1,.52-4.22l2.49-13.19h-3.3l1-5.09h3.3l1.16-5.84Z" transform="translate(-16.54)"/><path d="M191.34,215.45l5.44-28.29H204l-5.44,28.29Zm6.77-35.52c0-2.08,1.5-4.45,4-4.45,2.37,0,3.47,1.79,3.41,3.76-.06,2.89-2,4.51-4.16,4.51C199.09,183.75,198.05,182.07,198.11,179.93Z" transform="translate(-16.54)"/><path d="M217.31,215a14.41,14.41,0,0,1-5,.75c-6.25,0-8.85-5-8.85-10.18,0-10.12,6.3-18.86,15.21-18.86a9.36,9.36,0,0,1,3.53.52l-1.79,5.9a8.52,8.52,0,0,0-2-.29c-4.22,0-7.69,5.67-7.69,11.68,0,3.24,1.33,5.32,3.7,5.32a13.79,13.79,0,0,0,3.47-.64Z" transform="translate(-16.54)"/><path d="M219.05,215.45l5.44-28.29h7.23l-5.44,28.29Zm6.77-35.52c0-2.08,1.5-4.45,4-4.45,2.37,0,3.47,1.79,3.41,3.76-.06,2.89-2,4.51-4.16,4.51C226.8,183.75,225.76,182.07,225.82,179.93Z" transform="translate(-16.54)"/><path d="M253.12,196.59c0,8.91-4.74,19.32-13.36,19.32-7.12,0-8.68-5.61-8.68-9.78,0-9.54,5.26-19.44,13.83-19.44C252.08,186.7,253.12,192.66,253.12,196.59Zm-14.87,9.2c0,2.08.06,4.63,2.31,4.63,3.47,0,5.44-9.6,5.44-14.69,0-1.91-.52-3.53-2.26-3.53C240.63,192.19,238.2,200.93,238.26,205.79ZM254,175.71l-7.06,8.1h-5l5.15-8.1Z" transform="translate(-16.54)"/><path d="M252.31,215.45,256,196.36c.64-3.3,1.1-6.54,1.5-9.2h6.19l-.29,3.64h.12a9.28,9.28,0,0,1,7.64-4.11c4,0,5.5,2.78,5.5,6.19a26.89,26.89,0,0,1-.69,5.38l-3.24,17.18h-7.23l3.36-17.58a16.55,16.55,0,0,0,.35-3c0-1.33-.58-2.26-1.79-2.26-1.68,0-3.93,2.49-5,7.87l-2.83,15Z" transform="translate(-16.54)"/><path class="cls-3" d="M73.62,215a14.41,14.41,0,0,1-5,.75c-6.25,0-8.85-5-8.85-10.18,0-10.12,6.3-18.86,15.21-18.86a9.36,9.36,0,0,1,3.53.52l-1.79,5.9a8.52,8.52,0,0,0-2-.29c-4.22,0-7.69,5.67-7.69,11.68,0,3.24,1.33,5.32,3.7,5.32a13.79,13.79,0,0,0,3.47-.64Z" transform="translate(-16.54)"/><path class="cls-3" d="M97.57,196.59c0,8.91-4.74,19.32-13.36,19.32-7.12,0-8.68-5.61-8.68-9.78,0-9.54,5.26-19.44,13.83-19.44C96.53,186.7,97.57,192.66,97.57,196.59Zm-14.87,9.2c0,2.08.06,4.63,2.31,4.63,3.47,0,5.44-9.6,5.44-14.69,0-1.91-.52-3.53-2.26-3.53C85.07,192.19,82.64,200.93,82.7,205.79Z" transform="translate(-16.54)"/><path class="cls-3" d="M96.76,215.45l3.64-19.09c.64-3.3,1.1-6.54,1.5-9.2h6.19l-.29,3.88h.12a8.85,8.85,0,0,1,7.69-4.34c2.72,0,4.34,1.85,4.74,4.34a9.41,9.41,0,0,1,7.75-4.34c3.53,0,5.21,2.49,5.21,6.13a40.25,40.25,0,0,1-.69,5.73l-3.24,16.89h-7.12l3.18-16.78a23.48,23.48,0,0,0,.46-4.22c0-1.16-.58-2-1.74-2-1.56,0-3.7,2.37-4.8,7.92l-2.89,15h-6.94l3.18-16.78a20.64,20.64,0,0,0,.46-4c0-1.27-.46-2.14-1.62-2.14-1.45,0-3.82,2.6-4.8,7.92l-2.83,15Z" transform="translate(-16.54)"/><path class="cls-3" d="M130.77,226.55l5.73-30.08c.64-3.35,1.1-6.54,1.5-9.31h6.19l-.46,4.11h.12c1.74-2.83,4.45-4.57,7.06-4.57,5.09,0,6.07,4.4,6.07,8.73,0,9.49-5.09,20.48-13.36,20.48a7.73,7.73,0,0,1-3.47-.69H140l-2.08,11.34ZM141,209.84a3.28,3.28,0,0,0,2,.69c4.4,0,6.54-9.6,6.54-13.83,0-1.91-.17-3.88-2.08-3.88s-3.82,3-4.51,6.36Z" transform="translate(-16.54)"/><path class="cls-3" d="M175.2,214.23a19.92,19.92,0,0,1-8.16,1.56c-6.94,0-9.6-4.57-9.6-10.64,0-8.21,4.57-18.45,13.59-18.45,5.15,0,7.46,3.82,7.52,7.69,0,7.75-6.25,10.64-14.11,10.41a6,6,0,0,0,.64,3.3,4.31,4.31,0,0,0,3.93,2,12.31,12.31,0,0,0,5.73-1.39Zm-5.09-21.75c-2.2,0-4.17,2.83-5,6.88,3.82.17,7-1.33,7-4.28C172.13,193.46,171.5,192.48,170.11,192.48Z" transform="translate(-16.54)"/><path class="cls-3" d="M191.34,179.52l-1.45,7.64h5.32l-.93,5.09h-5.38l-2.49,13.13a14.48,14.48,0,0,0-.23,2.37c0,1.74.87,2.37,2.2,2.37a12.3,12.3,0,0,0,2-.12l-.87,5.44a18.16,18.16,0,0,1-4.34.46c-4.34,0-6.48-2.43-6.48-6.25a22.16,22.16,0,0,1,.52-4.22l2.49-13.19h-3.3l1-5.09h3.3l1.16-5.84Z" transform="translate(-16.54)"/><path class="cls-3" d="M191.34,215.45l5.44-28.29H204l-5.44,28.29Zm6.77-35.52c0-2.08,1.5-4.45,4-4.45,2.37,0,3.47,1.79,3.41,3.76-.06,2.89-2,4.51-4.16,4.51C199.09,183.75,198.05,182.07,198.11,179.93Z" transform="translate(-16.54)"/><path class="cls-3" d="M217.31,215a14.41,14.41,0,0,1-5,.75c-6.25,0-8.85-5-8.85-10.18,0-10.12,6.3-18.86,15.21-18.86a9.36,9.36,0,0,1,3.53.52l-1.79,5.9a8.52,8.52,0,0,0-2-.29c-4.22,0-7.69,5.67-7.69,11.68,0,3.24,1.33,5.32,3.7,5.32a13.79,13.79,0,0,0,3.47-.64Z" transform="translate(-16.54)"/><path class="cls-3" d="M219.05,215.45l5.44-28.29h7.23l-5.44,28.29Zm6.77-35.52c0-2.08,1.5-4.45,4-4.45,2.37,0,3.47,1.79,3.41,3.76-.06,2.89-2,4.51-4.16,4.51C226.8,183.75,225.76,182.07,225.82,179.93Z" transform="translate(-16.54)"/><path class="cls-3" d="M253.12,196.59c0,8.91-4.74,19.32-13.36,19.32-7.12,0-8.68-5.61-8.68-9.78,0-9.54,5.26-19.44,13.83-19.44C252.08,186.7,253.12,192.66,253.12,196.59Zm-14.87,9.2c0,2.08.06,4.63,2.31,4.63,3.47,0,5.44-9.6,5.44-14.69,0-1.91-.52-3.53-2.26-3.53C240.63,192.19,238.2,200.93,238.26,205.79ZM254,175.71l-7.06,8.1h-5l5.15-8.1Z" transform="translate(-16.54)"/><path class="cls-3" d="M252.31,215.45,256,196.36c.64-3.3,1.1-6.54,1.5-9.2h6.19l-.29,3.64h.12a9.28,9.28,0,0,1,7.64-4.11c4,0,5.5,2.78,5.5,6.19a26.89,26.89,0,0,1-.69,5.38l-3.24,17.18h-7.23l3.36-17.58a16.55,16.55,0,0,0,.35-3c0-1.33-.58-2.26-1.79-2.26-1.68,0-3.93,2.49-5,7.87l-2.83,15Z" transform="translate(-16.54)"/><path class="cls-6" d="M73.62,215a14.41,14.41,0,0,1-5,.75c-6.25,0-8.85-5-8.85-10.18,0-10.12,6.3-18.86,15.21-18.86a9.36,9.36,0,0,1,3.53.52l-1.79,5.9a8.52,8.52,0,0,0-2-.29c-4.22,0-7.69,5.67-7.69,11.68,0,3.24,1.33,5.32,3.7,5.32a13.79,13.79,0,0,0,3.47-.64Z" transform="translate(-16.54)"/><path class="cls-6" d="M97.57,196.59c0,8.91-4.74,19.32-13.36,19.32-7.12,0-8.68-5.61-8.68-9.78,0-9.54,5.26-19.44,13.83-19.44C96.53,186.7,97.57,192.66,97.57,196.59Zm-14.87,9.2c0,2.08.06,4.63,2.31,4.63,3.47,0,5.44-9.6,5.44-14.69,0-1.91-.52-3.53-2.26-3.53C85.07,192.19,82.64,200.93,82.7,205.79Z" transform="translate(-16.54)"/><path class="cls-6" d="M96.76,215.45l3.64-19.09c.64-3.3,1.1-6.54,1.5-9.2h6.19l-.29,3.88h.12a8.85,8.85,0,0,1,7.69-4.34c2.72,0,4.34,1.85,4.74,4.34a9.41,9.41,0,0,1,7.75-4.34c3.53,0,5.21,2.49,5.21,6.13a40.25,40.25,0,0,1-.69,5.73l-3.24,16.89h-7.12l3.18-16.78a23.48,23.48,0,0,0,.46-4.22c0-1.16-.58-2-1.74-2-1.56,0-3.7,2.37-4.8,7.92l-2.89,15h-6.94l3.18-16.78a20.64,20.64,0,0,0,.46-4c0-1.27-.46-2.14-1.62-2.14-1.45,0-3.82,2.6-4.8,7.92l-2.83,15Z" transform="translate(-16.54)"/><path class="cls-6" d="M130.77,226.55l5.73-30.08c.64-3.35,1.1-6.54,1.5-9.31h6.19l-.46,4.11h.12c1.74-2.83,4.45-4.57,7.06-4.57,5.09,0,6.07,4.4,6.07,8.73,0,9.49-5.09,20.48-13.36,20.48a7.73,7.73,0,0,1-3.47-.69H140l-2.08,11.34ZM141,209.84a3.28,3.28,0,0,0,2,.69c4.4,0,6.54-9.6,6.54-13.83,0-1.91-.17-3.88-2.08-3.88s-3.82,3-4.51,6.36Z" transform="translate(-16.54)"/><path class="cls-6" d="M175.2,214.23a19.92,19.92,0,0,1-8.16,1.56c-6.94,0-9.6-4.57-9.6-10.64,0-8.21,4.57-18.45,13.59-18.45,5.15,0,7.46,3.82,7.52,7.69,0,7.75-6.25,10.64-14.11,10.41a6,6,0,0,0,.64,3.3,4.31,4.31,0,0,0,3.93,2,12.31,12.31,0,0,0,5.73-1.39Zm-5.09-21.75c-2.2,0-4.17,2.83-5,6.88,3.82.17,7-1.33,7-4.28C172.13,193.46,171.5,192.48,170.11,192.48Z" transform="translate(-16.54)"/><path class="cls-6" d="M191.34,179.52l-1.45,7.64h5.32l-.93,5.09h-5.38l-2.49,13.13a14.48,14.48,0,0,0-.23,2.37c0,1.74.87,2.37,2.2,2.37a12.3,12.3,0,0,0,2-.12l-.87,5.44a18.16,18.16,0,0,1-4.34.46c-4.34,0-6.48-2.43-6.48-6.25a22.16,22.16,0,0,1,.52-4.22l2.49-13.19h-3.3l1-5.09h3.3l1.16-5.84Z" transform="translate(-16.54)"/><path class="cls-6" d="M191.34,215.45l5.44-28.29H204l-5.44,28.29Zm6.77-35.52c0-2.08,1.5-4.45,4-4.45,2.37,0,3.47,1.79,3.41,3.76-.06,2.89-2,4.51-4.16,4.51C199.09,183.75,198.05,182.07,198.11,179.93Z" transform="translate(-16.54)"/><path class="cls-6" d="M217.31,215a14.41,14.41,0,0,1-5,.75c-6.25,0-8.85-5-8.85-10.18,0-10.12,6.3-18.86,15.21-18.86a9.36,9.36,0,0,1,3.53.52l-1.79,5.9a8.52,8.52,0,0,0-2-.29c-4.22,0-7.69,5.67-7.69,11.68,0,3.24,1.33,5.32,3.7,5.32a13.79,13.79,0,0,0,3.47-.64Z" transform="translate(-16.54)"/><path class="cls-6" d="M219.05,215.45l5.44-28.29h7.23l-5.44,28.29Zm6.77-35.52c0-2.08,1.5-4.45,4-4.45,2.37,0,3.47,1.79,3.41,3.76-.06,2.89-2,4.51-4.16,4.51C226.8,183.75,225.76,182.07,225.82,179.93Z" transform="translate(-16.54)"/><path class="cls-6" d="M253.12,196.59c0,8.91-4.74,19.32-13.36,19.32-7.12,0-8.68-5.61-8.68-9.78,0-9.54,5.26-19.44,13.83-19.44C252.08,186.7,253.12,192.66,253.12,196.59Zm-14.87,9.2c0,2.08.06,4.63,2.31,4.63,3.47,0,5.44-9.6,5.44-14.69,0-1.91-.52-3.53-2.26-3.53C240.63,192.19,238.2,200.93,238.26,205.79ZM254,175.71l-7.06,8.1h-5l5.15-8.1Z" transform="translate(-16.54)"/><path class="cls-6" d="M252.31,215.45,256,196.36c.64-3.3,1.1-6.54,1.5-9.2h6.19l-.29,3.64h.12a9.28,9.28,0,0,1,7.64-4.11c4,0,5.5,2.78,5.5,6.19a26.89,26.89,0,0,1-.69,5.38l-3.24,17.18h-7.23l3.36-17.58a16.55,16.55,0,0,0,.35-3c0-1.33-.58-2.26-1.79-2.26-1.68,0-3.93,2.49-5,7.87l-2.83,15Z" transform="translate(-16.54)"/><path d="M73.62,215a14.41,14.41,0,0,1-5,.75c-6.25,0-8.85-5-8.85-10.18,0-10.12,6.3-18.86,15.21-18.86a9.36,9.36,0,0,1,3.53.52l-1.79,5.9a8.52,8.52,0,0,0-2-.29c-4.22,0-7.69,5.67-7.69,11.68,0,3.24,1.33,5.32,3.7,5.32a13.79,13.79,0,0,0,3.47-.64Z" transform="translate(-16.54)"/><path d="M97.57,196.59c0,8.91-4.74,19.32-13.36,19.32-7.12,0-8.68-5.61-8.68-9.78,0-9.54,5.26-19.44,13.83-19.44C96.53,186.7,97.57,192.66,97.57,196.59Zm-14.87,9.2c0,2.08.06,4.63,2.31,4.63,3.47,0,5.44-9.6,5.44-14.69,0-1.91-.52-3.53-2.26-3.53C85.07,192.19,82.64,200.93,82.7,205.79Z" transform="translate(-16.54)"/><path d="M96.76,215.45l3.64-19.09c.64-3.3,1.1-6.54,1.5-9.2h6.19l-.29,3.88h.12a8.85,8.85,0,0,1,7.69-4.34c2.72,0,4.34,1.85,4.74,4.34a9.41,9.41,0,0,1,7.75-4.34c3.53,0,5.21,2.49,5.21,6.13a40.25,40.25,0,0,1-.69,5.73l-3.24,16.89h-7.12l3.18-16.78a23.48,23.48,0,0,0,.46-4.22c0-1.16-.58-2-1.74-2-1.56,0-3.7,2.37-4.8,7.92l-2.89,15h-6.94l3.18-16.78a20.64,20.64,0,0,0,.46-4c0-1.27-.46-2.14-1.62-2.14-1.45,0-3.82,2.6-4.8,7.92l-2.83,15Z" transform="translate(-16.54)"/><path d="M130.77,226.55l5.73-30.08c.64-3.35,1.1-6.54,1.5-9.31h6.19l-.46,4.11h.12c1.74-2.83,4.45-4.57,7.06-4.57,5.09,0,6.07,4.4,6.07,8.73,0,9.49-5.09,20.48-13.36,20.48a7.73,7.73,0,0,1-3.47-.69H140l-2.08,11.34ZM141,209.84a3.28,3.28,0,0,0,2,.69c4.4,0,6.54-9.6,6.54-13.83,0-1.91-.17-3.88-2.08-3.88s-3.82,3-4.51,6.36Z" transform="translate(-16.54)"/><path d="M175.2,214.23a19.92,19.92,0,0,1-8.16,1.56c-6.94,0-9.6-4.57-9.6-10.64,0-8.21,4.57-18.45,13.59-18.45,5.15,0,7.46,3.82,7.52,7.69,0,7.75-6.25,10.64-14.11,10.41a6,6,0,0,0,.64,3.3,4.31,4.31,0,0,0,3.93,2,12.31,12.31,0,0,0,5.73-1.39Zm-5.09-21.75c-2.2,0-4.17,2.83-5,6.88,3.82.17,7-1.33,7-4.28C172.13,193.46,171.5,192.48,170.11,192.48Z" transform="translate(-16.54)"/><path d="M191.34,179.52l-1.45,7.64h5.32l-.93,5.09h-5.38l-2.49,13.13a14.48,14.48,0,0,0-.23,2.37c0,1.74.87,2.37,2.2,2.37a12.3,12.3,0,0,0,2-.12l-.87,5.44a18.16,18.16,0,0,1-4.34.46c-4.34,0-6.48-2.43-6.48-6.25a22.16,22.16,0,0,1,.52-4.22l2.49-13.19h-3.3l1-5.09h3.3l1.16-5.84Z" transform="translate(-16.54)"/><path d="M191.34,215.45l5.44-28.29H204l-5.44,28.29Zm6.77-35.52c0-2.08,1.5-4.45,4-4.45,2.37,0,3.47,1.79,3.41,3.76-.06,2.89-2,4.51-4.16,4.51C199.09,183.75,198.05,182.07,198.11,179.93Z" transform="translate(-16.54)"/><path d="M217.31,215a14.41,14.41,0,0,1-5,.75c-6.25,0-8.85-5-8.85-10.18,0-10.12,6.3-18.86,15.21-18.86a9.36,9.36,0,0,1,3.53.52l-1.79,5.9a8.52,8.52,0,0,0-2-.29c-4.22,0-7.69,5.67-7.69,11.68,0,3.24,1.33,5.32,3.7,5.32a13.79,13.79,0,0,0,3.47-.64Z" transform="translate(-16.54)"/><path d="M219.05,215.45l5.44-28.29h7.23l-5.44,28.29Zm6.77-35.52c0-2.08,1.5-4.45,4-4.45,2.37,0,3.47,1.79,3.41,3.76-.06,2.89-2,4.51-4.16,4.51C226.8,183.75,225.76,182.07,225.82,179.93Z" transform="translate(-16.54)"/><path d="M253.12,196.59c0,8.91-4.74,19.32-13.36,19.32-7.12,0-8.68-5.61-8.68-9.78,0-9.54,5.26-19.44,13.83-19.44C252.08,186.7,253.12,192.66,253.12,196.59Zm-14.87,9.2c0,2.08.06,4.63,2.31,4.63,3.47,0,5.44-9.6,5.44-14.69,0-1.91-.52-3.53-2.26-3.53C240.63,192.19,238.2,200.93,238.26,205.79ZM254,175.71l-7.06,8.1h-5l5.15-8.1Z" transform="translate(-16.54)"/><path d="M252.31,215.45,256,196.36c.64-3.3,1.1-6.54,1.5-9.2h6.19l-.29,3.64h.12a9.28,9.28,0,0,1,7.64-4.11c4,0,5.5,2.78,5.5,6.19a26.89,26.89,0,0,1-.69,5.38l-3.24,17.18h-7.23l3.36-17.58a16.55,16.55,0,0,0,.35-3c0-1.33-.58-2.26-1.79-2.26-1.68,0-3.93,2.49-5,7.87l-2.83,15Z" transform="translate(-16.54)"/><path class="cls-3" d="M73.62,215a14.41,14.41,0,0,1-5,.75c-6.25,0-8.85-5-8.85-10.18,0-10.12,6.3-18.86,15.21-18.86a9.36,9.36,0,0,1,3.53.52l-1.79,5.9a8.52,8.52,0,0,0-2-.29c-4.22,0-7.69,5.67-7.69,11.68,0,3.24,1.33,5.32,3.7,5.32a13.79,13.79,0,0,0,3.47-.64Z" transform="translate(-16.54)"/><path class="cls-3" d="M97.57,196.59c0,8.91-4.74,19.32-13.36,19.32-7.12,0-8.68-5.61-8.68-9.78,0-9.54,5.26-19.44,13.83-19.44C96.53,186.7,97.57,192.66,97.57,196.59Zm-14.87,9.2c0,2.08.06,4.63,2.31,4.63,3.47,0,5.44-9.6,5.44-14.69,0-1.91-.52-3.53-2.26-3.53C85.07,192.19,82.64,200.93,82.7,205.79Z" transform="translate(-16.54)"/><path class="cls-3" d="M96.76,215.45l3.64-19.09c.64-3.3,1.1-6.54,1.5-9.2h6.19l-.29,3.88h.12a8.85,8.85,0,0,1,7.69-4.34c2.72,0,4.34,1.85,4.74,4.34a9.41,9.41,0,0,1,7.75-4.34c3.53,0,5.21,2.49,5.21,6.13a40.25,40.25,0,0,1-.69,5.73l-3.24,16.89h-7.12l3.18-16.78a23.48,23.48,0,0,0,.46-4.22c0-1.16-.58-2-1.74-2-1.56,0-3.7,2.37-4.8,7.92l-2.89,15h-6.94l3.18-16.78a20.64,20.64,0,0,0,.46-4c0-1.27-.46-2.14-1.62-2.14-1.45,0-3.82,2.6-4.8,7.92l-2.83,15Z" transform="translate(-16.54)"/><path class="cls-3" d="M130.77,226.55l5.73-30.08c.64-3.35,1.1-6.54,1.5-9.31h6.19l-.46,4.11h.12c1.74-2.83,4.45-4.57,7.06-4.57,5.09,0,6.07,4.4,6.07,8.73,0,9.49-5.09,20.48-13.36,20.48a7.73,7.73,0,0,1-3.47-.69H140l-2.08,11.34ZM141,209.84a3.28,3.28,0,0,0,2,.69c4.4,0,6.54-9.6,6.54-13.83,0-1.91-.17-3.88-2.08-3.88s-3.82,3-4.51,6.36Z" transform="translate(-16.54)"/><path class="cls-3" d="M175.2,214.23a19.92,19.92,0,0,1-8.16,1.56c-6.94,0-9.6-4.57-9.6-10.64,0-8.21,4.57-18.45,13.59-18.45,5.15,0,7.46,3.82,7.52,7.69,0,7.75-6.25,10.64-14.11,10.41a6,6,0,0,0,.64,3.3,4.31,4.31,0,0,0,3.93,2,12.31,12.31,0,0,0,5.73-1.39Zm-5.09-21.75c-2.2,0-4.17,2.83-5,6.88,3.82.17,7-1.33,7-4.28C172.13,193.46,171.5,192.48,170.11,192.48Z" transform="translate(-16.54)"/><path class="cls-3" d="M191.34,179.52l-1.45,7.64h5.32l-.93,5.09h-5.38l-2.49,13.13a14.48,14.48,0,0,0-.23,2.37c0,1.74.87,2.37,2.2,2.37a12.3,12.3,0,0,0,2-.12l-.87,5.44a18.16,18.16,0,0,1-4.34.46c-4.34,0-6.48-2.43-6.48-6.25a22.16,22.16,0,0,1,.52-4.22l2.49-13.19h-3.3l1-5.09h3.3l1.16-5.84Z" transform="translate(-16.54)"/><path class="cls-3" d="M191.34,215.45l5.44-28.29H204l-5.44,28.29Zm6.77-35.52c0-2.08,1.5-4.45,4-4.45,2.37,0,3.47,1.79,3.41,3.76-.06,2.89-2,4.51-4.16,4.51C199.09,183.75,198.05,182.07,198.11,179.93Z" transform="translate(-16.54)"/><path class="cls-3" d="M217.31,215a14.41,14.41,0,0,1-5,.75c-6.25,0-8.85-5-8.85-10.18,0-10.12,6.3-18.86,15.21-18.86a9.36,9.36,0,0,1,3.53.52l-1.79,5.9a8.52,8.52,0,0,0-2-.29c-4.22,0-7.69,5.67-7.69,11.68,0,3.24,1.33,5.32,3.7,5.32a13.79,13.79,0,0,0,3.47-.64Z" transform="translate(-16.54)"/><path class="cls-3" d="M219.05,215.45l5.44-28.29h7.23l-5.44,28.29Zm6.77-35.52c0-2.08,1.5-4.45,4-4.45,2.37,0,3.47,1.79,3.41,3.76-.06,2.89-2,4.51-4.16,4.51C226.8,183.75,225.76,182.07,225.82,179.93Z" transform="translate(-16.54)"/><path class="cls-3" d="M253.12,196.59c0,8.91-4.74,19.32-13.36,19.32-7.12,0-8.68-5.61-8.68-9.78,0-9.54,5.26-19.44,13.83-19.44C252.08,186.7,253.12,192.66,253.12,196.59Zm-14.87,9.2c0,2.08.06,4.63,2.31,4.63,3.47,0,5.44-9.6,5.44-14.69,0-1.91-.52-3.53-2.26-3.53C240.63,192.19,238.2,200.93,238.26,205.79ZM254,175.71l-7.06,8.1h-5l5.15-8.1Z" transform="translate(-16.54)"/><path class="cls-3" d="M252.31,215.45,256,196.36c.64-3.3,1.1-6.54,1.5-9.2h6.19l-.29,3.64h.12a9.28,9.28,0,0,1,7.64-4.11c4,0,5.5,2.78,5.5,6.19a26.89,26.89,0,0,1-.69,5.38l-3.24,17.18h-7.23l3.36-17.58a16.55,16.55,0,0,0,.35-3c0-1.33-.58-2.26-1.79-2.26-1.68,0-3.93,2.49-5,7.87l-2.83,15Z" transform="translate(-16.54)"/><path class="cls-7" d="M73.62,215a14.41,14.41,0,0,1-5,.75c-6.25,0-8.85-5-8.85-10.18,0-10.12,6.3-18.86,15.21-18.86a9.36,9.36,0,0,1,3.53.52l-1.79,5.9a8.52,8.52,0,0,0-2-.29c-4.22,0-7.69,5.67-7.69,11.68,0,3.24,1.33,5.32,3.7,5.32a13.79,13.79,0,0,0,3.47-.64Z" transform="translate(-16.54)"/><path class="cls-7" d="M97.57,196.59c0,8.91-4.74,19.32-13.36,19.32-7.12,0-8.68-5.61-8.68-9.78,0-9.54,5.26-19.44,13.83-19.44C96.53,186.7,97.57,192.66,97.57,196.59Zm-14.87,9.2c0,2.08.06,4.63,2.31,4.63,3.47,0,5.44-9.6,5.44-14.69,0-1.91-.52-3.53-2.26-3.53C85.07,192.19,82.64,200.93,82.7,205.79Z" transform="translate(-16.54)"/><path class="cls-7" d="M96.76,215.45l3.64-19.09c.64-3.3,1.1-6.54,1.5-9.2h6.19l-.29,3.88h.12a8.85,8.85,0,0,1,7.69-4.34c2.72,0,4.34,1.85,4.74,4.34a9.41,9.41,0,0,1,7.75-4.34c3.53,0,5.21,2.49,5.21,6.13a40.25,40.25,0,0,1-.69,5.73l-3.24,16.89h-7.12l3.18-16.78a23.48,23.48,0,0,0,.46-4.22c0-1.16-.58-2-1.74-2-1.56,0-3.7,2.37-4.8,7.92l-2.89,15h-6.94l3.18-16.78a20.64,20.64,0,0,0,.46-4c0-1.27-.46-2.14-1.62-2.14-1.45,0-3.82,2.6-4.8,7.92l-2.83,15Z" transform="translate(-16.54)"/><path class="cls-7" d="M130.77,226.55l5.73-30.08c.64-3.35,1.1-6.54,1.5-9.31h6.19l-.46,4.11h.12c1.74-2.83,4.45-4.57,7.06-4.57,5.09,0,6.07,4.4,6.07,8.73,0,9.49-5.09,20.48-13.36,20.48a7.73,7.73,0,0,1-3.47-.69H140l-2.08,11.34ZM141,209.84a3.28,3.28,0,0,0,2,.69c4.4,0,6.54-9.6,6.54-13.83,0-1.91-.17-3.88-2.08-3.88s-3.82,3-4.51,6.36Z" transform="translate(-16.54)"/><path class="cls-7" d="M175.2,214.23a19.92,19.92,0,0,1-8.16,1.56c-6.94,0-9.6-4.57-9.6-10.64,0-8.21,4.57-18.45,13.59-18.45,5.15,0,7.46,3.82,7.52,7.69,0,7.75-6.25,10.64-14.11,10.41a6,6,0,0,0,.64,3.3,4.31,4.31,0,0,0,3.93,2,12.31,12.31,0,0,0,5.73-1.39Zm-5.09-21.75c-2.2,0-4.17,2.83-5,6.88,3.82.17,7-1.33,7-4.28C172.13,193.46,171.5,192.48,170.11,192.48Z" transform="translate(-16.54)"/><path class="cls-7" d="M191.34,179.52l-1.45,7.64h5.32l-.93,5.09h-5.38l-2.49,13.13a14.48,14.48,0,0,0-.23,2.37c0,1.74.87,2.37,2.2,2.37a12.3,12.3,0,0,0,2-.12l-.87,5.44a18.16,18.16,0,0,1-4.34.46c-4.34,0-6.48-2.43-6.48-6.25a22.16,22.16,0,0,1,.52-4.22l2.49-13.19h-3.3l1-5.09h3.3l1.16-5.84Z" transform="translate(-16.54)"/><path class="cls-7" d="M191.34,215.45l5.44-28.29H204l-5.44,28.29Zm6.77-35.52c0-2.08,1.5-4.45,4-4.45,2.37,0,3.47,1.79,3.41,3.76-.06,2.89-2,4.51-4.16,4.51C199.09,183.75,198.05,182.07,198.11,179.93Z" transform="translate(-16.54)"/><path class="cls-7" d="M217.31,215a14.41,14.41,0,0,1-5,.75c-6.25,0-8.85-5-8.85-10.18,0-10.12,6.3-18.86,15.21-18.86a9.36,9.36,0,0,1,3.53.52l-1.79,5.9a8.52,8.52,0,0,0-2-.29c-4.22,0-7.69,5.67-7.69,11.68,0,3.24,1.33,5.32,3.7,5.32a13.79,13.79,0,0,0,3.47-.64Z" transform="translate(-16.54)"/><path class="cls-7" d="M219.05,215.45l5.44-28.29h7.23l-5.44,28.29Zm6.77-35.52c0-2.08,1.5-4.45,4-4.45,2.37,0,3.47,1.79,3.41,3.76-.06,2.89-2,4.51-4.16,4.51C226.8,183.75,225.76,182.07,225.82,179.93Z" transform="translate(-16.54)"/><path class="cls-7" d="M253.12,196.59c0,8.91-4.74,19.32-13.36,19.32-7.12,0-8.68-5.61-8.68-9.78,0-9.54,5.26-19.44,13.83-19.44C252.08,186.7,253.12,192.66,253.12,196.59Zm-14.87,9.2c0,2.08.06,4.63,2.31,4.63,3.47,0,5.44-9.6,5.44-14.69,0-1.91-.52-3.53-2.26-3.53C240.63,192.19,238.2,200.93,238.26,205.79ZM254,175.71l-7.06,8.1h-5l5.15-8.1Z" transform="translate(-16.54)"/><path class="cls-7" d="M252.31,215.45,256,196.36c.64-3.3,1.1-6.54,1.5-9.2h6.19l-.29,3.64h.12a9.28,9.28,0,0,1,7.64-4.11c4,0,5.5,2.78,5.5,6.19a26.89,26.89,0,0,1-.69,5.38l-3.24,17.18h-7.23l3.36-17.58a16.55,16.55,0,0,0,.35-3c0-1.33-.58-2.26-1.79-2.26-1.68,0-3.93,2.49-5,7.87l-2.83,15Z" transform="translate(-16.54)"/><g id="KARATE-3" data-name="KARATE"><path d="M73.62,215a14.41,14.41,0,0,1-5,.75c-6.25,0-8.85-5-8.85-10.18,0-10.12,6.3-18.86,15.21-18.86a9.36,9.36,0,0,1,3.53.52l-1.79,5.9a8.52,8.52,0,0,0-2-.29c-4.22,0-7.69,5.67-7.69,11.68,0,3.24,1.33,5.32,3.7,5.32a13.79,13.79,0,0,0,3.47-.64Z" transform="translate(-16.54)"/><path d="M97.57,196.59c0,8.91-4.74,19.32-13.36,19.32-7.12,0-8.68-5.61-8.68-9.78,0-9.54,5.26-19.44,13.83-19.44C96.53,186.7,97.57,192.66,97.57,196.59Zm-14.87,9.2c0,2.08.06,4.63,2.31,4.63,3.47,0,5.44-9.6,5.44-14.69,0-1.91-.52-3.53-2.26-3.53C85.07,192.19,82.64,200.93,82.7,205.79Z" transform="translate(-16.54)"/><path d="M96.76,215.45l3.64-19.09c.64-3.3,1.1-6.54,1.5-9.2h6.19l-.29,3.88h.12a8.85,8.85,0,0,1,7.69-4.34c2.72,0,4.34,1.85,4.74,4.34a9.41,9.41,0,0,1,7.75-4.34c3.53,0,5.21,2.49,5.21,6.13a40.25,40.25,0,0,1-.69,5.73l-3.24,16.89h-7.12l3.18-16.78a23.48,23.48,0,0,0,.46-4.22c0-1.16-.58-2-1.74-2-1.56,0-3.7,2.37-4.8,7.92l-2.89,15h-6.94l3.18-16.78a20.64,20.64,0,0,0,.46-4c0-1.27-.46-2.14-1.62-2.14-1.45,0-3.82,2.6-4.8,7.92l-2.83,15Z" transform="translate(-16.54)"/><path d="M130.77,226.55l5.73-30.08c.64-3.35,1.1-6.54,1.5-9.31h6.19l-.46,4.11h.12c1.74-2.83,4.45-4.57,7.06-4.57,5.09,0,6.07,4.4,6.07,8.73,0,9.49-5.09,20.48-13.36,20.48a7.73,7.73,0,0,1-3.47-.69H140l-2.08,11.34ZM141,209.84a3.28,3.28,0,0,0,2,.69c4.4,0,6.54-9.6,6.54-13.83,0-1.91-.17-3.88-2.08-3.88s-3.82,3-4.51,6.36Z" transform="translate(-16.54)"/><path d="M175.2,214.23a19.92,19.92,0,0,1-8.16,1.56c-6.94,0-9.6-4.57-9.6-10.64,0-8.21,4.57-18.45,13.59-18.45,5.15,0,7.46,3.82,7.52,7.69,0,7.75-6.25,10.64-14.11,10.41a6,6,0,0,0,.64,3.3,4.31,4.31,0,0,0,3.93,2,12.31,12.31,0,0,0,5.73-1.39Zm-5.09-21.75c-2.2,0-4.17,2.83-5,6.88,3.82.17,7-1.33,7-4.28C172.13,193.46,171.5,192.48,170.11,192.48Z" transform="translate(-16.54)"/><path d="M191.34,179.52l-1.45,7.64h5.32l-.93,5.09h-5.38l-2.49,13.13a14.48,14.48,0,0,0-.23,2.37c0,1.74.87,2.37,2.2,2.37a12.3,12.3,0,0,0,2-.12l-.87,5.44a18.16,18.16,0,0,1-4.34.46c-4.34,0-6.48-2.43-6.48-6.25a22.16,22.16,0,0,1,.52-4.22l2.49-13.19h-3.3l1-5.09h3.3l1.16-5.84Z" transform="translate(-16.54)"/><path d="M191.34,215.45l5.44-28.29H204l-5.44,28.29Zm6.77-35.52c0-2.08,1.5-4.45,4-4.45,2.37,0,3.47,1.79,3.41,3.76-.06,2.89-2,4.51-4.16,4.51C199.09,183.75,198.05,182.07,198.11,179.93Z" transform="translate(-16.54)"/><path d="M217.31,215a14.41,14.41,0,0,1-5,.75c-6.25,0-8.85-5-8.85-10.18,0-10.12,6.3-18.86,15.21-18.86a9.36,9.36,0,0,1,3.53.52l-1.79,5.9a8.52,8.52,0,0,0-2-.29c-4.22,0-7.69,5.67-7.69,11.68,0,3.24,1.33,5.32,3.7,5.32a13.79,13.79,0,0,0,3.47-.64Z" transform="translate(-16.54)"/><path d="M219.05,215.45l5.44-28.29h7.23l-5.44,28.29Zm6.77-35.52c0-2.08,1.5-4.45,4-4.45,2.37,0,3.47,1.79,3.41,3.76-.06,2.89-2,4.51-4.16,4.51C226.8,183.75,225.76,182.07,225.82,179.93Z" transform="translate(-16.54)"/><path d="M253.12,196.59c0,8.91-4.74,19.32-13.36,19.32-7.12,0-8.68-5.61-8.68-9.78,0-9.54,5.26-19.44,13.83-19.44C252.08,186.7,253.12,192.66,253.12,196.59Zm-14.87,9.2c0,2.08.06,4.63,2.31,4.63,3.47,0,5.44-9.6,5.44-14.69,0-1.91-.52-3.53-2.26-3.53C240.63,192.19,238.2,200.93,238.26,205.79ZM254,175.71l-7.06,8.1h-5l5.15-8.1Z" transform="translate(-16.54)"/><path d="M252.31,215.45,256,196.36c.64-3.3,1.1-6.54,1.5-9.2h6.19l-.29,3.64h.12a9.28,9.28,0,0,1,7.64-4.11c4,0,5.5,2.78,5.5,6.19a26.89,26.89,0,0,1-.69,5.38l-3.24,17.18h-7.23l3.36-17.58a16.55,16.55,0,0,0,.35-3c0-1.33-.58-2.26-1.79-2.26-1.68,0-3.93,2.49-5,7.87l-2.83,15Z" transform="translate(-16.54)"/><path d="M73.62,215a14.41,14.41,0,0,1-5,.75c-6.25,0-8.85-5-8.85-10.18,0-10.12,6.3-18.86,15.21-18.86a9.36,9.36,0,0,1,3.53.52l-1.79,5.9a8.52,8.52,0,0,0-2-.29c-4.22,0-7.69,5.67-7.69,11.68,0,3.24,1.33,5.32,3.7,5.32a13.79,13.79,0,0,0,3.47-.64Z" transform="translate(-16.54)"/><path d="M97.57,196.59c0,8.91-4.74,19.32-13.36,19.32-7.12,0-8.68-5.61-8.68-9.78,0-9.54,5.26-19.44,13.83-19.44C96.53,186.7,97.57,192.66,97.57,196.59Zm-14.87,9.2c0,2.08.06,4.63,2.31,4.63,3.47,0,5.44-9.6,5.44-14.69,0-1.91-.52-3.53-2.26-3.53C85.07,192.19,82.64,200.93,82.7,205.79Z" transform="translate(-16.54)"/><path d="M96.76,215.45l3.64-19.09c.64-3.3,1.1-6.54,1.5-9.2h6.19l-.29,3.88h.12a8.85,8.85,0,0,1,7.69-4.34c2.72,0,4.34,1.85,4.74,4.34a9.41,9.41,0,0,1,7.75-4.34c3.53,0,5.21,2.49,5.21,6.13a40.25,40.25,0,0,1-.69,5.73l-3.24,16.89h-7.12l3.18-16.78a23.48,23.48,0,0,0,.46-4.22c0-1.16-.58-2-1.74-2-1.56,0-3.7,2.37-4.8,7.92l-2.89,15h-6.94l3.18-16.78a20.64,20.64,0,0,0,.46-4c0-1.27-.46-2.14-1.62-2.14-1.45,0-3.82,2.6-4.8,7.92l-2.83,15Z" transform="translate(-16.54)"/><path d="M130.77,226.55l5.73-30.08c.64-3.35,1.1-6.54,1.5-9.31h6.19l-.46,4.11h.12c1.74-2.83,4.45-4.57,7.06-4.57,5.09,0,6.07,4.4,6.07,8.73,0,9.49-5.09,20.48-13.36,20.48a7.73,7.73,0,0,1-3.47-.69H140l-2.08,11.34ZM141,209.84a3.28,3.28,0,0,0,2,.69c4.4,0,6.54-9.6,6.54-13.83,0-1.91-.17-3.88-2.08-3.88s-3.82,3-4.51,6.36Z" transform="translate(-16.54)"/><path d="M175.2,214.23a19.92,19.92,0,0,1-8.16,1.56c-6.94,0-9.6-4.57-9.6-10.64,0-8.21,4.57-18.45,13.59-18.45,5.15,0,7.46,3.82,7.52,7.69,0,7.75-6.25,10.64-14.11,10.41a6,6,0,0,0,.64,3.3,4.31,4.31,0,0,0,3.93,2,12.31,12.31,0,0,0,5.73-1.39Zm-5.09-21.75c-2.2,0-4.17,2.83-5,6.88,3.82.17,7-1.33,7-4.28C172.13,193.46,171.5,192.48,170.11,192.48Z" transform="translate(-16.54)"/><path d="M191.34,179.52l-1.45,7.64h5.32l-.93,5.09h-5.38l-2.49,13.13a14.48,14.48,0,0,0-.23,2.37c0,1.74.87,2.37,2.2,2.37a12.3,12.3,0,0,0,2-.12l-.87,5.44a18.16,18.16,0,0,1-4.34.46c-4.34,0-6.48-2.43-6.48-6.25a22.16,22.16,0,0,1,.52-4.22l2.49-13.19h-3.3l1-5.09h3.3l1.16-5.84Z" transform="translate(-16.54)"/><path d="M191.34,215.45l5.44-28.29H204l-5.44,28.29Zm6.77-35.52c0-2.08,1.5-4.45,4-4.45,2.37,0,3.47,1.79,3.41,3.76-.06,2.89-2,4.51-4.16,4.51C199.09,183.75,198.05,182.07,198.11,179.93Z" transform="translate(-16.54)"/><path d="M217.31,215a14.41,14.41,0,0,1-5,.75c-6.25,0-8.85-5-8.85-10.18,0-10.12,6.3-18.86,15.21-18.86a9.36,9.36,0,0,1,3.53.52l-1.79,5.9a8.52,8.52,0,0,0-2-.29c-4.22,0-7.69,5.67-7.69,11.68,0,3.24,1.33,5.32,3.7,5.32a13.79,13.79,0,0,0,3.47-.64Z" transform="translate(-16.54)"/><path d="M219.05,215.45l5.44-28.29h7.23l-5.44,28.29Zm6.77-35.52c0-2.08,1.5-4.45,4-4.45,2.37,0,3.47,1.79,3.41,3.76-.06,2.89-2,4.51-4.16,4.51C226.8,183.75,225.76,182.07,225.82,179.93Z" transform="translate(-16.54)"/><path d="M253.12,196.59c0,8.91-4.74,19.32-13.36,19.32-7.12,0-8.68-5.61-8.68-9.78,0-9.54,5.26-19.44,13.83-19.44C252.08,186.7,253.12,192.66,253.12,196.59Zm-14.87,9.2c0,2.08.06,4.63,2.31,4.63,3.47,0,5.44-9.6,5.44-14.69,0-1.91-.52-3.53-2.26-3.53C240.63,192.19,238.2,200.93,238.26,205.79ZM254,175.71l-7.06,8.1h-5l5.15-8.1Z" transform="translate(-16.54)"/><path d="M252.31,215.45,256,196.36c.64-3.3,1.1-6.54,1.5-9.2h6.19l-.29,3.64h.12a9.28,9.28,0,0,1,7.64-4.11c4,0,5.5,2.78,5.5,6.19a26.89,26.89,0,0,1-.69,5.38l-3.24,17.18h-7.23l3.36-17.58a16.55,16.55,0,0,0,.35-3c0-1.33-.58-2.26-1.79-2.26-1.68,0-3.93,2.49-5,7.87l-2.83,15Z" transform="translate(-16.54)"/><path class="cls-8" d="M73.62,215a14.41,14.41,0,0,1-5,.75c-6.25,0-8.85-5-8.85-10.18,0-10.12,6.3-18.86,15.21-18.86a9.36,9.36,0,0,1,3.53.52l-1.79,5.9a8.52,8.52,0,0,0-2-.29c-4.22,0-7.69,5.67-7.69,11.68,0,3.24,1.33,5.32,3.7,5.32a13.79,13.79,0,0,0,3.47-.64Z" transform="translate(-16.54)"/><path class="cls-8" d="M97.57,196.59c0,8.91-4.74,19.32-13.36,19.32-7.12,0-8.68-5.61-8.68-9.78,0-9.54,5.26-19.44,13.83-19.44C96.53,186.7,97.57,192.66,97.57,196.59Zm-14.87,9.2c0,2.08.06,4.63,2.31,4.63,3.47,0,5.44-9.6,5.44-14.69,0-1.91-.52-3.53-2.26-3.53C85.07,192.19,82.64,200.93,82.7,205.79Z" transform="translate(-16.54)"/><path class="cls-8" d="M96.76,215.45l3.64-19.09c.64-3.3,1.1-6.54,1.5-9.2h6.19l-.29,3.88h.12a8.85,8.85,0,0,1,7.69-4.34c2.72,0,4.34,1.85,4.74,4.34a9.41,9.41,0,0,1,7.75-4.34c3.53,0,5.21,2.49,5.21,6.13a40.25,40.25,0,0,1-.69,5.73l-3.24,16.89h-7.12l3.18-16.78a23.48,23.48,0,0,0,.46-4.22c0-1.16-.58-2-1.74-2-1.56,0-3.7,2.37-4.8,7.92l-2.89,15h-6.94l3.18-16.78a20.64,20.64,0,0,0,.46-4c0-1.27-.46-2.14-1.62-2.14-1.45,0-3.82,2.6-4.8,7.92l-2.83,15Z" transform="translate(-16.54)"/><path class="cls-8" d="M130.77,226.55l5.73-30.08c.64-3.35,1.1-6.54,1.5-9.31h6.19l-.46,4.11h.12c1.74-2.83,4.45-4.57,7.06-4.57,5.09,0,6.07,4.4,6.07,8.73,0,9.49-5.09,20.48-13.36,20.48a7.73,7.73,0,0,1-3.47-.69H140l-2.08,11.34ZM141,209.84a3.28,3.28,0,0,0,2,.69c4.4,0,6.54-9.6,6.54-13.83,0-1.91-.17-3.88-2.08-3.88s-3.82,3-4.51,6.36Z" transform="translate(-16.54)"/><path class="cls-8" d="M175.2,214.23a19.92,19.92,0,0,1-8.16,1.56c-6.94,0-9.6-4.57-9.6-10.64,0-8.21,4.57-18.45,13.59-18.45,5.15,0,7.46,3.82,7.52,7.69,0,7.75-6.25,10.64-14.11,10.41a6,6,0,0,0,.64,3.3,4.31,4.31,0,0,0,3.93,2,12.31,12.31,0,0,0,5.73-1.39Zm-5.09-21.75c-2.2,0-4.17,2.83-5,6.88,3.82.17,7-1.33,7-4.28C172.13,193.46,171.5,192.48,170.11,192.48Z" transform="translate(-16.54)"/><path class="cls-8" d="M191.34,179.52l-1.45,7.64h5.32l-.93,5.09h-5.38l-2.49,13.13a14.48,14.48,0,0,0-.23,2.37c0,1.74.87,2.37,2.2,2.37a12.3,12.3,0,0,0,2-.12l-.87,5.44a18.16,18.16,0,0,1-4.34.46c-4.34,0-6.48-2.43-6.48-6.25a22.16,22.16,0,0,1,.52-4.22l2.49-13.19h-3.3l1-5.09h3.3l1.16-5.84Z" transform="translate(-16.54)"/><path class="cls-8" d="M191.34,215.45l5.44-28.29H204l-5.44,28.29Zm6.77-35.52c0-2.08,1.5-4.45,4-4.45,2.37,0,3.47,1.79,3.41,3.76-.06,2.89-2,4.51-4.16,4.51C199.09,183.75,198.05,182.07,198.11,179.93Z" transform="translate(-16.54)"/><path class="cls-8" d="M217.31,215a14.41,14.41,0,0,1-5,.75c-6.25,0-8.85-5-8.85-10.18,0-10.12,6.3-18.86,15.21-18.86a9.36,9.36,0,0,1,3.53.52l-1.79,5.9a8.52,8.52,0,0,0-2-.29c-4.22,0-7.69,5.67-7.69,11.68,0,3.24,1.33,5.32,3.7,5.32a13.79,13.79,0,0,0,3.47-.64Z" transform="translate(-16.54)"/><path class="cls-8" d="M219.05,215.45l5.44-28.29h7.23l-5.44,28.29Zm6.77-35.52c0-2.08,1.5-4.45,4-4.45,2.37,0,3.47,1.79,3.41,3.76-.06,2.89-2,4.51-4.16,4.51C226.8,183.75,225.76,182.07,225.82,179.93Z" transform="translate(-16.54)"/><path class="cls-8" d="M253.12,196.59c0,8.91-4.74,19.32-13.36,19.32-7.12,0-8.68-5.61-8.68-9.78,0-9.54,5.26-19.44,13.83-19.44C252.08,186.7,253.12,192.66,253.12,196.59Zm-14.87,9.2c0,2.08.06,4.63,2.31,4.63,3.47,0,5.44-9.6,5.44-14.69,0-1.91-.52-3.53-2.26-3.53C240.63,192.19,238.2,200.93,238.26,205.79ZM254,175.71l-7.06,8.1h-5l5.15-8.1Z" transform="translate(-16.54)"/><path class="cls-8" d="M252.31,215.45,256,196.36c.64-3.3,1.1-6.54,1.5-9.2h6.19l-.29,3.64h.12a9.28,9.28,0,0,1,7.64-4.11c4,0,5.5,2.78,5.5,6.19a26.89,26.89,0,0,1-.69,5.38l-3.24,17.18h-7.23l3.36-17.58a16.55,16.55,0,0,0,.35-3c0-1.33-.58-2.26-1.79-2.26-1.68,0-3.93,2.49-5,7.87l-2.83,15Z" transform="translate(-16.54)"/></g></g></g></svg>