<svg xmlns="http://www.w3.org/2000/svg" viewBox="0 0 297.79 250.45"><defs><style>.cls-1{fill:#003283;stroke-width:12.34px;}.cls-1,.cls-2,.cls-5,.cls-6,.cls-8{stroke:#000;}.cls-1,.cls-2,.cls-6{stroke-linecap:round;}.cls-1,.cls-2,.cls-4,.cls-5,.cls-6,.cls-7,.cls-8{stroke-miterlimit:10;}.cls-2,.cls-4,.cls-5,.cls-6,.cls-7,.cls-8{fill:none;}.cls-2{stroke-width:41.71px;}.cls-3{fill:#fff;}.cls-4,.cls-7{stroke:#fff;}.cls-4{stroke-width:17.18px;}.cls-5{stroke-width:5.21px;}.cls-6{stroke-width:19.61px;}.cls-7{stroke-width:8.08px;}.cls-8{stroke-width:2.45px;}</style></defs><title>karate46</title><g id="Layer_2" data-name="Layer 2"><g id="karate"><rect class="cls-1" x="85.22" y="42.85" width="164.76" height="164.76" transform="translate(181.01 332.28) rotate(-135)"/><path d="M41.71,161.34,57.83,76.19h15L63.37,126h.25c1.48-2.46,3-4.92,4.31-7.14L79,101.17H95.48L76.17,127.75l9.11,33.59H69.52l-5.41-26-3.57,5.17L56.6,161.34Z" transform="translate(-16.54)"/><path d="M115.67,161.34c.12-3.2.37-6.52.49-10.09h-.37c-4.8,8-10.58,11.07-15.38,11.07-8.74,0-13-7.51-13-18.09,0-18.21,9.11-44.05,34.95-44.05,6,0,12.06,1,15.75,2.46l-6.64,33.47A138.89,138.89,0,0,0,129,161.34ZM121.2,112a17,17,0,0,0-3.2-.37c-10.09,0-15.5,20.06-15.63,28.92,0,5.29.74,9.11,4.55,9.11,4.18,0,8.12-6.89,10.34-17.84Z" transform="translate(-16.54)"/><path d="M134,161.34l7.75-40.85c1.35-6.89,2.21-13.78,3.08-19.32H158c-.25,3.08-.49,6.28-.86,10h.37c4.43-7.63,9.84-11,14.89-11a7.59,7.59,0,0,1,2.46.25L172,115.81c-.62,0-1.72-.12-2.58-.12-6.64,0-12.92,7.63-14.77,17.84l-5.29,27.81Z" transform="translate(-16.54)"/><path d="M196,161.34c.12-3.2.37-6.52.49-10.09h-.37c-4.8,8-10.58,11.07-15.38,11.07-8.74,0-13-7.51-13-18.09,0-18.21,9.11-44.05,34.95-44.05,6,0,12.06,1,15.75,2.46l-6.64,33.47a138.89,138.89,0,0,0-2.46,25.22ZM201.56,112a17,17,0,0,0-3.2-.37c-10.09,0-15.5,20.06-15.63,28.92,0,5.29.74,9.11,4.55,9.11,4.18,0,8.12-6.89,10.34-17.84Z" transform="translate(-16.54)"/><path d="M247.08,84.93,244,101.17h11.32l-2,10.83H241.92l-5.29,27.93a30.85,30.85,0,0,0-.49,5c0,3.69,1.85,5,4.68,5a26.06,26.06,0,0,0,4.18-.25l-1.85,11.57a38.57,38.57,0,0,1-9.23,1c-9.23,0-13.78-5.17-13.78-13.29a47.11,47.11,0,0,1,1.11-9L226.54,112h-7l2.09-10.83h7l2.46-12.43Z" transform="translate(-16.54)"/><path d="M286.34,158.76A42.37,42.37,0,0,1,269,162.08c-14.77,0-20.43-9.72-20.43-22.64,0-17.47,9.72-39.25,28.92-39.25,11,0,15.87,8.12,16,16.37,0,16.49-13.29,22.64-30,22.15a12.71,12.71,0,0,0,1.35,7c1.48,2.46,4.18,4.31,8.37,4.31a26.18,26.18,0,0,0,12.18-3Zm-10.83-46.27c-4.68,0-8.86,6-10.58,14.64,8.12.37,14.89-2.83,14.89-9.11C279.82,114.58,278.46,112.49,275.51,112.49Z" transform="translate(-16.54)"/><path d="M41.71,161.34,57.83,76.19h15L63.37,126h.25c1.48-2.46,3-4.92,4.31-7.14L79,101.17H95.48L76.17,127.75l9.11,33.59H69.52l-5.41-26-3.57,5.17L56.6,161.34Z" transform="translate(-16.54)"/><path d="M115.67,161.34c.12-3.2.37-6.52.49-10.09h-.37c-4.8,8-10.58,11.07-15.38,11.07-8.74,0-13-7.51-13-18.09,0-18.21,9.11-44.05,34.95-44.05,6,0,12.06,1,15.75,2.46l-6.64,33.47A138.89,138.89,0,0,0,129,161.34ZM121.2,112a17,17,0,0,0-3.2-.37c-10.09,0-15.5,20.06-15.63,28.92,0,5.29.74,9.11,4.55,9.11,4.18,0,8.12-6.89,10.34-17.84Z" transform="translate(-16.54)"/><path d="M134,161.34l7.75-40.85c1.35-6.89,2.21-13.78,3.08-19.32H158c-.25,3.08-.49,6.28-.86,10h.37c4.43-7.63,9.84-11,14.89-11a7.59,7.59,0,0,1,2.46.25L172,115.81c-.62,0-1.72-.12-2.58-.12-6.64,0-12.92,7.63-14.77,17.84l-5.29,27.81Z" transform="translate(-16.54)"/><path d="M196,161.34c.12-3.2.37-6.52.49-10.09h-.37c-4.8,8-10.58,11.07-15.38,11.07-8.74,0-13-7.51-13-18.09,0-18.21,9.11-44.05,34.95-44.05,6,0,12.06,1,15.75,2.46l-6.64,33.47a138.89,138.89,0,0,0-2.46,25.22ZM201.56,112a17,17,0,0,0-3.2-.37c-10.09,0-15.5,20.06-15.63,28.92,0,5.29.74,9.11,4.55,9.11,4.18,0,8.12-6.89,10.34-17.84Z" transform="translate(-16.54)"/><path d="M247.08,84.93,244,101.17h11.32l-2,10.83H241.92l-5.29,27.93a30.85,30.85,0,0,0-.49,5c0,3.69,1.85,5,4.68,5a26.06,26.06,0,0,0,4.18-.25l-1.85,11.57a38.57,38.57,0,0,1-9.23,1c-9.23,0-13.78-5.17-13.78-13.29a47.11,47.11,0,0,1,1.11-9L226.54,112h-7l2.09-10.83h7l2.46-12.43Z" transform="translate(-16.54)"/><path d="M286.34,158.76A42.37,42.37,0,0,1,269,162.08c-14.77,0-20.43-9.72-20.43-22.64,0-17.47,9.72-39.25,28.92-39.25,11,0,15.87,8.12,16,16.37,0,16.49-13.29,22.64-30,22.15a12.71,12.71,0,0,0,1.35,7c1.48,2.46,4.18,4.31,8.37,4.31a26.18,26.18,0,0,0,12.18-3Zm-10.83-46.27c-4.68,0-8.86,6-10.58,14.64,8.12.37,14.89-2.83,14.89-9.11C279.82,114.58,278.46,112.49,275.51,112.49Z" transform="translate(-16.54)"/><path class="cls-2" d="M41.71,161.34,57.83,76.19h15L63.37,126h.25c1.48-2.46,3-4.92,4.31-7.14L79,101.17H95.48L76.17,127.75l9.11,33.59H69.52l-5.41-26-3.57,5.17L56.6,161.34Z" transform="translate(-16.54)"/><path class="cls-2" d="M115.67,161.34c.12-3.2.37-6.52.49-10.09h-.37c-4.8,8-10.58,11.07-15.38,11.07-8.74,0-13-7.51-13-18.09,0-18.21,9.11-44.05,34.95-44.05,6,0,12.06,1,15.75,2.46l-6.64,33.47A138.89,138.89,0,0,0,129,161.34ZM121.2,112a17,17,0,0,0-3.2-.37c-10.09,0-15.5,20.06-15.63,28.92,0,5.29.74,9.11,4.55,9.11,4.18,0,8.12-6.89,10.34-17.84Z" transform="translate(-16.54)"/><path class="cls-2" d="M134,161.34l7.75-40.85c1.35-6.89,2.21-13.78,3.08-19.32H158c-.25,3.08-.49,6.28-.86,10h.37c4.43-7.63,9.84-11,14.89-11a7.59,7.59,0,0,1,2.46.25L172,115.81c-.62,0-1.72-.12-2.58-.12-6.64,0-12.92,7.63-14.77,17.84l-5.29,27.81Z" transform="translate(-16.54)"/><path class="cls-2" d="M196,161.34c.12-3.2.37-6.52.49-10.09h-.37c-4.8,8-10.58,11.07-15.38,11.07-8.74,0-13-7.51-13-18.09,0-18.21,9.11-44.05,34.95-44.05,6,0,12.06,1,15.75,2.46l-6.64,33.47a138.89,138.89,0,0,0-2.46,25.22ZM201.56,112a17,17,0,0,0-3.2-.37c-10.09,0-15.5,20.06-15.63,28.92,0,5.29.74,9.11,4.55,9.11,4.18,0,8.12-6.89,10.34-17.84Z" transform="translate(-16.54)"/><path class="cls-2" d="M247.08,84.93,244,101.17h11.32l-2,10.83H241.92l-5.29,27.93a30.85,30.85,0,0,0-.49,5c0,3.69,1.85,5,4.68,5a26.06,26.06,0,0,0,4.18-.25l-1.85,11.57a38.57,38.57,0,0,1-9.23,1c-9.23,0-13.78-5.17-13.78-13.29a47.11,47.11,0,0,1,1.11-9L226.54,112h-7l2.09-10.83h7l2.46-12.43Z" transform="translate(-16.54)"/><path class="cls-2" d="M286.34,158.76A42.37,42.37,0,0,1,269,162.08c-14.77,0-20.43-9.72-20.43-22.64,0-17.47,9.72-39.25,28.92-39.25,11,0,15.87,8.12,16,16.37,0,16.49-13.29,22.64-30,22.15a12.71,12.71,0,0,0,1.35,7c1.48,2.46,4.18,4.31,8.37,4.31a26.18,26.18,0,0,0,12.18-3Zm-10.83-46.27c-4.68,0-8.86,6-10.58,14.64,8.12.37,14.89-2.83,14.89-9.11C279.82,114.58,278.46,112.49,275.51,112.49Z" transform="translate(-16.54)"/><path d="M41.71,161.34,57.83,76.19h15L63.37,126h.25c1.48-2.46,3-4.92,4.31-7.14L79,101.17H95.48L76.17,127.75l9.11,33.59H69.52l-5.41-26-3.57,5.17L56.6,161.34Z" transform="translate(-16.54)"/><path d="M115.67,161.34c.12-3.2.37-6.52.49-10.09h-.37c-4.8,8-10.58,11.07-15.38,11.07-8.74,0-13-7.51-13-18.09,0-18.21,9.11-44.05,34.95-44.05,6,0,12.06,1,15.75,2.46l-6.64,33.47A138.89,138.89,0,0,0,129,161.34ZM121.2,112a17,17,0,0,0-3.2-.37c-10.09,0-15.5,20.06-15.63,28.92,0,5.29.74,9.11,4.55,9.11,4.18,0,8.12-6.89,10.34-17.84Z" transform="translate(-16.54)"/><path d="M134,161.34l7.75-40.85c1.35-6.89,2.21-13.78,3.08-19.32H158c-.25,3.08-.49,6.28-.86,10h.37c4.43-7.63,9.84-11,14.89-11a7.59,7.59,0,0,1,2.46.25L172,115.81c-.62,0-1.72-.12-2.58-.12-6.64,0-12.92,7.63-14.77,17.84l-5.29,27.81Z" transform="translate(-16.54)"/><path d="M196,161.34c.12-3.2.37-6.52.49-10.09h-.37c-4.8,8-10.58,11.07-15.38,11.07-8.74,0-13-7.51-13-18.09,0-18.21,9.11-44.05,34.95-44.05,6,0,12.06,1,15.75,2.46l-6.64,33.47a138.89,138.89,0,0,0-2.46,25.22ZM201.56,112a17,17,0,0,0-3.2-.37c-10.09,0-15.5,20.06-15.63,28.92,0,5.29.74,9.11,4.55,9.11,4.18,0,8.12-6.89,10.34-17.84Z" transform="translate(-16.54)"/><path d="M247.08,84.93,244,101.17h11.32l-2,10.83H241.92l-5.29,27.93a30.85,30.85,0,0,0-.49,5c0,3.69,1.85,5,4.68,5a26.06,26.06,0,0,0,4.18-.25l-1.85,11.57a38.57,38.57,0,0,1-9.23,1c-9.23,0-13.78-5.17-13.78-13.29a47.11,47.11,0,0,1,1.11-9L226.54,112h-7l2.09-10.83h7l2.46-12.43Z" transform="translate(-16.54)"/><path d="M286.34,158.76A42.37,42.37,0,0,1,269,162.08c-14.77,0-20.43-9.72-20.43-22.64,0-17.47,9.72-39.25,28.92-39.25,11,0,15.87,8.12,16,16.37,0,16.49-13.29,22.64-30,22.15a12.71,12.71,0,0,0,1.35,7c1.48,2.46,4.18,4.31,8.37,4.31a26.18,26.18,0,0,0,12.18-3Zm-10.83-46.27c-4.68,0-8.86,6-10.58,14.64,8.12.37,14.89-2.83,14.89-9.11C279.82,114.58,278.46,112.49,275.51,112.49Z" transform="translate(-16.54)"/><path class="cls-3" d="M41.71,161.34,57.83,76.19h15L63.37,126h.25c1.48-2.46,3-4.92,4.31-7.14L79,101.17H95.48L76.17,127.75l9.11,33.59H69.52l-5.41-26-3.57,5.17L56.6,161.34Z" transform="translate(-16.54)"/><path class="cls-3" d="M115.67,161.34c.12-3.2.37-6.52.49-10.09h-.37c-4.8,8-10.58,11.07-15.38,11.07-8.74,0-13-7.51-13-18.09,0-18.21,9.11-44.05,34.95-44.05,6,0,12.06,1,15.75,2.46l-6.64,33.47A138.89,138.89,0,0,0,129,161.34ZM121.2,112a17,17,0,0,0-3.2-.37c-10.09,0-15.5,20.06-15.63,28.92,0,5.29.74,9.11,4.55,9.11,4.18,0,8.12-6.89,10.34-17.84Z" transform="translate(-16.54)"/><path class="cls-3" d="M134,161.34l7.75-40.85c1.35-6.89,2.21-13.78,3.08-19.32H158c-.25,3.08-.49,6.28-.86,10h.37c4.43-7.63,9.84-11,14.89-11a7.59,7.59,0,0,1,2.46.25L172,115.81c-.62,0-1.72-.12-2.58-.12-6.64,0-12.92,7.63-14.77,17.84l-5.29,27.81Z" transform="translate(-16.54)"/><path class="cls-3" d="M196,161.34c.12-3.2.37-6.52.49-10.09h-.37c-4.8,8-10.58,11.07-15.38,11.07-8.74,0-13-7.51-13-18.09,0-18.21,9.11-44.05,34.95-44.05,6,0,12.06,1,15.75,2.46l-6.64,33.47a138.89,138.89,0,0,0-2.46,25.22ZM201.56,112a17,17,0,0,0-3.2-.37c-10.09,0-15.5,20.06-15.63,28.92,0,5.29.74,9.11,4.55,9.11,4.18,0,8.12-6.89,10.34-17.84Z" transform="translate(-16.54)"/><path class="cls-3" d="M247.08,84.93,244,101.17h11.32l-2,10.83H241.92l-5.29,27.93a30.85,30.85,0,0,0-.49,5c0,3.69,1.85,5,4.68,5a26.06,26.06,0,0,0,4.18-.25l-1.85,11.57a38.57,38.57,0,0,1-9.23,1c-9.23,0-13.78-5.17-13.78-13.29a47.11,47.11,0,0,1,1.11-9L226.54,112h-7l2.09-10.83h7l2.46-12.43Z" transform="translate(-16.54)"/><path class="cls-3" d="M286.34,158.76A42.37,42.37,0,0,1,269,162.08c-14.77,0-20.43-9.72-20.43-22.64,0-17.47,9.72-39.25,28.92-39.25,11,0,15.87,8.12,16,16.37,0,16.49-13.29,22.64-30,22.15a12.71,12.71,0,0,0,1.35,7c1.48,2.46,4.18,4.31,8.37,4.31a26.18,26.18,0,0,0,12.18-3Zm-10.83-46.27c-4.68,0-8.86,6-10.58,14.64,8.12.37,14.89-2.83,14.89-9.11C279.82,114.58,278.46,112.49,275.51,112.49Z" transform="translate(-16.54)"/><path class="cls-4" d="M41.71,161.34,57.83,76.19h15L63.37,126h.25c1.48-2.46,3-4.92,4.31-7.14L79,101.17H95.48L76.17,127.75l9.11,33.59H69.52l-5.41-26-3.57,5.17L56.6,161.34Z" transform="translate(-16.54)"/><path class="cls-4" d="M115.67,161.34c.12-3.2.37-6.52.49-10.09h-.37c-4.8,8-10.58,11.07-15.38,11.07-8.74,0-13-7.51-13-18.09,0-18.21,9.11-44.05,34.95-44.05,6,0,12.06,1,15.75,2.46l-6.64,33.47A138.89,138.89,0,0,0,129,161.34ZM121.2,112a17,17,0,0,0-3.2-.37c-10.09,0-15.5,20.06-15.63,28.92,0,5.29.74,9.11,4.55,9.11,4.18,0,8.12-6.89,10.34-17.84Z" transform="translate(-16.54)"/><path class="cls-4" d="M134,161.34l7.75-40.85c1.35-6.89,2.21-13.78,3.08-19.32H158c-.25,3.08-.49,6.28-.86,10h.37c4.43-7.63,9.84-11,14.89-11a7.59,7.59,0,0,1,2.46.25L172,115.81c-.62,0-1.72-.12-2.58-.12-6.64,0-12.92,7.63-14.77,17.84l-5.29,27.81Z" transform="translate(-16.54)"/><path class="cls-4" d="M196,161.34c.12-3.2.37-6.52.49-10.09h-.37c-4.8,8-10.58,11.07-15.38,11.07-8.74,0-13-7.51-13-18.09,0-18.21,9.11-44.05,34.95-44.05,6,0,12.06,1,15.75,2.46l-6.64,33.47a138.89,138.89,0,0,0-2.46,25.22ZM201.56,112a17,17,0,0,0-3.2-.37c-10.09,0-15.5,20.06-15.63,28.92,0,5.29.74,9.11,4.55,9.11,4.18,0,8.12-6.89,10.34-17.84Z" transform="translate(-16.54)"/><path class="cls-4" d="M247.08,84.93,244,101.17h11.32l-2,10.83H241.92l-5.29,27.93a30.85,30.85,0,0,0-.49,5c0,3.69,1.85,5,4.68,5a26.06,26.06,0,0,0,4.18-.25l-1.85,11.57a38.57,38.57,0,0,1-9.23,1c-9.23,0-13.78-5.17-13.78-13.29a47.11,47.11,0,0,1,1.11-9L226.54,112h-7l2.09-10.83h7l2.46-12.43Z" transform="translate(-16.54)"/><path class="cls-4" d="M286.34,158.76A42.37,42.37,0,0,1,269,162.08c-14.77,0-20.43-9.72-20.43-22.64,0-17.47,9.72-39.25,28.92-39.25,11,0,15.87,8.12,16,16.37,0,16.49-13.29,22.64-30,22.15a12.71,12.71,0,0,0,1.35,7c1.48,2.46,4.18,4.31,8.37,4.31a26.18,26.18,0,0,0,12.18-3Zm-10.83-46.27c-4.68,0-8.86,6-10.58,14.64,8.12.37,14.89-2.83,14.89-9.11C279.82,114.58,278.46,112.49,275.51,112.49Z" transform="translate(-16.54)"/><g id="KARATE-2" data-name="KARATE"><path d="M41.71,161.34,57.83,76.19h15L63.37,126h.25c1.48-2.46,3-4.92,4.31-7.14L79,101.17H95.48L76.17,127.75l9.11,33.59H69.52l-5.41-26-3.57,5.17L56.6,161.34Z" transform="translate(-16.54)"/><path d="M115.67,161.34c.12-3.2.37-6.52.49-10.09h-.37c-4.8,8-10.58,11.07-15.38,11.07-8.74,0-13-7.51-13-18.09,0-18.21,9.11-44.05,34.95-44.05,6,0,12.06,1,15.75,2.46l-6.64,33.47A138.89,138.89,0,0,0,129,161.34ZM121.2,112a17,17,0,0,0-3.2-.37c-10.09,0-15.5,20.06-15.63,28.92,0,5.29.74,9.11,4.55,9.11,4.18,0,8.12-6.89,10.34-17.84Z" transform="translate(-16.54)"/><path d="M134,161.34l7.75-40.85c1.35-6.89,2.21-13.78,3.08-19.32H158c-.25,3.08-.49,6.28-.86,10h.37c4.43-7.63,9.84-11,14.89-11a7.59,7.59,0,0,1,2.46.25L172,115.82c-.62,0-1.72-.12-2.58-.12-6.64,0-12.92,7.63-14.77,17.84l-5.29,27.81Z" transform="translate(-16.54)"/><path d="M196,161.34c.12-3.2.37-6.52.49-10.09h-.37c-4.8,8-10.58,11.07-15.38,11.07-8.74,0-13-7.51-13-18.09,0-18.21,9.11-44.05,34.95-44.05,6,0,12.06,1,15.75,2.46l-6.64,33.47a138.89,138.89,0,0,0-2.46,25.22ZM201.56,112a17,17,0,0,0-3.2-.37c-10.09,0-15.5,20.06-15.63,28.92,0,5.29.74,9.11,4.55,9.11,4.18,0,8.12-6.89,10.34-17.84Z" transform="translate(-16.54)"/><path d="M247.08,84.93,244,101.17h11.32l-2,10.83H241.92l-5.29,27.93a30.85,30.85,0,0,0-.49,5c0,3.69,1.85,5,4.68,5a26.06,26.06,0,0,0,4.18-.25l-1.85,11.57a38.57,38.57,0,0,1-9.23,1c-9.23,0-13.78-5.17-13.78-13.29a47.11,47.11,0,0,1,1.11-9L226.54,112h-7l2.09-10.83h7l2.46-12.43Z" transform="translate(-16.54)"/><path d="M286.34,158.76A42.37,42.37,0,0,1,269,162.08c-14.77,0-20.43-9.72-20.43-22.64,0-17.47,9.72-39.25,28.92-39.25,11,0,15.87,8.12,16,16.37,0,16.49-13.29,22.64-30,22.15a12.71,12.71,0,0,0,1.35,7c1.48,2.46,4.18,4.31,8.37,4.31a26.18,26.18,0,0,0,12.18-3Zm-10.83-46.27c-4.68,0-8.86,6-10.58,14.64,8.12.37,14.89-2.83,14.89-9.11C279.82,114.58,278.46,112.49,275.51,112.49Z" transform="translate(-16.54)"/><path d="M41.71,161.34,57.83,76.19h15L63.37,126h.25c1.48-2.46,3-4.92,4.31-7.14L79,101.17H95.48L76.17,127.75l9.11,33.59H69.52l-5.41-26-3.57,5.17L56.6,161.34Z" transform="translate(-16.54)"/><path d="M115.67,161.34c.12-3.2.37-6.52.49-10.09h-.37c-4.8,8-10.58,11.07-15.38,11.07-8.74,0-13-7.51-13-18.09,0-18.21,9.11-44.05,34.95-44.05,6,0,12.06,1,15.75,2.46l-6.64,33.47A138.89,138.89,0,0,0,129,161.34ZM121.2,112a17,17,0,0,0-3.2-.37c-10.09,0-15.5,20.06-15.63,28.92,0,5.29.74,9.11,4.55,9.11,4.18,0,8.12-6.89,10.34-17.84Z" transform="translate(-16.54)"/><path d="M134,161.34l7.75-40.85c1.35-6.89,2.21-13.78,3.08-19.32H158c-.25,3.08-.49,6.28-.86,10h.37c4.43-7.63,9.84-11,14.89-11a7.59,7.59,0,0,1,2.46.25L172,115.82c-.62,0-1.72-.12-2.58-.12-6.64,0-12.92,7.63-14.77,17.84l-5.29,27.81Z" transform="translate(-16.54)"/><path d="M196,161.34c.12-3.2.37-6.52.49-10.09h-.37c-4.8,8-10.58,11.07-15.38,11.07-8.74,0-13-7.51-13-18.09,0-18.21,9.11-44.05,34.95-44.05,6,0,12.06,1,15.75,2.46l-6.64,33.47a138.89,138.89,0,0,0-2.46,25.22ZM201.56,112a17,17,0,0,0-3.2-.37c-10.09,0-15.5,20.06-15.63,28.92,0,5.29.74,9.11,4.55,9.11,4.18,0,8.12-6.89,10.34-17.84Z" transform="translate(-16.54)"/><path d="M247.08,84.93,244,101.17h11.32l-2,10.83H241.92l-5.29,27.93a30.85,30.85,0,0,0-.49,5c0,3.69,1.85,5,4.68,5a26.06,26.06,0,0,0,4.18-.25l-1.85,11.57a38.57,38.57,0,0,1-9.23,1c-9.23,0-13.78-5.17-13.78-13.29a47.11,47.11,0,0,1,1.11-9L226.54,112h-7l2.09-10.83h7l2.46-12.43Z" transform="translate(-16.54)"/><path d="M286.34,158.76A42.37,42.37,0,0,1,269,162.08c-14.77,0-20.43-9.72-20.43-22.64,0-17.47,9.72-39.25,28.92-39.25,11,0,15.87,8.12,16,16.37,0,16.49-13.29,22.64-30,22.15a12.71,12.71,0,0,0,1.35,7c1.48,2.46,4.18,4.31,8.37,4.31a26.18,26.18,0,0,0,12.18-3Zm-10.83-46.27c-4.68,0-8.86,6-10.58,14.64,8.12.37,14.89-2.83,14.89-9.11C279.82,114.58,278.46,112.49,275.51,112.49Z" transform="translate(-16.54)"/><path class="cls-5" d="M41.71,161.34,57.83,76.19h15L63.37,126h.25c1.48-2.46,3-4.92,4.31-7.14L79,101.17H95.48L76.17,127.75l9.11,33.59H69.52l-5.41-26-3.57,5.17L56.6,161.34Z" transform="translate(-16.54)"/><path class="cls-5" d="M115.67,161.34c.12-3.2.37-6.52.49-10.09h-.37c-4.8,8-10.58,11.07-15.38,11.07-8.74,0-13-7.51-13-18.09,0-18.21,9.11-44.05,34.95-44.05,6,0,12.06,1,15.75,2.46l-6.64,33.47A138.89,138.89,0,0,0,129,161.34ZM121.2,112a17,17,0,0,0-3.2-.37c-10.09,0-15.5,20.06-15.63,28.92,0,5.29.74,9.11,4.55,9.11,4.18,0,8.12-6.89,10.34-17.84Z" transform="translate(-16.54)"/><path class="cls-5" d="M134,161.34l7.75-40.85c1.35-6.89,2.21-13.78,3.08-19.32H158c-.25,3.08-.49,6.28-.86,10h.37c4.43-7.63,9.84-11,14.89-11a7.59,7.59,0,0,1,2.46.25L172,115.82c-.62,0-1.72-.12-2.58-.12-6.64,0-12.92,7.63-14.77,17.84l-5.29,27.81Z" transform="translate(-16.54)"/><path class="cls-5" d="M196,161.34c.12-3.2.37-6.52.49-10.09h-.37c-4.8,8-10.58,11.07-15.38,11.07-8.74,0-13-7.51-13-18.09,0-18.21,9.11-44.05,34.95-44.05,6,0,12.06,1,15.75,2.46l-6.64,33.47a138.89,138.89,0,0,0-2.46,25.22ZM201.56,112a17,17,0,0,0-3.2-.37c-10.09,0-15.5,20.06-15.63,28.92,0,5.29.74,9.11,4.55,9.11,4.18,0,8.12-6.89,10.34-17.84Z" transform="translate(-16.54)"/><path class="cls-5" d="M247.08,84.93,244,101.17h11.32l-2,10.83H241.92l-5.29,27.93a30.85,30.85,0,0,0-.49,5c0,3.69,1.85,5,4.68,5a26.06,26.06,0,0,0,4.18-.25l-1.85,11.57a38.57,38.57,0,0,1-9.23,1c-9.23,0-13.78-5.17-13.78-13.29a47.11,47.11,0,0,1,1.11-9L226.54,112h-7l2.09-10.83h7l2.46-12.43Z" transform="translate(-16.54)"/><path class="cls-5" d="M286.34,158.76A42.37,42.37,0,0,1,269,162.08c-14.77,0-20.43-9.72-20.43-22.64,0-17.47,9.72-39.25,28.92-39.25,11,0,15.87,8.12,16,16.37,0,16.49-13.29,22.64-30,22.15a12.71,12.71,0,0,0,1.35,7c1.48,2.46,4.18,4.31,8.37,4.31a26.18,26.18,0,0,0,12.18-3Zm-10.83-46.27c-4.68,0-8.86,6-10.58,14.64,8.12.37,14.89-2.83,14.89-9.11C279.82,114.58,278.46,112.49,275.51,112.49Z" transform="translate(-16.54)"/></g><path d="M95.43,215.45l1.85-9.26H85l.87-5L102,177.85h6.94l-4.34,22.73h3.82l-1,5.61h-3.82l-1.79,9.26Zm2.89-14.87,1.39-7.17c.52-2.37,1.21-4.92,1.79-7.29h-.17c-1.5,2.49-2.66,4.57-3.93,6.48l-5.26,7.87-.06.12Z" transform="translate(-16.54)"/><path d="M128.17,196.76l-1,5.44H115.62l1-5.44Z" transform="translate(-16.54)"/><path d="M156.69,183.57a8.16,8.16,0,0,0-2,.29c-4.63,1-8.21,4.4-10.35,9.72h.23a7.52,7.52,0,0,1,5.61-2.66c5.15.06,6.77,5,6.77,8.56,0,8.45-5,16.43-12.55,16.43-6.83,0-8.91-6-8.91-11.57a30,30,0,0,1,9-21.46,20.64,20.64,0,0,1,11.22-5.32,10.25,10.25,0,0,1,2.08-.17ZM149.75,200c0-2.08-.75-3.76-2.66-3.76-1.5,0-3.24,1.5-4.11,3.59-.12.41-.23.81-.35,1.16a28.39,28.39,0,0,0-.41,4.86c0,2.43.64,4.8,2.6,4.8C148.47,210.65,149.75,203.94,149.75,200Z" transform="translate(-16.54)"/><path d="M177.51,215.45c.06-1.5.17-3.07.23-4.74h-.17c-2.26,3.76-5,5.21-7.23,5.21-4.11,0-6.13-3.53-6.13-8.5,0-8.56,4.28-20.71,16.43-20.71a21.84,21.84,0,0,1,7.4,1.16l-3.12,15.73a65.3,65.3,0,0,0-1.16,11.86Zm2.6-23.2a8,8,0,0,0-1.5-.17c-4.74,0-7.29,9.43-7.35,13.59,0,2.49.35,4.28,2.14,4.28,2,0,3.82-3.24,4.86-8.39Z" transform="translate(-16.54)"/><path d="M186.13,215.45l3.64-19.09c.64-3.3,1.1-6.54,1.5-9.2h6.19l-.29,3.64h.12a9.28,9.28,0,0,1,7.63-4.11c4,0,5.5,2.78,5.5,6.19a26.89,26.89,0,0,1-.69,5.38l-3.24,17.18h-7.23l3.35-17.58a16.47,16.47,0,0,0,.35-3c0-1.33-.58-2.26-1.79-2.26-1.68,0-3.93,2.49-5,7.87l-2.83,15Zm9.37-32.51c.41-3.53,1.74-6.54,4.69-6.54a5.23,5.23,0,0,1,3.07,1c.7.52,1.33,1.1,1.79,1.1s.92-.4,1.39-2.31h3.41c-.58,4.22-2.14,6.31-4.74,6.31a5.32,5.32,0,0,1-2.83-.93c-.93-.75-1.45-1.16-2-1.16s-1,.93-1.27,2.49Z" transform="translate(-16.54)"/><path d="M233.22,196.59c0,8.91-4.74,19.32-13.36,19.32-7.11,0-8.68-5.61-8.68-9.78,0-9.54,5.26-19.44,13.82-19.44C232.18,186.7,233.22,192.65,233.22,196.59Zm-14.87,9.2c0,2.08.06,4.63,2.31,4.63,3.47,0,5.44-9.6,5.44-14.69,0-1.91-.52-3.53-2.26-3.53C220.73,192.19,218.3,200.93,218.36,205.79Z" transform="translate(-16.54)"/><path d="M233.46,209.26a8.43,8.43,0,0,0,4.57,1.16,3,3,0,0,0,3.24-3.18c0-1.56-.75-2.66-2.72-4.22a8.89,8.89,0,0,1-3.59-6.88c0-5.21,4-9.43,10.47-9.43a11.39,11.39,0,0,1,5.32,1L249.19,193a7.37,7.37,0,0,0-3.36-.87c-2.31,0-3.76,1.21-3.76,3.12,0,1.45.81,2.31,2.14,3.41,3.18,2.43,4.22,5.21,4.22,7.4,0,6.25-4.34,9.72-10.82,9.72a11.47,11.47,0,0,1-5.9-1.45Z" transform="translate(-16.54)"/><path class="cls-3" d="M95.43,215.45l1.85-9.26H85l.87-5L102,177.85h6.94l-4.34,22.73h3.82l-1,5.61h-3.82l-1.79,9.26Zm2.89-14.87,1.39-7.17c.52-2.37,1.21-4.92,1.79-7.29h-.17c-1.5,2.49-2.66,4.57-3.93,6.48l-5.26,7.87-.06.12Z" transform="translate(-16.54)"/><path class="cls-3" d="M128.17,196.76l-1,5.44H115.62l1-5.44Z" transform="translate(-16.54)"/><path class="cls-3" d="M156.69,183.57a8.16,8.16,0,0,0-2,.29c-4.63,1-8.21,4.4-10.35,9.72h.23a7.52,7.52,0,0,1,5.61-2.66c5.15.06,6.77,5,6.77,8.56,0,8.45-5,16.43-12.55,16.43-6.83,0-8.91-6-8.91-11.57a30,30,0,0,1,9-21.46,20.64,20.64,0,0,1,11.22-5.32,10.25,10.25,0,0,1,2.08-.17ZM149.75,200c0-2.08-.75-3.76-2.66-3.76-1.5,0-3.24,1.5-4.11,3.59-.12.41-.23.81-.35,1.16a28.39,28.39,0,0,0-.41,4.86c0,2.43.64,4.8,2.6,4.8C148.47,210.65,149.75,203.94,149.75,200Z" transform="translate(-16.54)"/><path class="cls-3" d="M177.51,215.45c.06-1.5.17-3.07.23-4.74h-.17c-2.26,3.76-5,5.21-7.23,5.21-4.11,0-6.13-3.53-6.13-8.5,0-8.56,4.28-20.71,16.43-20.71a21.84,21.84,0,0,1,7.4,1.16l-3.12,15.73a65.3,65.3,0,0,0-1.16,11.86Zm2.6-23.2a8,8,0,0,0-1.5-.17c-4.74,0-7.29,9.43-7.35,13.59,0,2.49.35,4.28,2.14,4.28,2,0,3.82-3.24,4.86-8.39Z" transform="translate(-16.54)"/><path class="cls-3" d="M186.13,215.45l3.64-19.09c.64-3.3,1.1-6.54,1.5-9.2h6.19l-.29,3.64h.12a9.28,9.28,0,0,1,7.63-4.11c4,0,5.5,2.78,5.5,6.19a26.89,26.89,0,0,1-.69,5.38l-3.24,17.18h-7.23l3.35-17.58a16.47,16.47,0,0,0,.35-3c0-1.33-.58-2.26-1.79-2.26-1.68,0-3.93,2.49-5,7.87l-2.83,15Zm9.37-32.51c.41-3.53,1.74-6.54,4.69-6.54a5.23,5.23,0,0,1,3.07,1c.7.52,1.33,1.1,1.79,1.1s.92-.4,1.39-2.31h3.41c-.58,4.22-2.14,6.31-4.74,6.31a5.32,5.32,0,0,1-2.83-.93c-.93-.75-1.45-1.16-2-1.16s-1,.93-1.27,2.49Z" transform="translate(-16.54)"/><path class="cls-3" d="M233.22,196.59c0,8.91-4.74,19.32-13.36,19.32-7.11,0-8.68-5.61-8.68-9.78,0-9.54,5.26-19.44,13.82-19.44C232.18,186.7,233.22,192.65,233.22,196.59Zm-14.87,9.2c0,2.08.06,4.63,2.31,4.63,3.47,0,5.44-9.6,5.44-14.69,0-1.91-.52-3.53-2.26-3.53C220.73,192.19,218.3,200.93,218.36,205.79Z" transform="translate(-16.54)"/><path class="cls-3" d="M233.46,209.26a8.43,8.43,0,0,0,4.57,1.16,3,3,0,0,0,3.24-3.18c0-1.56-.75-2.66-2.72-4.22a8.89,8.89,0,0,1-3.59-6.88c0-5.21,4-9.43,10.47-9.43a11.39,11.39,0,0,1,5.32,1L249.19,193a7.37,7.37,0,0,0-3.36-.87c-2.31,0-3.76,1.21-3.76,3.12,0,1.45.81,2.31,2.14,3.41,3.18,2.43,4.22,5.21,4.22,7.4,0,6.25-4.34,9.72-10.82,9.72a11.47,11.47,0,0,1-5.9-1.45Z" transform="translate(-16.54)"/><path class="cls-6" d="M95.43,215.45l1.85-9.26H85l.87-5L102,177.85h6.94l-4.34,22.73h3.82l-1,5.61h-3.82l-1.79,9.26Zm2.89-14.87,1.39-7.17c.52-2.37,1.21-4.92,1.79-7.29h-.17c-1.5,2.49-2.66,4.57-3.93,6.48l-5.26,7.87-.06.12Z" transform="translate(-16.54)"/><path class="cls-6" d="M128.17,196.76l-1,5.44H115.62l1-5.44Z" transform="translate(-16.54)"/><path class="cls-6" d="M156.69,183.57a8.16,8.16,0,0,0-2,.29c-4.63,1-8.21,4.4-10.35,9.72h.23a7.52,7.52,0,0,1,5.61-2.66c5.15.06,6.77,5,6.77,8.56,0,8.45-5,16.43-12.55,16.43-6.83,0-8.91-6-8.91-11.57a30,30,0,0,1,9-21.46,20.64,20.64,0,0,1,11.22-5.32,10.25,10.25,0,0,1,2.08-.17ZM149.75,200c0-2.08-.75-3.76-2.66-3.76-1.5,0-3.24,1.5-4.11,3.59-.12.41-.23.81-.35,1.16a28.39,28.39,0,0,0-.41,4.86c0,2.43.64,4.8,2.6,4.8C148.47,210.65,149.75,203.94,149.75,200Z" transform="translate(-16.54)"/><path class="cls-6" d="M177.51,215.45c.06-1.5.17-3.07.23-4.74h-.17c-2.26,3.76-5,5.21-7.23,5.21-4.11,0-6.13-3.53-6.13-8.5,0-8.56,4.28-20.71,16.43-20.71a21.84,21.84,0,0,1,7.4,1.16l-3.12,15.73a65.3,65.3,0,0,0-1.16,11.86Zm2.6-23.2a8,8,0,0,0-1.5-.17c-4.74,0-7.29,9.43-7.35,13.59,0,2.49.35,4.28,2.14,4.28,2,0,3.82-3.24,4.86-8.39Z" transform="translate(-16.54)"/><path class="cls-6" d="M186.13,215.45l3.64-19.09c.64-3.3,1.1-6.54,1.5-9.2h6.19l-.29,3.64h.12a9.28,9.28,0,0,1,7.63-4.11c4,0,5.5,2.78,5.5,6.19a26.89,26.89,0,0,1-.69,5.38l-3.24,17.18h-7.23l3.35-17.58a16.47,16.47,0,0,0,.35-3c0-1.33-.58-2.26-1.79-2.26-1.68,0-3.93,2.49-5,7.87l-2.83,15Zm9.37-32.51c.41-3.53,1.74-6.54,4.69-6.54a5.23,5.23,0,0,1,3.07,1c.7.52,1.33,1.1,1.79,1.1s.92-.4,1.39-2.31h3.41c-.58,4.22-2.14,6.31-4.74,6.31a5.32,5.32,0,0,1-2.83-.93c-.93-.75-1.45-1.16-2-1.16s-1,.93-1.27,2.49Z" transform="translate(-16.54)"/><path class="cls-6" d="M233.22,196.59c0,8.91-4.74,19.32-13.36,19.32-7.11,0-8.68-5.61-8.68-9.78,0-9.54,5.26-19.44,13.82-19.44C232.18,186.7,233.22,192.65,233.22,196.59Zm-14.87,9.2c0,2.08.06,4.63,2.31,4.63,3.47,0,5.44-9.6,5.44-14.69,0-1.91-.52-3.53-2.26-3.53C220.73,192.19,218.3,200.93,218.36,205.79Z" transform="translate(-16.54)"/><path class="cls-6" d="M233.46,209.26a8.43,8.43,0,0,0,4.57,1.16,3,3,0,0,0,3.24-3.18c0-1.56-.75-2.66-2.72-4.22a8.89,8.89,0,0,1-3.59-6.88c0-5.21,4-9.43,10.47-9.43a11.39,11.39,0,0,1,5.32,1L249.19,193a7.37,7.37,0,0,0-3.36-.87c-2.31,0-3.76,1.21-3.76,3.12,0,1.45.81,2.31,2.14,3.41,3.18,2.43,4.22,5.21,4.22,7.4,0,6.25-4.34,9.72-10.82,9.72a11.47,11.47,0,0,1-5.9-1.45Z" transform="translate(-16.54)"/><path d="M95.43,215.45l1.85-9.26H85l.87-5L102,177.85h6.94l-4.34,22.73h3.82l-1,5.61h-3.82l-1.79,9.26Zm2.89-14.87,1.39-7.17c.52-2.37,1.21-4.92,1.79-7.29h-.17c-1.5,2.49-2.66,4.57-3.93,6.48l-5.26,7.87-.06.12Z" transform="translate(-16.54)"/><path d="M128.17,196.76l-1,5.44H115.62l1-5.44Z" transform="translate(-16.54)"/><path d="M156.69,183.57a8.16,8.16,0,0,0-2,.29c-4.63,1-8.21,4.4-10.35,9.72h.23a7.52,7.52,0,0,1,5.61-2.66c5.15.06,6.77,5,6.77,8.56,0,8.45-5,16.43-12.55,16.43-6.83,0-8.91-6-8.91-11.57a30,30,0,0,1,9-21.46,20.64,20.64,0,0,1,11.22-5.32,10.25,10.25,0,0,1,2.08-.17ZM149.75,200c0-2.08-.75-3.76-2.66-3.76-1.5,0-3.24,1.5-4.11,3.59-.12.41-.23.81-.35,1.16a28.39,28.39,0,0,0-.41,4.86c0,2.43.64,4.8,2.6,4.8C148.47,210.65,149.75,203.94,149.75,200Z" transform="translate(-16.54)"/><path d="M177.51,215.45c.06-1.5.17-3.07.23-4.74h-.17c-2.26,3.76-5,5.21-7.23,5.21-4.11,0-6.13-3.53-6.13-8.5,0-8.56,4.28-20.71,16.43-20.71a21.84,21.84,0,0,1,7.4,1.16l-3.12,15.73a65.3,65.3,0,0,0-1.16,11.86Zm2.6-23.2a8,8,0,0,0-1.5-.17c-4.74,0-7.29,9.43-7.35,13.59,0,2.49.35,4.28,2.14,4.28,2,0,3.82-3.24,4.86-8.39Z" transform="translate(-16.54)"/><path d="M186.13,215.45l3.64-19.09c.64-3.3,1.1-6.54,1.5-9.2h6.19l-.29,3.64h.12a9.28,9.28,0,0,1,7.63-4.11c4,0,5.5,2.78,5.5,6.19a26.89,26.89,0,0,1-.69,5.38l-3.24,17.18h-7.23l3.35-17.58a16.47,16.47,0,0,0,.35-3c0-1.33-.58-2.26-1.79-2.26-1.68,0-3.93,2.49-5,7.87l-2.83,15Zm9.37-32.51c.41-3.53,1.74-6.54,4.69-6.54a5.23,5.23,0,0,1,3.07,1c.7.52,1.33,1.1,1.79,1.1s.92-.4,1.39-2.31h3.41c-.58,4.22-2.14,6.31-4.74,6.31a5.32,5.32,0,0,1-2.83-.93c-.93-.75-1.45-1.16-2-1.16s-1,.93-1.27,2.49Z" transform="translate(-16.54)"/><path d="M233.22,196.59c0,8.91-4.74,19.32-13.36,19.32-7.11,0-8.68-5.61-8.68-9.78,0-9.54,5.26-19.44,13.82-19.44C232.18,186.7,233.22,192.65,233.22,196.59Zm-14.87,9.2c0,2.08.06,4.63,2.31,4.63,3.47,0,5.44-9.6,5.44-14.69,0-1.91-.52-3.53-2.26-3.53C220.73,192.19,218.3,200.93,218.36,205.79Z" transform="translate(-16.54)"/><path d="M233.46,209.26a8.43,8.43,0,0,0,4.57,1.16,3,3,0,0,0,3.24-3.18c0-1.56-.75-2.66-2.72-4.22a8.89,8.89,0,0,1-3.59-6.88c0-5.21,4-9.43,10.47-9.43a11.39,11.39,0,0,1,5.32,1L249.19,193a7.37,7.37,0,0,0-3.36-.87c-2.31,0-3.76,1.21-3.76,3.12,0,1.45.81,2.31,2.14,3.41,3.18,2.43,4.22,5.21,4.22,7.4,0,6.25-4.34,9.72-10.82,9.72a11.47,11.47,0,0,1-5.9-1.45Z" transform="translate(-16.54)"/><path class="cls-3" d="M95.43,215.45l1.85-9.26H85l.87-5L102,177.85h6.94l-4.34,22.73h3.82l-1,5.61h-3.82l-1.79,9.26Zm2.89-14.87,1.39-7.17c.52-2.37,1.21-4.92,1.79-7.29h-.17c-1.5,2.49-2.66,4.57-3.93,6.48l-5.26,7.87-.06.12Z" transform="translate(-16.54)"/><path class="cls-3" d="M128.17,196.76l-1,5.44H115.62l1-5.44Z" transform="translate(-16.54)"/><path class="cls-3" d="M156.69,183.57a8.16,8.16,0,0,0-2,.29c-4.63,1-8.21,4.4-10.35,9.72h.23a7.52,7.52,0,0,1,5.61-2.66c5.15.06,6.77,5,6.77,8.56,0,8.45-5,16.43-12.55,16.43-6.83,0-8.91-6-8.91-11.57a30,30,0,0,1,9-21.46,20.64,20.64,0,0,1,11.22-5.32,10.25,10.25,0,0,1,2.08-.17ZM149.75,200c0-2.08-.75-3.76-2.66-3.76-1.5,0-3.24,1.5-4.11,3.59-.12.41-.23.81-.35,1.16a28.39,28.39,0,0,0-.41,4.86c0,2.43.64,4.8,2.6,4.8C148.47,210.65,149.75,203.94,149.75,200Z" transform="translate(-16.54)"/><path class="cls-3" d="M177.51,215.45c.06-1.5.17-3.07.23-4.74h-.17c-2.26,3.76-5,5.21-7.23,5.21-4.11,0-6.13-3.53-6.13-8.5,0-8.56,4.28-20.71,16.43-20.71a21.84,21.84,0,0,1,7.4,1.16l-3.12,15.73a65.3,65.3,0,0,0-1.16,11.86Zm2.6-23.2a8,8,0,0,0-1.5-.17c-4.74,0-7.29,9.43-7.35,13.59,0,2.49.35,4.28,2.14,4.28,2,0,3.82-3.24,4.86-8.39Z" transform="translate(-16.54)"/><path class="cls-3" d="M186.13,215.45l3.64-19.09c.64-3.3,1.1-6.54,1.5-9.2h6.19l-.29,3.64h.12a9.28,9.28,0,0,1,7.63-4.11c4,0,5.5,2.78,5.5,6.19a26.89,26.89,0,0,1-.69,5.38l-3.24,17.18h-7.23l3.35-17.58a16.47,16.47,0,0,0,.35-3c0-1.33-.58-2.26-1.79-2.26-1.68,0-3.93,2.49-5,7.87l-2.83,15Zm9.37-32.51c.41-3.53,1.74-6.54,4.69-6.54a5.23,5.23,0,0,1,3.07,1c.7.52,1.33,1.1,1.79,1.1s.92-.4,1.39-2.31h3.41c-.58,4.22-2.14,6.31-4.74,6.31a5.32,5.32,0,0,1-2.83-.93c-.93-.75-1.45-1.16-2-1.16s-1,.93-1.27,2.49Z" transform="translate(-16.54)"/><path class="cls-3" d="M233.22,196.59c0,8.91-4.74,19.32-13.36,19.32-7.11,0-8.68-5.61-8.68-9.78,0-9.54,5.26-19.44,13.82-19.44C232.18,186.7,233.22,192.65,233.22,196.59Zm-14.87,9.2c0,2.08.06,4.63,2.31,4.63,3.47,0,5.44-9.6,5.44-14.69,0-1.91-.52-3.53-2.26-3.53C220.73,192.19,218.3,200.93,218.36,205.79Z" transform="translate(-16.54)"/><path class="cls-3" d="M233.46,209.26a8.43,8.43,0,0,0,4.57,1.16,3,3,0,0,0,3.24-3.18c0-1.56-.75-2.66-2.72-4.22a8.89,8.89,0,0,1-3.59-6.88c0-5.21,4-9.43,10.47-9.43a11.39,11.39,0,0,1,5.32,1L249.19,193a7.37,7.37,0,0,0-3.36-.87c-2.31,0-3.76,1.21-3.76,3.12,0,1.45.81,2.31,2.14,3.41,3.18,2.43,4.22,5.21,4.22,7.4,0,6.25-4.34,9.72-10.82,9.72a11.47,11.47,0,0,1-5.9-1.45Z" transform="translate(-16.54)"/><path class="cls-7" d="M95.43,215.45l1.85-9.26H85l.87-5L102,177.85h6.94l-4.34,22.73h3.82l-1,5.61h-3.82l-1.79,9.26Zm2.89-14.87,1.39-7.17c.52-2.37,1.21-4.92,1.79-7.29h-.17c-1.5,2.49-2.66,4.57-3.93,6.48l-5.26,7.87-.06.12Z" transform="translate(-16.54)"/><path class="cls-7" d="M128.17,196.76l-1,5.44H115.62l1-5.44Z" transform="translate(-16.54)"/><path class="cls-7" d="M156.69,183.57a8.16,8.16,0,0,0-2,.29c-4.63,1-8.21,4.4-10.35,9.72h.23a7.52,7.52,0,0,1,5.61-2.66c5.15.06,6.77,5,6.77,8.56,0,8.45-5,16.43-12.55,16.43-6.83,0-8.91-6-8.91-11.57a30,30,0,0,1,9-21.46,20.64,20.64,0,0,1,11.22-5.32,10.25,10.25,0,0,1,2.08-.17ZM149.75,200c0-2.08-.75-3.76-2.66-3.76-1.5,0-3.24,1.5-4.11,3.59-.12.41-.23.81-.35,1.16a28.39,28.39,0,0,0-.41,4.86c0,2.43.64,4.8,2.6,4.8C148.47,210.65,149.75,203.94,149.75,200Z" transform="translate(-16.54)"/><path class="cls-7" d="M177.51,215.45c.06-1.5.17-3.07.23-4.74h-.17c-2.26,3.76-5,5.21-7.23,5.21-4.11,0-6.13-3.53-6.13-8.5,0-8.56,4.28-20.71,16.43-20.71a21.84,21.84,0,0,1,7.4,1.16l-3.12,15.73a65.3,65.3,0,0,0-1.16,11.86Zm2.6-23.2a8,8,0,0,0-1.5-.17c-4.74,0-7.29,9.43-7.35,13.59,0,2.49.35,4.28,2.14,4.28,2,0,3.82-3.24,4.86-8.39Z" transform="translate(-16.54)"/><path class="cls-7" d="M186.13,215.45l3.64-19.09c.64-3.3,1.1-6.54,1.5-9.2h6.19l-.29,3.64h.12a9.28,9.28,0,0,1,7.63-4.11c4,0,5.5,2.78,5.5,6.19a26.89,26.89,0,0,1-.69,5.38l-3.24,17.18h-7.23l3.35-17.58a16.47,16.47,0,0,0,.35-3c0-1.33-.58-2.26-1.79-2.26-1.68,0-3.93,2.49-5,7.87l-2.83,15Zm9.37-32.51c.41-3.53,1.74-6.54,4.69-6.54a5.23,5.23,0,0,1,3.07,1c.7.52,1.33,1.1,1.79,1.1s.92-.4,1.39-2.31h3.41c-.58,4.22-2.14,6.31-4.74,6.31a5.32,5.32,0,0,1-2.83-.93c-.93-.75-1.45-1.16-2-1.16s-1,.93-1.27,2.49Z" transform="translate(-16.54)"/><path class="cls-7" d="M233.22,196.59c0,8.91-4.74,19.32-13.36,19.32-7.11,0-8.68-5.61-8.68-9.78,0-9.54,5.26-19.44,13.82-19.44C232.18,186.7,233.22,192.65,233.22,196.59Zm-14.87,9.2c0,2.08.06,4.63,2.31,4.63,3.47,0,5.44-9.6,5.44-14.69,0-1.91-.52-3.53-2.26-3.53C220.73,192.19,218.3,200.93,218.36,205.79Z" transform="translate(-16.54)"/><path class="cls-7" d="M233.46,209.26a8.43,8.43,0,0,0,4.57,1.16,3,3,0,0,0,3.24-3.18c0-1.56-.75-2.66-2.72-4.22a8.89,8.89,0,0,1-3.59-6.88c0-5.21,4-9.43,10.47-9.43a11.39,11.39,0,0,1,5.32,1L249.19,193a7.37,7.37,0,0,0-3.36-.87c-2.31,0-3.76,1.21-3.76,3.12,0,1.45.81,2.31,2.14,3.41,3.18,2.43,4.22,5.21,4.22,7.4,0,6.25-4.34,9.72-10.82,9.72a11.47,11.47,0,0,1-5.9-1.45Z" transform="translate(-16.54)"/><g id="KARATE-3" data-name="KARATE"><path d="M95.43,215.45l1.85-9.26H85l.87-5L102,177.85h6.94l-4.34,22.73h3.82l-1,5.61h-3.82l-1.79,9.26Zm2.89-14.87,1.39-7.17c.52-2.37,1.21-4.92,1.79-7.29h-.17c-1.5,2.49-2.66,4.57-3.93,6.48l-5.26,7.87-.06.12Z" transform="translate(-16.54)"/><path d="M128.17,196.76l-1,5.44H115.62l1-5.44Z" transform="translate(-16.54)"/><path d="M156.69,183.57a8.16,8.16,0,0,0-2,.29c-4.63,1-8.21,4.4-10.35,9.72h.23a7.52,7.52,0,0,1,5.61-2.66c5.15.06,6.77,5,6.77,8.56,0,8.45-5,16.43-12.55,16.43-6.83,0-8.91-6-8.91-11.57a30,30,0,0,1,9-21.46,20.64,20.64,0,0,1,11.22-5.32,10.25,10.25,0,0,1,2.08-.17ZM149.75,200c0-2.08-.75-3.76-2.66-3.76-1.5,0-3.24,1.5-4.11,3.59-.12.41-.23.81-.35,1.16a28.39,28.39,0,0,0-.41,4.86c0,2.43.64,4.8,2.6,4.8C148.47,210.65,149.75,203.94,149.75,200Z" transform="translate(-16.54)"/><path d="M177.51,215.45c.06-1.5.17-3.07.23-4.74h-.17c-2.26,3.76-5,5.21-7.23,5.21-4.11,0-6.13-3.53-6.13-8.5,0-8.56,4.28-20.71,16.43-20.71a21.84,21.84,0,0,1,7.4,1.16l-3.12,15.73a65.3,65.3,0,0,0-1.16,11.86Zm2.6-23.2a8,8,0,0,0-1.5-.17c-4.74,0-7.29,9.43-7.35,13.59,0,2.49.35,4.28,2.14,4.28,2,0,3.82-3.24,4.86-8.39Z" transform="translate(-16.54)"/><path d="M186.13,215.45l3.64-19.09c.64-3.3,1.1-6.54,1.5-9.2h6.19l-.29,3.64h.12a9.28,9.28,0,0,1,7.63-4.11c4,0,5.5,2.78,5.5,6.19a26.89,26.89,0,0,1-.69,5.38l-3.24,17.18h-7.23l3.35-17.58a16.47,16.47,0,0,0,.35-3c0-1.33-.58-2.26-1.79-2.26-1.68,0-3.93,2.49-5,7.87l-2.83,15Zm9.37-32.51c.41-3.53,1.74-6.54,4.69-6.54a5.23,5.23,0,0,1,3.07,1c.7.52,1.33,1.1,1.79,1.1s.92-.4,1.39-2.31h3.41c-.58,4.22-2.14,6.31-4.74,6.31a5.32,5.32,0,0,1-2.83-.93c-.93-.75-1.45-1.16-2-1.16s-1,.93-1.27,2.49Z" transform="translate(-16.54)"/><path d="M233.22,196.59c0,8.91-4.74,19.32-13.36,19.32-7.11,0-8.68-5.61-8.68-9.78,0-9.54,5.26-19.44,13.82-19.44C232.18,186.7,233.22,192.65,233.22,196.59Zm-14.87,9.2c0,2.08.06,4.63,2.31,4.63,3.47,0,5.44-9.6,5.44-14.69,0-1.91-.52-3.53-2.26-3.53C220.73,192.19,218.3,200.93,218.36,205.79Z" transform="translate(-16.54)"/><path d="M233.46,209.26a8.43,8.43,0,0,0,4.57,1.16,3,3,0,0,0,3.24-3.18c0-1.56-.75-2.66-2.72-4.22a8.89,8.89,0,0,1-3.59-6.88c0-5.21,4-9.43,10.47-9.43a11.39,11.39,0,0,1,5.32,1L249.19,193a7.37,7.37,0,0,0-3.36-.87c-2.31,0-3.76,1.21-3.76,3.12,0,1.45.81,2.31,2.14,3.41,3.18,2.43,4.22,5.21,4.22,7.4,0,6.25-4.34,9.72-10.82,9.72a11.47,11.47,0,0,1-5.9-1.45Z" transform="translate(-16.54)"/><path d="M95.43,215.45l1.85-9.26H85l.87-5L102,177.85h6.94l-4.34,22.73h3.82l-1,5.61h-3.82l-1.79,9.26Zm2.89-14.87,1.39-7.17c.52-2.37,1.21-4.92,1.79-7.29h-.17c-1.5,2.49-2.66,4.57-3.93,6.48l-5.26,7.87-.06.12Z" transform="translate(-16.54)"/><path d="M128.17,196.76l-1,5.44H115.62l1-5.44Z" transform="translate(-16.54)"/><path d="M156.69,183.57a8.16,8.16,0,0,0-2,.29c-4.63,1-8.21,4.4-10.35,9.72h.23a7.52,7.52,0,0,1,5.61-2.66c5.15.06,6.77,5,6.77,8.56,0,8.45-5,16.43-12.55,16.43-6.83,0-8.91-6-8.91-11.57a30,30,0,0,1,9-21.46,20.64,20.64,0,0,1,11.22-5.32,10.25,10.25,0,0,1,2.08-.17ZM149.75,200c0-2.08-.75-3.76-2.66-3.76-1.5,0-3.24,1.5-4.11,3.59-.12.41-.23.81-.35,1.16a28.39,28.39,0,0,0-.41,4.86c0,2.43.64,4.8,2.6,4.8C148.47,210.65,149.75,203.94,149.75,200Z" transform="translate(-16.54)"/><path d="M177.51,215.45c.06-1.5.17-3.07.23-4.74h-.17c-2.26,3.76-5,5.21-7.23,5.21-4.11,0-6.13-3.53-6.13-8.5,0-8.56,4.28-20.71,16.43-20.71a21.84,21.84,0,0,1,7.4,1.16l-3.12,15.73a65.3,65.3,0,0,0-1.16,11.86Zm2.6-23.2a8,8,0,0,0-1.5-.17c-4.74,0-7.29,9.43-7.35,13.59,0,2.49.35,4.28,2.14,4.28,2,0,3.82-3.24,4.86-8.39Z" transform="translate(-16.54)"/><path d="M186.13,215.45l3.64-19.09c.64-3.3,1.1-6.54,1.5-9.2h6.19l-.29,3.64h.12a9.28,9.28,0,0,1,7.63-4.11c4,0,5.5,2.78,5.5,6.19a26.89,26.89,0,0,1-.69,5.38l-3.24,17.18h-7.23l3.35-17.58a16.47,16.47,0,0,0,.35-3c0-1.33-.58-2.26-1.79-2.26-1.68,0-3.93,2.49-5,7.87l-2.83,15Zm9.37-32.51c.41-3.53,1.74-6.54,4.69-6.54a5.23,5.23,0,0,1,3.07,1c.7.52,1.33,1.1,1.79,1.1s.92-.4,1.39-2.31h3.41c-.58,4.22-2.14,6.31-4.74,6.31a5.32,5.32,0,0,1-2.83-.93c-.93-.75-1.45-1.16-2-1.16s-1,.93-1.27,2.49Z" transform="translate(-16.54)"/><path d="M233.22,196.59c0,8.91-4.74,19.32-13.36,19.32-7.11,0-8.68-5.61-8.68-9.78,0-9.54,5.26-19.44,13.82-19.44C232.18,186.7,233.22,192.65,233.22,196.59Zm-14.87,9.2c0,2.08.06,4.63,2.31,4.63,3.47,0,5.44-9.6,5.44-14.69,0-1.91-.52-3.53-2.26-3.53C220.73,192.19,218.3,200.93,218.36,205.79Z" transform="translate(-16.54)"/><path d="M233.46,209.26a8.43,8.43,0,0,0,4.57,1.16,3,3,0,0,0,3.24-3.18c0-1.56-.75-2.66-2.72-4.22a8.89,8.89,0,0,1-3.59-6.88c0-5.21,4-9.43,10.47-9.43a11.39,11.39,0,0,1,5.32,1L249.19,193a7.37,7.37,0,0,0-3.36-.87c-2.31,0-3.76,1.21-3.76,3.12,0,1.45.81,2.31,2.14,3.41,3.18,2.43,4.22,5.21,4.22,7.4,0,6.25-4.34,9.72-10.82,9.72a11.47,11.47,0,0,1-5.9-1.45Z" transform="translate(-16.54)"/><path class="cls-8" d="M95.43,215.45l1.85-9.26H85l.87-5L102,177.85h6.94l-4.34,22.73h3.82l-1,5.61h-3.82l-1.79,9.26Zm2.89-14.87,1.39-7.17c.52-2.37,1.21-4.92,1.79-7.29h-.17c-1.5,2.49-2.66,4.57-3.93,6.48l-5.26,7.87-.06.12Z" transform="translate(-16.54)"/><path class="cls-8" d="M128.17,196.76l-1,5.44H115.62l1-5.44Z" transform="translate(-16.54)"/><path class="cls-8" d="M156.69,183.57a8.16,8.16,0,0,0-2,.29c-4.63,1-8.21,4.4-10.35,9.72h.23a7.52,7.52,0,0,1,5.61-2.66c5.15.06,6.77,5,6.77,8.56,0,8.45-5,16.43-12.55,16.43-6.83,0-8.91-6-8.91-11.57a30,30,0,0,1,9-21.46,20.64,20.64,0,0,1,11.22-5.32,10.25,10.25,0,0,1,2.08-.17ZM149.75,200c0-2.08-.75-3.76-2.66-3.76-1.5,0-3.24,1.5-4.11,3.59-.12.41-.23.81-.35,1.16a28.39,28.39,0,0,0-.41,4.86c0,2.43.64,4.8,2.6,4.8C148.47,210.65,149.75,203.94,149.75,200Z" transform="translate(-16.54)"/><path class="cls-8" d="M177.51,215.45c.06-1.5.17-3.07.23-4.74h-.17c-2.26,3.76-5,5.21-7.23,5.21-4.11,0-6.13-3.53-6.13-8.5,0-8.56,4.28-20.71,16.43-20.71a21.84,21.84,0,0,1,7.4,1.16l-3.12,15.73a65.3,65.3,0,0,0-1.16,11.86Zm2.6-23.2a8,8,0,0,0-1.5-.17c-4.74,0-7.29,9.43-7.35,13.59,0,2.49.35,4.28,2.14,4.28,2,0,3.82-3.24,4.86-8.39Z" transform="translate(-16.54)"/><path class="cls-8" d="M186.13,215.45l3.64-19.09c.64-3.3,1.1-6.54,1.5-9.2h6.19l-.29,3.64h.12a9.28,9.28,0,0,1,7.63-4.11c4,0,5.5,2.78,5.5,6.19a26.89,26.89,0,0,1-.69,5.38l-3.24,17.18h-7.23l3.35-17.58a16.47,16.47,0,0,0,.35-3c0-1.33-.58-2.26-1.79-2.26-1.68,0-3.93,2.49-5,7.87l-2.83,15Zm9.37-32.51c.41-3.53,1.74-6.54,4.69-6.54a5.23,5.23,0,0,1,3.07,1c.7.52,1.33,1.1,1.79,1.1s.92-.4,1.39-2.31h3.41c-.58,4.22-2.14,6.31-4.74,6.31a5.32,5.32,0,0,1-2.83-.93c-.93-.75-1.45-1.16-2-1.16s-1,.93-1.27,2.49Z" transform="translate(-16.54)"/><path class="cls-8" d="M233.22,196.59c0,8.91-4.74,19.32-13.36,19.32-7.11,0-8.68-5.61-8.68-9.78,0-9.54,5.26-19.44,13.82-19.44C232.18,186.7,233.22,192.65,233.22,196.59Zm-14.87,9.2c0,2.08.06,4.63,2.31,4.63,3.47,0,5.44-9.6,5.44-14.69,0-1.91-.52-3.53-2.26-3.53C220.73,192.19,218.3,200.93,218.36,205.79Z" transform="translate(-16.54)"/><path class="cls-8" d="M233.46,209.26a8.43,8.43,0,0,0,4.57,1.16,3,3,0,0,0,3.24-3.18c0-1.56-.75-2.66-2.72-4.22a8.89,8.89,0,0,1-3.59-6.88c0-5.21,4-9.43,10.47-9.43a11.39,11.39,0,0,1,5.32,1L249.19,193a7.37,7.37,0,0,0-3.36-.87c-2.31,0-3.76,1.21-3.76,3.12,0,1.45.81,2.31,2.14,3.41,3.18,2.43,4.22,5.21,4.22,7.4,0,6.25-4.34,9.72-10.82,9.72a11.47,11.47,0,0,1-5.9-1.45Z" transform="translate(-16.54)"/></g></g></g></svg>