<svg xmlns="http://www.w3.org/2000/svg" viewBox="0 0 224.26 289.45"><defs><style>.cls-1{fill:none;stroke:#008351;stroke-linecap:round;stroke-linejoin:round;stroke-width:15px;}</style></defs><title>libre</title><g id="Layer_2" data-name="Layer 2"><g id="libre"><path class="cls-1" d="M175,134.93a90.72,90.72,0,0,1,22.5,37h0c6.79,22.91,1.09,43.28-.5,49-5.38,19.24-22.87,53.89-51.57,60.21-4.09.9-22.53.83-59.43.79-2.77,0-4.16,0-4.43,0-31.58-2.13-57.81-46-58.07-83.48a90.48,90.48,0,0,1,4-26.47,95.21,95.21,0,0,1,24.5-40"/><path class="cls-1" d="M80.14,115.48a89.33,89.33,0,0,1,66.19.63"/><path class="cls-1" d="M52,131.93A251.36,251.36,0,0,1,33.1,109c-3.75-5.17-6.14-8.91-6.94-10.18-3.94-6.26-6.82-11.8-9.71-17.38C8.38,65.83,6.35,57.64,8.06,49c.12-.61.26-1.13.39-1.57,3.07-10.69,12.71-17.95,28-25,0,0,71.39-32.93,153-1,9.33,3.65,20.21,9,25,20,3.53,8.07,2.59,16.46,0,26-7.81,28.82-26.56,53.09-39.5,67.5"/><path class="cls-1" d="M80,114.93C75.11,107.82,68,97,60.18,83.73,57.7,79.51,54,72.91,55.67,65.64c0-.2.09-.37.13-.51,1.68-5.85,7-9.82,15.31-13.67,0,0,39-18,83.68-.55,5.1,2,11.06,4.95,13.67,10.94,2.13,4.87,1.22,9.81,0,14.22-4.55,16.47-15,31.43-21.53,39.86"/></g></g></svg>