<svg xmlns="http://www.w3.org/2000/svg" viewBox="0 0 239.08 182.83"><defs><style>.cls-1,.cls-3,.cls-4,.cls-5{fill:#008351;}.cls-1,.cls-2,.cls-5,.cls-8{stroke:#008351;}.cls-1,.cls-2,.cls-5,.cls-6,.cls-8{stroke-linecap:round;}.cls-1,.cls-8{stroke-linejoin:round;stroke-width:10px;}.cls-2,.cls-6,.cls-7,.cls-8{fill:none;}.cls-2,.cls-4,.cls-5,.cls-6{stroke-miterlimit:10;}.cls-2{stroke-width:49.35px;}.cls-4,.cls-6{stroke:#fff;stroke-width:3px;}.cls-5{stroke-width:21.22px;}</style></defs><title>personal</title><g id="Layer_2" data-name="Layer 2"><g id="personal"><path class="cls-1" d="M161.3,49.41,157.74,65,168,69.4l.33,16.49,7.24-13.73,42.92,23.14c1.87-1.26,12.89-9,15.17-23.72a35.6,35.6,0,0,0-5.22-24.27Z"/><line class="cls-2" x1="100.27" y1="91.82" x2="67.65" y2="157.41"/><line class="cls-2" x1="72.32" y1="85.07" x2="67.6" y2="158.16"/><path class="cls-3" d="M48.82,148a9.33,9.33,0,0,0-1.46-.86l-1.51-.8-3-1.6c-2-1.07-4-2.18-5.94-3.29-3.94-2.22-7.77-4.56-11.58-6.93-1.9-1.18-3.77-2.42-5.66-3.62l-5.57-3.72c-3.68-2.52-7.34-5.06-10.92-7.69a7.71,7.71,0,0,1-1.66-10.78l.18-.24.76-.95c3.51-4.37,7.14-8.63,10.82-12.84s7.46-8.33,11.29-12.4,7.74-8.07,11.72-12,8.06-7.77,12.2-11.55l.85-.78a7.07,7.07,0,0,1,6.38-1.64c2,.49,4,1.07,6,1.6s4,1.1,6,1.69,4,1.16,5.95,1.8,4,1.24,5.93,1.92c3.95,1.3,7.87,2.74,11.78,4.24s7.8,3.13,11.65,5h0l.33.19-.38,0h0c-4.26.47-8.46.65-12.66.78s-8.37.11-12.52,0c-2.08,0-4.15-.12-6.23-.2s-4.14-.19-6.21-.32-4.13-.25-6.19-.42-4.12-.3-6.17-.52l7.23-2.42c-3.51,4.37-7.06,8.7-10.73,12.92S42,91,38.23,95.1s-7.69,8.12-11.64,12.08-8,7.85-12.11,11.64l-.72-12c3.23,3.09,6.35,6.28,9.46,9.5l4.6,4.9c1.5,1.67,3,3.32,4.5,5,3,3.4,5.88,6.83,8.67,10.42,1.4,1.79,2.78,3.6,4.11,5.47.67.92,1.32,1.88,2,2.83A18.75,18.75,0,0,1,48.82,148Z"/><polygon class="cls-4" points="66.64 177.91 23.98 154.04 28.98 88.39 71.03 111.02 66.64 177.91"/><path class="cls-1" d="M201.46,130.11"/><circle class="cls-5" cx="98.96" cy="30.61" r="20"/><path class="cls-3" d="M98.28,79.78c2.45-.3,4.85-.42,7.25-.52s4.77-.09,7.14-.07l3.54.08,3.52.16c2.35.1,4.68.28,7,.47a4.66,4.66,0,0,1,3.77,2.52l.91,1.79a257.89,257.89,0,0,1,11.48,26q5,13.23,8.79,26.88l-16.46-1.7a248.83,248.83,0,0,1,15.55-21.21q4.2-5.12,8.8-10a112.74,112.74,0,0,1,9.86-9.39,112.73,112.73,0,0,1-3.32,13.2q-2,6.4-4.38,12.58a248.82,248.82,0,0,1-10.81,24,8.85,8.85,0,0,1-16.1-.78l-.36-.92q-5.18-13.18-9.09-26.78A257.89,257.89,0,0,1,119,88.36l4.68,4.3c-2.16-.89-4.32-1.8-6.45-2.78L114,88.41l-3.19-1.54q-3.18-1.59-6.33-3.32C102.41,82.37,100.33,81.16,98.28,79.78Z"/><line class="cls-6" x1="35.96" y1="102.61" x2="62.96" y2="116.61"/><line class="cls-6" x1="34.96" y1="109.61" x2="61.96" y2="123.61"/><line class="cls-6" x1="33.96" y1="116.61" x2="60.96" y2="130.61"/><path class="cls-7" d="M16.09,110.11"/><path class="cls-3" d="M20.5,114.67a8.68,8.68,0,0,0-.59-3.24c-.1-.26-.21-.51-.34-.75s-.32-.58-.32-.58l-.09-.15a6.64,6.64,0,0,0-.41-.56l-.05-.06h0l0,0,0,0-.09-.08s0,0,0,.11a5.12,5.12,0,0,0,.34.55c.28.42.61.87.95,1.32l2.11,2.78,4.4,5.61,9,11.21,18.15,22.35L29.3,137.39l-12.05-8-6-4.07-3-2.13c-.52-.37-1-.74-1.59-1.17-.28-.21-.56-.43-.9-.72-.15-.12-.37-.33-.59-.55l-.23-.25-.12-.13-.06-.06-.1-.12c-.19-.24-.37-.49-.54-.74l-.13-.19s-.24-.4-.33-.6-.24-.51-.35-.78a9.27,9.27,0,0,1-.64-3.34Z"/><path class="cls-8" d="M54.46,61.11a143.5,143.5,0,0,1,21,2,135.12,135.12,0,0,1,24.5,6.5,90,90,0,0,1,17.5,8.5,76.51,76.51,0,0,1,8,6"/></g></g></svg>