<svg xmlns="http://www.w3.org/2000/svg" viewBox="0 0 249.86 233.5"><defs><style>.cls-1,.cls-4,.cls-5{fill:#008351;}.cls-2,.cls-3,.cls-6{fill:none;}.cls-2,.cls-3,.cls-4,.cls-5,.cls-6{stroke:#008351;stroke-linecap:round;stroke-miterlimit:10;}.cls-2{stroke-width:30px;}.cls-3{stroke-width:25.32px;}.cls-5{stroke-width:0.72px;}.cls-6{stroke-width:8px;}</style></defs><title>pump</title><g id="Layer_2" data-name="Layer 2"><g id="pump"><polygon class="cls-1" points="115.05 167.24 130.56 166.8 146.74 166.34 142.21 178.38 121.5 233.5 122.79 174.63 134.44 186.2 119.95 191.76 115.05 167.24"/><polyline class="cls-2" points="144.5 116.5 153.5 138.5 117.5 179.5"/><polygon class="cls-1" points="145.11 167.47 185.52 161.48 202.46 158.97 194.05 171.71 162.5 219.5 180.95 165.29 189.48 175.52 151.89 191.53 145.11 167.47"/><line class="cls-3" x1="149" y1="179.13" x2="116" y2="179.91"/><path class="cls-1" d="M93.06,55.08c2.9,2.76,5.72,5.57,8.54,8.39s5.6,5.66,8.32,8.55,5.5,5.74,8.16,8.67l4,4.39c1.35,1.45,2.78,2.85,4.21,4.24l.63,1a53.57,53.57,0,0,1,4.43,7.08,47.33,47.33,0,0,1,3,7.81,60.45,60.45,0,0,1,1.87,8.36,40.9,40.9,0,0,1,.41,9.09.82.82,0,0,1-.88.75.83.83,0,0,1-.38-.13,40.9,40.9,0,0,1-7-5.78,60.45,60.45,0,0,1-5.57-6.51,47.34,47.34,0,0,1-4.46-7.07,53.57,53.57,0,0,1-3-7.79l.63,1c-1-1.75-1.92-3.5-2.95-5.2l-3.15-5c-2.1-3.36-4.13-6.78-6.15-10.2s-4-6.88-6-10.32-3.9-7-5.77-10.49a.71.71,0,0,1,1.12-.85Z"/><path class="cls-1" d="M211.92,59.94q-4.77,6-9.68,11.8c-3.26,3.9-6.57,7.75-9.88,11.59L182.29,94.73C179,98.59,176,102.78,172.2,106.1l.86-1c-1.2,1.67-2.55,3.24-3.92,4.8s-2.82,3.06-4.34,4.52-3.12,2.86-4.81,4.2a41.48,41.48,0,0,1-5.49,3.74.69.69,0,0,1-1-.68,41.48,41.48,0,0,1,1.41-6.49c.6-2.07,1.31-4.08,2.09-6s1.64-3.85,2.56-5.72,1.89-3.69,3-5.43l.21-.34.65-.69c3.47-3.68,7.77-6.5,11.76-9.64l11.78-9.62c4-3.16,7.94-6.32,12-9.42s8.07-6.19,12.17-9.21a.62.62,0,0,1,.85.88Z"/><circle class="cls-4" cx="151" cy="85" r="15.5"/><circle class="cls-4" cx="47" cy="47" r="46.5"/><circle class="cls-5" cx="216" cy="66" r="33.5"/><line class="cls-6" x1="49.5" y1="50.5" x2="216.5" y2="68.5"/></g></g></svg>