<svg xmlns="http://www.w3.org/2000/svg" viewBox="0 0 220.54 73.47"><defs><style>.cls-1{fill:#008351;}</style></defs><title>zumba</title><g id="Layer_2" data-name="Layer 2"><g id="zumba"><path d="M103.37,19c-1,2.32-2.08,4.62-3,7-3.94,9.85-5.69,20.2-6.82,30.68-.23,2.19-.49,4.37-.69,6.56a5.34,5.34,0,0,1-4.7,4.9,32.72,32.72,0,0,1-4.64-.29c0-2.77-.13-5.29,0-7.79a157.1,157.1,0,0,1,5.53-33.89c1.62-5.62,3.59-11.12,7.13-15.89,1.9-2.56,4.17-4.72,7.49-5.18s6.5,0,8.53,3a9.11,9.11,0,0,1,1.46,4.1c.54,6.73.93,13.47,1.27,20.21.18,3.63.14,7.27.21,10.91a.76.76,0,0,0,.29.6c.3-.63.58-1.26.89-1.89,2.6-5.26,5.07-10.6,7.87-15.76a23.54,23.54,0,0,1,4.66-5.88,6.47,6.47,0,0,1,10.92,3.08,32.74,32.74,0,0,1,.74,7.83c.16,7.47.16,14.94.27,22.41.06,4.36.18,8.71.33,13.07a4,4,0,0,1-1.28,3.35,18.72,18.72,0,0,1-4,2.82c-2.35,1.13-4.26.17-4.82-2.37a46.39,46.39,0,0,1-1-7c-.33-5.1-.48-10.22-.73-15.33,0-1-.17-1.9-.29-3.25-.45.63-.74,1-1,1.35-2.55,4.39-5,8.83-7.67,13.16a34.82,34.82,0,0,1-3.9,5A7.88,7.88,0,0,1,114,66.18c-2.6,1.25-4.44.63-5.79-1.92-1.81-3.42-2.4-7.19-2.91-10.95a212.54,212.54,0,0,1-1.48-25.72q-.05-4-.13-7.91a4,4,0,0,0-.09-.55Z"/><path d="M20.22,60.11c2.11-.34,4.24-.62,6.34-1C33,57.84,39.49,56.46,46,55.31a53.47,53.47,0,0,1,7.39-.55c.93,0,2.08.09,2.41,1.19s-.62,1.75-1.36,2.32A39.31,39.31,0,0,1,44,63.45a102.06,102.06,0,0,1-24.7,6.21C16,70,12.71,70,9.58,68.56c-4.4-2-5.85-5.24-4.47-9.88a37.12,37.12,0,0,1,4.81-9.62c4.81-7.35,10.56-14,16.36-20.52,3.39-3.83,6.81-7.64,10.18-11.49a25.09,25.09,0,0,0,2.09-2.77c.6-.92.39-1.59-.7-1.74A15.15,15.15,0,0,0,33,12.38c-5.6,1.13-11.15,2.49-16.72,3.75a26.71,26.71,0,0,1-11.9.08A9.43,9.43,0,0,1,1,14.69c-1.39-1-1.36-2.19,0-3.28a14.58,14.58,0,0,1,3-2C13,5.22,22.44,2.6,32.47,2.88A29.09,29.09,0,0,1,47,6.88a11.18,11.18,0,0,1,4.69,5,5.29,5.29,0,0,1-.29,5.57C48,22.17,44.78,27,41.31,31.6c-6.75,9-13.62,18-20.44,26.95-.3.4-.54.84-.81,1.26Z"/><path d="M204.7,49.67l-10.09,1c-1.27.13-2.54.31-3.82.36-.91,0-1.29.4-1.24,1.31.23,4.18.4,8.37.69,12.55.06.86-.09,1.32-.88,1.66a11,11,0,0,1-6,.75c-.38-.05-.84-.65-1-1.09A52.66,52.66,0,0,1,180,46.85,113.67,113.67,0,0,1,185,18.25a36,36,0,0,1,5.65-11.31,10.3,10.3,0,0,1,10.69-4.07,7.06,7.06,0,0,1,4.39,2.69,23.68,23.68,0,0,1,4.59,11.2c.91,5.8,1.61,11.64,2.08,17.48A158.57,158.57,0,0,0,218,63.89a29.92,29.92,0,0,1,.88,4.46c.15,1.25-.24,1.44-1.37.89-6-2.94-9.6-7.78-11.32-14.13C205.66,53.3,205.19,51.5,204.7,49.67Zm-1.95-9.62c0-.36,0-.63,0-.9-.57-4.36-1.09-8.72-1.75-13.07-.57-3.75-1.19-7.49-2-11.2-.43-2-1.51-2.22-3-.73a4.5,4.5,0,0,0-.95,1.23,22.25,22.25,0,0,0-1.85,4.4c-1,4.56-1.86,9.15-2.63,13.75-.41,2.42-.51,4.89-.76,7.4Z"/><path d="M152.23,37.42c.16,2.6.28,4.9.46,7.19.35,4.58.69,9.17,1.11,13.74.09,1-.2,1.41-1.1,1.56a37.32,37.32,0,0,1-4,.63,1.58,1.58,0,0,1-1.86-1.71c0-7.67-1.72-15.16-2.43-22.75-.51-5.48-.58-11-1-16.51-.2-2.82-.63-5.63-1-8.43a3.79,3.79,0,0,1,1.2-3.59,16.48,16.48,0,0,1,3.82-2.64c7-3.1,14.19-4.92,21.89-4a16,16,0,0,1,4.25,1.16c2.72,1.15,4,3.44,3,6.23a32.75,32.75,0,0,1-3.36,7.24,59,59,0,0,1-15.48,16.8c.61.43,1.17.85,1.74,1.23,3.78,2.53,7.72,4.87,11.3,7.66a25.36,25.36,0,0,1,5.47,6.12c2.63,4,2.25,8-1.2,11.35-7.3,7.07-15.91,11.31-26.33,11a10,10,0,0,1-3.28-.6,3.29,3.29,0,0,1-1.71-1.61,1.75,1.75,0,0,1,1.13-2.14A16.47,16.47,0,0,1,149,63.8a26,26,0,0,0,8.77-3.43,82.22,82.22,0,0,0,7.83-5.29c2.07-1.61,2.27-3,.83-5.23a18.73,18.73,0,0,0-3.61-4.12c-2.59-2.19-5.38-4.15-8.07-6.22C154,38.92,153.23,38.26,152.23,37.42Zm-.64-8.19.49,0a24.71,24.71,0,0,1,1.74-2.55c2.34-2.67,4.77-5.26,7.11-7.93a82.53,82.53,0,0,0,6.19-7.42c1.57-2.29.64-3.88-2.14-4.2a25.4,25.4,0,0,0-10.86,1.2,3.14,3.14,0,0,0-2.49,3.29c0,3.39,0,6.78,0,10.17C151.58,24.31,151.58,26.77,151.58,29.23Z"/><path d="M66.49,50.34a17.15,17.15,0,0,0,1.39-2.91c.94-3.8,1.91-7.6,2.62-11.44,1.45-7.78,2.72-15.59,4.1-23.38a7.17,7.17,0,0,1,.72-2.27,5,5,0,0,1,8.47-.79,4.5,4.5,0,0,1,1.06,2.91C84.5,16,84,19.61,83.33,23.14c-1.37,7.18-3,14.31-4.3,21.51C78,50.33,77.09,56,74.82,61.34a31.75,31.75,0,0,1-3.2,5.59A4.53,4.53,0,0,1,67,68.83a15.56,15.56,0,0,1-2.85-.32,4.5,4.5,0,0,1-2.39-1.58,40.37,40.37,0,0,1-3.32-7A89,89,0,0,1,53.7,36.49c-.52-9.88,0-19.76,2.7-29.37A37.57,37.57,0,0,1,59.23.81,1.77,1.77,0,0,1,60.54,0a27.42,27.42,0,0,1,5,.29c3.87.71,4.85,4.06,4,7.25a24.27,24.27,0,0,1-1.38,3.31c-4.26,10.07-6.1,20.51-4.59,31.39a39.76,39.76,0,0,0,2,6.62A10.18,10.18,0,0,0,66.49,50.34Z"/><path d="M215.73,2.12a4.82,4.82,0,1,1-4.94,4.81A4.82,4.82,0,0,1,215.73,2.12Zm3.86,4.76a3.93,3.93,0,0,0-4-3.93,4,4,0,0,0-3.89,4,4,4,0,0,0,4,4A4,4,0,0,0,219.59,6.88Z"/><path d="M214.57,7.46c0,.66,0,1.21,0,1.76,0,.18-.22.35-.34.53-.16-.18-.45-.35-.45-.53,0-1.67,0-3.34,0-5.14.71,0,1.3,0,1.89,0,.93,0,1.91.08,2.2,1.23s-.31,1.74-1.33,2.12l1.43,2.3C216.1,9.88,216.44,7.29,214.57,7.46Zm.08-.59c.89-.31,1.56-.51,2.2-.8.08,0,0-.69-.07-.73-.66-.22-1.36-.35-2.13-.52Z"/><path class="cls-1" d="M103.37,19c-1,2.32-2.08,4.62-3,7-3.94,9.85-5.69,20.2-6.82,30.68-.23,2.19-.49,4.37-.69,6.56a5.34,5.34,0,0,1-4.7,4.9,32.72,32.72,0,0,1-4.64-.29c0-2.77-.13-5.29,0-7.79a157.1,157.1,0,0,1,5.53-33.89c1.62-5.62,3.59-11.12,7.13-15.89,1.9-2.56,4.17-4.72,7.49-5.18s6.5,0,8.53,3a9.11,9.11,0,0,1,1.46,4.1c.54,6.73.93,13.47,1.27,20.21.18,3.63.14,7.27.21,10.91a.76.76,0,0,0,.29.6c.3-.63.58-1.26.89-1.89,2.6-5.26,5.07-10.6,7.87-15.76a23.54,23.54,0,0,1,4.66-5.88,6.47,6.47,0,0,1,10.92,3.08,32.74,32.74,0,0,1,.74,7.83c.16,7.47.16,14.94.27,22.41.06,4.36.18,8.71.33,13.07a4,4,0,0,1-1.28,3.35,18.72,18.72,0,0,1-4,2.82c-2.35,1.13-4.26.17-4.82-2.37a46.39,46.39,0,0,1-1-7c-.33-5.1-.48-10.22-.73-15.33,0-1-.17-1.9-.29-3.25-.45.63-.74,1-1,1.35-2.55,4.39-5,8.83-7.67,13.16a34.82,34.82,0,0,1-3.9,5A7.88,7.88,0,0,1,114,66.18c-2.6,1.25-4.44.63-5.79-1.92-1.81-3.42-2.4-7.19-2.91-10.95a212.54,212.54,0,0,1-1.48-25.72q-.05-4-.13-7.91a4,4,0,0,0-.09-.55Z"/><path class="cls-1" d="M20.22,60.11c2.11-.34,4.24-.62,6.34-1C33,57.84,39.49,56.46,46,55.31a53.47,53.47,0,0,1,7.39-.55c.93,0,2.08.09,2.41,1.19s-.62,1.75-1.36,2.32A39.31,39.31,0,0,1,44,63.45a102.06,102.06,0,0,1-24.7,6.21C16,70,12.71,70,9.58,68.56c-4.4-2-5.85-5.24-4.47-9.88a37.12,37.12,0,0,1,4.81-9.62c4.81-7.35,10.56-14,16.36-20.52,3.39-3.83,6.81-7.64,10.18-11.49a25.09,25.09,0,0,0,2.09-2.77c.6-.92.39-1.59-.7-1.74A15.15,15.15,0,0,0,33,12.38c-5.6,1.13-11.15,2.49-16.72,3.75a26.71,26.71,0,0,1-11.9.08A9.43,9.43,0,0,1,1,14.69c-1.39-1-1.36-2.19,0-3.28a14.58,14.58,0,0,1,3-2C13,5.22,22.44,2.6,32.47,2.88A29.09,29.09,0,0,1,47,6.88a11.18,11.18,0,0,1,4.69,5,5.29,5.29,0,0,1-.29,5.57C48,22.17,44.78,27,41.31,31.6c-6.75,9-13.62,18-20.44,26.95-.3.4-.54.84-.81,1.26Z"/><path class="cls-1" d="M204.7,49.67l-10.09,1c-1.27.13-2.54.31-3.82.36-.91,0-1.29.4-1.24,1.31.23,4.18.4,8.37.69,12.55.06.86-.09,1.32-.88,1.66a11,11,0,0,1-6,.75c-.38-.05-.84-.65-1-1.09A52.66,52.66,0,0,1,180,46.85,113.67,113.67,0,0,1,185,18.25a36,36,0,0,1,5.65-11.31,10.3,10.3,0,0,1,10.69-4.07,7.06,7.06,0,0,1,4.39,2.69,23.68,23.68,0,0,1,4.59,11.2c.91,5.8,1.61,11.64,2.08,17.48A158.57,158.57,0,0,0,218,63.89a29.92,29.92,0,0,1,.88,4.46c.15,1.25-.24,1.44-1.37.89-6-2.94-9.6-7.78-11.32-14.13C205.66,53.3,205.19,51.5,204.7,49.67Zm-1.95-9.62c0-.36,0-.63,0-.9-.57-4.36-1.09-8.72-1.75-13.07-.57-3.75-1.19-7.49-2-11.2-.43-2-1.51-2.22-3-.73a4.5,4.5,0,0,0-.95,1.23,22.25,22.25,0,0,0-1.85,4.4c-1,4.56-1.86,9.15-2.63,13.75-.41,2.42-.51,4.89-.76,7.4Z"/><path class="cls-1" d="M152.23,37.42c.16,2.6.28,4.9.46,7.19.35,4.58.69,9.17,1.11,13.74.09,1-.2,1.41-1.1,1.56a37.32,37.32,0,0,1-4,.63,1.58,1.58,0,0,1-1.86-1.71c0-7.67-1.72-15.16-2.43-22.75-.51-5.48-.58-11-1-16.51-.2-2.82-.63-5.63-1-8.43a3.79,3.79,0,0,1,1.2-3.59,16.48,16.48,0,0,1,3.82-2.64c7-3.1,14.19-4.92,21.89-4a16,16,0,0,1,4.25,1.16c2.72,1.15,4,3.44,3,6.23a32.75,32.75,0,0,1-3.36,7.24,59,59,0,0,1-15.48,16.8c.61.43,1.17.85,1.74,1.23,3.78,2.53,7.72,4.87,11.3,7.66a25.36,25.36,0,0,1,5.47,6.12c2.63,4,2.25,8-1.2,11.35-7.3,7.07-15.91,11.31-26.33,11a10,10,0,0,1-3.28-.6,3.29,3.29,0,0,1-1.71-1.61,1.75,1.75,0,0,1,1.13-2.14A16.47,16.47,0,0,1,149,63.8a26,26,0,0,0,8.77-3.43,82.22,82.22,0,0,0,7.83-5.29c2.07-1.61,2.27-3,.83-5.23a18.73,18.73,0,0,0-3.61-4.12c-2.59-2.19-5.38-4.15-8.07-6.22C154,38.92,153.23,38.26,152.23,37.42Zm-.64-8.19.49,0a24.71,24.71,0,0,1,1.74-2.55c2.34-2.67,4.77-5.26,7.11-7.93a82.53,82.53,0,0,0,6.19-7.42c1.57-2.29.64-3.88-2.14-4.2a25.4,25.4,0,0,0-10.86,1.2,3.14,3.14,0,0,0-2.49,3.29c0,3.39,0,6.78,0,10.17C151.58,24.31,151.58,26.77,151.58,29.23Z"/><path class="cls-1" d="M66.49,50.34a17.15,17.15,0,0,0,1.39-2.91c.94-3.8,1.91-7.6,2.62-11.44,1.45-7.78,2.72-15.59,4.1-23.38a7.17,7.17,0,0,1,.72-2.27,5,5,0,0,1,8.47-.79,4.5,4.5,0,0,1,1.06,2.91C84.5,16,84,19.61,83.33,23.14c-1.37,7.18-3,14.31-4.3,21.51C78,50.33,77.09,56,74.82,61.34a31.75,31.75,0,0,1-3.2,5.59A4.53,4.53,0,0,1,67,68.83a15.56,15.56,0,0,1-2.85-.32,4.5,4.5,0,0,1-2.39-1.58,40.37,40.37,0,0,1-3.32-7A89,89,0,0,1,53.7,36.49c-.52-9.88,0-19.76,2.7-29.37A37.57,37.57,0,0,1,59.23.81,1.77,1.77,0,0,1,60.54,0a27.42,27.42,0,0,1,5,.29c3.87.71,4.85,4.06,4,7.25a24.27,24.27,0,0,1-1.38,3.31c-4.26,10.07-6.1,20.51-4.59,31.39a39.76,39.76,0,0,0,2,6.62A10.18,10.18,0,0,0,66.49,50.34Z"/><path class="cls-1" d="M215.73,2.12a4.82,4.82,0,1,1-4.94,4.81A4.82,4.82,0,0,1,215.73,2.12Zm3.86,4.76a3.93,3.93,0,0,0-4-3.93,4,4,0,0,0-3.89,4,4,4,0,0,0,4,4A4,4,0,0,0,219.59,6.88Z"/><path class="cls-1" d="M214.57,7.46c0,.66,0,1.21,0,1.76,0,.18-.22.35-.34.53-.16-.18-.45-.35-.45-.53,0-1.67,0-3.34,0-5.14.71,0,1.3,0,1.89,0,.93,0,1.91.08,2.2,1.23s-.31,1.74-1.33,2.12l1.43,2.3C216.1,9.88,216.44,7.29,214.57,7.46Zm.08-.59c.89-.31,1.56-.51,2.2-.8.08,0,0-.69-.07-.73-.66-.22-1.36-.35-2.13-.52Z"/></g></g></svg>